<?xml version="1.0" encoding="utf-8"?>
<!-- Generator: Adobe Illustrator 16.0.0, SVG Export Plug-In . SVG Version: 6.00 Build 0)  -->
<!DOCTYPE svg PUBLIC "-//W3C//DTD SVG 1.1//EN" "http://www.w3.org/Graphics/SVG/1.1/DTD/svg11.dtd">
<svg version="1.1" xmlns="http://www.w3.org/2000/svg" xmlns:xlink="http://www.w3.org/1999/xlink" x="0px" y="0px" width="1200px"
	 height="900px" viewBox="0 0 1200 900" enable-background="new 0 0 1200 900" xml:space="preserve">
<g id="Layer_5">
	<g id="XMLID_10_">
		<g>
			<path fill="#CACACA" d="M1193,325c2,2,1,10,1,13c0,3.5,0,7.76,0,11.45c-0.5,3.13-1.23,6.19-3,8.55c-3,4-5,9-11,10c-5,1-10-1-15,0
				c-2,0-3,1-6,1c-2,0-4-1-7-2c-2-1-3,0-6,0c-2,0-5,0-7,0c-6,0-10,3-15,6c-6,5-12,9-20,12c-6,3-12,6-18,9c-5,2-10,5-15,4
				c-3,0-6-1-9-1s-6,1-9,1c-5,1-10,2-15,0c-13-6-28-4-42-2c-7,1-14,1-21,1c-10-1-20,0-30,1c-15,2-30,6-45,8c-13,2-27,1-40,1
				c-6,0-12,0-19,0c-5-1-11-2-16-4c-10-2-19-4-28-7c-4-1-8-4-12-5s-8-2-13-2c-4,0-8,0-12,0c-5,0-6-4-9-8c-5-7-13-11-15-19
				c0-2,0-4,0-6c0-1-1-3-1-5c0-1,2-3,2-5c0-1,0-2,1-4c0,3-1,5-1,8l3-5.25V345c1,0,2-1,3-1s2,0,3-1c1,0,1-1,2-2c1,0,3,0,4,0
				c2,0,4,0,6-1c3-1,6-2,9-3s6-2,9-3c4-2,9-2,14-3c1,0,2-1,2-1c2,0,3,1,5,1c3,0,5,1,8,2c1,1,2,2,4,2c1,0,3-1,5-1c3-1,5-2,8-2
				c2,0,3,1,4,2c0,1,1,2,2,2s1,0,2,0h1c0,1-1,1-2,1c-2,1-6,2-7,4c1,2,6-2,7-3c0,2,5,0,7-1c3-1,5-2,8-4c3-1,6-4,9-5c3-2,6-3,9-5
				c7-3,11-11,18-14c2-2,5-1,8-1s6-1,9-1s7-1,9,0s4,2,6,3c2,0,3,0,5,0c3,0,6,2,10,2s8-2,12-4c3-1,5-1,8-2s6-2,10-2c3-1,6-2,8-5
				c2-2,3-6,7-7c-1,0-1,0-2,0c0-2,4-4,5-5c2-1,4-2,6-4c2-1,3-2,6-3c2,0,4-2,6-3c5-1,9-6,13-10c3-3,7-6,12-7c1-2,5-4,7-5c3-2,6-4,9-6
				c2-1,4-2,5-3c2,0,3,0,5-1s6-6,8-6c0,1,0,2,0,2c2-2,1-3,5-2c2,1,3,2,4,4c3,4,6,9,8,13c1,2,1,3,1,5c0,3-1,6-1,8c1,6,7,6,11,6
				c2,0,4,0,6,1c2,0,4-1,7-1c2,0,4,0,6,1s5,4,7,6c4,3,7,7,12,10c4,3,7,8,11,11c5,3,8,6,14,7c4,2,8,3,13,5c4,1,7,5,11,6c5,1,8,4,13,4
				c2,0,4,0,6,0S1191,324,1193,325z"/>
		</g>
		<g>
			<path fill="none" stroke="#CACACA" stroke-miterlimit="10" d="M1194,349.45c-0.5,3.13-1.23,6.19-3,8.55c-3,4-5,9-11,10
				c-5,1-10-1-15,0c-2,0-3,1-6,1c-2,0-4-1-7-2c-2-1-3,0-6,0c-2,0-5,0-7,0c-6,0-10,3-15,6c-6,5-12,9-20,12c-6,3-12,6-18,9
				c-5,2-10,5-15,4c-3,0-6-1-9-1s-6,1-9,1c-5,1-10,2-15,0c-13-6-28-4-42-2c-7,1-14,1-21,1c-10-1-20,0-30,1c-15,2-30,6-45,8
				c-13,2-27,1-40,1c-6,0-12,0-19,0c-5-1-11-2-16-4c-10-2-19-4-28-7c-4-1-8-4-12-5s-8-2-13-2c-4,0-8,0-12,0c-5,0-6-4-9-8
				c-5-7-13-11-15-19c0-2,0-4,0-6c0-1-1-3-1-5c0-1,2-3,2-5c0-1,0-2,1-4c0,3-1,5-1,8l3-5.25l0.43-0.75"/>
			<path fill="none" stroke="#CACACA" stroke-miterlimit="10" d="M1194,349.45c0,0.53,0,1.05,0,1.55c0,3,0,4,1,6c1,1,1,4,2,6
				c1-2,0-6,0-9s0-6,0-9s0-6,0-9c0-2,1-3,1-5s-1-3-1-4c0,2-1,5-1,7c0,3,0,6-1,9C1194.59,345.05,1194.35,347.27,1194,349.45z"/>
			<path fill="none" stroke="#CACACA" stroke-miterlimit="10" d="M740.43,344H740v0.75V345c1,0,2-1,3-1s2,0,3-1c1,0,1-1,2-2
				c1,0,3,0,4,0c2,0,4,0,6-1c3-1,6-2,9-3s6-2,9-3c4-2,9-2,14-3c1,0,2-1,2-1c2,0,3,1,5,1c3,0,5,1,8,2c1,1,2,2,4,2c1,0,3-1,5-1
				c3-1,5-2,8-2c2,0,3,1,4,2c0,1,1,2,2,2s1,0,2,0h1c0,1-1,1-2,1c-2,1-6,2-7,4c1,2,6-2,7-3c0,2,5,0,7-1c3-1,5-2,8-4c3-1,6-4,9-5
				c3-2,6-3,9-5c7-3,11-11,18-14c2-2,5-1,8-1s6-1,9-1s7-1,9,0s4,2,6,3c2,0,3,0,5,0c3,0,6,2,10,2s8-2,12-4c3-1,5-1,8-2s6-2,10-2
				c3-1,6-2,8-5c2-2,3-6,7-7c-1,0-1,0-2,0c0-2,4-4,5-5c2-1,4-2,6-4c2-1,3-2,6-3c2,0,4-2,6-3c5-1,9-6,13-10c3-3,7-6,12-7c1-2,5-4,7-5
				c3-2,6-4,9-6c2-1,4-2,5-3c2,0,3,0,5-1s6-6,8-6c0,1,0,2,0,2c2-2,1-3,5-2c2,1,3,2,4,4c3,4,6,9,8,13c1,2,1,3,1,5c0,3-1,6-1,8
				c1,6,7,6,11,6c2,0,4,0,6,1c2,0,4-1,7-1c2,0,4,0,6,1s5,4,7,6c4,3,7,7,12,10c4,3,7,8,11,11c5,3,8,6,14,7c4,2,8,3,13,5c4,1,7,5,11,6
				c5,1,8,4,13,4c2,0,4,0,6,0s5-1,7,0c2,2,1,10,1,13c0,3.5,0,7.76,0,11.45"/>
			<polygon fill="none" stroke="#CACACA" stroke-miterlimit="10" points="740.43,344 741,343 741,344 			"/>
		</g>
	</g>
	<g id="XMLID_11_">
		<g>
			<path fill="#CACACA" d="M361,341c1,0,6-1,6,1s-5,5-6,7c-4,3-8,7-11,11s-5,6-8,9c-4,4-9,9-13,14c-2,3-6,6-10,8c-2,1-5,2-7,2
				c-5,2-10,4-16,5c-7,2-13,5-20,7c-5,2-10,2-16,2c-10,0-20,0-29,0c-6,0-11,1-17,0c-4-1-8-2-13-2c-5-1-11-2-16-3s-10,1-15,1
				c-3,0-5,1-8,1c-4,0-7,0-10,0c-7,2-15,4-22,7c-15,4-31,7-47,7c-6,0-13,0-19-1c-4-1-8-1-11-2c-4-1-7-2-10-3c-4-1-9-4-13-4
				c-3,1-6,3-8,4c-4,1-7,1-10,2c-3,2-4,4-6,6c0,1-1,2-1,2c-2,0-2-3-2-3c-1-3,0-5,0-7c0-6,0-12,0-17c0-3-1-6-1-9c0-4,0-7,0-11
				c0-3-1-5-1-8c0-2,0-4,0-7c-1-4-2-8-2-13c1-3,2-8,2-12c0-0.77,0-0.95,0-1.45c0.34-0.33,0.67-0.55,1-0.55c2,0,4,0,5,0c1-1,3-2,4-2
				c3-3,6-7,8-11c3-3,5-5,8-8c3-4,7-7,11-9c4-3,7-6,9-9s2-3,4-2c1,1,2,1,3,2c3,1,5,3,8,4s6,3,9,4c3,0,6,0,9,0c5,0,12-3,18,0
				c3,2,5,5,8,6s6,2,9,3s3,3,5,6c2,1,5,7,8,5c-1,3,3,2,5,2c3,1,6,2,8,3c5,3,10,6,15,5c3-1,6-2,8-2c4-1,6-1,8,1c4,3,4,4,8,2
				c3-1,5-3,7-5c3-2,6-4,8-6c2-3,2-7,4-9s3-1,4,0c2,1,2,1,4,0s4-2,7-2c2-1,5-3,8-1c2,1,0,6,5,5c3-1,6-3,8-4s5-3,5,0c1,0,4,2,5,3
				s2,3,3,5c2,2,4,5,5,8c2,2,5,4,6,7c3,5,9,9,15,11c2,1,4,1,6,2c4,1,5,3,8,3c4,0,6,0,9-1c6-1,11-4,16-5c3-1,5-1,8,0s4,1,7,0
				c2,0,3,0,5,0c1,0,2-1,4-1c3-1,5-1,8-1c2,0,4,0,5,0s2,1,3,1C356,343,358,341,361,341z"/>
		</g>
		<g>
			<path fill="none" stroke="#CACACA" stroke-miterlimit="10" d="M1,333.55c-0.33,0.34-0.67,0.78-1,1.23"/>
			<path fill="none" stroke="#CACACA" stroke-miterlimit="10" d="M1,333.55c0,0.5,0,0.68,0,1.45c0,4-1,9-2,12c0,5,1,9,2,13
				c0,3,0,5,0,7c0,3,1,5,1,8c0,4,0,7,0,11c0,3,1,6,1,9c0,5,0,11,0,17c0,2-1,4,0,7c0,0,0,3,2,3c0,0,1-1,1-2c2-2,3-4,6-6c3-1,6-1,10-2
				c2-1,5-3,8-4c4,0,9,3,13,4c3,1,6,2,10,3c3,1,7,1,11,2c6,1,13,1,19,1c16,0,32-3,47-7c7-3,15-5,22-7c3,0,6,0,10,0c3,0,5-1,8-1
				c5,0,10-2,15-1s11,2,16,3c5,0,9,1,13,2c6,1,11,0,17,0c9,0,19,0,29,0c6,0,11,0,16-2c7-2,13-5,20-7c6-1,11-3,16-5c2,0,5-1,7-2
				c4-2,8-5,10-8c4-5,9-10,13-14c3-3,5-5,8-9s7-8,11-11c1-2,6-5,6-7s-5-1-6-1c-3,0-5,2-8,2c-1,0-2-1-3-1s-3,0-5,0c-3,0-5,0-8,1
				c-2,0-3,1-4,1c-2,0-3,0-5,0c-3,1-4,1-7,0s-5-1-8,0c-5,1-10,4-16,5c-3,1-5,1-9,1c-3,0-4-2-8-3c-2-1-4-1-6-2c-6-2-12-6-15-11
				c-1-3-4-5-6-7c-1-3-3-6-5-8c-1-2-2-4-3-5s-4-3-5-3c0-3-3-1-5,0s-5,3-8,4c-5,1-3-4-5-5c-3-2-6,0-8,1c-3,0-5,1-7,2s-2,1-4,0
				c-1-1-2-2-4,0s-2,6-4,9c-2,2-5,4-8,6c-2,2-4,4-7,5c-4,2-4,1-8-2c-2-2-4-2-8-1c-2,0-5,1-8,2c-5,1-10-2-15-5c-2-1-5-2-8-3
				c-2,0-6,1-5-2c-3,2-6-4-8-5c-2-3-2-5-5-6s-6-2-9-3s-5-4-8-6c-6-3-13,0-18,0c-3,0-6,0-9,0c-3-1-6-3-9-4s-5-3-8-4c-1-1-2-1-3-2
				c-2-1-2-1-4,2s-5,6-9,9c-4,2-8,5-11,9c-3,3-5,5-8,8c-2,4-5,8-8,11c-1,0-3,1-4,2c-1,0-3,0-5,0C1.67,333,1.34,333.22,1,333.55z"/>
			<path fill="none" stroke="#CACACA" stroke-miterlimit="10" d="M0,334.78c0-0.59,0-1.19,0-1.78c1,0,1,0,1,0c0,0.23,0,0.4,0,0.55"
				/>
			<path fill="none" stroke="#CACACA" stroke-miterlimit="10" d="M-1,336h1c0-0.41,0-0.81,0-1.22C-0.34,335.22-0.67,335.67-1,336z"
				/>
		</g>
	</g>
</g>
<g id="Layer_6">
	<g id="XMLID_12_">
		<g>
			<path fill="#FFFFFF" d="M59.5,298.5v0.5c-0.5,0.5-1.5,1.5-1.5,2c-1.5,1-1.5,1.5-3,1.5s-2.5,0-4,1s-3,1.5-4.5,2
				c-2.5,1-4.5,3-6.5,4.5c-4,4-8,8.5-13,11.5c-3,2-6,5-9.5,7c-1.5,1-3,1.5-4.5,2.5c-2,1-2.5,1-4.5,0.5c0-0.5,0.5-0.5,1-0.5L9,330.5
				v0.5H8.5c0.5-1,1-2,2-2.5c0.5,0,1,0,1.5,0c1.5-0.5,2.5-1.5,3.5-2c3.5-1,5.5-4,8-6C26,318,28,315,30,312c1.5-1,2.5-2,4-3
				c1.5-1.5,2-2.5,3.5-4c0.5-0.5,1-0.5,2-1c0.5-1,1.5-2,2-2.5c1.5-1,3-2.5,4.5-3.5s2.5-2.5,4-3.5c1,0,1.5,0,2.5-0.5c0.5-0.5,1-1,2-1
				c1.5,0,2,2,3,3.5C58,297,59.5,297.5,59.5,298.5z"/>
		</g>
		<g>
		</g>
	</g>
	<g id="XMLID_13_">
		<g>
			<path fill="#FFFFFF" d="M131.5,333c0,1,1,2.5,0.5,3.5s-1.5,1-2,1c-1-0.5-2-0.5-2.5-0.5c-2.76-0.46-3.4-2.61-3.1-4.9l0.6-0.6v0.5
				h0.5l-0.5-0.5c0.78-0.36,1.71-0.5,2.5-0.5c0.5,0,1,0.5,1.5,0.5s1,0,1,0.5c0.5,0,1,0,1,0.5S131,333,131.5,333z"/>
			<path fill="#FFFFFF" d="M125,331.5l-0.6,0.6c0.01-0.09,0.03-0.19,0.05-0.29C124.62,331.68,124.8,331.58,125,331.5z"/>
			<path fill="#FFFFFF" d="M124.5,331.5h0.5c-0.2,0.08-0.38,0.18-0.55,0.31C124.46,331.71,124.48,331.6,124.5,331.5z"/>
			<path fill="#FFFFFF" d="M124.45,331.81c-0.02,0.1-0.04,0.2-0.05,0.29l-0.9,0.9C123.67,332.49,124.01,332.1,124.45,331.81z"/>
		</g>
		<g>
		</g>
	</g>
	<g id="XMLID_14_">
		<g>
			<path fill="#FFFFFF" d="M216,313c1.5-0.5,3,1.5,2.5,3s-2.5,3.5-3.5,4c-2,2-5,2-6.5,3.5s-2.5,2-4,3c-0.5,0-1,0.5-1,0.5
				c-1,0.5-1.5,1-2,1.5s-1.5,0.5-2,1.5c-1,0-2,1.5-3,2s-1.5,1.5-2.5,2s-2,1-3,1.5c-0.5,0-2,0.5-2.5,0.5c-0.33,0-0.66,0-0.99-0.15
				c0.05-1.44,0.91-2.77,2.05-3.97c1.19-1.26,2.69-2.38,3.94-3.38c0.5-0.5,2-1.5,2.5-2.5c0.5-0.5,0.5-1,1-1.5s1-1.5,1-2
				s0.5-1,0.5-1.5c0.5-2,0.5-2.5,2.5-3.5c1,0,2-0.5,3.5-0.5s2,0,3.5-0.5c1-0.5,2.5-0.5,4-1C213,315,214.5,313,216,313z"/>
			<path fill="#FFFFFF" d="M187.51,335.85c-0.01,0.05-0.01,0.1-0.01,0.15v-0.15H187.51z"/>
			<path fill="#FFFFFF" d="M187.5,335.5v0.35c-0.17-0.07-0.33-0.18-0.5-0.35H187.5z"/>
		</g>
		<g>
		</g>
	</g>
	<g id="XMLID_15_">
		<g>
			<path fill="#FFFFFF" d="M240.5,314c1,0.5,2.5,3,2.5,4c0,1.12-0.56,1.48-1.32,1.48c-1.26,0-3.06-0.98-3.68-0.98c0-1-1-1.5-1-2.5
				h-1c0,0,0,0,0-0.5l-0.15-0.15c0.57-1.26,0.51-2.35,2.65-2.35C239.5,313,240,313,240.5,314z"/>
			<path fill="#FFFFFF" d="M235.5,315l0.35,0.35c-0.09,0.21-0.2,0.43-0.35,0.65C235.5,315.67,235.5,315.33,235.5,315z"/>
		</g>
		<g>
		</g>
	</g>
	<g id="XMLID_16_">
		<g>
			<path fill="#FFFFFF" d="M325,345c0.5,0,1.5,0,1.5,1c0,0.5-0.5,1-1,1.5c-1,1-2,2.5-3,3c-1.5,1-3,1-4.5,1c-1,0-2,0-3.5,0.5
				c-1,0.5-2.5,0-3.5,0c-2.5,0.5-5,1.5-8,1.5c-1,0-1,0-1.5-0.5c-0.47-0.47-0.94-1.38-0.99-1.9c1.05-1.35,2.4-2.87,3.49-3.6
				c1.5-0.5,3,0,4-0.5c1,0,1.5-0.5,2.5-0.5s1.5-0.5,2.5-0.5c0.5,0,1,0,1,0c1,0,1-0.5,2-0.5c0.5,0,1.5,0,2.5,0c0.5,0,1-0.5,2-0.5
				C322,345,323.5,345,325,345z"/>
			<path fill="#FFFFFF" d="M300.5,351c0,0.03,0,0.06,0.01,0.1c-0.39,0.51-0.74,0.99-1.01,1.4v-2C300,351,300,351,300.5,351z"/>
		</g>
		<g>
		</g>
	</g>
	<g id="XMLID_17_">
		<g>
			<path fill="#FFFFFF" d="M796.5,330.5c0,1.5-1,2-2,2s-1.5,0.5-2.5,1c-1,0-2,0-3,0.5c-0.5,0-1.5,0.5-2.5,1c-2,0.5-4,0-6,0.5
				c-1.5,0.5-3.5,1.5-5.5,2c-3.5,1-6.5,1-10,1c-0.11,0-0.22,0-0.33-0.01c0.61-0.02,1.08-0.11,1.83-0.49c1.5-0.5,3-1.5,5-2
				c1-0.5,2-0.5,3-1c0.5-0.5,1.5-0.5,2.5-1c1.5,0,3,0,4.5-0.5c1,0,1.5,0,2,0c0.5-0.5,1-1,1.5-1c2-1.5,4-1.5,6.5-1.5c0.5,0,1,0,1,0
				C793.5,331,795.5,330.5,796.5,330.5z"/>
			<path fill="#FFFFFF" d="M764.62,338.49c-0.19,0.01-0.39,0.01-0.62,0.01c-0.5,0-0.5,0.5-1.5,0.5c-0.93,0-1.86,0.43-2.38-0.31
				c0.11-0.05,0.229-0.12,0.38-0.19C761.42,338.04,763.17,338.42,764.62,338.49z"/>
			<path fill="#FFFFFF" d="M760,338.5c0.04,0.07,0.07,0.14,0.12,0.19c-0.64,0.31-0.771,0.31-1.62,0.31c-0.14,0-0.24,0-0.33,0
				C758.7,338.72,759.3,338.5,760,338.5z"/>
			<path fill="#FFFFFF" d="M758.17,339c-0.229,0.13-0.45,0.26-0.67,0.41V339C757.86,339,757.96,339,758.17,339z"/>
			<path fill="#FFFFFF" d="M757.5,339.41v0.09c0,0.5,0,1-0.5,1h-0.5c0-0.5,0-0.5,0-0.5C756.83,339.84,757.15,339.62,757.5,339.41z"
				/>
		</g>
		<g>
		</g>
	</g>
	<g id="XMLID_18_">
		<g>
			<path fill="#FFFFFF" d="M894,309.5c2,1.5,2,3.5,0,5c-1.5,1-3.5,1-5.5,2c-1.5,0.5-3,2-4.5,3c-4,2-8,4.5-11.5,7c-1,0.5-2,1.5-3,2
				c-0.5,0.5-1.5,0.5-2,1c-2,1-4.5,1-6.5,2c-1.5,0.5-2.5,1-4,2c-0.5,0.5-0.5,1-1,1c-1.5,0.5-3.5,1.5-4.5,1
				c-1.9-0.38-0.63-1.91-0.12-3.06l0.12,0.06h0.5V332c-0.27,0-0.39,0-0.45-0.08c0.01-0.05,0.01-0.1,0.01-0.15
				c0-0.1-0.02-0.19-0.06-0.27c0,0.23,0,0.35,0.05,0.42c-0.03,0.16-0.09,0.33-0.17,0.52L850.5,332c1-1.5,2.5-2,4-2.5c2-0.5,4-1,6-2
				c2-1.5,4-3,6-4c0.5,0,1,0,1.5,0c2-1,4-2.5,5.5-3.5c2-1.5,4-2,5.5-3.5c1-0.5,2.5-1.5,3.5-2c0.5-0.5,1-1.5,1.5-1.5
				c0.5-0.5,1.5-1.5,2.5-2c0.5-0.5,0.5-1.5,1.5-2c0.5,0,1,0,1.5,0c1,0,2.5-0.5,2.5,0.5C893,309.5,893,309,894,309.5z"/>
			<path fill="#FFFFFF" d="M852,332v0.5h-0.5l-0.12-0.06c0.08-0.19,0.14-0.36,0.17-0.52C851.61,332,851.73,332,852,332z"/>
			<path fill="#FFFFFF" d="M851.56,331.77c0,0.05,0,0.1-0.01,0.15c-0.05-0.07-0.05-0.19-0.05-0.42
				C851.54,331.58,851.56,331.67,851.56,331.77z"/>
		</g>
		<g>
		</g>
	</g>
	<g id="XMLID_19_">
		<g>
			<path fill="#FFFFFF" d="M979,288c0.39,1.18-1.08,2.37-2.21,3.05c-0.26,0.06-0.53,0.19-0.79,0.45c0.21-0.11,0.49-0.26,0.79-0.45
				c0.24-0.05,0.47-0.05,0.71-0.05c0,0.5-0.5,1.5-0.5,2s0,1,0,1.5s-0.5,0.5-0.5,1s0,1,0,1c-0.5,0.5-1,1-1,1.5s-0.5,1.5-0.5,2
				c-1,2-1.5,4.5-3,6c-1,1-2,0.5-3.5,0c-1,0-3.5-1-4-2c-0.5-0.5,0.5-2.5,0.5-3.5c0.5-1,0.5-1.5,1-2.5c1-1.5,2-3,2.5-4.5
				c0-1,0-2,1-2.5h0.5c0.5,0,0.5,0.5,1,0.5c1.5,0,3-1.5,4-2C975.5,289,978,286.5,979,288z"/>
		</g>
		<g>
		</g>
	</g>
	<g id="XMLID_20_">
		<g>
			<path fill="#FFFFFF" d="M1043,241.5c1,0,4-0.5,5,0c-1.5,4-5.5,4.5-8.5,6.5c-3.5,2.5-5.5,6-9,8.5c-4,2.5-6.5,6-10,9
				c-1,1.5-2.5,2.5-3.5,3.5s-2.5,2-3.5,2.5c-1.5,1-2,1-4,0c-1,0-1,0-1-0.5c-1-1.5,0-2,0-3c0.5-1.5,0-2.5,0.5-3.5
				c0.5-0.5,1.5-2.5,2-2.5c0-0.34,0-0.68,0.16-1.02l1.34,4.02c0-4,1.5-6.5,4.5-9.5s7-3,10.5-4.5c4-1.5,7-3.5,10-6
				C1039,243.5,1041,242,1043,241.5z"/>
		</g>
		<g>
		</g>
	</g>
	<g>
		<g>
			<path fill="#CACACA" d="M1010.5,263.5c-0.001,0.159,0.088,0.483-0.133,0.518c0.162,0.042,0.324,0.085,0.486,0.128
				c-0.157-0.157-0.314-0.315-0.473-0.472c0.227,0.227,0.167-0.039,0.225-0.233c0.083-0.275,0.246-0.524,0.4-0.763
				c0.521-0.807,1.5-1.63,2.494-1.678c0.642-0.031,0.645-1.031,0-1c-1.784,0.086-3.416,1.7-3.911,3.352
				c-0.2,0.665,0.056,1.227,0.659,1.58c0.92,0.539,1.248-0.86,1.252-1.432C1011.504,262.855,1010.504,262.855,1010.5,263.5
				L1010.5,263.5z"/>
		</g>
	</g>
	<g id="XMLID_21_">
		<g>
			<path fill="#FFFFFF" d="M1092.94,276.81c0.56,0.31,1.06,0.69,1.06,1.19c-2,2-6,3-9,2.5c-0.5,0-2-0.5-2-1.5
				c0-0.09,0.02-0.17,0.05-0.23l0.95-0.27h0.5c0-0.5,0-0.5-0.5-0.5c-0.41,0.41-0.82,0.48-0.95,0.77l-2.55,0.73
				c0.5-1.5,0.5-1.5,1.5-2s2-1.5,3.5-1.5c1-0.5,2-0.5,3.5-0.5c1,0,1.5,0,2.5,0.5C1091.75,276.25,1092.38,276.5,1092.94,276.81z"/>
		</g>
		<g>
		</g>
	</g>
</g>
<g id="Layer_1">
	<g>
		<g>
			<path d="M1029,409.251c0.222,0,0.444,0,0.666,0c1.076,0,2.21-0.173,3.182-0.659c0.601-0.3,1.318-0.831,1.318-1.591
				s-0.718-1.291-1.318-1.591c-0.972-0.486-2.105-0.659-3.182-0.659c-0.222,0-0.444,0-0.666,0c-1.076,0-2.21,0.173-3.182,0.659
				c-0.601,0.3-1.318,0.831-1.318,1.591s0.718,1.291,1.318,1.591C1026.79,409.078,1027.924,409.251,1029,409.251L1029,409.251z"/>
		</g>
	</g>
	<g>
		<g id="XMLID_1_">
			<g>
				<path fill="#8B8C8B" d="M596.371,290.35l0.04-0.02c0-1.33,0.671-1.33,1.333-2c1.343-0.66,3.348-3.33,5.353-3.33
					c0.661,0,0.661-0.67,1.333-0.67c1.333,0,2.676-0.66,4.009-0.66s2.677-0.67,4.682-0.67c2.666-1.33,4.671-3.33,7.347-5.33
					c4.01-2,8.02-3.34,11.357-5.34c1.343-0.66,2.005-1.33,4.009-1.33c1.344,0,2.005,0.67,3.349,1.33c0,0,0.661,0.67,1.333,0.67
					c2.676,0.67,6.014,1.33,9.352,2.67c2.005,0.66,4.01,2,6.687,3.33c2.004,1.33,4.681,2,7.347,3.33c4.682,2.67,10.695,6,14.033,10
					c1.344,2,3.348,5.34,4.01,7.34c0.351,1.76,0.331,3.89,0.24,6c0.141,0,0.291,0,0.432,0c0.671,1.33,2.004,2.66,2.676,4
					c1.333,2.66,2.666,5.33,4.671,7.33c2.005,1.33,2.677,2,2.677,4c0.671,2,1.333,3.33,2.005,5.33c0.671,2.67,1.333,6.67,3.338,8.67
					c1.343,1.33,2.676,2,4.681,2.67c0.672,0,1.333,0.66,2.005,0.66c1.333,0,2.676-0.66,3.338-1.33c1.343,0,3.348-1.33,4.681-1.33
					c0.672,0,1.333,0.66,2.005,0.66c1.333,0,2.005-0.66,3.338-0.66c0.672,0,1.343,0.66,2.677,0.66c1.333,0,2.676,0,4.009,0.67
					c2.005,0.67,4.01,2,5.343,3.33c1.343,0.67,2.677,2,3.348,2.67c2.005,0.67,2.667,2,4.671,3.33c1.344,1.34,3.349,1.34,5.353,2.67
					c3.338,2,5.343,4,8.02,6.67c2.005,2,3.338,3.33,5.343,4.66c1.333,1.34,2.676,4,4.681,5.34c2.666,2.66,6.676,3.33,9.353,6
					c2.676,2,6.014,4.66,9.352,6.66c1.343,0.67,2.005,0.67,4.01,0.67c1.343,0,2.005,0.67,4.009,0.67c1.033,0,2.446-0.39,3.649-1.18
					l0.36,0.51c0,0,0,0.67-0.661,0.67v0.66c1.333,0,2.005-0.66,3.338-0.66c0.671,0,0.671,0.66,0.671,0.66l1.333-0.66
					c2.005-0.67,3.338-0.67,5.343-0.67c0.672,0,1.344,0,2.005,0c2.677,0,4.682-0.67,7.357-1.33c1.333,0,2.005,0,3.338,0
					c0.672,0,1.333-0.67,2.677-0.67c2.004,0,4.671-0.67,7.347-1.33c2.005-0.67,3.338-0.67,5.343-0.67s4.01,0,5.353-0.67
					c1.333,0,3.338-0.66,5.343-1.33c1.333,0,2.677,0,4.681,0c2.005,0,3.338,0.67,5.343,0.67s4.01,0,6.015-0.67
					c3.338-0.67,7.347-2,10.695-2.67c3.338-0.66,6.676-2,10.023-2c0.661,0,0.661,0,1.333,0c2.005,0,3.338,0,4.681-0.66
					c1.334,0,2.005,0,2.667,0c1.343,0,2.676-1.34,4.009-1.34c3.349-0.66,7.357-2,11.367-3.33s8.681-3.33,12.689-4.67
					c0.672-0.66,2.005-0.66,2.677-1.33c2.677-0.67,5.343-0.67,8.019-1.33c2.005-0.67,3.338-1.34,5.343-1.34
					c0.672,0,1.344-0.66,2.677-0.66s2.005,0.66,2.676,1.33c2.005,2,4.01,2,6.015,3.33c1.684,0.56,2.426,2.54,3.408,3.95l-0.07,0.05
					c0,1.34,0,2,0.671,2.67c0.662,0.67,1.334,1.33,2.005,2c2.005,3.33,6.015,2.67,8.681,4c1.344,0.67,2.005,1.33,3.348,1.33
					c2.005,0,2.667,0,4.01,0.67c1.333,0.67,2.005,0.67,3.338,0.67c0.672,0,2.005,0,2.677,0c0.661,0,1.333,0.66,2.004,0.66
					c0.662,0,2.005-0.66,3.338-0.66c0.672,0,1.334,0.66,2.677,0.66c0,0,0.661,0,1.333,0s2.005,0.67,3.338,0.67
					c2.005,0.67,4.01,0,6.686,0c2.677,0,4.682,1.33,7.348,2.67c1.343,0,1.343,0,2.005,0.66c2.005,0.67,4.009,0.67,6.686,0.67
					c3.338,0,4.681-1.33,7.348-4c1.343-0.67,2.676-2,3.348-3.33c0.661-0.67,1.333-1.34,2.005-2c0.661,0,2.005-0.67,3.338-0.67
					c2.005-0.67,2.676,0.67,4.009,1.33c2.005,2,5.343,2.67,6.687,5.34l-0.662,0.67l0.662,0.66v0.67
					c0.661,0.66,1.333,0.66,2.005,0.66c0.661,0,0.661-0.66,1.333-0.66c0.671,0,2.005,0,2.676,0c2.666,0,4.671-0.67,6.676-0.67
					c1.344,0.67,2.677,0.67,4.01,0.67c2.005,0,4.01,0,6.014,0c2.677,0,6.015,0,8.69,0c3.338,0,6.687-2,10.695-2.67
					c2.667-0.67,6.676-0.67,9.353,0c1.333,0,2.676,0.67,4.681,0.67c2.005-0.67,3.338-0.67,5.343-0.67c3.338,0,6.686,0,10.023,0
					c1.333,0,2.677-0.67,4.01-0.67c2.005,0,4.01,0.67,6.014,0.67c3.338,0,6.015,0,8.691,0c2.004,0,3.338,0,5.342,0
					c0.672,0,2.005,0,2.677,0c1.333-0.67,2.005-1.33,3.338-2s3.338,0,5.343,0c3.348-0.67,7.357-2,10.023-3.33
					c1.343-0.67,2.676-1.34,4.01-1.34c1.343,0.67,1.343,2,3.348,2c-0.441,0.44-0.882,0.74-1.323,0.94
					c-0.571-0.15-1.173-0.27-2.024-0.27c-1.233,0-2.477,1.14-3.719,1.31c1.242-0.07,2.436-0.64,3.057-0.64
					c0.893,0,1.784,0,2.687-0.4c0.782,0.18,1.493,0.4,2.656,0.4c-1.333,0-2.005,0-2.677,0c1.344,0,3.349,0.66,4.682,0.66
					c2.005,0,4.01,0,6.014,0c3.338,0.67,8.02,1.34,12.028,0c3.338-0.66,6.687-1.33,10.695-2c3.338-1.33,6.676-1.33,10.024-1.33
					l4.34,531H0.004l-0.301-482.24c2.987,0,4.491-1.49,5.984-1.49c0-2.99,13.462-1.49,14.956-1.49c7.487,0,11.968-7.47,19.456-10.45
					c7.478-1.49,13.462-5.97,20.939-7.46c2.997-1.5,5.984-1.5,8.981-1.5c4.48,0,5.984-1.49,10.464-1.49c7.488,0,13.472,0,20.95,0
					c4.491,0,7.478-1.49,10.475-1.49c4.491,0,7.478,1.49,10.475,2.98c7.478,1.5,13.462,1.5,20.939,1.5
					c5.984,0,10.475,2.98,16.459,2.98c7.478,1.49,14.955,2.99,22.443,2.99c5.984,0,8.971-1.5,14.955-2.99
					c1.504,0,4.491,0,5.984-1.49c2.997-1.49,2.997-2.99,7.487-4.48c2.987-1.49,5.984-1.49,10.465-1.49c2.997,0,5.984,0,10.475,0
					c2.997,1.49,5.984,1.49,8.981,1.49c4.48,1.49,7.478,1.49,10.464,1.49c4.491,0,8.981,1.5,11.968,1.5
					c4.491,0,5.984,1.49,10.475,1.49c1.493,0,2.997,0,4.49,0c1.494,0,2.987,1.49,5.984,1.49c2.997,1.49,16.458,1.49,16.458-4.48
					l-0.331-0.05c0.311-0.13,0.602-0.3,0.882-0.49c0.752-0.5,1.414-1.17,2.085-1.83c1.343-0.67,3.348-3.33,4.681-3.33
					c0.672-1.34,4.01-2.67,5.343-4c2.005-1.34,3.348-3.34,6.014-4.67c2.676-1.33,6.014-3.33,8.69-5.33
					c2.005-1.34,4.009-2.67,6.014-4c2.676-1.34,5.343-3.34,8.019-5.34c3.338-2.66,6.686-4.66,10.023-6.66
					c2.005-1.34,4.01-2,6.014-2.67c2.005-1.33,3.338-2.67,4.681-4c2.667-2,5.343-4.67,8.681-6.67c2.004-2.66,5.353-2.66,8.019-4.66
					c3.348-2.67,6.014-4.67,9.362-7.34c1.333-0.66,2.666-1.33,4.009-2.66c2.005-1.34,3.338-2.67,4.671-4
					c2.004-1.34,3.348-2,5.353-3.34c1.333-0.66,3.338-1.33,4.671-2c3.348-0.66,6.014-2.66,8.69-3.33
					c3.338-0.67,6.014-1.33,9.352-2.67c3.348-0.66,6.014-4,8.69-6c1.443-1.44,2.536-3.21,3.769-4.84l0.241,0.18
					c0,0.66,0,0.66,0,1.33h0.671c0.662-2.67,4.671-5.33,6.676-8c0.451-0.67,0.892-1.41,1.333-2.2c0.892-0.69,1.784-1.58,2.676-2.47
					c0-0.65,1.303-2.6,0.06-3.3c0.01-0.11,0.03-0.21,0.05-0.31c0.611-0.86,1.233-1.93,1.233-2.39h-0.671c0,0.19-0.01,0.36-0.04,0.52
					c-0.13,0.12-0.251,0.25-0.371,0.38c0.481-1.1,0.622-2.65,1.083-3.56c1.333-2.67,3.338-4.67,4.671-7.34
					c3.348-4,8.69-8,10.695-13.33c0.672-1.33,0.672-3.33,1.333-4.67c1.343-2,2.677-4.66,4.01-6.66c2.005-2.67,4.009-4.67,6.686-7.34
					c0.982-1.47,2.315-2.58,3.499-3.85l-0.161-0.15c0.672-2,3.348-4,3.348-5.33c0.662,0,0.662-0.67,1.333-1.33
					c0.671,0,1.333,0,2.005,0c2.004-0.67,3.338-2,4.681-2.67c2.667-1.33,6.015-0.67,9.352-2c1.333-1.33,2.677-2,4.681-2.67
					c1.333-1.33,3.338-1.33,4.671-2c3.348-2,6.686-3.33,10.024-5.33c3.348-1.33,7.357-2.67,10.695-4c1.333-1.33,2.676-2,4.681-2.67
					c1.333-0.66,4.009-1.33,4.671-3.33c0.671-0.67,0.671-0.67,1.343-1.33c0.661,0,2.004,0,2.666,0c1.343,0,3.348,0,4.681,0
					c2.005,0,3.338-1.34,4.681-1.34c0.671,0,1.333,0,2.004,0V209l0.662,0.67c0,0,0,0-0.662,0c1.333,0.66,1.333,2.66,2.005,3.33
					c0.662,2,1.333,3.33,2.005,4.67c0.662,2,1.333,4,2.004,6c2.005,3.33,2.667,8,4.671,11.33c0.671,2,2.004,4,2.676,6
					c0.671,2,1.333,4,2.004,6c2.005,4,4.681,8,6.686,12s4.009,8.67,7.347,12s4.681,8,6.686,12c0.662,2,1.333,4,2.004,5.33
					C595.588,289.01,596.009,289.68,596.371,290.35z"/>
			</g>
			<g>
			</g>
		</g>
	</g>
	<g id="XMLID_2_">
		<g id="XMLID_3_">
			<g>
				<path fill="#CACACA" d="M340.63,538.189c0.01,0.091-0.05,0.24-0.29,0.48C340.42,538.5,340.52,538.34,340.63,538.189z"/>
			</g>
			<g>
			</g>
		</g>
	</g>
</g>
<g id="Layer_4">
	<g opacity="0.2">
		<g>
			<path fill="#CACACA" d="M599.5,292c0.645,0,0.645-1,0-1S598.855,292,599.5,292L599.5,292z"/>
		</g>
	</g>
	<g id="XMLID_4_">
		<g>
			<path fill="#CACACA" d="M634.5,279c1,0.5,0.5,2.5,0.5,3.5c0,1.5-0.5,2.5-1.5,4c-0.5,1.5-1,3.5-2.5,4c-2,0.5-2.5,1-4,2.5
				c-2.5,2.5-6,5-10,5c-3,0-6,0.5-8.5-0.5c-1-0.5-1.5-0.5-2-1c-0.5,0-0.5-0.5-0.5-0.5c-0.5,0-1,0-1.5,0s-1-0.5-2-0.5
				c-0.5,0-1,0-1.5,0c-0.78-0.39-1.87-1.39-2.3-2.29c0.73-1.97,2.67-4.08,3.8-5.21c2-1.5,4-2.5,6-3.5c1-0.5,2.5-1,4-1.5
				c1-0.5,2-0.5,3-0.5s1.5-0.5,2.5-0.5s1.5,0.5,2,0.5s1,0,2,0c0.06,0.06,0.12,0.12,0.17,0.17c-0.62,0.6-1.189,1.23-1.67,1.83
				l1.97-1.58C622.61,283,622.73,283,623,283v-0.5l-0.53,0.42c-0.08-0.05-0.17-0.13-0.3-0.25c1.98-1.94,4.55-3.67,6.83-3.67
				C630,279,634,277.5,634.5,279z"/>
			<path fill="#CACACA" d="M623,282.5v0.5c-0.27,0-0.39,0-0.53-0.08L623,282.5z"/>
			<path fill="#CACACA" d="M622.47,282.92l-1.97,1.58c0.48-0.6,1.05-1.23,1.67-1.83C622.3,282.79,622.39,282.87,622.47,282.92z"/>
		</g>
		<g>
		</g>
	</g>
	<g id="XMLID_6_">
		<g>
			<path fill="#CACACA" d="M706.5,339l-2,2.5c0.5-2,2-3.5,3.5-3.5c2-0.5,3.5,1,5,1s3.5,0,5,0c1,0,2,0,2.5,1.5c0,0.5-1,1.5-0.5,2
				s1.5,0.5,2,0.5c1,1.5,1,3.5,1.5,5c0.25,0.75,0.75,1.38,1.31,2c0.57,0.62,1.19,1.25,1.69,2c0.5,2.5,1,5,0.5,7.5
				c-0.5,1.5-2,3-2,4.5s0.5,2,0.5,3s0,2,0,3c-0.5,1-0.5,2-1,2.5c0,1-0.5,2.5-1.5,1.5c-0.5-0.5-0.5-1.5-0.5-2.5c0-1.5,0.5-3.5,0.5-5
				s0-2-0.5-3c0-1-0.5-1.5-0.5-2c0-1.5,0.5-3,0.5-4.5c0-1,0-2,0-3c-0.5-0.5-1-1.5-1-2c0-1,0-2-0.5-3c-0.5-0.5-1.5-1-2-1.5
				c-1.5-1-2.5-3-4.5-3c-1,0-1.5-0.5-2.5-0.5c0,0-0.5,0.5-1,0.5s-1,0-1.5,0c-0.83,0-1.31,0.34-2.02,0.46
				c-0.04-0.79-0.19-1.44-0.711-1.88h-0.01c-0.12-0.65-0.26-1.3-0.26-2.08C706.5,340.5,706.5,339.5,706.5,339z"/>
			<path fill="#CACACA" d="M707.48,344.96c-0.15,0.02-0.311,0.04-0.48,0.04c0-0.72-0.11-1.32-0.23-1.92
				C707.29,343.52,707.44,344.17,707.48,344.96z"/>
		</g>
		<g>
		</g>
	</g>
	<g>
		<path fill="#CACACA" d="M879,375.5h0.5V375c0.5-1,2-2,2.5-2.5c1-1,2.5-1.5,4-2c2-1,4-2,6-3c0.5-0.5,1.5-1,3-1.5c1,0,2,0,3,0
			c2-0.5,3.5-2,6-2.5c2-0.5,4,0.5,6,0c1,0,2-0.5,3-1s2-0.5,3-1c2-1,4-2.5,6-3c0.5-0.5,2-0.5,2.5-1c1.5-0.5,1.5-1,3-0.5
			s4.5,0.5,5.5,2c0.5,1,0.5,2,0.5,3s-1,1.5-0.5,2.5c0.5,0,0.5,0.5,1,1c0,0.5,0.5,1,0.5,2c0.5,0.5,1,2,1,2.5c0,1,0,1-0.5,1.5
			c-1,0-2.5,0-3.5,0S930,371,929,371c0,0-1,0-1.5,0s-1,0.5-1.5,0.5c-1,0-2-0.5-3.5-0.5c-4-1-8,1-11.5,2.5c-1.5,0.5-4,1-5.5,0.5
			s-2-1-3-1s-2,0-3,0.5c-4,1-7.5,1-11.5,0.5c-0.5,0-1,0-1.5-0.5c-0.5,0-1,0.5-2,0.5s-1.5,0-3,0.5c-1,0.5-2,1-3,1H879z"/>
	</g>
	<g id="XMLID_7_">
		<g>
			<path fill="#CACACA" d="M1025,380.5c0,1-1,2.5-1.5,3c-0.5,0-1,0-1.5,0c-0.5-0.5-0.5-0.5-1-1c-2,0-3.5,1.5-5,2.5
				c-0.5,0.5-1,1-1.5,1.5c-1,1-2.5,1.5-4,1c-1,0-2-1.5-3.5-1.5v-0.5c0-0.12,0-0.25,0-0.5c0-1,0-4.5,1-5c0-0.5,1.5-0.5,2-1
				c1-1,2-1,3.5-1c0,0,0.5-1,0.5-1.5c0.5-1,2.5-2,3.5-2c2,0,4,1.5,5,2.5c0,0.5,0,1,0,1.5C1023,379,1025,379.5,1025,380.5z"/>
		</g>
		<g>
		</g>
	</g>
	<g id="XMLID_8_">
		<g>
			<path fill="#CACACA" d="M256.5,406.5c1,0.5,3,2.5,2,4c-0.5,0.5-3,1-3.5,1c-1,0.5-2,0.5-2.5,0.5c-1,0.5-2.5,1.5-2.5,2.5h-0.5
				c-0.5-1-4-0.5-5-0.5c-1.5-0.5-2.5-1-4-1c-1,0-2-0.5-3-0.5c-2.5-0.5-4.5-1-7-1.5c-2-0.5-4-0.5-6-0.5c-1.5,0.5-3,0.5-4.5,0.5
				c-1,0-1.5,0.5-2,0.5c-1,0-2,0-3,0c-2,0.5-3.5,0.5-5.5,0.5c-1,0-2,0-3.5-0.5c0,0-0.5-0.5-1-0.5s-1,0-1.5,0c-1,0-1.5,0-2,0
				c-1,0-1.5,0-2.5,0c-0.5,0-1,0.5-1.5,0.5s-1-0.5-1-0.5c-1,0-2,0.5-3,1c-0.5,0-1.5,0.5-1.5,0.5c-1.5,0-1-3-1-4V408l-0.5-0.5l-0.5,1
				c-0.5-1.5,3-2,4-2c2,0,4-1.5,5.5-3c2-1.5,4-3,6.5-4c2-0.5,4-1,5.5-2c2-1.5,4-3.5,6.5-3.5c1.5,0,2.5,0.5,3.5,0.5
				c1,0.5,2,0.5,3,0.5c2.5,1,3.5,3,6,4.5c2,1,4.5,1,7,2c1,0.5,2,1.5,3,1.5s2,0,2.5,0c1.5,0,2.5,0,3.5,0s2,0.5,3,1c1,0,2.5,0,3.5,0.5
				s1.5,0.5,2,1S256,406,256.5,406.5z"/>
		</g>
		<g>
		</g>
	</g>
	<g id="XMLID_9_">
		<g>
			<path fill="#CACACA" d="M70,402.5c1,0.5-0.5,3-1.5,3c-1,1-3,1.5-4,2.5c-1.5,0.5-3,1.5-4,2.5c-1.5,0.5-3,0.5-4,1
				c-2,0.5-3,1.5-4.5,2.5c-2.5,1.5-4.5,0.5-6.5,1c-1.5,0.5-3.5,2.5-5,2c-0.5-1.5,1.5-2,1-3.5c-1.21-0.4-3.4-0.16-4.72,0.22
				c1.04-1.02,1.95-2.2,2.72-2.72c2-1,4-2,6-1.5c1.5,0.5,2.5,0.5,4-0.5s3-2,4-3c1-0.5,3.5-0.5,4.5-0.5s2,0.5,3,0.5c0.5,0,2-0.5,2-1
				c1.5,0,2-1.5,3.5-2c0.5,0,1,0,1,0C68.5,403,69.5,402,70,402.5z"/>
			<path fill="#CACACA" d="M36,414c0.19-0.1,0.46-0.19,0.78-0.28c-0.97,0.96-2.07,1.78-3.28,1.78c-0.28,0-0.53-0.08-0.76-0.17
				c0.25-0.13,0.51-0.25,0.76-0.33C34.5,414.5,35,414.5,36,414z"/>
			<path fill="#CACACA" d="M30.5,415.5c1.08-0.72,1.64-0.4,2.24-0.17c-1.13,0.58-2.26,1.48-3.39,1.64
				C29.58,416.47,29.79,415.86,30.5,415.5z"/>
			<path fill="#CACACA" d="M29,417c0.12,0,0.23-0.01,0.35-0.03c-0.1,0.2-0.21,0.39-0.35,0.53l-0.5-0.5H29z"/>
		</g>
		<g>
		</g>
	</g>
</g>
<g id="Layer_3">
	<g id="XMLID_5_">
		<g>
			<path fill="#CACACA" d="M437.841,319.133c0-0.45,0-0.89,0-1.33c-0.66,0-0.66,0-0.66,0.66c-0.67,0-0.67,0-1.34,0
				c0.67-0.66,1.34-1.33,1.34-2.66c1.33,0,3.33-0.67,4-1.34c1.33-1.33,1.33-3.33,1.33-4.66c0.67-2,2-4,3.33-6
				c0.67-2,1.34-3.34,2.67-5.34c2-4,5.33-6.66,8.67-10c2-2,4-4.66,5.33-7.33c0-0.67,1.33-2,1.33-2.67c1.34-1.33,2-3.33,3.34-4.66
				c0-0.67,0.66-1.34,0.66-2c2-2,3.34-4.67,4.67-6.67c1.33-1.33,2.67-2.67,3.33-4c0.67-1.33,1.34-2.67,2.67-3.33
				c0-2,2.67-4,3.33-5.34c0.67-0.66,0.67-3.99,2.66-3.33c-0.21,0.22-0.44,0.45-0.66,0.67c0,0.19-0.06,0.33-0.14,0.44l-1.19,0.89
				h0.67c0-0.48,0.33-0.61,0.52-0.89l1.48-1.11l-0.35-0.34c0.01-0.01,0-0.01,0-0.01c0.98-1.03,1.85-2.15,2.35-3.65
				c0.66,0,1.33-1.33,2-2c0.66-0.67,1.33-2,2-2.67c1.33-0.66,1.33,0.67,2.66,0.67c0.67,0,1.34-0.67,1.34-1.33
				c0.66-0.67,2-0.67,2.66-1.34c1.34,0,2-0.66,3.34-0.66c0.66,0,1.33,0,2.66-0.67c1.34-0.67,2.67-2,4-3.33c2-0.67,3.34-1.34,6-1.34
				c0.67,0,1.34,0,2.67,0c0,0,0.67,0.67,1.33,0.67c1.34,0,1.34-0.67,2.67-1.33c2-1.34,4-2.67,6.67-2.67c1.24,0,1.9,0,3.06-1.06
				l-0.4,0.39c2-0.66,4-2.66,5.34-4.66c0.66-0.67,2-2,2.66-2.67c0-0.67,0.67-1.33,1.34-2c0.66-0.67,1.33,0,2,0.67
				c0.66,0.66,0,1.33,0.66,2c0.67,0,1.34,0,2,0c0.67,0,1.34-0.67,1.34,0.66c0,0.67,0,2-0.67,2.67s-1.33,0.67-2,1.33
				c-2,1.34-3.33,4-4.67,6c-0.66,1.34-1.33,2-2.66,2.67l-0.67,0.67c-0.67,0-0.67,0.66-1.33,0.66c-0.29,0.29-0.59,0.46-0.83,0.67
				c-0.62,0-1.22,0-1.84,0c-1.33,2,0.67,4,1.33,4.67c0,0.66,0,2,0.67,2.66c0,0.67,0.67,1.34,0.67,2c0,1.34,0,2.67,0,4
				c0,1.34,0.66,2.67,0.66,4c0,2,0,3.34,0,5.34s0,3.33,0,5.33h-0.66v3.33c0-5.33-1.34-9.33-4-14c-1.34-2.66-2.67-3.33-6-3.33
				c-2,0-3.34-1.33-6-2c-2.67-1.33-4-1.33-7.34-0.67c-4.66,2-7.33,8.67-10,12c-2,2.67-4,4.67-5.33,6.67s-1.33,4-2.67,6.67
				c-0.66,2-2.66,4.66-2.66,7.33c0,2,0,4-0.67,6c-0.67,2.67,0,4.67,0,7.33c-0.67,2-1.33,4-2,6c-0.67,2.67-0.67,4-0.67,6
				c-0.66,2-1.33,4,0,5.34h0.67l0.32-0.18c0.84,1.52,2.16,2.85,2.61,4.18h0.67c0,0.67,0,0.67,0,1.33l-0.27,0.66l0.67,0.67h-0.67
				l0.67,0.67c0.66,0,0.66,0.66,1.33,1.33l-1.41,1.77c-0.34-0.19-0.59-0.43-0.59-0.43h-0.66v0.66c0,0.23,0.16,0.53,0.37,0.87
				l-3.04,3.8v0.67l-0.67-0.67c-0.47-0.12-0.81-0.32-1.07-0.58c0-0.29,0-0.55,0-0.75h-0.5c-0.58-1.28-0.41-3.1-1.76-4
				c-1.33-0.67-2.67-0.67-3.33-2c-0.67-0.67-1.01-1.34-1.17-2.09c-0.06-0.27-0.1-0.55-0.12-0.85c1.37-0.45,2.75-1.42,1.29-2.4
				l-1.34,0.67v0.67h0.01c0,0.38,0.01,0.73,0.04,1.06c-0.51,0.17-1.02,0.27-1.38,0.27c-2,0-3.33-0.67-4.67,0
				c-1.33,0-2.66,0.67-4.66,1.33c-3.34,2-6,4.67-9.34,6c-2.66,2-5.33,4-8.66,4.67c-4,1.33-6.67,3.33-9.34,6
				c-2,1.33-3.33,2.67-4.66,4c-1.34,1.33-3.34,2-4.67,2.67c-3.33,2-6,4.66-8.67,6.66c-2,1.34-2.66,3.34-4.66,4
				c-1.34,0.67-2.67,0-4,0.67c0.66,3.33,2,4.67,4.66,5.33c2.67,0.67,3.34,3.34,2.67,6c-0.67,0.67-2,2.67-2.67,3.34
				c-1.33,0.66-1.33,0.66-2.66,0.66c-2.67-0.66-4-2-5.34-4c-1.33-1.33-2-2-3.33-2c-1.33-0.66-2,0-3.33,0c-2,0.67-4.67,0-6.67-1.33
				c-1.33-1.33-1.33-1.33-3.33-1.33c-1.34,0-2,0-3.34,0.66c-2,0.67-4.66,1.34-6.66,2c-2.67,0.67-4,0.67-6.67,2.67
				c-2,1.33-4.67,2-6.67,4c-2.66,1.33-5.33,2.67-7.33,4.67c-2.67,1.33-4,3.33-6,5.33c-2.67,2-5.33,3.33-8,4.67
				c-2.67,1.33-4,2.66-6,4c-2.67,2-5.33,4-7.33,7.33c-1.34,1.33-0.67,4-1.34,6c-0.66,1.33-2,4-2.66,5.33c-0.67,0.67-2,1.34-2,2
				c0,0.67,1.33,1.34,2,2c2.66,2,6,4,9.33,4.67c2,0,4-0.67,5.33,0c2,0.67,4,2,4,4c-0.66,3.33-4.66,4-7.33,4c-2,0-4-0.67-6-0.67
				c-1.33,0-3.33,0-4.67,0c-1.33,0-3.33,0-4.66,0c-2,0-3.34-0.66-5.34-1.33s-4-0.67-5.33-1.33c-2.67-0.67-2.67-2-4-3.34
				c-1.33-2-2.67-1.33-4-1.33c-2.67,0-2-2-2-3.33c0-2,0-2-1.33-2c-0.67,0-1.34-0.67-2.67-0.67c-2,0-3.33,0.67-4.67,2
				c-0.66,0.67-4,4.67-4,1.33c0-1.33,2-4,2.67-4.66c2-4,6-4.67,9.33-6.67c3.34-2,5.34-4.67,8-8c5.34-6,12-9.33,19.34-12.67
				c2-1.33,3.33-2.66,5.33-3.33c2-1.33,3.33-2,5.33-3.33c1.34-1.34,3.34-1.34,4.67-2c2-0.67,3.33-1.34,4.67-2.67c2-1.33,4-2,6-3.33
				c1.33-2,2.66-3.34,4.66-4c2-1.34,3.34-1.34,5.34-2c1.33-0.67,2.66-2.67,4-4c2.66-2.67,6.66-3.34,10-5.34c2.66-2,6.66-4,9.33-6.66
				c1.33-2,2.67-4.67,4-6.67s2-4,3.33-5.33c1.34-0.67,3.34-0.67,4.67-1.34c1.33-0.66,3.33-1.33,4.67-2c2.66-2,4-2.66,6.66-3.33
				c2,0,2.67-1.33,4-2c0.67,0,2,0,2.67,0c1.33-0.67,2-2,2.67-2.67c0.66-0.66,2-0.66,2.66-0.66c1.34-0.67,2.67-2,4-2
				c1.34,0.66,2,0.66,2.67,0.66s0.67,0,1.33,0L437.841,319.133z"/>
			<path fill="#CACACA" d="M532.511,237.133l-0.55,0.55c0.08-0.24,0.22-0.41,0.39-0.55
				C532.401,237.133,532.461,237.133,532.511,237.133z"/>
			<path fill="#CACACA" d="M531.181,238.463l0.78-0.78c-0.08,0.19-0.12,0.45-0.12,0.78H531.181z"/>
			<path fill="#CACACA" d="M484.411,347.753l-2.3-0.62c0.66-1.33,1.33-2.66,2-4c0.66-2,0.66-3.33,1.33-5.33c0-1.33,0-4,0-5.33
				c0-1.34-0.67-2.67-0.67-4c0-0.47,0-1.26,0-1.92c0.26,0.26,0.6,0.46,1.07,0.58l0.67,0.67v-0.67l3.04-3.8
				c0.39,0.64,0.96,1.36,0.96,1.8c0.67,1.33,0.67,2,1.33,2.67c0.67,2,0.67,4,2.67,4.66c0.61,0,0.85,0.86,0.85,2.1
				c0,2.84-1.25,7.64-2.18,8.57c0,0.67-0.67,1.33-0.67,2v-0.67l-0.67,1.34c0.67,0,0.67,0.66,0.67,0.66v0.67c0,2-0.67,4-1.33,5.33
				c-0.67,2-2,4.67-3.34,6c-3.33,5.34-6.66,10-9.33,14.67c-2,3.33-3.33,6-5.33,8.67c-0.63,1.87-2.43,4.33-2.65,6.28
				c0.14-1.95,1.35-4.36,1.98-5.62c1.33-2,2-4,3.33-5.33c0.67-2,2-3.33,3.34-5.33c0-1.34,0.66-2,1.33-3.34c0.67-1.33,1.33-2,2-3.33
				c0-0.67,0-1.33,0-2l1.33-0.67h0.67c0-2.66,1.33-6,1.33-8.66v-0.67h-0.66c-0.67,1.33-2,0.67-2-0.67c0-0.66,0.66-1.33,0.66-2
				C483.841,349.463,484.221,348.473,484.411,347.753z"/>
			<path fill="#CACACA" d="M490.431,322.233l1.41-1.77c0,0.67,0,1.34-0.66,2C490.921,322.463,490.651,322.363,490.431,322.233z"/>
			<path fill="#CACACA" d="M490.431,322.233l-0.88,1.1c-0.21-0.34-0.37-0.64-0.37-0.87v-0.66h0.66
				C489.841,321.803,490.091,322.043,490.431,322.233z"/>
			<path fill="#CACACA" d="M485.181,249.133l-1.48,1.11c0.08-0.11,0.14-0.25,0.14-0.44c0.22-0.22,0.45-0.45,0.66-0.67h0.01
				c0-0.01,0-0.01,0-0.01c0.11-0.11,0.22-0.22,0.32-0.33L485.181,249.133z"/>
			<path fill="#CACACA" d="M484.831,248.783c0,0,0.01,0,0,0.01c-0.1,0.11-0.21,0.22-0.32,0.33v-0.66L484.831,248.783z"/>
			<path fill="#CACACA" d="M484.771,325.803c0,0.2,0,0.46,0,0.75c-0.22-0.22-0.38-0.47-0.5-0.75H484.771z"/>
			<path fill="#CACACA" d="M482.511,251.133l1.19-0.89c-0.19,0.28-0.52,0.41-0.52,0.89H482.511z"/>
			<path fill="#CACACA" d="M479.181,314.463c1.46,0.98,0.08,1.95-1.29,2.4c-0.03-0.33-0.04-0.68-0.04-1.06h0.66l-0.67-0.67
				L479.181,314.463z"/>
			<path fill="#CACACA" d="M478.511,315.803h-0.66c-0.01-0.21-0.01-0.44-0.01-0.67L478.511,315.803z"/>
			<path fill="#CACACA" d="M477.841,315.133c0,0.23,0,0.46,0.01,0.67h-0.01V315.133z"/>
			<path fill="#CACACA" d="M437.841,317.803c0,0.44,0,0.88,0,1.33l-2-0.67c0.67,0,0.67,0,1.34,0
				C437.181,317.803,437.181,317.803,437.841,317.803z"/>
		</g>
		<g>
		</g>
	</g>
</g>
</svg>
