<?xml version="1.0" encoding="utf-8"?>
<!-- Generator: Adobe Illustrator 16.0.0, SVG Export Plug-In . SVG Version: 6.00 Build 0)  -->
<!DOCTYPE svg PUBLIC "-//W3C//DTD SVG 1.1//EN" "http://www.w3.org/Graphics/SVG/1.1/DTD/svg11.dtd">
<svg version="1.1" id="Layer_1" xmlns="http://www.w3.org/2000/svg" xmlns:xlink="http://www.w3.org/1999/xlink" x="0px" y="0px"
	 width="990px" height="330px" viewBox="0 0 990 330" enable-background="new 0 0 990 330" xml:space="preserve">
<g id="XMLID_1_">
	<g>
		<polygon points="20,0 20,283.33 0,283.33 -0.33,0 		"/>
		<polygon points="990,283.33 989.67,283.66 989.67,335 0,335 0,334.67 0,283.33 20,283.33 		"/>
	</g>
	<g>
		<line fill="none" stroke="#000000" stroke-miterlimit="10" x1="0" y1="283.33" x2="0" y2="334.67"/>
		<polyline fill="none" stroke="#000000" stroke-miterlimit="10" points="-0.33,335 0,335 989.67,335 989.67,283.66 990,283.33 
			20,283.33 		"/>
		<polygon fill="none" stroke="#000000" stroke-miterlimit="10" points="0,283.33 -0.33,0 20,0 20,283.33 		"/>
	</g>
</g>
<g id="XMLID_2_">
	<g>
		<polygon points="2.864,335.066 989.67,335.066 989.67,334.736 989.67,283.387 969.729,283.387 2.535,283.387 2.864,283.717 		"/>
		<polygon points="969.729,0 969.729,283.387 989.67,283.387 989.999,0 		"/>
	</g>
	<g>
		<line fill="none" stroke="#000000" stroke-miterlimit="10" x1="989.67" y1="283.387" x2="989.67" y2="334.736"/>
		<polyline fill="none" stroke="#000000" stroke-miterlimit="10" points="989.999,335.066 989.67,335.066 2.864,335.066 
			2.864,283.717 2.535,283.387 969.729,283.387 		"/>
		<polygon fill="none" stroke="#000000" stroke-miterlimit="10" points="989.67,283.387 989.999,0 969.729,0 969.729,283.387 		"/>
	</g>
</g>
</svg>
