<?xml version="1.0" encoding="utf-8"?>
<!-- Generator: Adobe Illustrator 16.0.0, SVG Export Plug-In . SVG Version: 6.00 Build 0)  -->
<!DOCTYPE svg PUBLIC "-//W3C//DTD SVG 1.1//EN" "http://www.w3.org/Graphics/SVG/1.1/DTD/svg11.dtd">
<svg version="1.1" id="Layer_1" xmlns="http://www.w3.org/2000/svg" xmlns:xlink="http://www.w3.org/1999/xlink" x="0px" y="0px"
	 width="2306.298px" height="751.999px" viewBox="0 0 2306.298 751.999" enable-background="new 0 0 2306.298 751.999"
	 xml:space="preserve">
<path fill="#58595B" stroke="#000000" stroke-width="0.5" stroke-linecap="round" stroke-linejoin="round" d="M2212.98,331.342
	l-161.209,84.99c-6.012,3.16-18.701,5.73-28.361,5.73H850.401c0.029-0.07,0.07-0.141,0.1-0.211h-104.67v-96.449h446v0.21h1014.531
	C2216.01,325.612,2218.98,328.182,2212.98,331.342z"/>
<path d="M579.678,486.852c-1.949,0.993-0.085,1.861,4.294,2.347c-0.316-1.341-0.723-2.647-1.229-3.91L579.678,486.852z"/>
<path d="M591.663,480.739c0.751,1.687,1.372,3.427,1.853,5.222c0.771-2.423,1.502-4.858,2.219-7.299L591.663,480.739z"/>
</svg>
