<?xml version="1.0" encoding="utf-8"?>
<!-- Generator: Adobe Illustrator 16.0.0, SVG Export Plug-In . SVG Version: 6.00 Build 0)  -->
<!DOCTYPE svg PUBLIC "-//W3C//DTD SVG 1.1//EN" "http://www.w3.org/Graphics/SVG/1.1/DTD/svg11.dtd">
<svg version="1.1" id="Layer_1" xmlns="http://www.w3.org/2000/svg" xmlns:xlink="http://www.w3.org/1999/xlink" x="0px" y="0px"
	 width="300px" height="300px" viewBox="0 0 300 300" enable-background="new 0 0 300 300" xml:space="preserve">
<g id="MolotovCocktail_1_">
	<g>
		<g>
			<path fill="none" d="M148.277,312.759c-51.162,0-102.323-0.004-153.485,0.029c-1.162,0.001-1.423-0.262-1.423-1.423
				c0.031-102.323,0.031-204.647,0-306.97c0-1.161,0.262-1.423,1.423-1.423c102.323,0.031,204.647,0.031,306.97,0
				c1.161,0,1.423,0.262,1.423,1.423c-0.031,102.323-0.031,204.647,0,306.97c0,1.161-0.262,1.424-1.423,1.423
				C250.601,312.755,199.439,312.759,148.277,312.759z M161.969,38.323c0.385,1.404,1.047,2.122,1.698,2.844
				c1.688,1.875,3.411,3.719,5.049,5.638c0.326,0.382,0.953,1.048,0.159,1.578c-0.843,0.563-1.214-0.023-1.618-0.745
				c-1.288-2.302-2.838-4.508-4.816-6.182c-1.482-1.254-2.696-2.552-3.001-4.359c-0.417-2.464-1.843-4.107-3.604-5.633
				c-0.842-0.729-1.806-1.313-2.345-2.388c-0.763-1.522-2.857-1.554-3.654-3.092c-2.241,0.17-4.409-0.641-6.643-0.486
				c-0.332,0.023-0.652,0.295-0.966,0.471c-0.43,0.242-0.758,0.569-1.296,0.732c-2.142,0.648-4.095,1.682-5.783,3.212
				c-2.967,2.689-6.345,4.786-10.114,6.092c-2.369,0.821-4.883,1.221-7.282,2.028c-3.706,1.248-7.425,2.434-11.267,3.274
				c-4.457,0.974-8.501,3.1-12.504,5.258c-3.992,2.153-6.554,5.549-8.43,9.543C85.16,56.941,85,57.885,85.16,58.835
				c0.565,3.355,1.521,6.572,3.031,9.647c0.989,2.014,2.285,4.056,1.828,6.443c-0.403,2.105,0.03,4.198-0.236,6.3
				c-0.38,3.004,0.461,5.927,0.966,8.862c0.453,2.639,0.948,5.292,2.01,7.753c2.353,5.455,4.46,10.987,6.13,16.695
				c2.455,8.388,4.39,16.851,4.824,25.627c0.146,2.946,0.308,5.909,1.905,8.665c1.088,1.878,2.383,3.734,2.878,5.942
				c0.21,0.939,0.749,0.941,1.479,0.417c1.652-1.187,2.329-2.977,3.037-4.75c0.268-0.671,0.408-1.439,1.223-1.67
				c1-0.284,1.787-0.881,2.614-1.913c0,0.644,0.042,0.952-0.006,1.245c-1.028,6.311-1.411,12.701-2.491,19.012
				c-0.734,4.284-2.353,8.35-2.828,12.679c-0.514,4.686-1.133,9.363,2.146,13.465c1.304,1.63,3.075,2.732,4.472,4.249
				c0.364,0.396,0.864,0.18,1.29-0.06c1.672-0.941,3.032-2.314,3.621-4.057c0.785-2.325,1.356-4.782,1.571-7.222
				c0.204-2.324,0.641-4.588,0.991-6.878c0.299-1.952,1.146-3.756,1.5-5.654c1.366-7.323,3.372-14.457,5.904-21.449
				c2.582-7.129,5.25-14.227,7.794-21.368c1.353-3.798,1.847-7.816,2.754-11.723c0.971-4.185,1.016-8.191,0.237-12.354
				c-0.964-5.152-2.112-10.311-1.416-15.622c0.408-3.118,0.774-6.257,2.351-9.061c0.838-1.492,1.444-3.068,2.079-4.646
				c0.724-1.802,1.854-3.355,3.391-4.64c-1.816,2.001,0.736,3.668,0.333,5.5c2.674,5,5.595,9.866,7.912,15.061
				c2.896,6.498,5.009,13.235,6.142,20.237c1.254,7.739,1.674,15.585,2.584,23.37c1.077,9.214,3.646,17.974,8.007,26.182
				c3.653,6.877,7.805,13.466,11.534,20.31c9.206,16.898,18.862,33.552,28.3,50.324c3.415,6.07,6.73,12.198,10.077,18.307
				c1.708,3.12,3.793,5.917,6.862,7.816c2.154,1.333,4.434,2.079,7.062,1.451c3.119-0.744,6.217-1.552,9.124-2.902
				c1.591-0.739,3.36-1.161,5.169-2.473c-1.258-0.093-1.901,0.41-2.623,0.564c-0.525,0.112-1.272,0.439-1.459-0.296
				c-0.149-0.585,0.628-0.698,1.072-0.915c2.783-1.354,5.86-1.98,8.614-3.35c1.321-0.658,2.717-0.148,3.973-0.859
				c8.036-4.552,15.937-9.27,22.982-15.337c4.64-3.995,4.971-8.972,2.732-13.158c-2.419-4.521-5.025-8.941-7.508-13.43
				c-2.298-4.154-4.54-8.339-6.807-12.511c-0.839-1.543-1.767-3.002-2.99-4.302c-1.019-1.083-1.863-2.429-2.014-3.933
				c-0.091-0.923-0.384-1.664-0.773-2.451c-1.151-2.325-3.23-4.124-4.241-6.399c-1.764-3.969-4.004-7.662-6.054-11.447
				c-6.19-11.435-12.674-22.711-19.046-34.048c-2.073-3.688-4.039-7.444-6.508-10.891c-5.159-7.205-11.702-13.01-18.624-18.452
				c-7.374-5.798-14.713-11.644-21.295-18.366c-2.503-2.557-4.662-5.435-6.426-8.48c-2.424-4.187-4.581-8.537-7.031-12.72
				c-2.37-4.046-5.231-7.766-6.157-12.62c-0.848-4.452-3.808-7.821-7.319-10.622C164.539,40.916,163.751,39.387,161.969,38.323z
				 M106.192,195.881c-0.243-1.969-1.231-3.935-3.273-5.261c-0.786-0.512-1.291-1.081-1.375-2.075
				c-0.269-3.173-2.284-4.75-5.147-5.624c-2.964-0.905-5.978-1.599-8.977-2.361c-1.913-0.486-2.557-0.308-3.617,1.392
				c-1.609,2.578-3.135,5.207-4.75,7.782c-1.123,1.792-2.322,3.537-3.513,5.285c-0.284,0.418-0.632,0.959-1.188,0.868
				c-0.56-0.092-0.376-0.767-0.553-1.17c-0.353-0.8-0.649-1.627-1.038-2.409c-0.462-0.93-1.228-1.195-2.205-0.818
				c-0.481,0.186-0.975,0.346-1.44,0.564c-2.21,1.043-4.445,1.409-6.907,0.863c-1.646-0.365-3.415-0.331-4.754,1.115
				c-0.475,0.513-1.055,0.25-1.594,0.081c-2.46-0.771-4.908-1.582-7.379-2.313c-4.894-1.449-9.795-2.874-14.703-4.271
				c-3.374-0.961-6.684-2.14-10.116-2.897c-0.849-0.188-1.49-0.071-1.999,0.71c-3.512,5.406-7.12,10.753-10.534,16.22
				c-1.442,2.311-2.636,4.827-2.25,7.73c0.544,4.087,1.962,7.42,6.19,9.211c7.894,3.343,16.077,5.546,24.494,6.984
				c2.975,0.509,2.977,0.476,1.539,3.046c-0.251,0.449-0.541,0.9-0.677,1.388c-0.366,1.305-1.155,2.188-2.246,3
				c-2.258,1.684-2.621,3.787-1.256,6.262c0.648,1.177,1.406,2.286,2.431,3.185c1.162,1.018,2.473,1.479,3.995,1.006
				c0.772-0.239,1.494-0.196,2.272,0.011c4.177,1.113,8.401,2.017,12.569,3.207c5.589,1.596,11.378,2.491,17.071,3.729
				c1.183,0.257,2.1-0.022,2.966-0.829c2.199-2.05,4.154-4.293,5.797-6.818c2.361-3.629,4.775-7.224,7.165-10.835
				c3.558-5.376,7.104-10.76,10.679-16.124c0.598-0.896,0.71-1.683,0.204-2.704c-1.074-2.169-1.903-4.462-3.025-6.604
				c-0.675-1.289-0.452-1.721,0.897-2.164C103.392,203.109,106.088,199.559,106.192,195.881z"/>
			<path fill-rule="evenodd" clip-rule="evenodd" d="M161.969,38.323c1.782,1.064,2.57,2.593,3.845,3.609
				c3.512,2.8,6.472,6.169,7.319,10.622c0.926,4.854,3.787,8.574,6.157,12.62c2.45,4.183,4.607,8.533,7.031,12.72
				c1.764,3.045,3.923,5.923,6.426,8.48c6.582,6.722,13.921,12.568,21.295,18.366c6.922,5.442,13.465,11.247,18.624,18.452
				c2.469,3.447,4.435,7.203,6.508,10.891c6.372,11.336,12.855,22.613,19.046,34.048c2.05,3.785,4.29,7.479,6.054,11.447
				c1.011,2.275,3.09,4.074,4.241,6.399c0.39,0.787,0.683,1.528,0.773,2.451c0.15,1.504,0.995,2.85,2.014,3.933
				c1.224,1.3,2.151,2.759,2.99,4.302c2.267,4.172,4.509,8.356,6.807,12.511c2.482,4.488,5.089,8.908,7.508,13.43
				c2.238,4.187,1.907,9.163-2.732,13.158c-7.046,6.067-14.946,10.785-22.982,15.337c-1.256,0.711-2.651,0.201-3.973,0.859
				c-2.754,1.369-5.831,1.996-8.614,3.35c-0.444,0.217-1.222,0.33-1.072,0.915c0.187,0.735,0.934,0.408,1.459,0.296
				c0.722-0.154,1.365-0.657,2.623-0.564c-1.809,1.312-3.578,1.733-5.169,2.473c-2.907,1.351-6.005,2.158-9.124,2.902
				c-2.629,0.628-4.908-0.118-7.062-1.451c-3.069-1.899-5.154-4.696-6.862-7.816c-3.347-6.108-6.662-12.236-10.077-18.307
				c-9.438-16.772-19.094-33.426-28.3-50.324c-3.729-6.844-7.881-13.433-11.534-20.31c-4.36-8.208-6.93-16.968-8.007-26.182
				c-0.91-7.785-1.33-15.631-2.584-23.37c-1.133-7.001-3.246-13.739-6.142-20.237c-2.316-5.195-5.237-10.061-7.912-15.061
				c0.403-1.832-2.149-3.499-0.333-5.5c-1.536,1.285-2.667,2.838-3.391,4.64c-0.635,1.578-1.241,3.155-2.079,4.646
				c-1.576,2.804-1.942,5.943-2.351,9.061c-0.696,5.311,0.452,10.47,1.416,15.622c0.779,4.163,0.734,8.169-0.237,12.354
				c-0.907,3.907-1.401,7.925-2.754,11.723c-2.544,7.142-5.212,14.239-7.794,21.368c-2.533,6.992-4.538,14.126-5.904,21.449
				c-0.354,1.898-1.202,3.702-1.5,5.654c-0.35,2.29-0.787,4.554-0.991,6.878c-0.215,2.439-0.786,4.896-1.571,7.222
				c-0.589,1.742-1.949,3.115-3.621,4.057c-0.426,0.239-0.926,0.455-1.29,0.06c-1.396-1.517-3.168-2.619-4.472-4.249
				c-3.279-4.102-2.66-8.779-2.146-13.465c0.476-4.329,2.094-8.395,2.828-12.679c1.081-6.311,1.463-12.701,2.491-19.012
				c0.047-0.293,0.006-0.601,0.006-1.245c-0.827,1.031-1.613,1.629-2.614,1.913c-0.815,0.231-0.956,1-1.223,1.67
				c-0.708,1.774-1.384,3.564-3.037,4.75c-0.73,0.524-1.269,0.522-1.479-0.417c-0.495-2.208-1.79-4.063-2.878-5.942
				c-1.597-2.756-1.759-5.719-1.905-8.665c-0.434-8.776-2.37-17.24-4.824-25.627c-1.67-5.708-3.777-11.24-6.13-16.695
				c-1.062-2.461-1.557-5.115-2.01-7.753c-0.504-2.935-1.346-5.857-0.966-8.862c0.266-2.102-0.167-4.195,0.236-6.3
				c0.457-2.388-0.839-4.429-1.828-6.443c-1.51-3.076-2.466-6.292-3.031-9.647c-0.16-0.95,0-1.894,0.391-2.727
				c1.875-3.994,4.438-7.391,8.43-9.543c4.003-2.158,8.047-4.284,12.504-5.258c3.842-0.84,7.561-2.026,11.267-3.274
				c2.399-0.807,4.913-1.207,7.282-2.028c3.769-1.306,7.147-3.403,10.114-6.092c1.688-1.53,3.641-2.564,5.783-3.212
				c0.538-0.163,0.866-0.491,1.296-0.732c0.314-0.176,0.634-0.448,0.966-0.471c2.234-0.154,4.402,0.656,6.643,0.486
				c0.797,1.538,2.891,1.569,3.654,3.092c0.539,1.075,1.503,1.66,2.345,2.388c1.762,1.526,3.188,3.169,3.604,5.633
				c0.305,1.808,1.519,3.105,3.001,4.359c1.979,1.674,3.528,3.88,4.816,6.182c0.404,0.722,0.775,1.308,1.618,0.745
				c0.794-0.53,0.167-1.196-0.159-1.578c-1.638-1.918-3.36-3.763-5.049-5.638C163.016,40.444,162.354,39.727,161.969,38.323z
				 M155.084,64.944c1.279-0.982,1.806-2.663,3.201-3.52c2.327-1.431,3.819-3.603,4.843-5.99c0.617-1.441,1.248-3.264,0.64-4.769
				c-0.713-1.764-0.98-3.452-0.632-5.37c-1.068,0.392-1.546,0.873-1.081,1.921c0.151,0.341,0.107,0.825,0.013,1.208
				c-1.056,4.304-2.114,8.596-4.665,12.355c-0.886,1.306-1.927,2.57-2.304,4.176c-1.111,1.436-1.703,3.18-2.704,4.758
				c2.328-1.122,4.655-2.243,6.982-3.364c-0.039-0.094-0.078-0.188-0.117-0.282c-1.238,0.499-2.476,0.998-3.713,1.496
				c0.579-1.067,1.53-1.558,2.468-2.063c2.673-1.439,5.353-2.865,8.018-4.318c0.41-0.224,1.184-0.392,0.84-1.034
				c-0.27-0.503-0.84-0.032-1.235,0.14c-3.264,1.418-6.353,3.153-9.292,5.159C155.729,65.868,154.896,66.625,155.084,64.944z
				 M273.762,229.513c1.38-0.503,1.2-1.087,0.698-1.926c-1.588-2.656-3.103-5.356-4.59-8.07
				c-3.816-6.963-7.763-13.854-11.485-20.872c-4.203-7.922-8.454-15.822-13.471-23.303c-3.667-5.469-6.458-11.496-10.119-17.001
				c-4.415-6.639-7.28-14.104-10.984-21.126c-4.09-7.751-8.974-14.905-15.043-21.239c-2.39-2.495-5.012-4.757-7.432-7.209
				c-2.277-2.308-4.613-4.553-6.935-6.813c-1.276-1.242-2.721-2.267-4.361-3.027c-1.356-0.629-2.398-1.773-3.495-2.727
				c-2.89-2.513-4.688-5.8-5.864-9.463c-0.607-1.892-1.706-3.629-2.286-5.527c-0.87-2.844-1.693-5.736-2.753-8.481
				c-1.253-3.24-3.262-6.197-5.036-9.222c-1.075-1.833-1.527-1.895-3.319-0.791c-4.171,2.567-8.354,5.111-12.8,7.19
				c-0.458,0.214-1.021,0.39-1.163,1.042c0.787,0.178,1.366-0.486,2.371-0.075c-1.317,0.568-0.408,1.12-0.215,1.743
				c0.398,1.286,1.407,2.303,1.59,3.676c0.308,2.307,1.383,4.285,2.574,6.232c0.616,1.007,1.003,2.152,1.61,3.164
				c1.061,1.766,1.19,3.824,1.908,5.682c1.058,2.739,2.13,5.465,2.821,8.326c0.166,0.689,0.267,1.562,1.15,1.642
				c0.979,0.088,0.094-1.119,0.813-1.381c1.567,1.814,1.882,4.222,2.727,6.309c2.025,5.006,3.365,10.279,4.587,15.557
				c0.262,1.131-0.331,2.223,0.026,3.436c0.913,3.103,1.509,6.29,2.388,9.416c1.794,6.382,4.064,12.539,7.384,18.288
				c0.121,0.209,0.343,0.522,0.508,0.518c1.225-0.04,1.484,0.989,1.926,1.741c0.598,1.019,0.957,2.187,1.611,3.161
				c1.802,2.679,2.367,6.026,4.631,8.455c0.289,0.31,0.306,0.864,0.483,1.292c0.256,0.616,0.41,1.343,0.84,1.809
				c2.021,2.19,3.465,4.763,4.565,7.458c0.862,2.11,2.833,3.908,2.198,6.533c1.177,0.797,1.106,2.243,1.732,3.324
				c2.187,3.779,3.743,7.925,6.619,11.303c1.612,1.894,1.903,4.415,3.056,6.54c3.95,7.286,8.178,14.416,12.342,21.576
				c1.762,3.029,3.311,6.161,5.059,9.189c2.294,3.975,4.561,7.966,6.843,11.948c0.576,1.006,1.286,1.553,2.526,0.947
				c0.595-0.289,1.255-0.446,1.823-0.822c0.283-0.187,0.679-0.536,0.956-0.168c0.354,0.471-0.186,0.696-0.472,0.959
				c-0.075,0.069-0.171,0.119-0.242,0.192c-0.241,0.249-0.726,0.492-0.489,0.858c0.341,0.528,0.681-0.046,1.033-0.156
				c2.607-0.819,3.954-3.269,6.108-4.72c3.364-2.266,6.481-4.877,10.35-6.327c1.735-0.65,3.193-1.819,5.078-2.322
				c1.977-0.526,3.817-1.691,5.476-3.025c0.545-0.438,1.258-0.741,2.034-0.514c0.815,0.239,1.405-0.085,1.863-0.737
				c0.617-0.88,1.414-0.942,2.44-0.806c1.268,0.169,2.57,0.559,3.875,0.166c-0.927-0.365-1.875-0.535-2.802-0.786
				C276.046,230.281,275.083,229.936,273.762,229.513z M282.898,228.507c-1.481-0.446-2.727,0.334-4.041,0.723
				c-0.353,0.104-0.769,0.646-1.034,0.077c-0.218-0.47,0.36-0.672,0.702-0.86c1.808-0.999,3.571-2.06,5.253-3.267
				c1.856-1.333,2.094-1.686,1.08-3.752c-1.135-2.312-2.467-4.529-3.745-6.77c-3.4-5.959-6.92-11.854-10.198-17.881
				c-2.508-4.611-5.108-9.177-7.271-13.978c-2.064-4.585-5.371-8.405-8.174-12.528c-0.909-1.339-1.965-2.67-3.108-3.805
				c-1.997-1.98-3.81-4.106-5.127-6.534c-3.154-5.811-6.804-11.32-10.23-16.957c-2.221-3.652-4.414-7.31-6.491-11.045
				c-2.774-4.988-4.861-10.387-8.726-14.73c-0.131-0.146-0.298-0.489-0.258-0.524c1.148-1.009-0.218-1.295-0.582-1.631
				c-1.249-1.154-2.728-2.081-3.786-3.422c-0.825-1.047-2.186-1.159-3.049-1.966c-1.325-1.239-2.516-2.575-4.159-3.463
				c-2.584-1.397-4.453-3.778-6.986-5.272c-1.225-0.723-2.32-1.518-3.955-1.299c-1.199,0.16-2.476-0.091-3.48-1.213
				c-1.419-1.586-3.063-2.97-4.612-4.44c0.829,1.443,2.086,2.531,3.021,3.832c3.302,4.586,7.221,8.644,11.188,12.589
				c7.018,6.98,12.616,14.976,17.783,23.315c2.005,3.237,3.508,6.787,5.523,10.017c1.886,3.022,3.549,6.173,5.48,9.161
				c4.217,6.522,6.61,14.028,11.244,20.355c2.393,3.267,4.097,7.039,6.077,10.603c5.539,9.966,11.099,19.921,16.568,29.925
				c2.375,4.342,5.132,8.469,7.212,12.986c0.305,0.662-0.206,2.697,1.811,2.102c0.045,0.191,0.104,0.381,0.132,0.574
				c0.065,0.459,0.401,0.611,0.777,0.592C279.572,229.93,281.207,229.14,282.898,228.507z M174.693,152.695
				c-0.307-0.872-0.646-1.734-0.903-2.619c-0.112-0.388-0.105-0.926,0.382-1.046c0.429-0.105,0.539,0.406,0.691,0.711
				c1.037,2.074,2.065,4.152,3.081,6.237c0.756,1.55,1.597,2.924,3.372,3.611c1.46,0.566,2.427,1.695,2.299,3.48
				c-0.043,0.597,0.123,1.233,0.308,1.815c0.655,2.062,1.327,4.118,2.054,6.155c1.014,2.84,1.086,5.989,3.073,8.52
				c1.862,2.372,2.716,5.468,5.236,7.394c0.224,0.171,0.295,0.534,0.456,0.797c1.754,2.874,2.731,6.108,4.218,9.109
				c0.808,1.63,2.45,2.888,2.756,4.604c0.606,3.392,2.689,6.041,4.037,9.037c2.046,4.547,5.073,8.561,7.934,12.64
				c1.134,1.618,1.381,3.663,2.639,5.222c0.839,1.039,1.608,2.129,2.319,3.274c1.791,2.884,2.913,6.106,4.686,8.989
				c1.802,2.933,3.44,5.97,5.543,8.711c0.404,0.527,0.769,1.134,1.616,0.911c1.595-0.419,2.924,0.489,4.339,0.926
				c0.585,0.181,0.928,1.332,1.622,0.804c0.719-0.546,0.604-1.597,0.458-2.453c-0.084-0.489-0.387-0.951-0.639-1.399
				c-3.208-5.711-6.357-11.455-9.653-17.115c-7.476-12.839-14.58-25.884-21.746-38.896c-2.04-3.703-4.049-7.431-6.41-10.945
				c-0.368-0.548-0.633-1.489-1.547-1.234c-0.977,0.273-1.352-0.314-1.698-0.938c-1.524-2.745-3.095-5.472-4.491-8.282
				c-1.511-3.04-2.507-6.369-4.922-8.888c-1.937-2.018-3.301-4.326-4.059-7.01c-0.139-0.492-0.415-0.966-0.134-1.484
				c0.345-0.638,0.96,0.235,1.45-0.318c-0.603-1.426-1.213-2.896-1.843-4.357c-2.705-6.275-3.72-13.191-7.264-19.152
				c-0.271-0.455-0.561-1.395,0.007-1.5c1.232-0.231,0.684-0.957,0.576-1.467c-0.75-3.581-1.506-7.162-2.366-10.717
				c-0.368-1.52-0.515-3.118-1.349-4.833c-0.343,1.402,0.128,2.491,0.027,3.574c-0.06,0.641,0.474,1.74-1,1.464
				c-0.307-0.058-0.467,0.233-0.408,0.513c0.307,1.46-0.102,3.106,0.288,4.362c0.783,2.53,0.509,5.072,0.874,7.582
				c0.146,1.009,0.84,1.933,0.546,3.003c-0.386,1.407-0.073,2.755,0.2,4.124c0.201,1.009,0.203,2.069,0.493,3.046
				c0.682,2.292,0.003,4.901,1.635,6.963c0.031,0.039,0.049,0.093,0.058,0.143c0.086,0.445,0.334,1.055-0.21,1.227
				c-0.623,0.196-0.569-0.466-0.748-0.881c-0.578-1.343-1.164-2.676-1.488-4.116C171.575,145.821,172.659,149.451,174.693,152.695z
				 M193.536,90.178c0.21-0.191,0.42-0.383,0.63-0.575c-1.88-1.631-3.293-3.66-4.886-5.535c-1.915-2.255-2.918-5.078-4.434-7.547
				c-2.072-3.373-4.107-6.778-6.199-10.144c-1.68-2.704-3.704-5.194-5.037-8.112c-0.247-0.54-0.705-0.922-1.215-0.626
				c-0.792,0.459,0.018,0.872,0.233,1.219c2.806,4.498,5.661,8.973,8.092,13.682c3.045,5.899,6.36,11.553,11.571,15.863
				C192.829,88.846,193.127,89.579,193.536,90.178z M223.95,118.22c8.175,15.052,16.8,30.269,26.472,44.867
				c0.023-0.4-0.125-0.707-0.3-0.997c-7.565-12.59-15.613-24.899-22.08-38.129C226.946,121.72,225.4,119.735,223.95,118.22z
				 M217.937,232.988c2.672,5.437,5.742,10.66,8.563,16.017C224.313,243.311,220.963,238.235,217.937,232.988z"/>
			<path fill-rule="evenodd" clip-rule="evenodd" d="M106.192,195.881c-0.104,3.678-2.8,7.229-6.246,8.36
				c-1.349,0.443-1.572,0.875-0.897,2.164c1.122,2.142,1.951,4.435,3.025,6.604c0.506,1.021,0.394,1.808-0.204,2.704
				c-3.575,5.364-7.122,10.748-10.679,16.124c-2.39,3.611-4.804,7.206-7.165,10.835c-1.643,2.525-3.598,4.769-5.797,6.818
				c-0.867,0.807-1.783,1.086-2.966,0.829c-5.693-1.238-11.482-2.134-17.071-3.729c-4.168-1.19-8.392-2.094-12.569-3.207
				c-0.778-0.207-1.5-0.25-2.272-0.011c-1.522,0.474-2.833,0.012-3.995-1.006c-1.025-0.898-1.783-2.008-2.431-3.185
				c-1.364-2.475-1.002-4.578,1.256-6.262c1.091-0.812,1.88-1.695,2.246-3c0.137-0.487,0.426-0.938,0.677-1.388
				c1.438-2.57,1.436-2.537-1.539-3.046c-8.417-1.438-16.6-3.642-24.494-6.984c-4.229-1.791-5.646-5.124-6.19-9.211
				c-0.386-2.903,0.808-5.42,2.25-7.73c3.415-5.467,7.022-10.813,10.534-16.22c0.508-0.781,1.149-0.897,1.999-0.71
				c3.432,0.758,6.742,1.937,10.116,2.897c4.908,1.397,9.81,2.822,14.703,4.271c2.472,0.731,4.919,1.542,7.379,2.313
				c0.539,0.169,1.119,0.432,1.594-0.081c1.34-1.446,3.109-1.48,4.754-1.115c2.462,0.546,4.697,0.18,6.907-0.863
				c0.466-0.219,0.959-0.379,1.44-0.564c0.977-0.377,1.742-0.111,2.205,0.818c0.388,0.782,0.685,1.609,1.038,2.409
				c0.177,0.403-0.006,1.078,0.553,1.17c0.557,0.091,0.904-0.45,1.188-0.868c1.191-1.748,2.39-3.493,3.513-5.285
				c1.614-2.575,3.141-5.204,4.75-7.782c1.06-1.699,1.704-1.878,3.617-1.392c2.999,0.763,6.012,1.456,8.977,2.361
				c2.864,0.874,4.878,2.451,5.147,5.624c0.084,0.994,0.589,1.563,1.375,2.075C104.961,191.946,105.95,193.912,106.192,195.881z"/>
			<path fill-rule="evenodd" clip-rule="evenodd" fill="none" d="M273.762,229.513c1.321,0.423,2.284,0.769,3.269,1.035
				c0.927,0.251,1.875,0.421,2.802,0.786c-1.305,0.393-2.607,0.003-3.875-0.166c-1.026-0.137-1.823-0.074-2.44,0.806
				c-0.458,0.652-1.048,0.977-1.863,0.737c-0.776-0.228-1.489,0.076-2.034,0.514c-1.658,1.334-3.499,2.499-5.476,3.025
				c-1.885,0.503-3.343,1.672-5.078,2.322c-3.868,1.45-6.985,4.062-10.35,6.327c-2.154,1.451-3.501,3.9-6.108,4.72
				c-0.353,0.11-0.692,0.685-1.033,0.156c-0.236-0.366,0.248-0.609,0.489-0.858c0.071-0.073,0.167-0.123,0.242-0.192
				c0.286-0.263,0.825-0.488,0.472-0.959c-0.277-0.368-0.673-0.019-0.956,0.168c-0.568,0.376-1.229,0.533-1.823,0.822
				c-1.24,0.605-1.95,0.059-2.526-0.947c-2.282-3.982-4.549-7.974-6.843-11.948c-1.748-3.028-3.297-6.16-5.059-9.189
				c-4.164-7.16-8.392-14.29-12.342-21.576c-1.152-2.125-1.443-4.646-3.056-6.54c-2.876-3.378-4.433-7.523-6.619-11.303
				c-0.626-1.081-0.556-2.527-1.732-3.324c0.635-2.625-1.336-4.423-2.198-6.533c-1.101-2.695-2.545-5.268-4.565-7.458
				c-0.43-0.466-0.584-1.192-0.84-1.809c-0.178-0.428-0.194-0.982-0.483-1.292c-2.264-2.429-2.829-5.776-4.631-8.455
				c-0.654-0.975-1.014-2.143-1.611-3.161c-0.441-0.752-0.701-1.781-1.926-1.741c-0.165,0.005-0.387-0.309-0.508-0.518
				c-3.319-5.75-5.59-11.906-7.384-18.288c-0.879-3.126-1.475-6.313-2.388-9.416c-0.357-1.213,0.235-2.304-0.026-3.436
				c-1.222-5.278-2.562-10.55-4.587-15.557c-0.845-2.087-1.159-4.494-2.727-6.309c-0.72,0.263,0.166,1.469-0.813,1.381
				c-0.884-0.08-0.984-0.953-1.15-1.642c-0.691-2.861-1.764-5.587-2.821-8.326c-0.718-1.858-0.848-3.916-1.908-5.682
				c-0.607-1.012-0.994-2.157-1.61-3.164c-1.191-1.948-2.267-3.926-2.574-6.232c-0.183-1.373-1.191-2.39-1.59-3.676
				c-0.193-0.624-1.103-1.175,0.215-1.743c-1.005-0.411-1.584,0.253-2.371,0.075c0.143-0.651,0.705-0.827,1.163-1.042
				c4.446-2.079,8.629-4.623,12.8-7.19c1.792-1.104,2.244-1.042,3.319,0.791c1.774,3.025,3.783,5.982,5.036,9.222
				c1.06,2.745,1.883,5.637,2.753,8.481c0.58,1.897,1.679,3.635,2.286,5.527c1.176,3.664,2.975,6.95,5.864,9.463
				c1.097,0.953,2.139,2.098,3.495,2.727c1.641,0.76,3.085,1.785,4.361,3.027c2.321,2.261,4.657,4.505,6.935,6.813
				c2.42,2.452,5.042,4.714,7.432,7.209c6.069,6.334,10.953,13.488,15.043,21.239c3.704,7.021,6.569,14.487,10.984,21.126
				c3.661,5.505,6.452,11.532,10.119,17.001c5.017,7.48,9.268,15.381,13.471,23.303c3.723,7.019,7.669,13.909,11.485,20.872
				c1.487,2.714,3.002,5.414,4.59,8.07C274.962,228.426,275.142,229.01,273.762,229.513z"/>
			<path fill-rule="evenodd" clip-rule="evenodd" fill="none" d="M282.898,228.507c-1.691,0.633-3.326,1.423-5.16,1.515
				c-0.376,0.02-0.712-0.133-0.777-0.592c-0.028-0.193-0.087-0.383-0.132-0.574c-2.017,0.596-1.506-1.439-1.811-2.102
				c-2.08-4.518-4.837-8.645-7.212-12.986c-5.47-10.004-11.029-19.959-16.568-29.925c-1.98-3.563-3.685-7.336-6.077-10.603
				c-4.634-6.327-7.027-13.833-11.244-20.355c-1.932-2.988-3.595-6.139-5.48-9.161c-2.016-3.23-3.519-6.78-5.523-10.017
				c-5.167-8.34-10.766-16.335-17.783-23.315c-3.968-3.946-7.887-8.003-11.188-12.589c-0.936-1.3-2.192-2.389-3.021-3.832
				c1.549,1.47,3.193,2.854,4.612,4.44c1.005,1.122,2.281,1.373,3.48,1.213c1.635-0.218,2.73,0.577,3.955,1.299
				c2.533,1.494,4.402,3.875,6.986,5.272c1.644,0.888,2.834,2.224,4.159,3.463c0.863,0.807,2.224,0.919,3.049,1.966
				c1.059,1.341,2.537,2.268,3.786,3.422c0.364,0.336,1.73,0.622,0.582,1.631c-0.04,0.035,0.127,0.377,0.258,0.524
				c3.864,4.344,5.951,9.743,8.726,14.73c2.077,3.735,4.271,7.393,6.491,11.045c3.427,5.637,7.076,11.146,10.23,16.957
				c1.317,2.428,3.13,4.554,5.127,6.534c1.144,1.135,2.199,2.466,3.108,3.805c2.803,4.123,6.109,7.943,8.174,12.528
				c2.162,4.801,4.763,9.366,7.271,13.978c3.278,6.026,6.798,11.922,10.198,17.881c1.278,2.24,2.61,4.457,3.745,6.77
				c1.014,2.066,0.776,2.419-1.08,3.752c-1.682,1.207-3.445,2.268-5.253,3.267c-0.342,0.188-0.92,0.391-0.702,0.86
				c0.266,0.569,0.682,0.027,1.034-0.077C280.172,228.841,281.417,228.061,282.898,228.507z"/>
			<path fill-rule="evenodd" clip-rule="evenodd" fill="none" d="M174.693,152.695c-2.034-3.244-3.118-6.874-3.605-10.705
				c0.324,1.439,0.91,2.773,1.488,4.116c0.179,0.415,0.125,1.078,0.748,0.881c0.544-0.172,0.296-0.782,0.21-1.227
				c-0.009-0.049-0.026-0.104-0.058-0.143c-1.632-2.062-0.953-4.671-1.635-6.963c-0.29-0.978-0.292-2.038-0.493-3.046
				c-0.273-1.369-0.586-2.717-0.2-4.124c0.294-1.07-0.399-1.994-0.546-3.003c-0.365-2.51-0.091-5.052-0.874-7.582
				c-0.39-1.256,0.019-2.902-0.288-4.362c-0.059-0.28,0.102-0.57,0.408-0.513c1.474,0.276,0.94-0.823,1-1.464
				c0.101-1.083-0.37-2.172-0.027-3.574c0.834,1.716,0.98,3.314,1.349,4.833c0.86,3.555,1.616,7.137,2.366,10.717
				c0.107,0.51,0.656,1.236-0.576,1.467c-0.567,0.106-0.277,1.046-0.007,1.5c3.544,5.96,4.559,12.877,7.264,19.152
				c0.63,1.461,1.24,2.931,1.843,4.357c-0.49,0.554-1.105-0.319-1.45,0.318c-0.281,0.519-0.005,0.992,0.134,1.484
				c0.758,2.684,2.122,4.992,4.059,7.01c2.415,2.519,3.411,5.848,4.922,8.888c1.396,2.811,2.967,5.537,4.491,8.282
				c0.347,0.624,0.722,1.212,1.698,0.938c0.914-0.255,1.179,0.687,1.547,1.234c2.361,3.515,4.37,7.242,6.41,10.945
				c7.166,13.012,14.271,26.057,21.746,38.896c3.296,5.66,6.445,11.404,9.653,17.115c0.252,0.448,0.555,0.91,0.639,1.399
				c0.146,0.856,0.261,1.907-0.458,2.453c-0.694,0.528-1.037-0.623-1.622-0.804c-1.415-0.437-2.744-1.345-4.339-0.926
				c-0.848,0.223-1.212-0.384-1.616-0.911c-2.103-2.741-3.741-5.778-5.543-8.711c-1.772-2.883-2.895-6.105-4.686-8.989
				c-0.711-1.146-1.48-2.235-2.319-3.274c-1.258-1.559-1.505-3.604-2.639-5.222c-2.86-4.079-5.888-8.093-7.934-12.64
				c-1.348-2.996-3.431-5.646-4.037-9.037c-0.306-1.717-1.948-2.975-2.756-4.604c-1.486-3.001-2.464-6.235-4.218-9.109
				c-0.161-0.263-0.232-0.626-0.456-0.797c-2.521-1.926-3.374-5.021-5.236-7.394c-1.987-2.53-2.06-5.68-3.073-8.52
				c-0.727-2.037-1.398-4.094-2.054-6.155c-0.185-0.582-0.351-1.219-0.308-1.815c0.128-1.785-0.839-2.914-2.299-3.48
				c-1.775-0.688-2.616-2.062-3.372-3.611c-1.016-2.085-2.044-4.163-3.081-6.237c-0.152-0.305-0.263-0.816-0.691-0.711
				c-0.487,0.12-0.494,0.658-0.382,1.046C174.048,150.961,174.387,151.823,174.693,152.695z"/>
			<path fill-rule="evenodd" clip-rule="evenodd" fill="none" d="M193.536,90.178c-0.409-0.599-0.707-1.332-1.244-1.776
				c-5.211-4.31-8.526-9.963-11.571-15.863c-2.431-4.709-5.286-9.185-8.092-13.682c-0.216-0.347-1.025-0.759-0.233-1.219
				c0.51-0.296,0.968,0.087,1.215,0.626c1.333,2.918,3.357,5.409,5.037,8.112c2.092,3.366,4.127,6.771,6.199,10.144
				c1.516,2.469,2.519,5.292,4.434,7.547c1.593,1.875,3.006,3.904,4.886,5.535C193.956,89.794,193.746,89.986,193.536,90.178z"/>
			<path fill-rule="evenodd" clip-rule="evenodd" fill="none" d="M155.099,64.956c0.377-1.605,1.418-2.87,2.304-4.176
				c2.551-3.759,3.609-8.051,4.665-12.355c0.095-0.384,0.139-0.868-0.013-1.208c-0.465-1.048,0.013-1.529,1.081-1.921
				c-0.349,1.918-0.081,3.605,0.632,5.37c0.608,1.505-0.022,3.327-0.64,4.769c-1.023,2.388-2.516,4.56-4.843,5.99
				c-1.396,0.857-1.922,2.538-3.201,3.52L155.099,64.956z"/>
			<path fill-rule="evenodd" clip-rule="evenodd" fill="none" d="M223.95,118.22c1.45,1.515,2.996,3.5,4.092,5.741
				c6.467,13.23,14.515,25.539,22.08,38.129c0.175,0.29,0.323,0.597,0.3,0.997C240.75,148.489,232.125,133.272,223.95,118.22z"/>
			<path fill-rule="evenodd" clip-rule="evenodd" fill="none" d="M155.084,64.944c-0.188,1.681,0.645,0.924,1.261,0.504
				c2.939-2.006,6.028-3.741,9.292-5.159c0.396-0.172,0.966-0.643,1.235-0.14c0.344,0.642-0.43,0.81-0.84,1.034
				c-2.665,1.453-5.345,2.879-8.018,4.318c-0.938,0.505-1.889,0.996-2.468,2.063c1.237-0.499,2.475-0.998,3.713-1.496
				c0.039,0.094,0.078,0.188,0.117,0.282c-2.327,1.122-4.654,2.243-6.982,3.364c1.001-1.579,1.593-3.323,2.704-4.758L155.084,64.944
				z"/>
			<path fill-rule="evenodd" clip-rule="evenodd" fill="none" d="M217.937,232.988c3.026,5.247,6.377,10.322,8.563,16.017
				C223.679,243.648,220.608,238.425,217.937,232.988z"/>
		</g>
	</g>
</g>
</svg>
