<?xml version="1.0" encoding="utf-8"?>
<!-- Generator: Adobe Illustrator 16.0.0, SVG Export Plug-In . SVG Version: 6.00 Build 0)  -->
<!DOCTYPE svg PUBLIC "-//W3C//DTD SVG 1.1//EN" "http://www.w3.org/Graphics/SVG/1.1/DTD/svg11.dtd">
<svg version="1.1" id="Rapier2_xA0_Image_1_" xmlns="http://www.w3.org/2000/svg" xmlns:xlink="http://www.w3.org/1999/xlink"
	 x="0px" y="0px" width="1409px" height="333px" viewBox="0 0 1409 333" enable-background="new 0 0 1409 333" xml:space="preserve"
	>
<g>
	<g>
		<path fill="none" d="M705.5,334c-233.333,0-466.667-0.011-700,0.094c-3.749,0.001-4.599-0.844-4.595-4.594
			c0.117-108.167,0.116-216.333,0-324.5C0.901,1.576,1.576,0.905,5,0.906c467,0.099,934,0.099,1401,0
			c3.423-0.001,4.1,0.669,4.096,4.094c-0.116,108.333-0.116,216.666,0,325c0.003,3.423-0.672,4.096-4.096,4.095
			C1172.5,333.99,939,334,705.5,334z M1188.89,133.512c-0.327,0.061-0.653,0.121-0.979,0.182c-0.691-1.061-1.417-2.101-2.068-3.185
			c-4.896-8.141-11.157-15.311-19.671-19.314c-18.403-8.653-36.849-8.216-54.773,2.093c-3.072,1.767-4.964,4.185-6.398,7.315
			c-5.098,11.128-6.171,23.103-6.907,35.01c-0.324,5.25-2.02,6.553-6.796,6.194c-4.458-0.335-8.965-0.044-13.45,0.017
			c-18.909,0.253-37.818,0.548-56.728,0.778c-17.518,0.214-35.036,0.332-52.554,0.551c-28.287,0.354-56.571,0.805-84.857,1.12
			c-19.373,0.217-38.779-0.354-58.114,0.595c-16.393,0.805-32.799,0.165-49.181,1.402c-9.538,0.721-19.219-0.349-28.74,0.482
			c-9.905,0.865-19.818,0.562-29.723,1.192c-14.537,0.926-29.165,0.318-43.75,0.595c-20.96,0.398-41.916,1-62.874,1.521
			c-20.044,0.499-40.093,0.028-60.146,0.961c-23.029,1.071-46.097,1.427-69.153,1.754c-27.895,0.396-55.778,1.037-83.665,1.86
			c-25.257,0.747-50.535,0.866-75.793,1.888c-14.114,0.57-28.247,0.314-42.378,0.823c-29.533,1.062-59.093,1.368-88.638,2.117
			c-17.045,0.433-34.08,1.355-51.126,1.641c-23.817,0.397-47.62,1.271-71.428,1.808c-14.13,0.318-28.217,1.172-42.319,1.823
			c-5.939,0.274-11.936,1.118-17.311,4.119c-0.972,0.543-2.328,0.927-2.14,2.415c0.137,1.084,1.054,1.628,2.038,1.968
			c4.686,1.617,9.185,3.741,14.382,3.59c14.977-0.436,29.959-0.654,44.938-0.983c33.297-0.733,66.604,0.12,99.914-1.039
			c11.079-0.386,22.319-0.076,33.456-0.26c30.594-0.503,61.192-0.345,91.789-1.187c32.868-0.905,65.772-0.496,98.661-0.709
			c49.95-0.323,99.9-0.711,149.85-1.024c20.542-0.129,41.084-0.104,61.625-0.21c22.989-0.117,45.976,0.381,68.969-0.202
			c21.487-0.545,42.986,0.025,64.479,0.095c39.384,0.128,78.769-0.292,118.151-1.09c31.644-0.641,63.307-0.428,94.961-0.431
			c33.684-0.002,67.347-1.738,101.047-0.918c13.375,0.325,26.779-0.492,40.169-0.831c6.698-0.169,6.271-0.104,7.146,6.244
			c2.092,15.197,6.088,29.84,18.928,39.776c7.562,5.852,15.585,11.504,25.987,11.201c7.413-0.216,14.475-1.739,20.847-5.679
			c2.909-1.799,5.463-2.401,8.659-0.204c4.359,2.997,9.089,5.463,13.714,8.059c2.196,1.232,2.793,3.079,2.79,5.418
			c-0.013,13.165,0.315,26.339-0.068,39.493c-0.216,7.431-1.511,14.837-2.471,22.234c-0.204,1.577-0.683,3.279,1.013,3.92
			c3.963,1.497,8.247,2.167,12.119,0.201c3.684-1.87,2.226-5.704,1.635-8.546c-3.447-16.594-2.627-33.465-3.567-50.217
			c-0.106-1.896-1.126-4.729,0.583-5.628c2.043-1.076,4.259,0.993,6.27,2.056c0.436,0.229,0.819,0.57,1.197,0.896
			c13.034,11.209,28.139,16.537,45.328,16.18c6.402-0.134,12.735-0.904,19.233,0.339c15.953,3.054,30.706-1.896,44.391-9.247
			c19.524-10.487,37.176-23.622,51.062-41.269c1.364-1.733,3.047-3.042,1.824-5.629c-1.405-2.972-3.722-4.591-6.841-5.032
			c-2.562-0.362-4.771,0.609-5.619,3.132c-3.744,11.128-11.262,19.441-20.047,26.694c-7.558,6.239-15.704,11.52-25.188,14.654
			c-13.396,4.427-27.354,2.074-41.004,3.805c-16.637,2.11-31.915-4.097-46.404-12.037c-17.983-9.854-26.53-32.725-24.643-50.423
			c0.279-2.615,0.901-6.537,4.448-6.287c11.67,0.825,23.104-2.793,35.006-0.305c13.32,2.784,27.037-1.045,40.617-0.054
			c3.063,0.224,6.314-0.523,9.317-1.387c7.532-2.164,15.22-1.548,22.803-1.229c3.562,0.15,6.78-0.321,9.474-2.041
			c3.43-2.188,4.863-2.437,6.006,2.107c1.432,5.692,6.752,9.092,12.525,9.548c10.506,0.83,20.992-0.674,31.452-0.178
			c7.923,0.375,13.592-1.959,16.875-9.389c0.586-1.327,1.712-2.415,2.581-3.619c1.244-1.723,2.07-2.459,4.631-1.029
			c3.635,2.028,7.835,1.347,10.798-2.058c3.113-3.578,2.288-7.6,0.004-11.126c-2.366-3.654-6.769-4.067-9.775-2.23
			c-5.897,3.601-6.153-1.546-8.141-4.239c-0.183-0.246-0.121-0.658-0.253-0.958c-2.093-4.778-5.125-8.662-10.694-9.206
			c-10.865-1.062-21.726-2.109-32.67-2.318c-8.296-0.159-14.074,3.174-17.568,10.503c-1.416,2.97-2.729,2.577-4.851,0.75
			c-2.728-2.35-5.789-3.029-9.648-2.692c-6.71,0.586-13.687,1.508-20.25-0.339c-14.79-4.162-29.973-1.001-44.867-3.047
			c-9.385-1.288-18.777,2.01-28.264,0.71c-3.76-0.516-7.604-0.938-11.373-0.732c-6.818,0.373-8.384-0.796-8.456-7.732
			c-0.103-9.946,0.546-19.954-0.356-29.824c-1.021-11.149-0.092-22.249-0.387-33.365c-0.148-5.589-0.731-11.268-0.049-16.863
			c1.307-10.708,1.664-21.521,3.652-32.155c0.392-2.099,0.566-4.466-1.796-5.775c-4-2.219-8.146-1.204-12.068,0.053
			c-2.81,0.9-1.784,3.675-1.48,5.675c3.005,19.814,2.977,39.774,3.012,59.733c0.011,6.161,0.082,12.323,0.102,18.484
			C1188.903,121.713,1188.89,127.612,1188.89,133.512z"/>
		<path fill-rule="evenodd" clip-rule="evenodd" d="M1188.89,133.512c0-5.899,0.014-11.799-0.004-17.698
			c-0.02-6.161-0.091-12.323-0.102-18.484c-0.035-19.959-0.007-39.919-3.012-59.733c-0.304-2-1.329-4.774,1.48-5.675
			c3.922-1.257,8.068-2.271,12.068-0.053c2.362,1.31,2.188,3.677,1.796,5.775c-1.988,10.635-2.346,21.447-3.652,32.155
			c-0.683,5.596-0.1,11.274,0.049,16.863c0.295,11.116-0.634,22.216,0.387,33.365c0.902,9.87,0.254,19.878,0.356,29.824
			c0.072,6.937,1.638,8.105,8.456,7.732c3.77-0.205,7.613,0.217,11.373,0.732c9.486,1.3,18.879-1.998,28.264-0.71
			c14.895,2.046,30.077-1.115,44.867,3.047c6.563,1.847,13.54,0.925,20.25,0.339c3.859-0.337,6.921,0.343,9.648,2.692
			c2.121,1.827,3.435,2.22,4.851-0.75c3.494-7.329,9.272-10.662,17.568-10.503c10.944,0.209,21.805,1.257,32.67,2.318
			c5.569,0.544,8.602,4.428,10.694,9.206c0.132,0.3,0.07,0.712,0.253,0.958c1.987,2.693,2.243,7.84,8.141,4.239
			c3.007-1.837,7.409-1.424,9.775,2.23c2.284,3.526,3.109,7.548-0.004,11.126c-2.963,3.404-7.163,4.086-10.798,2.058
			c-2.561-1.43-3.387-0.693-4.631,1.029c-0.869,1.204-1.995,2.292-2.581,3.619c-3.283,7.43-8.952,9.764-16.875,9.389
			c-10.46-0.496-20.946,1.008-31.452,0.178c-5.773-0.456-11.094-3.855-12.525-9.548c-1.143-4.544-2.576-4.295-6.006-2.107
			c-2.693,1.72-5.912,2.191-9.474,2.041c-7.583-0.319-15.271-0.936-22.803,1.229c-3.003,0.863-6.254,1.61-9.317,1.387
			c-13.58-0.991-27.297,2.838-40.617,0.054c-11.902-2.488-23.336,1.13-35.006,0.305c-3.547-0.25-4.169,3.672-4.448,6.287
			c-1.888,17.698,6.659,40.568,24.643,50.423c14.489,7.94,29.768,14.147,46.404,12.037c13.65-1.73,27.607,0.622,41.004-3.805
			c9.484-3.135,17.631-8.415,25.188-14.654c8.785-7.253,16.303-15.566,20.047-26.694c0.849-2.522,3.058-3.494,5.619-3.132
			c3.119,0.441,5.436,2.061,6.841,5.032c1.223,2.587-0.46,3.896-1.824,5.629c-13.887,17.646-31.538,30.781-51.062,41.269
			c-13.685,7.351-28.438,12.301-44.391,9.247c-6.498-1.243-12.831-0.473-19.233-0.339c-17.189,0.357-32.294-4.971-45.328-16.18
			c-0.378-0.325-0.762-0.666-1.197-0.896c-2.011-1.062-4.227-3.132-6.27-2.056c-1.709,0.899-0.689,3.731-0.583,5.628
			c0.94,16.752,0.12,33.623,3.567,50.217c0.591,2.842,2.049,6.676-1.635,8.546c-3.872,1.966-8.156,1.296-12.119-0.201
			c-1.695-0.641-1.217-2.343-1.013-3.92c0.96-7.397,2.255-14.804,2.471-22.234c0.384-13.154,0.056-26.328,0.068-39.493
			c0.003-2.339-0.594-4.186-2.79-5.418c-4.625-2.596-9.354-5.062-13.714-8.059c-3.196-2.197-5.75-1.595-8.659,0.204
			c-6.372,3.939-13.434,5.463-20.847,5.679c-10.402,0.303-18.425-5.35-25.987-11.201c-12.84-9.937-16.836-24.579-18.928-39.776
			c-0.875-6.349-0.447-6.413-7.146-6.244c-13.39,0.339-26.794,1.156-40.169,0.831c-33.7-0.82-67.363,0.916-101.047,0.918
			c-31.654,0.003-63.317-0.21-94.961,0.431c-39.383,0.798-78.768,1.218-118.151,1.09c-21.493-0.069-42.993-0.64-64.479-0.095
			c-22.993,0.583-45.979,0.085-68.969,0.202c-20.542,0.105-41.084,0.081-61.625,0.21c-49.95,0.313-99.9,0.701-149.85,1.024
			c-32.888,0.213-65.792-0.196-98.661,0.709c-30.597,0.842-61.195,0.684-91.789,1.187c-11.137,0.184-22.377-0.126-33.456,0.26
			c-33.31,1.159-66.616,0.306-99.914,1.039c-14.979,0.329-29.961,0.548-44.938,0.983c-5.197,0.151-9.696-1.973-14.382-3.59
			c-0.984-0.34-1.901-0.884-2.038-1.968c-0.188-1.488,1.168-1.872,2.14-2.415c5.375-3.001,11.372-3.845,17.311-4.119
			c14.102-0.651,28.189-1.505,42.319-1.823c23.808-0.537,47.611-1.41,71.428-1.808c17.046-0.285,34.081-1.208,51.126-1.641
			c29.545-0.749,59.105-1.056,88.638-2.117c14.131-0.509,28.264-0.253,42.378-0.823c25.258-1.021,50.536-1.141,75.793-1.888
			c27.887-0.823,55.77-1.465,83.665-1.86c23.056-0.327,46.125-0.683,69.153-1.754c20.053-0.933,40.102-0.462,60.146-0.961
			c20.958-0.521,41.914-1.122,62.874-1.521c14.584-0.276,29.213,0.331,43.75-0.595c9.904-0.631,19.817-0.327,29.723-1.192
			c9.521-0.831,19.202,0.238,28.74-0.482c16.382-1.237,32.788-0.598,49.181-1.402c19.335-0.949,38.741-0.378,58.114-0.595
			c28.286-0.315,56.57-0.767,84.857-1.12c17.518-0.219,35.036-0.337,52.554-0.551c18.909-0.23,37.818-0.525,56.728-0.778
			c4.485-0.061,8.992-0.352,13.45-0.017c4.776,0.358,6.472-0.944,6.796-6.194c0.736-11.907,1.81-23.882,6.907-35.01
			c1.435-3.131,3.326-5.549,6.398-7.315c17.925-10.309,36.37-10.746,54.773-2.093c8.514,4.004,14.775,11.174,19.671,19.314
			c0.651,1.084,1.377,2.124,2.068,3.185C1188.236,133.633,1188.562,133.572,1188.89,133.512z M1150.188,165.588
			c1.496,0,3.015-0.166,4.484,0.031c4.233,0.566,4.891-1.012,3.195-4.631c-6.826-14.575-15.389-27.79-28.37-37.766
			c-2.282-1.754-3.772-1.92-6.02-0.032c-6.654,5.591-11.291,12.758-16.013,19.866c-0.916,1.379-1.58,3.188-0.025,4.586
			c4.182,3.763,4.159,8.941,4.518,13.831c0.265,3.622,1.894,4.498,5.09,4.354C1128.089,165.329,1139.138,165.215,1150.188,165.588z
			 M1171.482,165.495c8.455,0.092,10.082-2.31,6.943-9.618c-2.099-4.886-4.151-9.799-6.465-14.584
			c-4.63-9.57-11.548-17.113-20.459-22.95c-4.791-3.139-9.756-2.279-14.823-1.529c-0.863,0.128-1.812,0.321-1.692,1.392
			c0.059,0.521,0.677,1.101,1.187,1.432c7.438,4.837,12.468,11.966,17.106,19.163c4.477,6.947,7.983,14.55,11.549,22.04
			C1166.391,164.122,1168.157,166.154,1171.482,165.495z M1132.267,184.067c7.416,6.101,13.946,11.86,20.906,17.041
			c3.78,2.814,6.816,6.288,10.263,9.38c3.799,3.408,5.315,3.082,7.968-0.979c3.2-4.898,3.95-9.615,0.599-14.768
			c-1.152-1.771-1.712-3.947-2.433-5.978c-1.133-3.188-3.169-4.777-6.708-4.737C1152.942,184.143,1143.021,184.067,1132.267,184.067
			z M1153.406,226.898c-1.203-1.044-1.997-1.919-2.957-2.536c-11.67-7.506-23.359-14.981-35.06-22.44
			c-1.25-0.797-2.261-2.666-4.176-0.71c-1.617,1.651-1.197,3.049-0.468,4.931c1.894,4.882,4.816,9.194,8.06,13.095
			C1126.573,228.579,1139.901,235.038,1153.406,226.898z M1113.429,189.295c-0.313,2.472,1.344,3.754,3.258,4.977
			c12.248,7.823,24.502,15.639,36.672,23.582c1.946,1.27,3.832,2.595,5.995,3.425c1.404,0.539,2.773,0.021,3.446-1.227
			c0.629-1.167-0.795-1.493-1.391-2.204c-5.995-7.147-13.604-12.498-20.73-18.329c-6.374-5.213-13.281-9.816-20.207-14.297
			C1116.489,182.646,1113.554,184.534,1113.429,189.295z"/>
		<path fill-rule="evenodd" clip-rule="evenodd" fill="none" d="M1150.188,165.588c-11.05-0.373-22.099-0.259-33.141,0.239
			c-3.196,0.145-4.825-0.731-5.09-4.354c-0.358-4.89-0.336-10.068-4.518-13.831c-1.555-1.398-0.891-3.207,0.025-4.586
			c4.722-7.108,9.358-14.275,16.013-19.866c2.247-1.888,3.737-1.722,6.02,0.032c12.981,9.976,21.544,23.19,28.37,37.766
			c1.695,3.619,1.038,5.197-3.195,4.631C1153.202,165.422,1151.684,165.588,1150.188,165.588z"/>
		<path fill-rule="evenodd" clip-rule="evenodd" fill="none" d="M1171.482,165.495c-3.325,0.659-5.092-1.373-6.654-4.655
			c-3.565-7.49-7.072-15.093-11.549-22.04c-4.639-7.197-9.669-14.326-17.106-19.163c-0.51-0.331-1.128-0.91-1.187-1.432
			c-0.119-1.07,0.829-1.264,1.692-1.392c5.067-0.75,10.032-1.609,14.823,1.529c8.911,5.837,15.829,13.38,20.459,22.95
			c2.313,4.785,4.366,9.698,6.465,14.584C1181.564,163.186,1179.938,165.587,1171.482,165.495z"/>
		<path fill-rule="evenodd" clip-rule="evenodd" fill="none" d="M1132.267,184.067c10.755,0,20.676,0.075,30.595-0.04
			c3.539-0.04,5.575,1.549,6.708,4.737c0.721,2.03,1.28,4.206,2.433,5.978c3.352,5.152,2.602,9.869-0.599,14.768
			c-2.652,4.061-4.169,4.387-7.968,0.979c-3.446-3.092-6.482-6.565-10.263-9.38C1146.213,195.928,1139.683,190.168,1132.267,184.067
			z"/>
		<path fill-rule="evenodd" clip-rule="evenodd" fill="none" d="M1153.406,226.898c-13.505,8.14-26.833,1.681-34.601-7.661
			c-3.243-3.9-6.166-8.213-8.06-13.095c-0.729-1.882-1.149-3.279,0.468-4.931c1.915-1.956,2.926-0.087,4.176,0.71
			c11.7,7.459,23.39,14.935,35.06,22.44C1151.409,224.979,1152.203,225.854,1153.406,226.898z"/>
		<path fill-rule="evenodd" clip-rule="evenodd" fill="none" d="M1113.429,189.295c0.125-4.761,3.061-6.649,7.043-4.073
			c6.926,4.48,13.833,9.084,20.207,14.297c7.127,5.831,14.735,11.182,20.73,18.329c0.596,0.711,2.02,1.037,1.391,2.204
			c-0.673,1.248-2.042,1.766-3.446,1.227c-2.163-0.83-4.049-2.155-5.995-3.425c-12.17-7.943-24.424-15.759-36.672-23.582
			C1114.772,193.049,1113.115,191.767,1113.429,189.295z"/>
	</g>
</g>
</svg>
