<?xml version="1.0" encoding="utf-8"?>
<!-- Generator: Adobe Illustrator 16.0.0, SVG Export Plug-In . SVG Version: 6.00 Build 0)  -->
<!DOCTYPE svg PUBLIC "-//W3C//DTD SVG 1.1//EN" "http://www.w3.org/Graphics/SVG/1.1/DTD/svg11.dtd">
<svg version="1.1" id="Layer_1" xmlns="http://www.w3.org/2000/svg" xmlns:xlink="http://www.w3.org/1999/xlink" x="0px" y="0px"
	 width="300px" height="300px" viewBox="0 0 300 300" enable-background="new 0 0 300 300" xml:space="preserve">
<g>
	<g>
		<path fill="none" d="M134.471,300.367c-56.741,0-113.481-0.002-170.221,0.021c-0.856,0-1.049-0.192-1.049-1.049
			c0.022-99.78,0.022-199.562,0-299.342c0-0.856,0.192-1.049,1.049-1.049c113.48,0.022,226.961,0.022,340.441,0
			c0.856,0,1.05,0.192,1.049,1.048c-0.022,99.781-0.022,199.562,0,299.343c0.001,0.855-0.191,1.049-1.048,1.049
			C247.952,300.365,191.211,300.367,134.471,300.367z M147.158,116.37c0.443,0,0.749-0.014,1.052,0.002
			c3.946,0.212,7.252-3.456,6.766-7.368c-0.243-1.958-0.941-3.841-0.862-5.847c0.059-1.465-0.25-2.982,0.388-4.367
			c1.366-2.967,3.676-5.21,6.186-7.138c7.769-5.965,15.708-11.704,23.42-17.745c4.301-3.369,8.636-6.693,12.938-10.06
			c3.584-2.804,7.191-5.579,10.751-8.415c4.805-3.829,9.559-7.727,14.472-11.412c2.723-2.043,5.09-4.605,8.31-5.964
			c0.158-0.067,0.254-0.275,0.385-0.412c1.157-1.198,0.83-2.576,0.492-3.961c-0.39-1.593-1.289-2.989-1.73-4.572
			c-0.206-0.738-0.048-1.134,0.511-1.522c0.716-0.499,1.432-1.001,2.125-1.531c1.083-0.829,1.556-1.787,1.146-3.255
			c-0.352-1.259-0.745-2.459-1.446-3.552c-1.538-2.396-3.024-4.84-5.754-6.128c-0.677-0.319-1.189-0.481-1.973-0.017
			c-1.708,1.015-3.212,2.296-4.848,3.397c-0.479,0.322-0.812,0.689-1.321-0.103c-0.495-0.772-1.458-1.144-2.318-0.693
			c-0.903,0.473-0.91,1.407-0.583,2.312c0.064,0.179,0.112,0.379,0.227,0.521c0.407,0.507,0.139,0.814-0.274,1.114
			c-2.151,1.561-4.248,3.196-6.376,4.786c-8.177,6.11-16.43,12.117-24.657,18.159c-8.484,6.23-16.984,12.441-25.456,18.689
			c-5.772,4.257-11.459,8.632-17.274,12.83c-6.798,4.908-13.528,9.909-20.369,14.761c-10.104,7.166-20.027,14.586-30.021,21.906
			c-0.295,0.216-0.797,0.388-0.769,0.774c0.055,0.747-0.46,0.984-0.924,1.294c-0.829,0.555-1.467,1.314-2.194,1.979
			c-1.083,0.991-1.438,2.485-2.609,3.417c-2.644,2.106-5.433,4.012-8.125,6.048c-4.028,3.045-8.194,5.905-12.132,9.073
			c-1.919,1.544-3.92,2.99-5.907,4.448c-0.38,0.279-0.794,0.827-1.374,0.234c-0.674-0.688-1.365-0.477-2.045,0.001
			c-0.559,0.392-1.097,0.817-1.675,1.177c-3.881,2.411-6.653,5.802-8.773,9.794c-0.903,1.701-1.74,3.43-3.022,4.928
			c-1.298,1.519-3.245,2.351-5.16,1.788c-1.397-0.409-2.725-1.108-3.802-2.015c-2.125-1.787-4.35-1.965-6.795-1.002
			c-0.752,0.297-1.354,0.829-1.757,1.547c-0.112,0.199-0.183,0.434-0.046,0.649c0.157,0.247,0.389,0.152,0.613,0.101
			c0.404-0.092,0.804-0.156,1.229-0.174c2.256-0.09,3.411,1.504,4.488,3.034c2.133,3.031,4.733,5.23,8.591,5.493
			c1.615,0.109,2.464,0.872,3.026,2.455c1.177,3.319,3.225,6.074,6.245,8.011c0.419,0.269,0.61,0.545,0.279,1.013
			c-0.24,0.34-0.464,0.693-0.661,1.06c-0.67,1.25-1.603,2.333-1.745,3.882c-0.268,2.915-0.255,5.766,0.897,8.513
			c0.251,0.601,0.138,1.069-0.32,1.543c-1.105,1.144-2.239,2.258-3.275,3.474c-2.403,2.821-4.391,5.915-5.936,9.256
			c-0.981,2.121-1.721,4.376-2.35,6.632c-1.346,4.827-2.386,9.724-2.279,14.777c0.042,1.965-0.201,3.972,0.331,5.886
			c1.048,3.771,1.412,7.67,2.317,11.477c1.034,4.346,1.717,8.783,2.764,13.136c0.622,2.585,0.972,5.22,1.438,7.827
			c0.612,3.426,0.875,6.915,1.223,10.384c0.275,2.748,0.598,5.505,0.62,8.26c0.016,1.986,0.177,3.938,0.446,5.892
			c0.229,1.662,2.301,2.742,3.781,1.961c0.971-0.513,1.942-1.054,2.818-1.709c4.558-3.413,9.287-6.595,13.68-10.233
			c2.484-2.058,5.148-3.894,7.705-5.867c5.469-4.222,11.058-8.287,16.409-12.664c1.379-1.128,1.508-2.031,0.203-3.284
			c-3.037-2.916-5.978-5.9-8.716-9.123c-3.535-4.16-6.701-8.527-9.071-13.429c-1.735-3.588-2.491-7.49-2.599-11.445
			c-0.094-3.458,0.524-6.82,1.976-10.059c1.044-2.33,2.325-4.403,4.128-6.183c1.515-1.494,3.256-2.55,5.446-2.452
			c2.392,0.106,4.736,0.584,6.934,1.559c4.284,1.899,8.284,1.597,12.087-1.256c4.214-3.161,8.293-6.426,10.625-11.34
			c0.988-2.082,1.589-4.217,1.306-6.579c-0.391-3.254-2.164-5.829-4.082-8.26c-3.351-4.245-2.217-9.779,0.738-13.187
			c1.778-2.051,3.938-3.767,5.834-5.724c1.16-1.198,2.766-2.334,2.309-4.312c-0.355-1.538,0.417-2.418,1.415-3.144
			c2.658-1.933,4.237-4.857,6.631-7.032c0.656-0.595,0.985-1.53,1.178-2.438c0.414-1.945,0.618-3.896-0.151-5.801
			c-0.344-0.85-0.123-1.382,0.599-1.912c1.896-1.393,3.739-2.858,5.611-4.285c4.858-3.706,9.754-7.365,14.56-11.137
			C144.506,116.527,145.726,115.977,147.158,116.37z"/>
		<path fill-rule="evenodd" clip-rule="evenodd" d="M147.158,116.37c-1.433-0.393-2.652,0.157-3.913,1.146
			c-4.806,3.772-9.702,7.432-14.56,11.137c-1.872,1.427-3.715,2.892-5.611,4.285c-0.722,0.53-0.942,1.062-0.599,1.912
			c0.769,1.904,0.564,3.856,0.151,5.801c-0.193,0.908-0.522,1.843-1.178,2.438c-2.394,2.174-3.973,5.099-6.631,7.032
			c-0.999,0.726-1.771,1.605-1.415,3.144c0.457,1.978-1.148,3.113-2.309,4.312c-1.896,1.957-4.056,3.673-5.834,5.724
			c-2.955,3.407-4.089,8.941-0.738,13.187c1.918,2.431,3.691,5.006,4.082,8.26c0.284,2.362-0.318,4.497-1.306,6.579
			c-2.332,4.914-6.412,8.179-10.625,11.34c-3.803,2.853-7.803,3.155-12.087,1.256c-2.198-0.975-4.542-1.452-6.934-1.559
			c-2.19-0.098-3.932,0.958-5.446,2.452c-1.803,1.779-3.083,3.853-4.128,6.183c-1.452,3.238-2.07,6.601-1.976,10.059
			c0.108,3.955,0.864,7.857,2.599,11.445c2.37,4.901,5.537,9.269,9.071,13.429c2.738,3.223,5.679,6.207,8.716,9.123
			c1.306,1.253,1.177,2.156-0.203,3.284c-5.351,4.377-10.94,8.442-16.409,12.664c-2.556,1.974-5.22,3.81-7.705,5.867
			c-4.393,3.639-9.122,6.82-13.68,10.233c-0.876,0.655-1.848,1.196-2.818,1.709c-1.48,0.781-3.553-0.299-3.781-1.961
			c-0.269-1.953-0.43-3.905-0.446-5.892c-0.022-2.755-0.345-5.512-0.62-8.26c-0.347-3.469-0.611-6.958-1.223-10.384
			c-0.466-2.607-0.815-5.242-1.438-7.827c-1.047-4.353-1.73-8.79-2.764-13.136c-0.905-3.807-1.269-7.706-2.317-11.477
			c-0.532-1.914-0.289-3.921-0.331-5.886c-0.106-5.054,0.933-9.95,2.279-14.777c0.629-2.256,1.368-4.511,2.35-6.632
			c1.545-3.341,3.533-6.435,5.936-9.256c1.036-1.216,2.169-2.33,3.275-3.474c0.458-0.474,0.572-0.942,0.32-1.543
			c-1.152-2.747-1.165-5.598-0.897-8.513c0.142-1.549,1.075-2.632,1.745-3.882c0.197-0.366,0.421-0.72,0.661-1.06
			c0.331-0.468,0.14-0.744-0.279-1.013c-3.02-1.937-5.067-4.691-6.245-8.011c-0.562-1.583-1.411-2.346-3.026-2.455
			c-3.858-0.263-6.458-2.462-8.591-5.493c-1.078-1.53-2.232-3.124-4.488-3.034c-0.425,0.018-0.825,0.082-1.229,0.174
			c-0.225,0.052-0.456,0.146-0.613-0.101c-0.136-0.216-0.066-0.45,0.046-0.649c0.404-0.718,1.005-1.25,1.757-1.547
			c2.446-0.963,4.67-0.785,6.795,1.002c1.077,0.906,2.404,1.605,3.802,2.015c1.915,0.562,3.861-0.27,5.16-1.788
			c1.282-1.498,2.119-3.227,3.022-4.928c2.12-3.993,4.892-7.384,8.773-9.794c0.579-0.36,1.116-0.785,1.675-1.177
			c0.681-0.479,1.372-0.689,2.045-0.001c0.58,0.592,0.993,0.045,1.374-0.234c1.987-1.458,3.988-2.903,5.907-4.448
			c3.938-3.167,8.104-6.027,12.132-9.073c2.693-2.036,5.482-3.942,8.125-6.048c1.17-0.933,1.525-2.426,2.609-3.417
			c0.727-0.665,1.365-1.423,2.194-1.979c0.463-0.311,0.979-0.547,0.924-1.294c-0.028-0.386,0.474-0.558,0.769-0.774
			c9.994-7.32,19.917-14.74,30.021-21.906c6.841-4.852,13.57-9.853,20.369-14.761c5.815-4.198,11.502-8.573,17.274-12.83
			c8.472-6.248,16.972-12.458,25.456-18.689c8.228-6.042,16.48-12.049,24.657-18.159c2.128-1.59,4.225-3.225,6.376-4.786
			c0.413-0.3,0.682-0.607,0.274-1.114c-0.114-0.142-0.162-0.342-0.227-0.521c-0.327-0.905-0.32-1.839,0.583-2.312
			c0.86-0.45,1.823-0.079,2.318,0.693c0.51,0.792,0.843,0.425,1.321,0.103c1.636-1.101,3.14-2.382,4.848-3.397
			c0.783-0.464,1.296-0.302,1.973,0.017c2.729,1.288,4.216,3.732,5.754,6.128c0.701,1.092,1.095,2.292,1.446,3.552
			c0.409,1.468-0.063,2.426-1.146,3.255c-0.693,0.53-1.409,1.033-2.125,1.531c-0.559,0.388-0.717,0.784-0.511,1.522
			c0.441,1.583,1.341,2.979,1.73,4.572c0.338,1.385,0.665,2.764-0.492,3.961c-0.131,0.136-0.227,0.345-0.385,0.412
			c-3.22,1.359-5.587,3.921-8.31,5.964c-4.913,3.686-9.667,7.583-14.472,11.412c-3.56,2.836-7.167,5.611-10.751,8.415
			c-4.303,3.367-8.638,6.691-12.938,10.06c-7.712,6.042-15.651,11.78-23.42,17.745c-2.51,1.928-4.819,4.171-6.186,7.138
			c-0.638,1.385-0.329,2.902-0.388,4.367c-0.079,2.006,0.619,3.89,0.862,5.847c0.486,3.912-2.819,7.58-6.766,7.368
			C147.907,116.356,147.602,116.37,147.158,116.37z M80.415,191.983c-0.228,2.716,0.242,4.958,1.871,7.007
			c1.041,1.31,2.051,2.548,3.635,3.146c3.395,1.281,6.562,0.771,9.42-1.425c2.051-1.576,3.795-3.483,5.553-5.377
			c1.452-1.564,2.862-3.174,3.883-5.033c2.072-3.775,0.748-9.274-3.256-11.977c-3.912-2.641-6.249-2.854-10.021-0.793
			c-1.209,0.66-1.981,1.863-2.958,2.812c-1.552,1.504-3.356,2.723-4.817,4.331c-0.957,1.053-1.574,2.022-0.962,3.609
			c1.18,3.06,3.157,5.315,6,6.857c1.202,0.652,2.472,1.146,3.792,1.516c1.184,0.33,1.972,1.328,2.105,2.554
			c0.048,0.443,0.017,0.794-0.532,0.766c-2.625-0.137-5.156-0.834-7.342-2.197C84.415,196.302,82.237,194.481,80.415,191.983z
			 M153.078,86.182c0.035,0.046,0.069,0.091,0.104,0.137c1.039-0.616,2.143-1.144,3.104-1.862
			c5.012-3.74,10.102-7.373,15.079-11.162c7.906-6.02,15.912-11.909,23.763-18.003c2.727-2.116,5.537-4.125,8.277-6.225
			c4.065-3.114,8.096-6.274,12.155-9.396c2.042-1.571,4.12-3.097,6.172-4.655c0.187-0.143,0.55-0.307,0.335-0.617
			c-0.226-0.326-0.463-0.044-0.665,0.118c-4.881,3.918-10.081,7.414-14.977,11.319c-3.557,2.836-7.295,5.443-10.888,8.235
			c-3.804,2.957-7.778,5.685-11.514,8.733c-3.083,2.516-6.349,4.8-9.505,7.226C167.426,75.482,160.231,80.806,153.078,86.182z
			 M110.273,141.938c-0.103-0.202-0.14-0.31-0.205-0.397c-2.005-2.719-4.013-5.436-6.022-8.151c-0.185-0.25-0.415-0.333-0.678-0.11
			c-0.288,0.244-0.121,0.451,0.044,0.683c1.856,2.611,3.236,5.464,4.347,8.46c0.118,0.318,0.083,1.039,0.683,0.775
			C109.111,142.905,109.67,142.367,110.273,141.938z"/>
		<path fill-rule="evenodd" clip-rule="evenodd" fill="none" d="M80.415,191.983c1.823,2.498,4,4.318,6.371,5.796
			c2.187,1.363,4.717,2.061,7.342,2.197c0.549,0.028,0.58-0.322,0.532-0.766c-0.133-1.226-0.921-2.224-2.105-2.554
			c-1.32-0.369-2.59-0.863-3.792-1.516c-2.843-1.542-4.82-3.798-6-6.857c-0.612-1.587,0.005-2.557,0.962-3.609
			c1.461-1.608,3.265-2.827,4.817-4.331c0.978-0.948,1.75-2.151,2.958-2.812c3.771-2.062,6.108-1.848,10.021,0.793
			c4.004,2.702,5.329,8.201,3.256,11.977c-1.021,1.859-2.432,3.469-3.883,5.033c-1.757,1.894-3.501,3.801-5.553,5.377
			c-2.858,2.195-6.025,2.706-9.42,1.425c-1.584-0.599-2.594-1.837-3.635-3.146C80.656,196.941,80.187,194.699,80.415,191.983z"/>
		<path fill-rule="evenodd" clip-rule="evenodd" fill="none" d="M153.078,86.182c7.153-5.376,14.348-10.699,21.442-16.151
			c3.156-2.426,6.422-4.709,9.505-7.226c3.735-3.048,7.71-5.777,11.514-8.733c3.593-2.792,7.331-5.399,10.888-8.235
			c4.896-3.905,10.096-7.4,14.977-11.319c0.202-0.162,0.439-0.444,0.665-0.118c0.215,0.311-0.148,0.475-0.335,0.617
			c-2.052,1.559-4.13,3.084-6.172,4.655c-4.06,3.122-8.09,6.282-12.155,9.396c-2.74,2.099-5.551,4.108-8.277,6.225
			c-7.851,6.094-15.856,11.983-23.763,18.003c-4.978,3.789-10.067,7.421-15.079,11.162c-0.962,0.718-2.065,1.246-3.104,1.862
			C153.147,86.273,153.113,86.228,153.078,86.182z"/>
		<path fill-rule="evenodd" clip-rule="evenodd" fill="none" d="M110.273,141.938c-0.604,0.429-1.163,0.967-1.83,1.26
			c-0.601,0.264-0.565-0.457-0.683-0.775c-1.111-2.996-2.491-5.849-4.347-8.46c-0.165-0.232-0.333-0.439-0.044-0.683
			c0.263-0.222,0.494-0.14,0.678,0.11c2.009,2.715,4.017,5.432,6.022,8.151C110.133,141.628,110.171,141.736,110.273,141.938z"/>
	</g>
</g>
<g>
	<g>
		<path fill="none" d="M159.471,299.367c-56.741,0-113.481-0.002-170.221,0.021c-0.856,0-1.049-0.193-1.049-1.049
			c0.022-99.781,0.022-199.562,0-299.342c0-0.856,0.192-1.049,1.049-1.049c113.48,0.022,226.96,0.022,340.441,0
			c0.856,0,1.05,0.192,1.05,1.048c-0.023,99.781-0.023,199.562,0,299.342c0,0.856-0.192,1.05-1.049,1.05
			C272.951,299.365,216.211,299.367,159.471,299.367z M146.864,115.345c1.504-0.517,2.787,0.306,4.07,1.377
			c2.417,2.018,4.99,3.843,7.49,5.754c3.891,2.973,7.691,6.072,11.703,8.88c1.338,0.936,1.606,1.8,1.152,3.358
			c-0.802,2.751-0.292,5.422,1.462,7.731c0.987,1.299,2.349,2.244,3.286,3.657c0.787,1.188,1.945,2.189,3.155,3.081
			c0.899,0.663,1.792,1.479,1.357,2.938c-0.231,0.779-0.103,1.686,0.474,2.387c1.496,1.82,3.086,3.57,4.884,5.08
			c2.402,2.017,4.306,4.211,5.162,7.389c0.867,3.215,0.214,5.902-1.655,8.459c-1.436,1.964-2.866,3.961-3.631,6.275
			c-1.505,4.553,0.281,8.457,2.912,11.994c2.72,3.657,6.278,6.408,10.124,8.866c2.407,1.539,4.809,1.82,7.473,1.274
			c2.897-0.594,5.533-2.069,8.526-2.391c1.763-0.188,3.443-0.12,4.928,0.804c4.169,2.595,6.205,6.761,7.388,11.236
			c0.738,2.794,0.879,5.75,0.545,8.773c-0.632,5.727-2.832,10.697-5.937,15.427c-1.843,2.807-4.066,5.286-6.14,7.898
			c-1.538,1.938-3.208,3.735-5.009,5.423c-1.025,0.961-2.024,1.95-3.036,2.926c-1.172,1.128-1.373,2.309-0.359,3.017
			c1.066,0.745,1.941,1.693,2.974,2.469c3.947,2.964,7.912,5.909,11.789,8.963c3.667,2.889,7.455,5.618,11.084,8.558
			c2.714,2.198,5.606,4.175,8.425,6.242c2.081,1.526,4.15,3.065,6.36,4.409c1.773,1.078,3.91,0.11,4.256-1.945
			c0.575-3.415,0.432-6.875,0.694-10.309c0.229-2.986,0.76-5.939,0.965-8.916c0.262-3.802,1.021-7.516,1.703-11.234
			c1.013-5.515,2.351-10.969,3.486-16.461c0.6-2.899,0.876-5.876,1.642-8.726c0.848-3.155,0.665-6.336,0.579-9.485
			c-0.076-2.738-0.547-5.488-1.209-8.191c-1.129-4.609-2.45-9.116-4.749-13.318c-1.934-3.536-4.307-6.698-7.207-9.466
			c-0.932-0.889-1.16-1.671-0.746-2.982c1.186-3.763,1.554-7.556-0.728-11.13c-0.244-0.383-0.472-0.778-0.743-1.141
			c-0.539-0.719-0.532-1.213,0.372-1.68c1.087-0.561,1.953-1.438,2.706-2.404c1.521-1.951,2.959-3.948,3.657-6.376
			c0.146-0.504,0.328-1.044,0.958-1.16c0.743-0.136,1.495-0.227,2.237-0.365c2.002-0.375,3.842-0.996,5.388-2.485
			c1.192-1.147,2.146-2.449,3.156-3.727c1.182-1.495,2.574-2.559,4.647-2.213c0.368,0.061,0.848,0.507,1.111-0.03
			c0.227-0.459-0.164-0.87-0.479-1.194c-1.831-1.88-5.664-2.081-7.669-0.344c-1.108,0.959-2.382,1.603-3.682,2.201
			c-1.671,0.771-3.28,0.557-4.686-0.635c-1.249-1.059-2.301-2.291-2.993-3.806c-2.478-5.423-6.169-9.784-11.298-12.89
			c-0.787-0.477-1.519-0.935-2.334-0.089c-0.302,0.312-0.573,0.217-0.896-0.022c-1.34-0.995-2.738-1.916-4.046-2.951
			c-6.343-5.019-12.939-9.695-19.433-14.51c-1.426-1.057-3.102-1.906-4.053-3.436c-1.126-1.811-2.438-3.373-4.201-4.565
			c-0.211-0.143-0.526-0.386-0.514-0.562c0.059-0.831-0.592-1.07-1.085-1.441c-0.82-0.616-1.644-1.228-2.476-1.826
			c-9.999-7.184-19.864-14.55-29.886-21.705c-8.329-5.947-16.548-12.052-24.736-18.196c-8.755-6.57-17.636-12.973-26.459-19.452
			c-8.172-6.001-16.352-11.993-24.509-18.014c-5.097-3.762-10.146-7.589-15.249-11.342c-0.787-0.578-1.294-0.982-0.677-2.035
			c0.478-0.814,0.376-1.817-0.509-2.316c-0.855-0.482-1.83-0.115-2.324,0.646c-0.55,0.847-0.908,0.438-1.41,0.09
			c-1.653-1.147-3.184-2.469-4.942-3.468c-0.386-0.22-0.733-0.398-1.163-0.17c-1.307,0.695-2.687,1.32-3.635,2.495
			c-1.309,1.624-2.509,3.334-3.517,5.167c-1.483,2.696-1.141,4.395,1.221,6.188c2.311,1.755,2.359,2.015,1.036,4.644
			c-0.688,1.367-1.126,2.814-1.231,4.35c-0.073,1.065,0.509,2.17,1.285,2.355c1.886,0.451,2.966,1.947,4.334,2.973
			c5.033,3.775,9.854,7.833,14.796,11.731c4.527,3.571,9.118,7.062,13.662,10.611c4.961,3.875,9.89,7.792,14.854,11.664
			c3.442,2.684,7.055,5.141,10.456,7.882c4.843,3.903,10.238,7.095,14.716,11.479c1.664,1.629,2.99,3.497,3.447,5.718
			c0.382,1.857,0.24,3.839-0.168,5.752c-0.378,1.775-0.942,3.555-0.479,5.393C139.921,113.618,142.783,115.542,146.864,115.345z"/>
		<path fill-rule="evenodd" clip-rule="evenodd" d="M146.864,115.345c-4.081,0.196-6.943-1.728-7.799-5.122
			c-0.463-1.838,0.1-3.618,0.479-5.393c0.408-1.913,0.551-3.895,0.168-5.752c-0.457-2.221-1.783-4.089-3.447-5.718
			c-4.478-4.384-9.873-7.576-14.716-11.479c-3.401-2.741-7.014-5.198-10.456-7.882c-4.964-3.872-9.893-7.788-14.854-11.664
			c-4.544-3.549-9.134-7.04-13.662-10.611c-4.942-3.898-9.763-7.956-14.796-11.731c-1.368-1.026-2.448-2.521-4.334-2.973
			c-0.775-0.185-1.357-1.29-1.285-2.355c0.105-1.536,0.543-2.983,1.231-4.35c1.323-2.629,1.275-2.888-1.036-4.644
			c-2.362-1.794-2.704-3.492-1.221-6.188c1.008-1.833,2.208-3.543,3.517-5.167c0.948-1.175,2.328-1.8,3.635-2.495
			c0.43-0.229,0.777-0.05,1.163,0.17c1.759,1,3.289,2.321,4.942,3.468c0.502,0.348,0.86,0.757,1.41-0.09
			c0.494-0.761,1.469-1.129,2.324-0.646c0.885,0.5,0.986,1.502,0.509,2.316c-0.617,1.053-0.11,1.457,0.677,2.035
			c5.104,3.753,10.152,7.58,15.249,11.342c8.157,6.021,16.336,12.013,24.509,18.014c8.823,6.479,17.704,12.882,26.459,19.452
			c8.188,6.145,16.407,12.25,24.736,18.196c10.021,7.155,19.887,14.521,29.886,21.705c0.832,0.598,1.655,1.21,2.476,1.826
			c0.493,0.371,1.144,0.61,1.085,1.441c-0.013,0.177,0.303,0.419,0.514,0.562c1.763,1.192,3.075,2.754,4.201,4.565
			c0.951,1.53,2.627,2.379,4.053,3.436c6.493,4.815,13.09,9.492,19.433,14.51c1.308,1.035,2.706,1.956,4.046,2.951
			c0.323,0.239,0.595,0.334,0.896,0.022c0.815-0.845,1.547-0.388,2.334,0.089c5.129,3.106,8.82,7.467,11.298,12.89
			c0.692,1.515,1.744,2.747,2.993,3.806c1.405,1.191,3.015,1.406,4.686,0.635c1.3-0.599,2.573-1.242,3.682-2.201
			c2.005-1.737,5.838-1.536,7.669,0.344c0.315,0.324,0.706,0.735,0.479,1.194c-0.264,0.537-0.743,0.091-1.111,0.03
			c-2.073-0.346-3.466,0.718-4.647,2.213c-1.01,1.277-1.964,2.579-3.156,3.727c-1.546,1.489-3.386,2.11-5.388,2.485
			c-0.742,0.139-1.494,0.229-2.237,0.365c-0.63,0.116-0.812,0.656-0.958,1.16c-0.698,2.428-2.137,4.425-3.657,6.376
			c-0.753,0.966-1.619,1.844-2.706,2.404c-0.904,0.467-0.911,0.961-0.372,1.68c0.271,0.362,0.499,0.758,0.743,1.141
			c2.281,3.574,1.913,7.367,0.728,11.13c-0.414,1.312-0.186,2.094,0.746,2.982c2.9,2.768,5.273,5.93,7.207,9.466
			c2.299,4.202,3.62,8.709,4.749,13.318c0.662,2.703,1.133,5.453,1.209,8.191c0.086,3.149,0.269,6.33-0.579,9.485
			c-0.766,2.85-1.042,5.826-1.642,8.726c-1.136,5.492-2.474,10.946-3.486,16.461c-0.683,3.719-1.441,7.433-1.703,11.234
			c-0.205,2.977-0.736,5.93-0.965,8.916c-0.263,3.434-0.119,6.894-0.694,10.309c-0.346,2.056-2.482,3.023-4.256,1.945
			c-2.21-1.344-4.279-2.883-6.36-4.409c-2.818-2.067-5.711-4.044-8.425-6.242c-3.629-2.939-7.417-5.669-11.084-8.558
			c-3.877-3.054-7.842-5.999-11.789-8.963c-1.032-0.775-1.907-1.724-2.974-2.469c-1.014-0.708-0.812-1.889,0.359-3.017
			c1.012-0.976,2.011-1.965,3.036-2.926c1.801-1.688,3.471-3.485,5.009-5.423c2.073-2.612,4.297-5.092,6.14-7.898
			c3.104-4.729,5.305-9.7,5.937-15.427c0.334-3.023,0.193-5.979-0.545-8.773c-1.183-4.476-3.219-8.642-7.388-11.236
			c-1.484-0.924-3.165-0.992-4.928-0.804c-2.993,0.321-5.629,1.797-8.526,2.391c-2.664,0.546-5.065,0.265-7.473-1.274
			c-3.846-2.458-7.404-5.209-10.124-8.866c-2.631-3.537-4.417-7.441-2.912-11.994c0.765-2.314,2.195-4.312,3.631-6.275
			c1.869-2.557,2.522-5.244,1.655-8.459c-0.856-3.178-2.76-5.372-5.162-7.389c-1.798-1.51-3.388-3.26-4.884-5.08
			c-0.576-0.701-0.705-1.607-0.474-2.387c0.435-1.46-0.458-2.275-1.357-2.938c-1.21-0.892-2.368-1.893-3.155-3.081
			c-0.938-1.414-2.299-2.358-3.286-3.657c-1.754-2.309-2.264-4.98-1.462-7.731c0.454-1.558,0.186-2.422-1.152-3.358
			c-4.012-2.808-7.812-5.907-11.703-8.88c-2.5-1.911-5.073-3.737-7.49-5.754C149.65,115.651,148.368,114.828,146.864,115.345z
			 M213.517,191.14c-0.69,0.732-1.299,1.409-1.94,2.054c-2.984,3.001-6.381,5.23-10.73,5.61c-0.498,0.043-1.17,0.521-1.479-0.041
			c-0.342-0.62,0.032-1.341,0.388-1.923c0.363-0.594,0.928-1.059,1.604-1.19c0.758-0.148,1.439-0.471,2.138-0.742
			c3.564-1.386,6.125-3.78,7.604-7.381c0.706-1.717,0.142-2.809-1.035-3.983c-2.228-2.223-4.763-4.106-6.894-6.441
			c-1.126-1.234-2.783-1.629-4.395-1.861c-3.636-0.524-9.232,3.064-10.219,7.641c-0.526,2.441-0.548,4.812,0.862,6.896
			c2.543,3.758,5.643,7.05,9.162,9.916c2.519,2.053,5.43,2.521,8.561,1.776C210.642,200.638,214.345,195.567,213.517,191.14z
			 M140.872,85.164c-3.04-2.261-6.123-4.467-9.112-6.793c-7.691-5.986-15.621-11.657-23.239-17.74
			c-2.577-2.058-5.317-3.909-7.946-5.902c-4.926-3.735-9.809-7.527-14.74-11.255c-4.146-3.135-8.322-6.229-12.52-9.292
			c-0.425-0.31-0.841-1.277-1.389-0.72c-0.293,0.298,0.629,0.858,1.086,1.199c5.989,4.466,11.89,9.047,17.808,13.607
			c6.249,4.814,12.564,9.541,18.801,14.371c4.829,3.739,9.844,7.234,14.66,10.997c3.103,2.425,6.362,4.65,9.528,6.996
			C136.058,82.297,138.255,84.034,140.872,85.164z M190.312,132.148c-0.381,0.028-0.493,0.35-0.666,0.583
			c-1.647,2.228-3.284,4.462-4.928,6.692c-1.114,1.512-1.1,1.483,0.465,2.585c0.488,0.345,0.689,0.324,0.888-0.23
			c1.127-3.15,2.535-6.159,4.509-8.879C190.883,132.483,190.687,132.291,190.312,132.148z"/>
		<path fill-rule="evenodd" clip-rule="evenodd" fill="none" d="M213.517,191.14c0.828,4.428-2.875,9.498-6.373,10.33
			c-3.131,0.744-6.042,0.276-8.561-1.776c-3.52-2.866-6.619-6.158-9.162-9.916c-1.41-2.085-1.389-4.455-0.862-6.896
			c0.986-4.576,6.583-8.165,10.219-7.641c1.611,0.232,3.269,0.627,4.395,1.861c2.131,2.335,4.666,4.219,6.894,6.441
			c1.177,1.175,1.741,2.267,1.035,3.983c-1.479,3.601-4.04,5.995-7.604,7.381c-0.698,0.271-1.38,0.594-2.138,0.742
			c-0.677,0.132-1.241,0.597-1.604,1.19c-0.355,0.582-0.729,1.303-0.388,1.923c0.31,0.562,0.981,0.084,1.479,0.041
			c4.35-0.38,7.746-2.609,10.73-5.61C212.218,192.549,212.826,191.872,213.517,191.14z"/>
		<path fill-rule="evenodd" clip-rule="evenodd" fill="none" d="M140.872,85.164c-2.616-1.13-4.813-2.867-7.062-4.534
			c-3.166-2.346-6.425-4.571-9.528-6.996c-4.816-3.763-9.832-7.257-14.66-10.997c-6.237-4.83-12.553-9.557-18.801-14.371
			c-5.917-4.56-11.818-9.141-17.808-13.607c-0.457-0.341-1.379-0.9-1.086-1.199c0.548-0.557,0.964,0.41,1.389,0.72
			c4.198,3.063,8.375,6.157,12.52,9.292c4.931,3.729,9.814,7.52,14.74,11.255c2.629,1.994,5.369,3.845,7.946,5.902
			c7.618,6.083,15.547,11.754,23.239,17.74C134.749,80.697,137.832,82.903,140.872,85.164z"/>
		<path fill-rule="evenodd" clip-rule="evenodd" fill="none" d="M190.312,132.148c0.374,0.143,0.57,0.335,0.268,0.752
			c-1.974,2.72-3.382,5.729-4.509,8.879c-0.198,0.554-0.399,0.575-0.888,0.23c-1.564-1.102-1.579-1.074-0.465-2.585
			c1.644-2.229,3.28-4.464,4.928-6.692C189.819,132.498,189.932,132.176,190.312,132.148z"/>
	</g>
</g>
</svg>
