<?xml version="1.0" encoding="utf-8"?>
<!-- Generator: Adobe Illustrator 16.0.0, SVG Export Plug-In . SVG Version: 6.00 Build 0)  -->
<!DOCTYPE svg PUBLIC "-//W3C//DTD SVG 1.1//EN" "http://www.w3.org/Graphics/SVG/1.1/DTD/svg11.dtd">
<svg version="1.1" id="Layer_1" xmlns="http://www.w3.org/2000/svg" xmlns:xlink="http://www.w3.org/1999/xlink" x="0px" y="0px"
	 width="568px" height="234px" viewBox="0 0 568 234" enable-background="new 0 0 568 234" xml:space="preserve">
<g>
	<g>
		<path fill="none" d="M284.785,235.485c-93.466,0-186.933-0.012-280.399,0.059c-2.628,0.002-3.564-0.297-3.56-3.332
			C0.934,156.114,0.931,80.017,0.831,3.919c-0.003-2.791,0.681-3.221,3.298-3.22c187.058,0.072,374.115,0.075,561.174-0.017
			c3.004-0.001,3.35,0.892,3.348,3.543c-0.076,75.973-0.08,151.946,0.016,227.918c0.004,2.891-0.75,3.408-3.482,3.406
			C471.717,235.472,378.25,235.485,284.785,235.485z M98.361,192.362c0-1.499-0.024-2.999,0.003-4.498
			c0.45-24.606,15.91-43.83,38.864-48.409c5.903-1.178,10.786,0.475,14.934,4.776c3.858,4.002,6.533,8.813,9.482,13.439
			c3.26,5.114,7.276,9.323,13.515,10.431c14.239,2.53,27.825,0.425,40.621-6.334c4.772-2.521,7.763-6.169,8.355-11.981
			c0.485-4.756,0.246-9.471,0.466-14.197c0.316-6.796,7.303-15.59,13.882-16.876c5.128-1.003,10.342-1.566,15.524-2.277
			c1.379-0.189,3.281-0.163,3.613-1.496c0.969-3.886,4.23-3.663,6.974-4.453c4.466-1.288,9.929-2.22,11.39-6.957
			c3.753-12.162,8.674-23.796,13.893-35.346c0.148-0.329,0.096-0.743,0.193-1.103c0.553-2.035,1.709-3.085,4.006-3.128
			c4.229-0.079,8.453-0.456,12.68-0.702c1.514-0.088,3.422-0.082,3.807-1.73c0.697-2.99,2.771-2.719,4.904-2.708
			c22.602,0.123,45.182-0.522,67.762-1.474c13.961-0.588,27.945-0.635,41.92-0.802c9.668-0.115,9.766-0.028,10.381,9.422
			c0.184,2.813,1.027,4.468,3.988,4.819c3.232,0.383,5.379-0.69,6.049-4.021c0.393-1.954,0.963-3.925,0.967-5.89
			c0.006-2.794,1.162-3.676,3.859-3.648c5.105,0.054,10.223,0.334,15.311-0.666c2.465-0.485,4.23-1.188,4.289-4.129
			c0.045-2.316,1.176-3.46,3.797-3.465c7.602-0.015,15.215-0.36,22.803-0.501c15.721-0.293,31.43-1.387,47.168-0.989
			c4.74,0.12,9.49-0.27,14.232-0.227c3.117,0.028,4.771-1.334,5.693-4.266c1.629-5.188,2.434-10.459,1.982-15.859
			c-0.773-9.283-2.818-11.151-12.072-11.45c-1.494-0.048-3.025,0.116-3.863-1.605c-4.027-8.289-11.572-10.015-19.729-10.313
			c-6.588-0.241-8.543,1.202-8.705,7.732c-0.111,4.537-2.061,4.875-5.711,4.834c-44.719-0.485-89.432,0.563-134.15,0.772
			c-16.348,0.076-32.689-0.378-49.053,0.517c-13.082,0.716-26.234,0.15-39.354,0.139c-1.357-0.001-2.795,0.221-3.883-0.919
			c-2.648-2.776-6.179-3.597-9.71-4.458c-10.973-2.675-22.22-2.924-33.391-3.473c-22.215-1.092-44.371,1.949-66.593,1.378
			c-2.926-0.076-5.309,1.368-7.422,3.159c-2.756,2.336-5.443,4.77-8.005,7.317c-2.299,2.286-5.05,3.56-8.08,4.489
			c-6.021,1.849-11.346-0.116-16.432-3.01c-4.336-2.468-8.457-5.313-12.786-7.794c-3.991-2.287-8.284-2.649-12.627-1.013
			c-1.259,0.474-2.783,1.141-2.806,2.685c-0.027,1.805,1.755,1.817,3.02,2.158c8.002,2.158,14.104,6.61,17.868,14.183
			c2.118,4.26,4.635,8.319,8.895,10.882c1.125,0.677,1.411,1.707,1.237,2.899c-1.143,7.814-1.393,15.647-0.589,23.511
			c0.143,1.402,0.081,2.833-1.479,3.519c-6.155,2.706-9.402,8.005-12.146,13.702c-1.001,2.079-2.387,2.932-4.703,2.828
			c-3.993-0.179-7.964,0.189-11.944,0.686c-24.418,3.048-43.172,15.088-56.947,35.323c-9.269,13.616-15.701,28.644-22.315,43.604
			c-5.494,12.426-10.155,25.254-17.933,36.583c-3.741,5.448-7.418,10.965-10.368,16.91c-1.648,3.321-1.365,3.818,2.39,3.827
			c13.098,0.03,26.164,0.832,39.243,1.404c17.947,0.783,35.913,1.138,53.873,1.588c5.215,0.131,5.309-0.225,4.146-5.344
			C101.146,213.811,97.647,203.425,98.361,192.362z"/>
		<path fill-rule="evenodd" clip-rule="evenodd" d="M98.361,192.362c-0.714,11.062,2.785,21.448,5.181,32.005
			c1.163,5.119,1.069,5.475-4.146,5.344c-17.96-0.45-35.926-0.805-53.873-1.588c-13.079-0.572-26.145-1.374-39.243-1.404
			c-3.755-0.009-4.039-0.506-2.39-3.827c2.95-5.945,6.627-11.462,10.368-16.91c7.778-11.329,12.439-24.157,17.933-36.583
			c6.614-14.96,13.047-29.987,22.315-43.604c13.775-20.235,32.528-32.275,56.947-35.323c3.98-0.496,7.951-0.864,11.944-0.686
			c2.315,0.104,3.701-0.749,4.703-2.828c2.744-5.697,5.99-10.997,12.146-13.702c1.56-0.686,1.622-2.117,1.479-3.519
			c-0.804-7.864-0.554-15.697,0.589-23.511c0.174-1.192-0.111-2.222-1.237-2.899c-4.26-2.563-6.777-6.623-8.895-10.882
			c-3.764-7.572-9.866-12.024-17.868-14.183c-1.265-0.341-3.047-0.353-3.02-2.158c0.023-1.544,1.547-2.211,2.806-2.685
			c4.343-1.637,8.637-1.274,12.627,1.013c4.329,2.48,8.45,5.326,12.786,7.794c5.086,2.894,10.411,4.859,16.432,3.01
			c3.029-0.93,5.78-2.204,8.08-4.489c2.562-2.547,5.249-4.98,8.005-7.317c2.114-1.791,4.496-3.234,7.422-3.159
			c22.223,0.571,44.378-2.47,66.593-1.378c11.171,0.549,22.418,0.798,33.391,3.473c3.531,0.861,7.062,1.682,9.71,4.458
			c1.088,1.14,2.525,0.918,3.883,0.919c13.119,0.011,26.271,0.577,39.354-0.139c16.363-0.895,32.705-0.44,49.053-0.517
			c44.719-0.209,89.432-1.258,134.15-0.772c3.65,0.04,5.6-0.297,5.711-4.834c0.162-6.531,2.117-7.973,8.705-7.732
			c8.156,0.298,15.701,2.025,19.729,10.313c0.838,1.721,2.369,1.557,3.863,1.605c9.254,0.299,11.299,2.167,12.072,11.45
			c0.451,5.4-0.354,10.671-1.982,15.859c-0.922,2.932-2.576,4.294-5.693,4.266c-4.742-0.043-9.492,0.347-14.232,0.227
			c-15.738-0.398-31.447,0.695-47.168,0.989c-7.588,0.141-15.201,0.486-22.803,0.501c-2.621,0.005-3.752,1.149-3.797,3.465
			c-0.059,2.942-1.824,3.645-4.289,4.129c-5.088,1-10.205,0.719-15.311,0.666c-2.697-0.028-3.854,0.854-3.859,3.648
			c-0.004,1.965-0.574,3.936-0.967,5.89c-0.67,3.331-2.816,4.405-6.049,4.021c-2.961-0.351-3.805-2.005-3.988-4.819
			c-0.615-9.45-0.713-9.537-10.381-9.422c-13.975,0.167-27.959,0.214-41.92,0.802c-22.58,0.951-45.16,1.596-67.762,1.474
			c-2.133-0.011-4.207-0.282-4.904,2.708c-0.385,1.648-2.293,1.642-3.807,1.73c-4.227,0.246-8.451,0.623-12.68,0.702
			c-2.297,0.043-3.453,1.093-4.006,3.128c-0.098,0.359-0.045,0.774-0.193,1.103c-5.219,11.55-10.14,23.184-13.893,35.346
			c-1.461,4.737-6.924,5.669-11.39,6.957c-2.743,0.79-6.005,0.567-6.974,4.453c-0.332,1.333-2.234,1.307-3.613,1.496
			c-5.183,0.711-10.396,1.274-15.524,2.277c-6.58,1.286-13.566,10.08-13.882,16.876c-0.22,4.727,0.019,9.441-0.466,14.197
			c-0.592,5.812-3.583,9.461-8.355,11.981c-12.795,6.759-26.382,8.864-40.621,6.334c-6.239-1.107-10.255-5.316-13.515-10.431
			c-2.949-4.626-5.624-9.438-9.482-13.439c-4.147-4.302-9.03-5.954-14.934-4.776c-22.954,4.579-38.414,23.803-38.864,48.409
			C98.337,189.363,98.361,190.863,98.361,192.362z M181.266,158.806c-5.327-5.003-7.29-10.879-6.41-17.521
			c0.479-3.622,0.515-7.212,0.518-10.821c0-1.272,0.746-3.092-0.847-3.695c-1.266-0.479-2.597,0.617-3.736,1.378
			c-0.722,0.481-1.393,1.063-2.007,1.681c-9.126,9.159-5.408,26.585,6.618,31.3c6.74,2.643,13.699,2.518,20.677,1.739
			c6.013-0.671,11.825-2.211,16.661-6.102c4.628-3.724,6.542-8.66,5.766-14.562c-1.87-14.213-17.683-22.545-32.242-17.355
			c-0.958,0.341-1.851,0.789-2.146,1.895c-2.129,7.951-6.145,15.638-2.748,24.291C182.282,153.36,182.991,156.057,181.266,158.806z
			 M191.644,23.48c0.002,0.092,0.005,0.184,0.007,0.276c1.237,0,2.475,0,3.711,0c17.622,0,35.244-0.002,52.866,0.001
			c6.089,0.001,6.062,0.006,6.13,6.293c0.059,5.496,0.193,10.991,0.282,16.486c0.025,1.554,0.417,2.854,2.322,2.574
			c2.013-0.296,1.263-1.737,1.003-2.908c-1.484-6.675-1.183-13.441-0.454-20.122c0.356-3.27-0.276-4.115-3.507-4.173
			c-17.492-0.315-34.954,0.822-52.436,0.91C198.259,22.833,194.952,23.249,191.644,23.48z M254.627,81.527c-0.076,0-0.151,0-0.227,0
			c0,3.244,0.027,6.489-0.01,9.733c-0.029,2.579,0.957,3.333,3.498,2.455c2.112-0.729,2.989-1.946,2.966-4.134
			c-0.062-5.745-0.071-11.492,0.003-17.236c0.029-2.177-0.664-3.147-3.016-3.146c-2.46,0.001-3.349,0.934-3.245,3.335
			C254.725,75.527,254.627,78.529,254.627,81.527z"/>
		<path fill-rule="evenodd" clip-rule="evenodd" fill="none" d="M181.266,158.806c1.725-2.749,1.016-5.445,0.102-7.772
			c-3.396-8.653,0.619-16.34,2.748-24.291c0.296-1.105,1.189-1.554,2.146-1.895c14.559-5.189,30.373,3.143,32.242,17.355
			c0.776,5.901-1.137,10.838-5.766,14.562c-4.836,3.891-10.648,5.431-16.661,6.102c-6.978,0.778-13.937,0.903-20.677-1.739
			c-12.026-4.715-15.744-22.141-6.618-31.3c0.615-0.617,1.285-1.199,2.007-1.681c1.139-0.761,2.47-1.857,3.736-1.378
			c1.592,0.604,0.847,2.423,0.847,3.695c-0.002,3.609-0.038,7.199-0.518,10.821C173.977,147.927,175.939,153.803,181.266,158.806z"
			/>
		<path fill-rule="evenodd" clip-rule="evenodd" fill="none" d="M191.644,23.48c3.309-0.231,6.616-0.646,9.925-0.663
			c17.482-0.088,34.944-1.225,52.436-0.91c3.23,0.058,3.863,0.904,3.507,4.173c-0.729,6.68-1.03,13.446,0.454,20.122
			c0.26,1.171,1.01,2.612-1.003,2.908c-1.905,0.28-2.297-1.02-2.322-2.574c-0.089-5.496-0.224-10.99-0.282-16.486
			c-0.067-6.287-0.041-6.292-6.13-6.293c-17.622-0.003-35.244-0.001-52.866-0.001c-1.237,0-2.474,0-3.711,0
			C191.648,23.664,191.646,23.572,191.644,23.48z"/>
		<path fill-rule="evenodd" clip-rule="evenodd" fill="none" d="M254.627,81.527c0-2.998,0.098-6-0.03-8.992
			c-0.104-2.401,0.785-3.334,3.245-3.335c2.352-0.002,3.045,0.969,3.016,3.146c-0.074,5.744-0.064,11.491-0.003,17.236
			c0.023,2.188-0.854,3.404-2.966,4.134c-2.541,0.878-3.527,0.124-3.498-2.455c0.037-3.244,0.01-6.489,0.01-9.733
			C254.476,81.527,254.551,81.527,254.627,81.527z"/>
	</g>
</g>
</svg>
