<?xml version="1.0" encoding="utf-8"?>
<!-- Generator: Adobe Illustrator 16.0.0, SVG Export Plug-In . SVG Version: 6.00 Build 0)  -->
<!DOCTYPE svg PUBLIC "-//W3C//DTD SVG 1.1//EN" "http://www.w3.org/Graphics/SVG/1.1/DTD/svg11.dtd">
<svg version="1.1" id="Layer_1" xmlns="http://www.w3.org/2000/svg" xmlns:xlink="http://www.w3.org/1999/xlink" x="0px" y="0px"
	 width="300px" height="300px" viewBox="0 0 300 300" enable-background="new 0 0 300 300" xml:space="preserve">
<g id="Rifle_1_">
	<g>
		<g>
			<path fill="none" d="M162.982,300.427c-54.06,0-108.12-0.004-162.18,0.027c-1.181,0-1.545-0.155-1.545-1.48
				C-0.7,200.077-0.701,101.181-0.738,2.284c0-1.225,0.276-1.425,1.452-1.425c108.17,0.033,216.339,0.033,324.509,0.002
				c1.143,0,1.469,0.151,1.469,1.408c-0.039,98.946-0.039,197.892-0.006,296.837c0,1.139-0.293,1.346-1.375,1.346
				C271.201,300.423,217.092,300.427,162.982,300.427z M101.716,210.931c-0.193-0.653-0.718-0.483-1.007-0.717
				c-0.467-0.378-1.373-0.615-1.012-1.37c0.361-0.757,1.008-0.14,1.531,0.062c0.397,0.154,0.836,0.469,1.229,0.039
				c0.474-0.518,0.042-0.974-0.274-1.286c-0.721-0.711-0.787-1.308-0.362-2.302c0.683-1.601,1.619-3.033,2.458-4.53
				c0.843-1.504,2.383-2.168,3.761-3.012c0.589-0.361,0.917,0.164,1.204,0.536c0.807,1.043,0.592,2.236,0.406,3.406
				c-0.076,0.481-0.331,0.975,0.25,1.314c0.511,0.298,0.795-0.128,1.167-0.351c0.997-0.596,2.218-0.777,3.062-1.661
				c1.189,1.233,1.711-0.318,2.042-0.744c2.714-3.487,5.271-7.097,7.905-10.647c2.398-3.234,4.902-6.394,7.219-9.685
				c1.061-1.507,2.281-2.927,2.912-4.743c1.283-3.693,3.376-6.954,6.272-9.543c2.54-2.27,4.729-4.85,7.073-7.286
				c2.983-3.103,5.713-6.449,8.596-9.65c3.74-4.149,7.484-8.293,11.307-12.365c1.381-1.472,2.525-3.147,3.941-4.556
				c1.436-1.429,2.809-2.835,3.783-4.644c0.789-1.466,1.66-2.937,2.75-4.184c3.824-4.377,8.613-7.742,12.654-11.911
				c2.793-2.882,6.287-4.961,9.07-7.936c2.914-3.113,6.344-5.746,9.562-8.57c4.439-3.896,8.848-7.83,13.357-11.642
				c2.748-2.322,5.191-4.956,7.889-7.324c2.33-2.046,4.803-3.959,6.93-6.201c3.363-3.547,7.25-6.5,10.744-9.88
				c1.604-1.551,3.844-2.288,5.1-4.199c1.408-2.142,3.439-3.644,5.305-5.316c2.738-2.455,5.355-5.035,7.93-7.658
				c2.17-2.212,3.666-5.012,6.15-6.969c0.613-0.483,1.109-1.259,0.934-2.218c-0.295-1.613,0.314-2.887,1.529-3.925
				c0.711-0.607,1.383-1.262,2.109-1.848c3.604-2.903,6.676-6.385,10.193-9.385c1.223-1.044,2.412-2.183,2.539-3.993
				c0.076-1.082-0.48-1.812-1.234-2.371c-0.75-0.556-1.455-0.132-2.154,0.334c-0.754,0.501-1.27,1.252-1.984,1.762
				c-2.945,2.1-2.387,3.666-5.855-0.245c-0.654-0.739-1.521-1.91-2.869-1.016c-0.65,0.432-1.213,0.998-1.812,1.508
				c-0.873,0.741-0.826,1.556-0.299,2.503c0.602,1.084,1.684,1.459,2.654,2.021c0.541,0.313,1.311,0.603,0.564,1.41
				c-0.869,0.938-1.648,1.95-2.66,2.768c-2.518,2.04-4.951,4.186-7.48,6.211c-1.15,0.921-2.035,2.547-3.412,2.715
				c-2.291,0.28-3.766,1.667-5.234,3.021c-5.369,4.947-11.09,9.485-16.473,14.412c-2.83,2.591-5.73,5.107-8.609,7.646
				c-3.357,2.963-6.723,5.918-10.092,8.868c-4.516,3.956-9.037,7.904-13.559,11.854c-3.594,3.14-7.197,6.272-10.785,9.419
				c-2.775,2.434-5.688,4.736-8.264,7.368c-3.693,3.774-7.84,7.021-11.705,10.592c-4.537,4.192-9.371,8.042-14.326,11.724
				c-1.803,1.34-2.994,3.256-4.779,4.596c-0.656,0.493-1.086,0.746-1.941,0.352c-0.904-0.417-2.355-0.83-2.777,0.303
				c-0.648,1.744-2.131,2.51-3.279,3.66c-2.84,2.845-5.817,5.542-9.049,7.947c-0.378,0.281-0.676,0.414-1.188,0.329
				c-1.396-0.231-2.903,0.598-3.294,1.879c-0.206,0.672-0.475,1.025-1.149,1.113c-0.288,0.038-0.618,0.107-0.674,0.469
				c-0.067,0.432,0.336,0.53,0.576,0.762c0.928,0.894,1.909,1.669,3.387,1.786c-2.538,0.557-4.119,2.343-5.793,3.894
				c-4.037,3.738-8.674,6.768-12.575,10.641c-2.562,2.544-6.291,4.058-7.32,8.013c-0.043,0.166-0.252,0.298-0.399,0.427
				c-3.399,2.982-6.564,6.243-10.367,8.747c-1.578,1.04-1.541,1.027-2.669-0.54c-0.686-0.953-1.578-1.744-2.87-1.321
				c-1.236,0.404-2.558,0.714-2.642,2.514c-0.082,1.746,0.707,2.808,2.776,3.263c0.271,0.06,0.821-0.14,0.729,0.449
				c-0.055,0.353-0.397,0.686-0.747,0.579c-1.33-0.408-1.965,0.56-2.752,1.27c-1.279,1.152-2.569,2.293-3.858,3.433
				c-2.531,2.237-5.391,4.248-5.5,8.129c-0.007,0.235-0.114,0.486-0.233,0.698c-0.447,0.798-0.9,1.583-2.056,1.056
				c-0.562-0.257-1.125-0.087-1.41,0.431c-0.275,0.498,0.055,1.062,0.443,1.298c1.455,0.883,0.981,2.058,0.6,3.233
				c-0.166,0.514-0.383,1.01-0.574,1.516c-1.178,3.117-1.898,6.396-3.597,9.331c-1.793,3.099-3.66,6.148-5.624,9.136
				c-1.458,2.217-3.33,4.043-5.93,4.887c-2.517,0.817-4.435,2.479-6.314,4.225c-3.062,2.846-6.059,5.766-9.213,8.506
				c-4.866,4.228-9.483,8.71-13.998,13.301c-2.993,3.044-5.896,6.177-8.797,9.309c-2.847,3.072-5.533,6.276-7.548,9.981
				c-0.951,1.748-0.822,3.307,0.409,4.812c0.49,0.6,0.977,1.212,1.533,1.746c4.095,3.931,7.427,8.513,11.071,12.831
				c1.418,1.681,2.727,3.511,4.6,4.771c1.107,0.746,2.173,0.896,3.165-0.203c0.421-0.466,0.959-0.673,1.58-0.637
				c0.737,0.043,1.297-0.275,1.863-0.721c2.296-1.809,3.72-4.279,5.298-6.665c2.875-4.35,5.654-8.76,8.476-13.143
				c2.874-4.463,5.594-9.014,8.311-13.57c2.541-4.262,5.069-8.53,7.438-12.894c1.59-2.931,3.269-5.814,4.974-8.679
				c2.685-4.511,5.526-8.924,8.57-13.199c2.216-3.112,4.279-6.352,7.063-9.021c0.458-0.439,0.917-1.032,1.645-0.569
				C99.241,211.842,100.424,211.042,101.716,210.931z"/>
			<path fill-rule="evenodd" clip-rule="evenodd" d="M101.716,210.931c-1.292,0.111-2.476,0.911-3.795,0.072
				c-0.728-0.463-1.187,0.13-1.645,0.569c-2.784,2.669-4.847,5.908-7.063,9.021c-3.044,4.275-5.886,8.688-8.57,13.199
				c-1.706,2.864-3.384,5.748-4.974,8.679c-2.368,4.363-4.896,8.632-7.438,12.894c-2.716,4.557-5.437,9.107-8.311,13.57
				c-2.822,4.383-5.6,8.793-8.476,13.143c-1.578,2.386-3.001,4.856-5.298,6.665c-0.566,0.445-1.126,0.764-1.863,0.721
				c-0.62-0.036-1.159,0.171-1.58,0.637c-0.991,1.099-2.057,0.949-3.165,0.203c-1.873-1.261-3.182-3.091-4.6-4.771
				c-3.644-4.318-6.976-8.9-11.071-12.831c-0.557-0.534-1.043-1.146-1.533-1.746c-1.231-1.506-1.359-3.064-0.409-4.812
				c2.015-3.705,4.702-6.909,7.548-9.981c2.902-3.132,5.805-6.265,8.797-9.309c4.514-4.591,9.132-9.073,13.998-13.301
				c3.154-2.74,6.151-5.66,9.213-8.506c1.879-1.746,3.797-3.407,6.314-4.225c2.6-0.844,4.472-2.67,5.93-4.887
				c1.964-2.987,3.831-6.037,5.624-9.136c1.699-2.936,2.419-6.214,3.597-9.331c0.191-0.506,0.408-1.002,0.574-1.516
				c0.381-1.176,0.855-2.351-0.6-3.233c-0.388-0.236-0.718-0.8-0.443-1.298c0.285-0.518,0.849-0.688,1.41-0.431
				c1.156,0.527,1.609-0.258,2.056-1.056c0.119-0.212,0.226-0.463,0.233-0.698c0.109-3.881,2.969-5.892,5.5-8.129
				c1.29-1.14,2.58-2.28,3.858-3.433c0.787-0.71,1.423-1.678,2.752-1.27c0.35,0.106,0.692-0.227,0.747-0.579
				c0.092-0.589-0.458-0.39-0.729-0.449c-2.07-0.455-2.858-1.517-2.776-3.263c0.084-1.8,1.406-2.109,2.642-2.514
				c1.292-0.423,2.184,0.368,2.87,1.321c1.128,1.567,1.091,1.58,2.669,0.54c3.803-2.504,6.968-5.765,10.367-8.747
				c0.147-0.129,0.356-0.261,0.399-0.427c1.029-3.955,4.758-5.469,7.32-8.013c3.9-3.873,8.538-6.902,12.575-10.641
				c1.675-1.551,3.255-3.337,5.793-3.894c-1.479-0.117-2.459-0.893-3.387-1.786c-0.24-0.232-0.643-0.33-0.576-0.762
				c0.056-0.362,0.386-0.432,0.674-0.469c0.674-0.088,0.943-0.441,1.149-1.113c0.392-1.281,1.899-2.11,3.294-1.879
				c0.512,0.085,0.81-0.047,1.188-0.329c3.232-2.404,6.209-5.102,9.049-7.947c1.148-1.15,2.631-1.916,3.279-3.66
				c0.422-1.133,1.873-0.72,2.777-0.303c0.855,0.394,1.285,0.141,1.941-0.352c1.785-1.34,2.977-3.256,4.779-4.596
				c4.955-3.682,9.789-7.532,14.326-11.724c3.865-3.571,8.012-6.818,11.705-10.592c2.576-2.632,5.488-4.934,8.264-7.368
				c3.588-3.147,7.191-6.279,10.785-9.419c4.521-3.95,9.043-7.899,13.559-11.854c3.369-2.95,6.734-5.905,10.092-8.868
				c2.879-2.539,5.779-5.055,8.609-7.646c5.383-4.927,11.104-9.465,16.473-14.412c1.469-1.354,2.943-2.74,5.234-3.021
				c1.377-0.168,2.262-1.794,3.412-2.715c2.529-2.025,4.963-4.171,7.48-6.211c1.012-0.818,1.791-1.83,2.66-2.768
				c0.746-0.807-0.023-1.096-0.564-1.41c-0.971-0.562-2.053-0.937-2.654-2.021c-0.527-0.948-0.574-1.762,0.299-2.503
				c0.6-0.51,1.162-1.076,1.812-1.508c1.348-0.894,2.215,0.277,2.869,1.016c3.469,3.911,2.91,2.345,5.855,0.245
				c0.715-0.51,1.23-1.261,1.984-1.762c0.699-0.466,1.404-0.89,2.154-0.334c0.754,0.56,1.311,1.29,1.234,2.371
				c-0.127,1.811-1.316,2.949-2.539,3.993c-3.518,3-6.59,6.482-10.193,9.385c-0.727,0.586-1.398,1.241-2.109,1.848
				c-1.215,1.038-1.824,2.312-1.529,3.925c0.176,0.958-0.32,1.735-0.934,2.218c-2.484,1.957-3.98,4.757-6.15,6.969
				c-2.574,2.623-5.191,5.203-7.93,7.658c-1.865,1.672-3.896,3.175-5.305,5.316c-1.256,1.911-3.496,2.647-5.1,4.199
				c-3.494,3.38-7.381,6.333-10.744,9.88c-2.127,2.242-4.6,4.155-6.93,6.201c-2.697,2.368-5.141,5.002-7.889,7.324
				c-4.51,3.812-8.918,7.746-13.357,11.642c-3.219,2.825-6.648,5.457-9.562,8.57c-2.783,2.974-6.277,5.054-9.07,7.936
				c-4.041,4.169-8.83,7.534-12.654,11.911c-1.09,1.247-1.961,2.718-2.75,4.184c-0.975,1.809-2.348,3.215-3.783,4.644
				c-1.416,1.409-2.561,3.084-3.941,4.556c-3.822,4.072-7.566,8.216-11.307,12.365c-2.883,3.201-5.613,6.548-8.596,9.65
				c-2.344,2.437-4.533,5.017-7.073,7.286c-2.896,2.589-4.989,5.85-6.272,9.543c-0.631,1.816-1.851,3.236-2.912,4.743
				c-2.317,3.291-4.821,6.45-7.219,9.685c-2.633,3.551-5.19,7.16-7.905,10.647c-0.331,0.426-0.854,1.978-2.042,0.744
				c-0.843,0.884-2.065,1.065-3.062,1.661c-0.373,0.223-0.657,0.648-1.167,0.351c-0.582-0.34-0.327-0.833-0.25-1.314
				c0.186-1.17,0.401-2.363-0.406-3.406c-0.288-0.372-0.615-0.897-1.204-0.536c-1.378,0.844-2.917,1.508-3.761,3.012
				c-0.84,1.497-1.776,2.93-2.458,4.53c-0.424,0.994-0.358,1.591,0.362,2.302c0.316,0.312,0.748,0.769,0.274,1.286
				c-0.392,0.43-0.832,0.115-1.229-0.039c-0.522-0.202-1.169-0.819-1.531-0.062c-0.36,0.755,0.545,0.992,1.012,1.37
				C100.998,210.447,101.523,210.277,101.716,210.931z M114.053,191.844c-0.083,1.427,0.125,2.1,0.777,2.44
				c0.894,0.467,1.372-0.531,2.115-0.665c0.268-0.048,0.488-0.459,0.696-0.73c1.019-1.325,2.004-2.677,3.043-3.986
				c1.882-2.37,1.878-2.481-0.571-4.362c-1.004-0.771-1.975-0.499-2.39,0.718c-0.472,1.382-2.29,1.898-2.278,3.593
				c0,0.108-0.293,0.291-0.468,0.317c-1.121,0.171-1.339,0.783-0.983,1.78C114.104,191.259,114.042,191.632,114.053,191.844z
				 M129.916,176.516c-0.471-0.216-0.722,0.103-1.034,0.191c-1.071,0.303-1.848,1.124-3.047,1.329
				c-2.702,0.462-4.329,4.772-2.999,7.079c0.488,0.847,0.689,0.427,0.963,0.078c1.183-1.501,2.427-2.97,3.449-4.577
				C128.118,179.248,129.461,178.163,129.916,176.516z M109.561,196.207c0.695,0.151,1.214-0.805,1.715,0.015
				c0.381,0.621,0.509,1.126-0.295,1.538c-0.254,0.131-0.328,0.52-0.094,0.78c0.345,0.383,0.631,0.075,0.862-0.169
				c0.774-0.821,1.522-1.667,2.297-2.488c0.251-0.267,0.268-0.515,0.04-0.772c-0.617-0.696-1.245-1.382-1.87-2.071
				c-0.386-0.425-0.7-0.174-1.148-0.009C109.435,193.63,110.442,195.242,109.561,196.207z"/>
			<path fill-rule="evenodd" clip-rule="evenodd" fill="none" d="M114.053,191.844c-0.011-0.212,0.051-0.585-0.06-0.896
				c-0.356-0.997-0.138-1.609,0.983-1.78c0.175-0.026,0.469-0.209,0.468-0.317c-0.012-1.694,1.807-2.211,2.278-3.593
				c0.415-1.217,1.386-1.489,2.39-0.718c2.45,1.881,2.453,1.992,0.571,4.362c-1.039,1.31-2.024,2.661-3.043,3.986
				c-0.208,0.271-0.428,0.683-0.696,0.73c-0.743,0.134-1.221,1.132-2.115,0.665C114.178,193.943,113.97,193.271,114.053,191.844z"/>
			<path fill-rule="evenodd" clip-rule="evenodd" fill="none" d="M129.916,176.516c-0.455,1.647-1.798,2.732-2.668,4.101
				c-1.022,1.607-2.266,3.076-3.449,4.577c-0.274,0.349-0.475,0.769-0.963-0.078c-1.33-2.307,0.297-6.617,2.999-7.079
				c1.199-0.205,1.976-1.026,3.047-1.329C129.194,176.618,129.445,176.3,129.916,176.516z"/>
			<path fill-rule="evenodd" clip-rule="evenodd" fill="none" d="M109.561,196.207c0.881-0.965-0.126-2.577,1.506-3.177
				c0.448-0.165,0.762-0.416,1.148,0.009c0.625,0.689,1.253,1.375,1.87,2.071c0.229,0.258,0.212,0.506-0.04,0.772
				c-0.774,0.821-1.522,1.667-2.297,2.488c-0.231,0.244-0.517,0.552-0.862,0.169c-0.234-0.261-0.161-0.649,0.094-0.78
				c0.804-0.412,0.676-0.917,0.295-1.538C110.775,195.402,110.256,196.358,109.561,196.207z"/>
		</g>
	</g>
</g>
</svg>
