<?xml version="1.0" encoding="utf-8"?>
<!-- Generator: Adobe Illustrator 16.0.0, SVG Export Plug-In . SVG Version: 6.00 Build 0)  -->
<!DOCTYPE svg PUBLIC "-//W3C//DTD SVG 1.1//EN" "http://www.w3.org/Graphics/SVG/1.1/DTD/svg11.dtd">
<svg version="1.1" id="Layer_1" xmlns="http://www.w3.org/2000/svg" xmlns:xlink="http://www.w3.org/1999/xlink" x="0px" y="0px"
	 width="300px" height="300px" viewBox="0 0 300 300" enable-background="new 0 0 300 300" xml:space="preserve">
<g>
	<g>
		<path fill="none" d="M162.105,320.303c-53.478,0-106.955-0.004-160.433,0.025c-1.077,0-1.405-0.169-1.405-1.349
			C0.302,213.223,0.303,107.466,0.265,1.71c0-1.242,0.282-1.442,1.47-1.441C108.641,0.302,215.546,0.302,322.45,0.27
			c1.163,0,1.485,0.16,1.484,1.428c-0.039,105.757-0.039,211.513-0.006,317.27c0,1.155-0.3,1.361-1.392,1.36
			C269.06,320.299,215.583,320.303,162.105,320.303z M207.276,131.353c-0.809,0.578-1.322,1.847-2.283,0.579
			c-1.984-2.618-3.858-5.329-5.985-7.824c-0.92-1.08-1.44-2.416-2.558-3.375c-0.854-0.731-1.182-1.691,0.036-2.712
			c1.199-1.006,2.157-2.301,3.204-3.485c0.637-0.719,1.239-1.731,2.122-1.826c0.689-0.073,0.926,1.189,1.457,1.708
			c2.545,2.484,4.579,5.411,7.047,7.956c0.546,0.562,0.733,1.167,0.272,2.008c-0.788,1.436-1.42,2.958-2.296,4.352
			c-0.146,0.231-0.409,0.539-0.053,0.778c0.425,0.285,0.48-0.183,0.609-0.398c0.914-1.52,1.834-3.036,2.704-4.58
			c0.627-1.111,0.394-2.2-0.569-2.935c-0.664-0.507-1.194-1.182-1.646-1.762c-1.939-2.494-4.05-4.835-6.112-7.219
			c-0.494-0.572-0.575-0.927-0.021-1.628c1.459-1.843,3.34-3.229,4.946-4.903c4.397-4.583,8.731-9.229,13.352-13.592
			c3.391-3.202,6.369-6.707,8.405-10.943c0.383-0.798,1.144-1.58,1.135-2.363c-0.016-1.367,0.881-1.812,1.714-2.389
			c2.635-1.825,5.395-3.49,7.896-5.479c1.183-0.94,2.62-1.44,3.688-2.451c2.18-2.06,4.794-3.52,7.16-5.32
			c2.989-2.275,6.109-4.321,8.925-6.883c4.611-4.198,7.754-9.33,10.633-14.7c2.304-4.295,4.458-8.671,6.768-12.963
			c1.819-3.38,4.842-5.717,7.491-8.381c0.842-0.846,2.384-1.323,2.03-3.062c-0.511-2.509-1.773-3.72-4.271-3.951
			c-0.305-0.028-0.612-0.072-0.842,0.175c-1.109,1.195-2.185,2.423-3.321,3.592c-2.317,2.384-4.516,4.967-7.58,6.408
			c-2.157,1.014-4.238,2.117-6.27,3.358c-2.706,1.655-5.343,3.584-8.278,4.673c-6.161,2.285-10.182,7.131-14.173,11.748
			c-3.647,4.221-6.606,9.102-9.659,13.842c-2.493,3.871-5.319,7.524-7.848,11.381c-0.514,0.784-1.053,1.649-2.039,2.112
			c-3.942,1.846-8.051,3.472-10.899,7.003c-0.818,1.016-1.522,1.113-2.39,0.151c-0.165-0.183-0.376-0.323-0.566-0.482
			c-0.841-0.697-1.587-0.896-2.372,0.16c-0.591,0.793-1.345,1.47-2.057,2.167c-2.871,2.816-5.756,5.62-8.633,8.431
			c-0.384,0.375-0.926,0.71-0.311,1.34c0.585,0.599,1.083,1.295,1.723,1.825c0.641,0.531,0.417,0.827-0.047,1.293
			c-2.506,2.521-4.965,5.088-7.477,7.604c-2.579,2.583-5.229,5.096-7.793,7.694c-2.376,2.409-4.582,4.992-7.043,7.308
			c-1.913,1.8-3.85,3.572-5.584,5.541c-0.945,1.073-1.85,2.402-3.338,2.312c-2.136-0.129-3.726,0.479-5.053,2.128
			c-0.281,0.35-0.687,0.687-1.024,1.038c-0.359,0.374-0.672,0.436-1.164,0.164c-1.127-0.624-2.329-1.115-3.447-1.753
			c-0.717-0.409-1.032-0.232-1.587,0.358c-3.499,3.728-7.095,7.364-10.881,10.802c-1.776,1.613-1.842,2.085-0.053,3.865
			c0.494,0.491,0.967,1.003,1.475,1.479c0.365,0.342,0.568,0.408-0.002,0.947c-1.954,1.843-3.76,3.847-5.583,5.825
			c-0.749,0.812-1.397,0.787-2.143,0.036c-0.662-0.666-1.359-1.297-2.055-1.929c-0.556-0.506-1.034-0.612-1.629,0.074
			c-0.794,0.915-1.71,1.729-2.611,2.546c-0.929,0.843-1.226,1.604-0.013,2.479c0.598,0.432,1.087,1.021,1.604,1.56
			c0.648,0.676,0.701,1.346-0.011,2.05c-2.302,2.276-4.619,4.54-6.867,6.87c-3.076,3.187-6.206,6.321-9.26,9.532
			c-4.092,4.301-8.685,8.108-12.333,12.862c-1.63,2.124-3.045,4.386-4.665,6.509c-1.729,2.266-3.324,4.636-5.109,6.854
			c-1.067,1.324-2.5,2.329-3.562,3.69c-0.492,0.632-1.358,0.525-1.7,0.021c-0.576-0.851-1.492-1.267-2.09-2.009
			c-0.34-0.423-0.478-0.558-0.884-0.18c-1.276,1.185-2.569,2.351-3.841,3.541c-0.558,0.521-0.607,1.157-0.117,1.723
			c0.542,0.626,1.082,1.35,1.786,1.718c1.337,0.7,0.801,1.286,0.116,2.022c-1.877,2.02-4.004,3.774-5.9,5.789
			c-3.008,3.197-6.016,6.408-9.273,9.373c-2.17,1.976-4.14,4.17-6.22,6.246c-0.407,0.407-0.736,1.113-1.396,0.012
			c-0.501-0.836-1.546-1.343-2.335-2.014c-0.377-0.32-0.708-0.284-1.055,0.029c-1.024,0.925-2.161,1.751-3.054,2.788
			c-1.448,1.683-1.376,1.799,0.29,3.348c0.255,0.237,0.498,0.501,0.789,0.686c1.064,0.676,0.887,1.264,0.042,2.049
			c-4.419,4.105-8.295,8.768-13.047,12.542c-2.604,2.067-4.938,4.472-7.524,6.564c-2.535,2.052-5.045,4.128-7.441,6.334
			c-2.381,2.192-4.965,3.965-8.118,4.904c-0.978,0.291-1.837,0.762-2.945,0.784c-2.323,0.047-4.56-0.588-6.863-0.653
			c-0.794-0.022-1.077,0.109-1.124,0.906c-0.06,1.029-0.365,2.056-0.333,3.076c0.053,1.683-0.522,3.577,0.806,4.96
			c1.62,1.686,2.78,3.698,4.26,5.482c2.399,2.89,5.002,5.576,7.875,7.952c2.304,1.905,4.985,3.347,7.375,5.157
			c1.116,0.846,2.28,1.209,3.574,1.214c2.083,0.009,4.167-0.111,6.25-0.174c0.39-0.012,0.706,0.092,0.789-0.562
			c0.47-3.698,0.961-7.397,1.577-11.074c0.399-2.382,0.579-4.761,2.45-6.791c1.139-1.235,2.406-2.438,3.396-3.857
			c2.167-3.105,4.785-5.857,7.187-8.775c3.015-3.663,6.062-7.314,9.489-10.644c4.937-4.795,9.79-9.69,14.446-14.757
			c4.297-4.676,9.158-8.784,13.288-13.627c3.079-3.61,6.8-6.61,10.072-10.063c2.872-3.031,5.441-6.418,9.246-8.556
			c2.385-1.34,4.326-3.443,6.613-4.986c3.118-2.104,5.912-4.512,8.48-7.267c4.084-4.38,8.336-8.604,12.547-12.864
			c2.972-3.005,6.023-5.931,8.986-8.945c2.887-2.936,5.722-5.923,8.543-8.923c0.77-0.818,1.425-0.79,2.132-0.012
			c0.801,0.882,1.537,1.828,2.389,2.657c5.182,5.041,10.593,9.845,15.512,15.156c1.251,1.351,2.144,1.481,3.004,0.614
			c2.316-2.336,4.579-4.725,6.92-7.035c0.694-0.687,0.59-1.247-0.02-1.76c-1.704-1.438-3.019-3.269-4.682-4.721
			c-5.074-4.435-9.58-9.455-14.571-13.969c-0.825-0.746-0.751-1.25-0.011-1.915c1.221-1.097,2.464-2.175,3.611-3.346
			c2.236-2.282,4.429-4.609,6.611-6.944c1.686-1.804,3.859-3.363,3.42-6.325c-0.035-0.238-0.093-0.477-0.091-0.715
			c0.007-0.833,0.822-1.057,1.242-1.579c0.204-0.254,0.508-0.081,0.551,0.195c0.153,0.977,1.05,1.19,1.695,1.513
			c1.243,0.622,1.927,1.198,0.727,2.494c-0.235,0.254-0.177,0.763-0.309,1.135c-0.239,0.678-0.043,1.093,0.605,1.427
			c0.661,0.34,1.221,0.412,1.739-0.19c0.352-0.41,0.694-0.829,1.034-1.249c0.768-0.948,2.899-1.379,3.859-0.776
			c1.826,1.147,2.139,2.148,1.219,3.915c-0.184,0.354-0.369,0.708-0.569,1.054c-0.257,0.444-0.077,0.577,0.317,0.898
			c1.3,1.059,2.276,0.311,3.331-0.362c0.512-0.327,1.042-1.062,1.691-0.473c0.684,0.62,1.501,1.038,2.082,1.854
			c1.693,2.38,3.605,4.603,5.42,6.894c1.485,1.875,3.018,3.722,4.353,5.698c1.609,2.381,3.126,2.935,4.593,1.181
			c2.449-2.928,5.186-5.571,7.813-8.323c0.493-0.517,0.631-0.968,0.097-1.541c-1.116-1.198-2.172-2.456-3.316-3.626
			c-3.183-3.25-6.463-6.409-9.559-9.739c-0.875-0.941-2.316-2.108-0.896-3.766C207.339,131.968,207.276,131.769,207.276,131.353z"/>
		<path fill-rule="evenodd" clip-rule="evenodd" d="M207.276,131.353c0,0.416,0.062,0.615-0.01,0.699
			c-1.421,1.658,0.021,2.824,0.896,3.766c3.096,3.331,6.376,6.489,9.559,9.739c1.145,1.17,2.2,2.428,3.316,3.626
			c0.534,0.573,0.396,1.024-0.097,1.541c-2.628,2.752-5.364,5.396-7.813,8.323c-1.467,1.754-2.983,1.2-4.593-1.181
			c-1.335-1.977-2.867-3.823-4.353-5.698c-1.814-2.291-3.727-4.514-5.42-6.894c-0.581-0.816-1.398-1.234-2.082-1.854
			c-0.649-0.589-1.18,0.146-1.691,0.473c-1.055,0.673-2.031,1.421-3.331,0.362c-0.395-0.322-0.574-0.455-0.317-0.898
			c0.2-0.345,0.386-0.699,0.569-1.054c0.92-1.767,0.607-2.768-1.219-3.915c-0.96-0.603-3.092-0.172-3.859,0.776
			c-0.34,0.42-0.683,0.839-1.034,1.249c-0.519,0.603-1.078,0.531-1.739,0.19c-0.648-0.334-0.845-0.749-0.605-1.427
			c0.132-0.373,0.073-0.881,0.309-1.135c1.2-1.296,0.517-1.872-0.727-2.494c-0.646-0.323-1.542-0.536-1.695-1.513
			c-0.043-0.276-0.347-0.45-0.551-0.195c-0.42,0.522-1.235,0.746-1.242,1.579c-0.002,0.238,0.056,0.477,0.091,0.715
			c0.439,2.962-1.734,4.521-3.42,6.325c-2.183,2.335-4.375,4.662-6.611,6.944c-1.147,1.171-2.391,2.249-3.611,3.346
			c-0.74,0.665-0.814,1.169,0.011,1.915c4.991,4.514,9.497,9.534,14.571,13.969c1.663,1.452,2.978,3.283,4.682,4.721
			c0.609,0.513,0.714,1.073,0.02,1.76c-2.341,2.311-4.604,4.699-6.92,7.035c-0.86,0.867-1.753,0.736-3.004-0.614
			c-4.919-5.312-10.33-10.115-15.512-15.156c-0.852-0.829-1.588-1.775-2.389-2.657c-0.707-0.778-1.362-0.807-2.132,0.012
			c-2.821,3-5.657,5.987-8.543,8.923c-2.963,3.015-6.015,5.94-8.986,8.945c-4.211,4.26-8.463,8.484-12.547,12.864
			c-2.568,2.755-5.362,5.163-8.48,7.267c-2.287,1.543-4.229,3.646-6.613,4.986c-3.805,2.138-6.375,5.524-9.246,8.556
			c-3.271,3.453-6.993,6.453-10.072,10.063c-4.13,4.843-8.991,8.951-13.288,13.627c-4.656,5.066-9.509,9.962-14.446,14.757
			c-3.427,3.329-6.475,6.98-9.489,10.644c-2.401,2.918-5.019,5.67-7.187,8.775c-0.99,1.419-2.257,2.622-3.396,3.857
			c-1.871,2.03-2.051,4.409-2.45,6.791c-0.616,3.677-1.107,7.376-1.577,11.074c-0.083,0.654-0.399,0.551-0.789,0.562
			c-2.083,0.062-4.167,0.183-6.25,0.174c-1.294-0.005-2.458-0.368-3.574-1.214c-2.39-1.811-5.072-3.252-7.375-5.157
			c-2.873-2.376-5.476-5.062-7.875-7.952c-1.48-1.784-2.64-3.797-4.26-5.482c-1.329-1.383-0.753-3.277-0.806-4.96
			c-0.032-1.021,0.273-2.047,0.333-3.076c0.046-0.797,0.329-0.929,1.124-0.906c2.304,0.065,4.54,0.7,6.863,0.653
			c1.108-0.022,1.967-0.493,2.945-0.784c3.153-0.939,5.736-2.712,8.118-4.904c2.396-2.206,4.907-4.282,7.441-6.334
			c2.586-2.093,4.92-4.497,7.524-6.564c4.752-3.774,8.628-8.437,13.047-12.542c0.845-0.785,1.022-1.373-0.042-2.049
			c-0.291-0.185-0.533-0.448-0.789-0.686c-1.667-1.549-1.738-1.665-0.29-3.348c0.893-1.037,2.03-1.863,3.054-2.788
			c0.348-0.313,0.678-0.35,1.055-0.029c0.789,0.671,1.833,1.178,2.335,2.014c0.66,1.102,0.989,0.396,1.396-0.012
			c2.08-2.076,4.05-4.271,6.22-6.246c3.257-2.965,6.265-6.176,9.273-9.373c1.896-2.015,4.022-3.77,5.9-5.789
			c0.685-0.736,1.222-1.322-0.116-2.022c-0.704-0.368-1.244-1.092-1.786-1.718c-0.49-0.565-0.44-1.201,0.117-1.723
			c1.271-1.19,2.564-2.356,3.841-3.541c0.407-0.378,0.544-0.243,0.884,0.18c0.598,0.742,1.514,1.158,2.09,2.009
			c0.342,0.505,1.208,0.611,1.7-0.021c1.062-1.361,2.495-2.366,3.562-3.69c1.786-2.218,3.381-4.588,5.109-6.854
			c1.62-2.123,3.034-4.385,4.665-6.509c3.648-4.754,8.241-8.562,12.333-12.862c3.054-3.211,6.184-6.346,9.26-9.532
			c2.249-2.33,4.565-4.594,6.867-6.87c0.712-0.704,0.66-1.374,0.011-2.05c-0.517-0.539-1.006-1.128-1.604-1.56
			c-1.213-0.876-0.917-1.636,0.013-2.479c0.9-0.817,1.816-1.631,2.611-2.546c0.596-0.686,1.073-0.58,1.629-0.074
			c0.696,0.632,1.393,1.263,2.055,1.929c0.746,0.751,1.395,0.776,2.143-0.036c1.823-1.979,3.629-3.982,5.583-5.825
			c0.571-0.539,0.368-0.605,0.002-0.947c-0.508-0.476-0.981-0.987-1.475-1.479c-1.789-1.779-1.723-2.252,0.053-3.865
			c3.786-3.438,7.382-7.075,10.881-10.802c0.555-0.59,0.87-0.767,1.587-0.358c1.118,0.638,2.32,1.129,3.447,1.753
			c0.492,0.272,0.805,0.21,1.164-0.164c0.338-0.351,0.743-0.688,1.024-1.038c1.327-1.649,2.917-2.257,5.053-2.128
			c1.488,0.09,2.393-1.239,3.338-2.312c1.734-1.969,3.671-3.741,5.584-5.541c2.461-2.316,4.667-4.899,7.043-7.308
			c2.563-2.599,5.214-5.111,7.793-7.694c2.512-2.515,4.971-5.083,7.477-7.604c0.464-0.467,0.688-0.763,0.047-1.293
			c-0.64-0.53-1.138-1.226-1.723-1.825c-0.615-0.629-0.073-0.965,0.311-1.34c2.877-2.811,5.762-5.615,8.633-8.431
			c0.712-0.697,1.466-1.374,2.057-2.167c0.785-1.055,1.531-0.857,2.372-0.16c0.19,0.159,0.401,0.299,0.566,0.482
			c0.867,0.961,1.571,0.864,2.39-0.151c2.849-3.531,6.957-5.157,10.899-7.003c0.986-0.462,1.525-1.328,2.039-2.112
			c2.528-3.857,5.354-7.51,7.848-11.381c3.053-4.74,6.012-9.622,9.659-13.842c3.991-4.617,8.012-9.463,14.173-11.748
			c2.936-1.089,5.572-3.019,8.278-4.673c2.031-1.241,4.112-2.344,6.27-3.358c3.064-1.441,5.263-4.024,7.58-6.408
			c1.137-1.169,2.212-2.397,3.321-3.592c0.229-0.247,0.537-0.203,0.842-0.175c2.498,0.231,3.761,1.441,4.271,3.951
			c0.354,1.739-1.188,2.216-2.03,3.062c-2.649,2.664-5.672,5.001-7.491,8.381c-2.31,4.292-4.464,8.667-6.768,12.963
			c-2.879,5.37-6.021,10.502-10.633,14.7c-2.815,2.562-5.936,4.608-8.925,6.883c-2.366,1.8-4.98,3.26-7.16,5.32
			c-1.068,1.01-2.506,1.51-3.688,2.451c-2.502,1.989-5.262,3.654-7.896,5.479c-0.833,0.577-1.729,1.022-1.714,2.389
			c0.009,0.783-0.752,1.565-1.135,2.363c-2.036,4.237-5.015,7.742-8.405,10.943c-4.62,4.363-8.954,9.009-13.352,13.592
			c-1.606,1.674-3.487,3.06-4.946,4.903c-0.555,0.701-0.474,1.056,0.021,1.628c2.062,2.384,4.173,4.725,6.112,7.219
			c0.451,0.581,0.981,1.255,1.646,1.762c0.963,0.735,1.196,1.824,0.569,2.935c-0.87,1.544-1.79,3.061-2.704,4.58
			c-0.129,0.215-0.185,0.683-0.609,0.398c-0.356-0.239-0.093-0.546,0.053-0.778c0.876-1.395,1.508-2.917,2.296-4.352
			c0.461-0.84,0.273-1.446-0.272-2.008c-2.468-2.545-4.502-5.472-7.047-7.956c-0.531-0.519-0.768-1.781-1.457-1.708
			c-0.883,0.094-1.485,1.107-2.122,1.826c-1.047,1.184-2.005,2.479-3.204,3.485c-1.218,1.021-0.89,1.98-0.036,2.712
			c1.117,0.958,1.638,2.294,2.558,3.375c2.127,2.496,4.001,5.207,5.985,7.824C205.954,133.2,206.468,131.931,207.276,131.353z"/>
	</g>
</g>
</svg>
