<?xml version="1.0" encoding="utf-8"?>
<!-- Generator: Adobe Illustrator 16.0.0, SVG Export Plug-In . SVG Version: 6.00 Build 0)  -->
<!DOCTYPE svg PUBLIC "-//W3C//DTD SVG 1.1//EN" "http://www.w3.org/Graphics/SVG/1.1/DTD/svg11.dtd">
<svg version="1.1" id="Layer_1" xmlns="http://www.w3.org/2000/svg" xmlns:xlink="http://www.w3.org/1999/xlink" x="0px" y="0px"
	 width="806.899px" height="209.974px" viewBox="0 0 806.899 209.974" enable-background="new 0 0 806.899 209.974"
	 xml:space="preserve">
<g>
	<g>
		<path fill="none" d="M804.898,1c3.423-0.757,4.104,0.575,4.097,4c-0.13,67.658-0.13,135.316,0,202.974
			c0.007,3.424-0.673,4.096-4.097,4.094c-266.633-0.103-533.266-0.103-799.898,0c-3.423,0.002-4.113-0.667-4.099-4.094
			C1.058,169.646,1,131.316,1,92.988c5.96,2.455,12.172,0.687,18.256,1.008c3.1,0.163,4.801,1.134,4.511,4.387
			c-0.651,7.294,0.822,9.318,10.038,8.253c2.493-0.288,6.354,0.6,6.993-2.481c0.865-4.171,3.626-3.928,6.267-3.902
			c19.642,0.197,39.269-0.797,58.896-0.82c18.794-0.021,37.593-2.181,56.375-0.298c13.891,1.394,27.218-3.896,41.085-2.984
			c7.624,0.502,15.646-1.371,22.887,0.355c8.552,2.04,16.81,1.325,25.175,0.968c3.884-0.166,5.962,0.667,6.815,4.491
			c1.036,4.648,4.099,6.154,8.797,6.254c5.404,0.114,10.488-2.056,15.776-1.775c12.281,0.651,24.504,1.838,36.495,4.873
			c7.249,1.833,14.549,3.62,21.931,4.739c7.226,1.096,11.437-2.823,11.917-10.005c0.2-2.986,0.727-5.973,0.662-8.95
			c-0.078-3.64,1.347-4.968,5.003-5.013c15.982-0.195,31.963-0.603,47.944-0.941c7.492-0.158,14.993-0.152,22.471-0.559
			c6.457-0.351,17.415,5.293,20.212,11.227c1.182,2.504,2.674,3.402,5.333,3.477c8.447,0.238,9.142-0.191,11.831-8.726
			c0.9-2.858,10.067-7.077,12.573-5.756c0.413,0.218,0.979,0.64,1.012,1.008c0.462,5.362,3.909,3.952,7.555,4.021
			c23.803,0.449,47.563-1.266,71.36-1.193c5.297,0.017,6.93,1.414,6.671,6.296c-0.122,2.303,0.766,4.782,3.306,4.882
			c6.799,0.268,10.289,5.61,14.983,9.105c1.201,0.894,2.461,2.063,2.351,3.667c-0.666,9.683,2.211,18.965,3.021,28.443
			c0.919,10.758,0.397,21.639,0.438,32.467c0.014,3.509,0.784,6.614,3.791,8.784c4.319,3.117,8.555,6.354,13.281,8.876
			c2.673,1.424,5.219,2.113,7.919,0.082c2.572-1.937,3.165-4.312,2.584-7.466c-1.787-9.688,0.958-19.414,0.142-29.193
			c-0.153-1.828-0.56-4.633,0.518-6.812c1.797-3.634,0.606-7.498-0.469-10.692c-1.932-5.73-3.591-11.187-0.875-16.945
			c1.76-3.73,1.858-6.94-0.309-10.763c-2.712-4.777-2.229-10.772,0.486-14.833c2.772-4.148,6.554-8.527,13.536-7.551
			c6.966,0.975,14.179,0.21,21.283,0.153c1.98-0.016,4.655,0.136,4.628-2.554c-0.046-4.558,2.676-4.403,5.879-4.51
			c21.129-0.704,42.284-0.422,63.398-1.739c7.48-0.467,15.026,0.229,22.268,1.741c13.675,2.855,27.122,6.782,40.734,9.968
			c3.636,0.852,5.266,2.45,4.769,6.103c-0.765,5.619,2.52,6.105,6.974,6.057c4.537-0.05,6.921-0.858,6.776-6.343
			c-0.674-25.636-0.888-51.283-1.374-76.924C805.728,16.961,805.236,8.981,804.898,1z"/>
		<path fill-rule="evenodd" clip-rule="evenodd" d="M804.898,1c0.338,7.981,0.829,15.961,0.98,23.946
			c0.486,25.641,0.7,51.288,1.374,76.924c0.145,5.484-2.239,6.293-6.776,6.343c-4.454,0.049-7.738-0.438-6.974-6.057
			c0.497-3.653-1.133-5.251-4.769-6.103c-13.612-3.186-27.06-7.113-40.734-9.968c-7.241-1.513-14.787-2.208-22.268-1.741
			c-21.114,1.317-42.27,1.035-63.398,1.739c-3.203,0.107-5.925-0.048-5.879,4.51c0.027,2.69-2.647,2.539-4.628,2.554
			c-7.104,0.057-14.317,0.821-21.283-0.153c-6.982-0.977-10.764,3.403-13.536,7.551c-2.716,4.061-3.198,10.056-0.486,14.833
			c2.167,3.822,2.068,7.032,0.309,10.763c-2.716,5.759-1.057,11.215,0.875,16.945c1.075,3.194,2.266,7.059,0.469,10.692
			c-1.077,2.18-0.671,4.984-0.518,6.812c0.816,9.779-1.929,19.505-0.142,29.193c0.581,3.154-0.012,5.529-2.584,7.466
			c-2.7,2.031-5.246,1.342-7.919-0.082c-4.727-2.521-8.962-5.759-13.281-8.876c-3.007-2.17-3.777-5.275-3.791-8.784
			c-0.041-10.828,0.48-21.709-0.438-32.467c-0.81-9.479-3.687-18.761-3.021-28.443c0.11-1.604-1.149-2.773-2.351-3.667
			c-4.694-3.495-8.185-8.838-14.983-9.105c-2.54-0.1-3.428-2.579-3.306-4.882c0.259-4.882-1.374-6.279-6.671-6.296
			c-23.797-0.073-47.558,1.642-71.36,1.193c-3.646-0.069-7.093,1.341-7.555-4.021c-0.032-0.368-0.599-0.791-1.012-1.008
			c-2.506-1.321-11.673,2.898-12.573,5.756c-2.689,8.535-3.384,8.964-11.831,8.726c-2.659-0.074-4.151-0.972-5.333-3.477
			c-2.797-5.934-13.755-11.578-20.212-11.227c-7.478,0.406-14.979,0.4-22.471,0.559c-15.981,0.338-31.962,0.746-47.944,0.941
			c-3.657,0.045-5.082,1.373-5.003,5.013c0.064,2.977-0.462,5.963-0.662,8.95c-0.48,7.182-4.692,11.101-11.917,10.005
			c-7.382-1.119-14.682-2.906-21.931-4.739c-11.991-3.035-24.214-4.222-36.495-4.873c-5.288-0.28-10.373,1.89-15.776,1.775
			c-4.698-0.1-7.762-1.605-8.797-6.254c-0.853-3.824-2.931-4.657-6.815-4.491c-8.366,0.357-16.624,1.072-25.175-0.968
			c-7.24-1.726-15.263,0.146-22.887-0.355c-13.867-0.912-27.194,4.377-41.085,2.984c-18.782-1.883-37.58,0.276-56.375,0.298
			c-19.627,0.023-39.254,1.018-58.896,0.82c-2.64-0.026-5.402-0.27-6.267,3.902c-0.638,3.081-4.5,2.193-6.993,2.481
			c-9.216,1.064-10.689-0.959-10.038-8.253c0.29-3.253-1.411-4.224-4.511-4.387C13.172,93.675,6.96,95.443,1,92.988
			c0-6.666,0-13.331,0-19.998c4.099-1.718,8.172-3.5,12.305-5.131c2.446-0.966,3.651-2.543,3.658-5.225
			c0.006-2.583-1.374-3.846-3.579-4.696C9.236,56.342,5.126,54.647,1,52.993c0-6.999,0-13.998,0-20.997
			c4.342-1.709,8.894-0.87,13.35-1.019c7.296-0.242,7.448-0.136,7.62-7.342c0.101-4.229,1.837-6.15,6.084-5.829
			c1.488,0.112,2.997,0.01,4.494-0.041c3.421-0.117,6.667-0.329,7.688,4.292c0.534,2.421,3.32,2.075,5.141,2.093
			c4.464,0.044,8.939-0.279,13.395-0.635c1.444-0.115,3.29-0.365,4.172-1.294c2.146-2.26,4.72-2.172,7.369-2.208
			c13.985-0.184,27.971-0.495,41.956-0.494c16.307,0.002,32.517-2.319,48.974,1.022c8.841,1.794,18.404,1.735,27.619,2.066
			c14.102,0.506,28.26-0.166,42.342-1.641c14.229-1.491,28.3,2.201,42.577,1.198c10.775-0.758,21.785-1.429,32.417-0.041
			c11.088,1.447,21.219-4.316,32.224-2.442c2.114,0.36,5.636,0.888,7.264,0.064c3.537-1.787,7.373-1.153,10.404-1.022
			c5.964,0.258,11.942-0.823,17.986,0.151c2.342,0.378,5.492,0.6,7.85,0.108c4.401-0.917,8.72-0.061,13.019-0.647
			c6.1-0.831,12.681,1.21,16.748-6.74c5.253-10.264,10.637-10.233,18.03-1.448c3.468,4.121,12.62,4.379,14.72-0.286
			c2.211-4.912,5.724-4.751,9.69-4.822c4.161-0.076,8.327-0.062,12.485-0.222c2.167-0.083,3.678,0.611,5.159,2.295
			c2.363,2.684,5.752,3.963,9.14,4.673c2.05,0.43,2.684-1.435,2.727-3.314c0.058-2.492,0.194-4.982,0.298-7.473
			c1.667,0,3.332,0,4.999,0c1.723,3.095,2.709,6.446,3.006,9.941c0.201,2.382,1.079,3.617,3.589,3.805
			c5.129,0.386,10.172,1.378,15.383,1.257c33.752-0.789,67.508-1.391,101.26-2.128c3.932-0.086,8.476,1.391,10.999-3.515
			c0.247-0.48,1.513-0.58,2.315-0.61c7.974-0.299,15.949-0.572,23.926-0.789c1.653-0.045,3.809-0.13,4.386,1.649
			c1.23,3.795,4.139,3.26,6.912,3.21c19.123-0.338,38.246-0.725,57.37-1.067c13.697-0.244,11.521,1.109,11.824-11.753c1,0,2,0,3,0
			c0.087,0.659,0.222,1.316,0.254,1.978c0.517,10.637,0.731,10.81,11.384,9.065c0.657-0.107,1.336-0.139,1.97-0.325
			C758.646,8.156,770.774,4.577,782.901,1C790.233,1,797.566,1,804.898,1z"/>
		<path fill-rule="evenodd" clip-rule="evenodd" fill="none" d="M483.939,1c-0.104,2.491-0.24,4.98-0.298,7.473
			c-0.043,1.879-0.677,3.744-2.727,3.314c-3.388-0.71-6.776-1.989-9.14-4.673c-1.481-1.684-2.992-2.378-5.159-2.295
			c-4.158,0.159-8.324,0.146-12.485,0.222c-3.967,0.071-7.479-0.09-9.69,4.822c-2.1,4.666-11.252,4.407-14.72,0.286
			c-7.394-8.785-12.777-8.816-18.03,1.448c-4.067,7.95-10.648,5.91-16.748,6.74c-4.299,0.587-8.618-0.27-13.019,0.647
			c-2.357,0.491-5.507,0.27-7.85-0.108c-6.044-0.975-12.022,0.106-17.986-0.151c-3.031-0.131-6.867-0.765-10.404,1.022
			c-1.627,0.823-5.15,0.296-7.264-0.064c-11.004-1.874-21.135,3.889-32.224,2.442c-10.632-1.388-21.643-0.717-32.417,0.041
			c-14.277,1.003-28.347-2.689-42.577-1.198c-14.082,1.475-28.24,2.147-42.342,1.641c-9.215-0.331-18.778-0.271-27.619-2.066
			c-16.457-3.341-32.667-1.021-48.974-1.022c-13.985-0.001-27.971,0.311-41.956,0.494c-2.649,0.035-5.223-0.053-7.369,2.208
			c-0.882,0.929-2.728,1.179-4.172,1.294c-4.456,0.355-8.931,0.679-13.395,0.635c-1.821-0.018-4.607,0.328-5.141-2.093
			c-1.021-4.62-4.267-4.409-7.688-4.292c-1.498,0.051-3.006,0.153-4.494,0.041c-4.247-0.322-5.983,1.6-6.084,5.829
			c-0.172,7.206-0.324,7.1-7.62,7.342C9.894,31.126,5.342,30.287,1,31.996C1,22.497,1.086,12.998,0.935,3.5
			C0.9,1.349,1.348,0.553,3.503,0.98C4.145,1.107,4.833,1,5.5,1C164.979,1,324.459,1,483.939,1z"/>
		<path fill-rule="evenodd" clip-rule="evenodd" fill="none" d="M729.908,1c-0.303,12.862,1.873,11.509-11.824,11.753
			c-19.124,0.342-38.247,0.729-57.37,1.067c-2.773,0.05-5.682,0.585-6.912-3.21c-0.577-1.779-2.732-1.694-4.386-1.649
			c-7.977,0.217-15.952,0.49-23.926,0.789c-0.803,0.03-2.068,0.129-2.315,0.61c-2.523,4.906-7.067,3.429-10.999,3.515
			c-33.752,0.737-67.508,1.339-101.26,2.128c-5.211,0.121-10.254-0.871-15.383-1.257c-2.51-0.188-3.388-1.423-3.589-3.805
			c-0.297-3.495-1.283-6.846-3.006-9.941C569.262,1,649.586,1,729.908,1z"/>
		<path fill-rule="evenodd" clip-rule="evenodd" fill="none" d="M782.901,1c-12.127,3.577-24.255,7.156-36.386,10.718
			c-0.634,0.187-1.312,0.218-1.97,0.325c-10.652,1.745-10.867,1.572-11.384-9.065c-0.032-0.662-0.167-1.319-0.254-1.978
			C749.573,1,766.236,1,782.901,1z"/>
		<path fill-rule="evenodd" clip-rule="evenodd" fill="none" d="M1,52.993c4.126,1.654,8.236,3.349,12.384,4.946
			c2.206,0.85,3.585,2.112,3.579,4.696c-0.007,2.682-1.212,4.259-3.658,5.225C9.172,69.491,5.099,71.272,1,72.991
			C1,66.325,1,59.66,1,52.993z"/>
	</g>
</g>
</svg>
