<?xml version="1.0" encoding="utf-8"?>
<!-- Generator: Adobe Illustrator 16.0.0, SVG Export Plug-In . SVG Version: 6.00 Build 0)  -->
<!DOCTYPE svg PUBLIC "-//W3C//DTD SVG 1.1//EN" "http://www.w3.org/Graphics/SVG/1.1/DTD/svg11.dtd">
<svg version="1.1" id="Layer_1" xmlns="http://www.w3.org/2000/svg" xmlns:xlink="http://www.w3.org/1999/xlink" x="0px" y="0px"
	 width="410.948px" height="193.976px" viewBox="0 0 410.948 193.976" enable-background="new 0 0 410.948 193.976"
	 xml:space="preserve">
<g>
	<g>
		<path fill="none" d="M1,76.99C1,52.66,1.043,28.33,0.935,4C0.923,1.499,1.501,0.937,4,0.938c135.316,0.07,270.633,0.07,405.949,0
			c2.499-0.001,3.066,0.563,3.063,3.062c-0.081,62.992-0.081,125.984,0,188.976c0.003,2.499-0.564,3.063-3.063,3.062
			c-135.315-0.07-270.633-0.07-405.949,0c-2.499,0.001-3.078-0.562-3.065-3.062C1.046,170.312,1,147.648,1,124.984
			c3.161,0.098,6.334,0.417,9.478,0.233c3.326-0.193,5.547,0.959,7.604,3.622c14.765,19.115,29.67,38.122,44.539,57.157
			c6.84,8.757,4.933,8.701,14.363,2.026c3.433-2.431,3.625-4.165,0.994-7.43c-9.929-12.322-19.599-24.852-29.29-37.362
			c-0.806-1.04-2.817-2.193-1.457-3.736c1.488-1.688,3.028-0.12,4.341,0.854c6.29,4.662,12.536,9.386,18.854,14.012
			c5.288,3.872,5.323,3.827,9.227-1.348c0.501-0.665,0.904-1.417,1.472-2.016c2.306-2.437,1.726-4.159-0.948-5.981
			c-4.264-2.904-8.338-6.092-12.428-9.243c-0.993-0.764-2.806-1.229-2.526-2.747c0.264-1.434,2.037-1.488,3.266-1.861
			c13.684-4.161,27.15-8.999,40.828-13.202c8.446-2.596,16.635-3.208,25.035-2.804c8.191,0.395,16.123-0.488,24.651,2.619
			c12.629,4.601,26.451,7.186,40.075,7.329c43.479,0.46,86.966,0.183,130.45,0.174c1.661-0.001,3.36,0.031,4.978-0.283
			c22.16-4.303,44.58-7.337,66.115-14.601c9.924-3.348,10.076-2.896,9.495-13.408c-0.009-0.166-0.019-0.335,0-0.5
			c0.238-2.093-0.914-2.864-2.785-3.372c-7.684-2.085-15.232-4.955-22.861-6.82c-16.768-4.1-33.838-7.739-50.99-9.291
			c-18.853-1.705-37.935-1.006-56.917-1.073c-15.988-0.058-31.981,0.572-47.965,0.367c-13.306-0.17-26.588-1.335-39.81,1.325
			c-9.619,1.935-20.19,1.662-28.736,5.73c-9.703,4.62-19.052,2.214-28.505,3.222c-2.471,0.264-4.998-0.045-7.493,0.062
			c-2.714,0.115-5.303-0.396-7.851-1.224c-16.285-5.283-32.572-10.559-48.837-15.899c-1.143-0.376-2.713-0.286-3.344-2.299
			c5.662-4.188,11.345-8.517,17.169-12.644c2.76-1.956,3.407-3.837,0.925-6.428c-0.916-0.956-1.716-2.053-2.417-3.18
			c-1.922-3.087-3.943-3.344-6.894-1.036C65.72,49.472,58.44,54.764,51.209,60.116c-1.178,0.872-2.226,2.431-4.566,1.419
			c1.285-1.748,2.315-3.225,3.422-4.644C58.774,45.729,67.62,34.67,76.176,23.393c6.104-8.046,7.761-6.145-2.052-13.759
			c-3.174-2.463-4.826-1.938-7.186,1.118c-15.681,20.299-31.6,40.416-47.319,60.686c-2.46,3.172-5.142,4.869-9.273,4.612
			C7.238,75.857,3.992,75.506,1,76.99z"/>
		<path fill-rule="evenodd" clip-rule="evenodd" d="M1,76.99c2.992-1.484,6.238-1.133,9.346-0.94
			c4.131,0.257,6.812-1.44,9.273-4.612c15.72-20.27,31.638-40.387,47.319-60.686c2.36-3.056,4.012-3.581,7.186-1.118
			c9.813,7.614,8.156,5.713,2.052,13.759C67.62,34.67,58.774,45.729,50.065,56.891c-1.107,1.419-2.137,2.896-3.422,4.644
			c2.34,1.012,3.388-0.547,4.566-1.419c7.23-5.353,14.511-10.644,21.594-16.187c2.95-2.309,4.972-2.052,6.894,1.036
			c0.701,1.127,1.501,2.224,2.417,3.18c2.482,2.59,1.835,4.472-0.925,6.428C75.364,58.7,69.682,63.028,64.02,67.216
			c0.63,2.013,2.201,1.923,3.344,2.299c16.265,5.34,32.552,10.617,48.837,15.899c2.547,0.827,5.136,1.339,7.851,1.224
			c2.496-0.106,5.022,0.202,7.493-0.062c9.453-1.008,18.802,1.398,28.505-3.222c8.546-4.068,19.118-3.795,28.736-5.73
			c13.222-2.661,26.504-1.495,39.81-1.325c15.983,0.205,31.977-0.425,47.965-0.367c18.982,0.067,38.064-0.631,56.917,1.073
			c17.152,1.552,34.223,5.191,50.99,9.291c7.629,1.866,15.178,4.735,22.861,6.82c1.871,0.508,3.023,1.278,2.785,3.372
			c-0.019,0.165-0.009,0.334,0,0.5c0.581,10.511,0.429,10.06-9.495,13.408c-21.535,7.264-43.955,10.298-66.115,14.601
			c-1.617,0.314-3.316,0.282-4.978,0.283c-43.483,0.009-86.971,0.286-130.45-0.174c-13.625-0.144-27.446-2.729-40.075-7.329
			c-8.528-3.107-16.46-2.225-24.651-2.619c-8.4-0.404-16.588,0.208-25.035,2.804c-13.678,4.203-27.144,9.041-40.828,13.202
			c-1.229,0.373-3.001,0.428-3.266,1.861c-0.28,1.519,1.533,1.983,2.526,2.747c4.09,3.151,8.165,6.339,12.428,9.243
			c2.674,1.822,3.254,3.545,0.948,5.981c-0.567,0.599-0.97,1.351-1.472,2.016c-3.903,5.175-3.939,5.22-9.227,1.348
			c-6.318-4.626-12.563-9.35-18.854-14.012c-1.313-0.974-2.853-2.542-4.341-0.854c-1.361,1.543,0.651,2.696,1.457,3.736
			c9.691,12.511,19.361,25.04,29.29,37.362c2.631,3.265,2.439,4.999-0.994,7.43c-9.43,6.675-7.522,6.73-14.363-2.026
			c-14.869-19.035-29.773-38.042-44.539-57.157c-2.057-2.663-4.278-3.815-7.604-3.622c-3.144,0.184-6.317-0.136-9.478-0.233
			C1,108.986,1,92.988,1,76.99z M306.96,94.206c-4.99,0-9.982,0.072-14.972-0.021c-4.414-0.083-4.132,2.991-3.988,5.836
			c0.147,2.91-1.19,6.881,3.977,6.899c10.314,0.036,20.63,0.034,30.943,0.007c5.187-0.015,3.821-3.992,3.974-6.893
			c0.148-2.835,0.464-5.923-3.963-5.849C317.608,94.274,312.284,94.206,306.96,94.206z M306.496,122.657
			c5.489,0,10.979-0.084,16.466,0.031c3.347,0.07,3.719-1.888,3.709-4.518c-0.01-2.709-0.082-4.974-3.81-4.937
			c-10.644,0.104-21.289,0.097-31.934,0.007c-3.794-0.032-3.66,2.401-3.714,5.025c-0.057,2.712,0.547,4.507,3.814,4.426
			C296.182,122.564,301.34,122.658,306.496,122.657z M307.349,79.014c-5.154,0-10.311,0.104-15.462-0.037
			c-3.395-0.093-4.766,1.231-4.724,4.692c0.038,3.183,0.762,5.047,4.423,5.007c10.308-0.111,20.618-0.111,30.926-0.01
			c3.854,0.038,4.139-2.207,4.19-5.199c0.057-3.196-1.188-4.553-4.391-4.483C317.326,79.092,312.337,79.013,307.349,79.014z
			 M46.255,80.352c13.373,0,25.437,0,38.89,0c-8.911-2.936-16.485-5.441-24.068-7.923c-1.443-0.472-2.916-0.796-4.302,0.219
			C53.602,74.972,50.428,77.296,46.255,80.352z M49.265,120.67c3.77,3.271,6.415,8.9,11.741,7.72
			c7.603-1.685,14.928-4.625,22.372-7.028c-0.061-0.23-0.121-0.461-0.181-0.691C71.886,120.67,60.576,120.67,49.265,120.67z
			 M385.808,99.183c0.054-6.558-0.537-6.973-7.78-7.196c-3.898-0.12-5.842,1.198-5.719,5.387c0.192,6.592,0.811,7.23,10.828,7.387
			C388.032,104.837,384.623,100.676,385.808,99.183z"/>
		<path fill-rule="evenodd" clip-rule="evenodd" fill="none" d="M306.96,94.206c5.324,0,10.648,0.068,15.971-0.021
			c4.427-0.074,4.111,3.014,3.963,5.849c-0.152,2.9,1.213,6.878-3.974,6.893c-10.313,0.027-20.629,0.029-30.943-0.007
			c-5.167-0.019-3.829-3.989-3.977-6.899c-0.144-2.845-0.426-5.919,3.988-5.836C296.978,94.278,301.97,94.206,306.96,94.206z"/>
		<path fill-rule="evenodd" clip-rule="evenodd" fill="none" d="M306.496,122.658c-5.156,0-10.314-0.094-15.468,0.034
			c-3.268,0.081-3.871-1.714-3.814-4.426c0.054-2.624-0.08-5.058,3.714-5.025c10.645,0.09,21.29,0.098,31.934-0.007
			c3.728-0.037,3.8,2.228,3.81,4.937c0.01,2.63-0.362,4.588-3.709,4.518C317.476,122.573,311.985,122.657,306.496,122.658z"/>
		<path fill-rule="evenodd" clip-rule="evenodd" fill="none" d="M307.349,79.013c4.988,0,9.978,0.079,14.963-0.028
			c3.202-0.069,4.447,1.288,4.391,4.483c-0.052,2.992-0.337,5.237-4.19,5.199c-10.308-0.102-20.618-0.102-30.926,0.01
			c-3.661,0.04-4.385-1.825-4.423-5.007c-0.042-3.461,1.329-4.785,4.724-4.692C297.038,79.117,302.194,79.014,307.349,79.013z"/>
		<path fill-rule="evenodd" clip-rule="evenodd" fill="none" d="M46.255,80.352c4.173-3.056,7.347-5.38,10.52-7.704
			c1.386-1.015,2.859-0.69,4.302-0.219c7.583,2.481,15.158,4.987,24.068,7.923C71.691,80.352,59.628,80.352,46.255,80.352z"/>
		<path fill-rule="evenodd" clip-rule="evenodd" fill="none" d="M49.265,120.67c11.311,0,22.621,0,33.932,0
			c0.061,0.23,0.121,0.461,0.181,0.691c-7.444,2.403-14.769,5.344-22.372,7.028C55.68,129.57,53.035,123.94,49.265,120.67z"/>
		<path fill-rule="evenodd" clip-rule="evenodd" fill="none" d="M385.808,99.183c-1.185,1.493,2.225,5.654-2.671,5.577
			c-10.018-0.156-10.636-0.795-10.828-7.387c-0.123-4.188,1.82-5.507,5.719-5.387C385.271,92.21,385.861,92.625,385.808,99.183z"/>
	</g>
</g>
</svg>
