<?xml version="1.0" encoding="utf-8"?>
<!-- Generator: Adobe Illustrator 16.0.0, SVG Export Plug-In . SVG Version: 6.00 Build 0)  -->
<!DOCTYPE svg PUBLIC "-//W3C//DTD SVG 1.1//EN" "http://www.w3.org/Graphics/SVG/1.1/DTD/svg11.dtd">
<svg version="1.1" id="Layer_1" xmlns="http://www.w3.org/2000/svg" xmlns:xlink="http://www.w3.org/1999/xlink" x="0px" y="0px"
	 width="1171.242px" height="474.119px" viewBox="0 0 1171.242 474.119" enable-background="new 0 0 1171.242 474.119"
	 xml:space="preserve">
<g id="XMLID_1_">
	<g>
		<path d="M847.669,463.89c-5.6-4.14-6.63-8.199-2.09-13.52c7.21-8.47,12.931-17.72,16.59-28.25c2.36-6.78,8.25-10.89,12.641-16.11
			c2.33-2.75,3.35-5.52,3.31-9.12c-0.109-11.18,3.08-21.77,6.45-32.279c0.6-1.891,1.14-3.54,0.21-5.5
			c-4.04-8.511-1.95-16.12,3.66-23.12c1.92-2.41,3.43-3.99-0.76-6.33c-5.28-2.94-8.13-8.44-10.4-14
			c-1.33-3.25-2.24-6.641-3.84-9.811c-1.71-3.409-0.17-6.52,1.96-9.279c3.41-4.4,7.83-7.511,12.87-9.74
			c3.75-1.66,6.82-3.91,8.899-7.64c1.29-2.32,3.2-4.24,5.601-5.78c3.68-2.37,5.2-6.32,6.02-10.52c0.521-2.66,1.051-5.33,1.7-7.96
			c2.65-10.62,11-11.9,19.43-9.51c4.48,1.28,10.25,13.89,8.66,18.52c-1.66,4.82-3.2,9.75-6.01,14.08c-1.66,2.58-3.34,5.54-6.92,2.03
			c-0.82-0.8-2.04-1.16-2.99-0.06c-0.99,1.149-0.22,2.09,0.63,2.88c8.09,7.49,7.101,17.149,5.98,26.62
			c-0.351,2.97,0.08,3.67,2.859,3.729c6.311,0.15,10.57-2.91,13.61-8.149c1.601-2.74,7.38-4.95,10.311-3.771
			c3.479,1.391,4.239,4.24,4.22,7.79c-0.05,7.01-3.97,11.15-10.05,13c-6.83,2.07-12.351,6.71-19.08,8.84
			c-1.561,0.49-2.32,1.61-2.53,3.17c-0.09,0.631,0.07,1.391-0.23,1.891c-4.689,7.88,0.561,11.39,6.45,14.37
			c7.49,3.8,14.04,9.069,20.28,14.399c5.11,4.36,11.64,8.851,10.77,17.431c-0.189,1.939-0.939,3.199-2.39,4.399
			c-10.34,8.601-21.09,16.38-34.07,20.82c-7.949,2.72-9.54,15-3.14,20.76c1.37,1.24,3.7,1.93,2.32,4.44
			c-1.391,2.51-3.7,3.04-6.19,1.97c-5.93-2.54-11.43-5.19-12.99-12.71c-1.189-5.73-6.369-9.71-8.579-15.36
			c1.3,4.29-3.11,5.601-4.011,8.36c-1.47,4.49-4.31,7.75-7.189,11.14c-5.16,6.07-10.141,12.28-16.07,17.681
			c-3.39,3.09-7.479,6.409-5.55,11.77c1.979,5.5,5.54,9.98,11.53,11.8c1.069,0.32,2.18,0.521,3.25,0.851
			c0.96,0.31,1.75,0.89,1.689,2.029c-0.06,1.2-1.01,1.53-1.99,1.7c-6.449,1.141-12.96,2.7-19.029-1.38
			C858.65,467.22,852.45,467.42,847.669,463.89z"/>
		<path d="M1150.18,297c5.13,8.05,3.699,15.52-1.601,22.56c-4.569,6.08-8.91,12.25-16.399,15.69c-3.92,1.81-4.4,7.33-4.71,11.44
			c-0.23,2.88,2.899,4.609,5.8,5.54c12.899,4.13,24.67,10.27,34.71,19.55c2.64,2.439,3.41,4.92,2.83,8.489
			c-1.24,7.69-4.24,14.801-7.351,21.74c-4.17,9.29-6.25,19.11-8.97,28.78c-1.35,4.77,5.23,11.92,10.91,12.11
			c2.09,0.08,4.22-0.37,5.02,2.38c0.761,2.58-1.1,3.689-2.6,5.13c-4.89,4.63-10.19,3.109-15.1,0.57
			c-3.9-2.021-7.71-3.391-12.141-3.86c-9-0.97-11.04-4.88-6.77-12.99c3.24-6.16,5.729-12.49,6.75-19.35
			c0.49-3.3,0.29-6.71,0.8-10.011c0.8-5.22,1.95-10.369,4.16-15.22c0.92-2.02,1-3.37-1.891-4.069c-8.979-2.181-17.81-5-27.18-5.311
			c-2.359-0.08-3.89,0.35-5.05,2.57c-5.45,10.5-12.88,19.77-18.54,30.189c-2.56,4.721-8.47,6.08-13.04,8.13
			c-10.729,4.801-19.38,12.23-28.28,19.5c-5.17,4.221-7.47,9.421-6.77,16.301c-1.41,4.6,1.42,7.92,4.35,11.189
			c0.94,1.04,2.38,1.98,1.32,3.66c-1.03,1.62-2.87,1.72-4.311,1.18c-4.81-1.8-9.689-3.85-12.14-8.729c-3.13-6.23-5.1-13-10.43-18.09
			c-2.63-2.521-0.67-5.54,1.59-7.511c3.74-3.239,7.7-6.22,11.66-9.199c4.49-3.37,8.58-7,11.95-11.63
			c4.81-6.62,11.71-10.811,19.18-13.86c4.35-1.78,6.229-5.16,8.58-8.96c6.09-9.87,4.96-22.12,11.33-31.78
			c1.27-1.939,0.33-4.33-0.41-6.5c-2.18-6.42-1.04-12.13,4.52-16.27c3.65-2.71,5.881-6.16,7.311-10.32
			c1.14-3.29,0.43-6.05-3.271-6.44c-3.399-0.35-5.85-2.06-7.71-4.35c-6.22-7.67-13.72-14.3-18.5-23.17
			c-3.069-5.69,0.17-12.1,6.86-12.24c5.64-0.12,10.8-2.479,16.49-2.7c3.21-0.13,5.87-4.63,9.59-4.86c5.34-0.32,7.229-4.08,9.28-7.86
			c0.59-1.09,1.199-2.61,0.89-3.66c-2.12-7.05,3.81-10.28,6.89-14.82c0.61-0.91,2.12-1.51,3.311-1.7
			c11.49-1.78,21.13,7.97,19.01,19.35c-1.49,8.01-4.01,15.53-12.12,19.48c-1.78,0.859-0.92,2.189-0.55,3.279
			c1.9,5.521,2.51,11.19,2.36,17c-0.061,1.99-0.37,5.08,2.079,5.2c2.78,0.141,4.33-2.56,4.261-5.37
			c-0.11-4.62,1.29-8.359,4.89-11.43C1146.15,293.09,1147.98,293.55,1150.18,297z"/>
		<path d="M109.69,332.7c1.83,7.47-2.6,14.74-0.56,22.319c0.51,1.881,0.85,3.171,2.51,4.061c13.17,7.01,22.22,19.05,33.88,27.92
			c1.94,1.48,2.63,3.88,2.55,6.46c-0.13,4.32,0.3,8.68-0.17,12.95c-1.49,13.38,1.08,26.38,3.23,39.43c0.69,4.2,3.8,6.17,7.73,6.66
			c2.03,0.26,4.16-0.01,6.2-0.32c1.92-0.3,4.06-1.12,5.13,1.061c1.06,2.189,0.38,4.68-1.41,6.12c-3.94,3.17-7.78,6.51-13.51,6.319
			c-4.26-0.14-8.54,0.601-12.67,1.96c-4.67,1.54-10.64-2.659-10.23-7.58c0.86-10.35-0.66-20.26-4.38-29.89
			c-2.33-6.03-2.08-12.189-1-18.4c1.33-7.729-0.17-10.369-7.21-13.439c-6.3-2.74-12.55-5.6-18.7-8.64
			c-2.48-1.221-3.99-1.4-5.1,1.579c-4.05,10.851-13.22,17.78-20.44,26.171c-3.31,3.85-8.19,4.93-13.09,4.56
			c-2.17-0.16-4.36-0.12-6.05,0.72c-8.34,4.13-17.45,4.92-26.36,6.44c-11.46,1.96-17.21,11.2-16.68,21.51
			c0.07,1.43,0.81,3.03-0.77,3.86c-1.65,0.87-3.36,0.439-5-0.55c-2.54-1.54-3.37-4.511-5.75-6.311c-3.12-2.37,0.48-4.84,0.68-7.32
			c0.35-4.409,1.12-8.68-1.28-13.05c-2.88-5.229,0.86-10.55,6.89-10.109c6.02,0.439,11.29-1.65,16.44-4.19
			c7.45-3.66,15.08-6.82,23.11-8.95c1.52-0.41,3.25-0.77,4.73-0.46c5.48,1.15,7.49-2.49,7.85-6.479
			c0.67-7.431,3.99-13.721,7.14-20.141c1.05-2.14,1.53-4.08,0.51-6.359c-3.3-7.431-0.52-14.511,2.22-21.15
			c2.22-5.39,4.14-11.06,7.74-15.88c1.08-1.45,0.76-3.43,0.24-5.12c-1.06-3.5-1.72-7.01-2.03-10.54c-0.39-4.41-0.24-8.86,0.33-13.36
			c0.71-5.529-1.04-7.029-6.57-7.149c-2.25-0.061-3.2,0.53-3.38,2.8c-0.14,1.89-0.57,3.79-1.07,5.63c-0.84,3.11,0.22,5.08,3.02,6.65
			c3.64,2.05,5.35,3.67,5.55,5.63c0.19,1.89-1.03,4.09-3.29,7.3c-3.82,5.44-7.55,3.48-11.93,2.33c-4.88-1.29-4.87-5.05-5.24-9.02
			c-0.98-10.5-1.77-21-1.87-31.561c-0.07-8.38,0.85-9.42,9.22-9.38c8.78,0.05,17.39-2.16,26.22-1.66c2.67,0.15,4.97-5.06,4.55-9.43
			c-0.59-6.23,2.2-11.38,7.4-13.61c8.2-3.52,19.64,2.19,20.92,10.83c1.28,8.61,1.05,17.12-6.83,23.07
			c-2.92,2.21-2.97,4.529-1.13,7.58c0.19-0.45,0.25-0.601,0.32-0.74c1.89-4.11,4.12-8.49,9.19-8.39c4.65,0.079,9.91,8.17,9.13,13.54
			c-1.28,8.88-3.78,17.479-7.42,25.71c-1.36,3.069-2.7,6.18-4.94,8.75c-2.64,3.02-4.22,2.739-6-0.91c-0.37-0.761-0.95-1.4-1.81-1.32
			C109.65,331.28,109.55,332.12,109.69,332.7z"/>
		<path d="M312.49,305.75c-0.18,1.03-0.71,2.58,0.7,2.91c1.75,0.39,1.32-1.24,1.44-2.28c0.5-4.03,3.85-7.52,7.58-7.92
			c3.23-0.35,8.5,2.84,9.4,6.16c0.83,3.05,1.15,6.26,1.49,9.42c0.18,1.71-0.77,3.07-2.27,3.95c-5.12,3-10.31,5.939-16.47,5.95
			c-3.23,0.01-4.68,1.55-4.93,4.569c-0.01,0.16-0.02,0.32-0.05,0.48c-1.06,5.149-3.79,10.689-2.71,15.35
			c1.03,4.42,6.38,7.68,9.22,11.87c4.49,6.6,8.52,13.51,12.66,20.35c3.82,6.32,8.43,12.07,13.36,17.511
			c3.73,4.13,4.49,8.649,3.17,13.71c-1.44,5.479,1.03,10.41,2.12,15.47c1.75,8.11,4.12,16.09,6.24,24.12
			c1.88,7.16,9.26,11.229,16.56,9.229c2.19-0.6,4.83-2.52,6.59,0.051c1.75,2.569,0.74,5.229-0.92,7.979
			c-2.73,4.5-5.98,6.66-11.53,6.76c-4.84,0.08-9.8,0.75-14.67,1.96c-5.25,1.301-8.99,0.471-9.21-6.09
			c-0.27-7.83-3.43-14.93-6.82-21.779c-3.39-6.881-4.79-14.521-8.88-21.16c-2.5-4.061-1.68-9.141-0.95-13.65
			c0.6-3.79-0.7-6.25-3.36-8.29c-5.31-4.1-10.77-8.01-16.1-12.09c-1.85-1.42-2.78-1.11-3.34,1.08
			c-2.89,11.229-10.18,20.18-15.65,30.07c-1.16,2.09-3.15,2.54-5.33,2.529c-3.17-0.02-5.98-1.25-8.52-2.91
			c-9.9-6.47-20.36-11.949-30.62-17.77c-6.95-3.94-16.77-0.13-19.32,7.62c-0.43,1.3-0.02,3.18-2.15,3.07
			c-1.79-0.101-2.8-1.49-3.36-3.051c-1.84-5.069-1.14-10.05,2.31-13.989c3.11-3.53,4.23-7.381,4.36-11.79
			c0.06-2.32,0.3-4.57,2.69-5.71c2.31-1.091,3.83,0.55,5.59,1.67c8.17,5.189,16.87,8.81,26.76,8.88c4.85,0.04,8.79,2.41,12.92,6.649
			c-0.03-6.04,2.21-10.96,4.06-15.84c0.1,0.76,0.23,1.51,0.4,2.26c0.52,2.21-0.28,6.261,3.05,5.98c3.43-0.29,1.62-4.13,2.17-6.54
			c-0.32-3.37-0.62-6.84-0.99-10.3c-0.16-1.47,0.43-3.62-2-3.32c0.09-1.899-0.03-3.78-0.77-5.66c-2.42-6.14-2.71-12.43-1.27-18.83
			c0.28-1.21,0.91-2.62-1.27-2.77c-6.22-0.42-7.37-5.61-8.47-10.01c-1.33-5.29-3.32-10.32-4.94-15.49
			c-2.46-7.84-3.28-15.93-4.25-24.01c-0.49-4.061,0.91-6.66,5.2-7.721c5.26-1.29,10.48-2.79,15.7-4.18c5.22-1.39,10-4.54,15.39-5.98
			c1.36-0.36,2.61-1.93,2.54-3.28c-0.28-4.8,2.61-9.04,1.78-14.05c-1.09-6.48,3.61-11.23,12.46-13.68
			c4.83-1.34,9.54,1.97,12.79,6.94c5.34,8.2-0.65,22.3-5.02,27.63c-2.39,2.9-5.06,0.05-7.6,0.17
			C312.85,286.98,314.18,296.19,312.49,305.75z"/>
		<path d="M509.68,316.98c-0.89,2.47-0.94,4.699,1.87,6.1c0.53,0.27,0.88,0.91,1.32,1.37c6.69,6.99,6.62,8.08-1.44,13.479
			c-1.85,1.24-2.4,2.311-1.01,4.221c10.59,14.64,15.63,32.08,24.05,47.81c3.17,5.92,4.48,12.16,0.73,18.64
			c-2.22,3.851-1.16,8.46-1.83,12.7c-1.47,9.26-2.17,18.63-3.16,27.97c-0.52,4.841,2.54,7.78,5.96,10.2
			c3.24,2.29,6.85,4.05,10.3,6.04c1.45,0.84,2.72,1.96,2.56,3.74c-0.19,2.11-2.3,2.29-3.68,2.39
			c-11.33,0.761-22.7,0.851-33.93-0.909c-3.34-0.521-4.75-4.051-3.25-7.271c4.89-10.59,4.21-21.79,4.13-32.95
			c-0.01-0.96,0.16-2.029-0.2-2.85c-2.71-6.15-1.87-12.13,1.22-18.78c-2.75,1.061-4.67,2.15-6.72,2.521
			c-5.39,0.97-9.62-1.5-13.27-5.181c-6.88-6.93-14.39-13.08-22.22-18.92c-6.57-4.91-15.41-1.53-17.9,4.94
			c-0.72,1.88-1.26,4.479-4.1,3.59c-2.48-0.76-2.52-2.91-2.67-5.41c-0.46-7.939,1.65-14.34,8.61-18.82
			c1.49-0.96,1.48-3.05,1.66-4.84c0.36-3.649,2.28-6.319,5.78-7.51c3.34-1.14,5.29,0.93,7.83,2.93
			c5.13,4.021,7.31,11.181,14.68,13.16c-0.02-6.67-2.15-12.62-6.1-17.399c-6.02-7.29-5.85-14.5-1.35-22.051
			c2.71-4.55,1.13-7.88-2.36-10.779c-6.41-5.33-11.44-11.46-13.08-19.94c-0.29-1.52-0.61-2.84,0.49-4
			c4.48-4.729,7.41-10.84,13.16-14.46c1.43-0.9,3.08-2.32,3.5-3.81c1.86-6.65,6.63-10.38,12.46-13.041c3.26-1.48,4.46-3.82,4.3-7.21
			c-0.22-5,0.34-9.89,2.35-14.54c1.83-4.25,5.37-6.27,9.86-5.64c1.58,0.23,3.17,0.38,4.76,0.46c6.81,0.37,11.09,3.06,11.99,9.55
			c1.29,9.27,1.32,18.68-7.49,25.18c-0.25,0.19-0.45,0.6-0.7,0.63c-6.49,0.61-4.64,4.94-3.83,8.69
			C515.19,297.36,513.19,307.24,509.68,316.98z"/>
		<path d="M697.91,276.16c2.521-2.73,3.351-5.9,3.07-9.69c-0.4-5.33,1.28-10.5,3.439-15.2c2.15-4.7,13.28-4.97,17.7-0.6
			c6.181,6.12,8.04,13.66,5.79,22.04c-0.78,2.91-2.22,5.64-3.31,8.47c-1.09,2.82-3.061,4.181-6.01,3.17
			c-3.29-1.13-4.36,0.521-2.74,2.841c7.3,10.52,4.89,21.609,2.569,32.779c-0.069,0.311-0.05,0.641-0.1,0.96
			c-1.29,8.46-1.3,8.46,6.86,6.2c4.29-1.18,12.08,3.68,12.75,7.96c0.189,1.18-0.181,2.19-0.771,3.18
			c-2.72,4.53-11.99,7.78-16.89,5.931c-1.73-0.65-3.95-2.15-5.26-0.57c-1.46,1.76-0.381,4.15,0.56,6.28
			c3.96,8.979,11.5,15.74,15.15,24.92c3.069,7.71,6.55,15.26,9.67,22.95c1.739,4.279,2.47,8.819-0.88,12.64
			c-3.03,3.44-12.65,5.23-16.62,3.13c-2.57-1.359-3.641-0.899-5.351,1.38c-3.989,5.311-7.189,10.86-8.729,17.37
			c-1.73,7.271-7.63,12.42-9.931,19.521c-1.279,3.91-1.34,5.92,2.79,7.739c5.53,2.45,10.66,5.79,16.46,7.721
			c1.5,0.489,3.44,0.779,3.04,2.96c-0.34,1.89-2.17,2.29-3.76,2.359c-3.33,0.16-6.68,0.11-10.02,0.11
			c-7.681,0.01-15.36,0.15-23.03-0.03c-6.86-0.149-9.15-3.229-6.86-9.609c4.261-11.88,8.58-23.7,10.32-36.32
			c0.65-4.81,3.61-8.81,6.42-12.74c2.57-3.58,2.4-11.89-0.399-15.229c-2.28-2.721-5.931-4.12-8.48-1.96
			c-2.34,1.989-6.45,4.41-4.23,8.97c1.07,2.19,1.271,3.96-1.17,5.229c-2.25,1.181-4.369,1.15-6.01-1c-5.93-7.779-8-7.81-2.92-16.71
			c1.97-3.439,2.9-7.359,2.561-11.54c-0.19-2.43-0.471-5.22,2.369-6.8c3.07-1.7,5.811-1,8.471,0.96c1.01,0.75,2.149,1.32,3.89,2.37
			c-0.47-2.91-1.479-4.78-2.83-6.28c-5-5.579-7.12-12.279-8.16-19.5c-0.55-3.85,1.94-6.659,3.44-9.63
			c1.95-3.87,2.26-6.739-0.67-10.31c-2.91-3.561-4.96-7.811-7.41-11.74c-1.82-2.91-1.73-5.66,0.43-8.42
			c3.55-4.52,6.57-9.45,10.8-13.43c0.69-0.65,1.631-1.4,1.75-2.21C686.93,288.21,692.36,282.16,697.91,276.16z"/>
		<path d="M98.17,9.66c2.69-7.9,9.32-11.29,17.16-8.38c2.35,0.86,4.5,2.44,6.48,4.02c1.56,1.25,3.13,2.66,1.41,5.26
			c-0.73,1.1-0.35,3.13-0.06,4.66c1.21,6.42-1.32,11.97-3.99,17.43c-2.11,4.32-6.25,4.36-11.11,4.42
			c8.04,6.11,4.05,15.48,7.16,23.45c3.41-3.91,6.15-7.63,6.52-12.55c0.24-3.2,1.56-5.83,4.54-6.67c2.82-0.8,4.01,2.2,5.44,3.95
			c5.59,6.89,5.61,10.5-0.34,17.09c-5.09,5.63-8.36,12.49-13.06,18.35c-1.77,2.21-3.21,4.86-6.69,4.81
			c-1.69-0.02-1.83,1.49-2.14,2.73c-0.71,2.79-1.36,5.59-2.16,8.36c-2.44,8.48-2.57,8.74,5.74,12.12
			c11.8,4.79,21.98,12.41,33.12,18.32c3.8,2.01,5.52,5.26,4.78,9.99c-1.57,10.08-2.02,20.37-4.15,30.31
			c-1.75,8.2-2.37,16.41-3.09,24.66c-0.48,5.53,8.23,13.01,13.75,11.8c2.01-0.44,4.01-0.92,6.02-1.36c2.86-0.64,3.82,0.77,2.6,3.11
			c-1.34,2.56-2.39,5.17-3.38,7.87c-1.13,3.08-3.75,4.23-6.94,3.97c-5.25-0.43-10.51-0.8-15.73-1.44c-2.43-0.29-4.65-0.42-6.99,0.65
			c-2.85,1.31-5.28-0.16-7.44-1.96c-2.05-1.71-1.97-3.93-1.12-6.14c0.97-2.53,1.97-5.07,3.23-7.46c3.44-6.53,4.25-13.06,1.63-20.21
			c-1.68-4.61-2.27-9.53-1.35-14.62c0.7-3.9,0.46-7.96,0.68-11.95c0.09-1.75,0.06-3.55,0.48-5.23c1.29-5.17,0.63-6.37-4.75-7.13
			c-6.49-0.92-13.01-1.25-19.58-1.24c-3.98,0-7.98-0.34-10.56-4.31c-1.54-2.37-2.65-0.84-3.2,0.9c-1.85,5.85-5.03,11.03-7.8,16.43
			c-3.57,6.96-9.17,12.57-12.54,19.65c-1.03,2.16-3.46,2.74-5.81,2.73c-12.13-0.05-21.57,6.9-31.67,12.14
			c-1.4,0.73-2.55,1.94-3.94,2.72c-10.49,5.93-15.18,14.87-14.01,26.87c0.21,2.18-0.12,2.99-2.6,1.85
			c-5.84-2.67-8.02-6.46-6.41-14.4c1.24-6.14,1.23-11.74-0.94-17.79c-2.68-7.46,1-12.44,8.59-11.57c7.11,0.81,10.79-3.93,15.28-7.42
			c7.27-5.63,15.58-8.73,24.35-10.65c3.24-0.71,4.34-2.02,4.82-5.28c1.26-8.52,3.32-16.91,6.42-24.98c0.9-2.32,0.98-4.27,0.2-6.82
			c-1.91-6.16-2.12-12.31,3.55-17.12c2.72-2.31,4.91-5.04,5.62-8.7c0.11-0.6,0.38-1.38,0.84-1.69c9.46-6.39,1.15-16.12,4.42-23.75
			c0.82-1.93-1.3-1.88-2.85-1.44c-4.87,1.38-7.84-0.68-9.85-5.14c-3.63-8.07-5.91-16.55-7.92-25.1c-1.9-8.05,1.23-11.4,9.39-10.62
			c5.08,0.49,10.17,0.96,15.24,1.54c5.42,0.62,8.37-2.53,10.27-6.89C95.45,17.87,96.78,13.75,98.17,9.66z"/>
		<path d="M1160.05,201.11c0.8,2.33-0.801,3.77-2.431,4.69c-3.76,2.12-7.58,3.9-12.27,2.69c-4-1.03-8.2-1.25-12.29-2
			c-6.271-1.14-8.82-5.36-6.561-11.16c3.521-9.06,5.42-18.32,5.07-28.1c-0.229-6.5-0.62-12.98,2.271-19.33
			c1.659-3.67-2.101-4.9-4.94-5.32c-4.1-0.61-8.28-1.01-12.41-0.92c-6.36,0.13-12.42-1.07-18.31-3.2c-2.92-1.06-4.41-0.59-5.07,2.69
			c-0.98,4.86-4.13,8.57-7.22,12.27c-3.931,4.68-7.44,9.58-8.641,15.8c-0.54,2.78-2.149,4.91-4.989,5.99
			c-5.061,1.91-9.851,4.01-13.48,8.53c-3.62,4.5-9.07,6.95-13.82,10.18c-7.05,4.8-8.64,9.48-6.399,17.71
			c1.359,5.04,2.12,10.37,7.359,13.4c1.29,0.74,2.311,2.44,1.601,4.18c-0.76,1.85-2.45,0.8-3.79,0.91
			c-4.88,0.41-8.43-2.58-12.29-4.73c-0.72-0.41-1.41-1.46-1.53-2.29c-0.859-6.59-4.55-11.77-8.229-16.96
			c-5.15-7.26-4.03-12.42,4.1-16.09c4.23-1.92,6.87-4.89,9.01-8.81c5.15-9.45,11.69-17.54,22.4-21.12c1.84-0.62,2.99-1.65,3.37-3.62
			c1.67-8.71,5.16-16.81,8.68-24.85c2.36-5.4,2.76-10.7,1.48-16.26c-0.75-3.23,0.01-6.02,2.159-8.42
			c7.57-8.44,10.28-17.8,7.271-29.12c-1.88-7.05-2.42-14.51-3.05-21.83c-0.37-4.37-3.03-5.19-6.391-5.52
			c-4.04-0.39-4.569,2.9-4.449,5.42c0.3,6.45-1.631,13.21,3.869,18.98c3.23,3.38,2.7,8.47,1.011,12.79
			c-0.87,2.22-2.91,4.1-5.65,3.66c-3.49-0.57-7.11-0.53-9.03-4.94c-4.31-9.9-4.39-20.21-3.67-30.58c0.28-3.96,0.92-7.91,0.98-11.91
			c0.13-9.94,4.21-13.84,14.3-13.49c4.81,0.17,9.58,0.07,14.37-0.37c6.729-0.62,8.95-2.04,8.7-8.71
			c-0.37-9.82,5.06-14.49,13.14-17.61c1.22-0.47,2.37-0.82,3.71-0.54c10.061,2.07,15.69,14.03,10.5,22.8
			c-2.62,4.43-3.34,10.13-8.59,12.93c-1.37,0.73-1.33,2.87-0.51,3.95c4.069,5.39,3.569,12.15,5.7,18.11
			c0.819,2.32,0.38,5.51,4.27,5.05c3.42-0.4,3.65-3.07,3.78-5.71c0.06-1.12,0.229-2.31-0.07-3.35c-1.44-4.84,1.54-6.89,5.14-8.84
			c2.771-1.5,5.03-0.69,7,1.13c2.98,2.72,4.761,6.16,3.681,10.26c-0.721,2.76-1.54,5.66-3.49,7.84
			c-5.83,6.53-10.88,13.81-18.22,18.89c-4.261,2.95-4.21,3.03-8.101-2.41c0,3.12-0.01,4.85,0,6.57
			c0.04,4.59-3.189,10.18-0.189,13.47c3.68,4.03,9.5,6.21,14.56,8.86c9.07,4.72,18.13,9.38,25.59,16.62
			c4.61,4.48,6.4,9.18,4.61,15.83c-4.03,15.02-8.62,29.96-9.6,45.66c-0.11,1.77,0.46,2.73,1.569,3.65
			c2.811,2.35,6.07,3.59,9.74,3.38C1157.86,197.74,1159.31,198.91,1160.05,201.11z"/>
		<path d="M923.01,123.55c6.58,4.33,12.83,10.18,12.25,19.76c-0.36,5.89-2.471,10.48-7.601,13.49c-6.43,3.76-13.609,5.46-20.64,7.58
			c-2.75,0.82-5.48,1.73-8.141,2.8c-9.739,3.95-12.619,13.45-6.89,22.5c1.16,1.83,2.2,4.38,1,5.78c-1.6,1.88-4.6,1.45-6.67,0.2
			c-2.41-1.45-5.15-2.68-6.53-5.46c-1.229-2.47-2.14-1.67-3.75-0.01c-5.72,5.89-11.569,11.66-17.609,17.24
			c-4.42,4.08-5.11,5.92-2.641,12.7c1.5,4.11,4.011,7.39,9.021,7.01c2.819-0.21,4.91,0.4,4.95,3.59c0.04,3.81-3,2.93-5.25,3.06
			c-1.591,0.1-3.19,0.02-5.851,0.02c-3.83,0.49-8.34-0.28-12.71-2.87c-2.66-1.57-5.81-2.2-9.13-2.36
			c-6.31-0.29-9.07-6.63-5.91-12.09c1.96-3.4,4.26-6.31,7.47-8.54c0.771-0.54,1.681-1.21,1.99-2.03
			c3.7-9.51,11.58-16.56,15.26-26.09c2.061-5.35,5.931-9.44,10.12-13.18c3.221-2.86,4.71-6.11,3.98-10.54
			c-1.18-7.09-1.94-14.25-1.311-21.46c0.271-3.07-0.63-5.61-2.77-7.84c-1.09-1.13-2.69-2.6-2.65-3.86c0.021-0.55,0-1.07-0.06-1.57
			c0.8,2.43,2.28,4.54,4.3,6.5c2.48,2.42,3.34,0.93,4.48-1c0.72-1.23,0.21-2.47,0.149-3.72c-0.34-6.96-0.74-13.93-0.89-20.9
			c-0.05-2.44,1.46-5.3-2.73-5.65c-3.739-0.3-6.279,0.72-6.13,5.11c0.08,2.54,0.01,5.09,0.01,7.63c0.04,0,0.08,0,0.12,0
			c0,2.71-0.069,5.41,0.011,8.11c0.02,0.65,0.08,1.28,0.189,1.89c-1.6-4.46-6.18-7.19-7.81-11.58c-0.29-0.77-1.32-1.35-2.12-1.84
			c-3.141-1.93-4.68-4.8-4.72-8.37c-0.15-13.12-2.181-26.02-4.28-38.93c-0.58-3.52,1.62-6.54,4.68-8.25
			c5.4-3.04,10.37-6.97,16.601-8.39c0.909-0.21,2.079-0.56,2.55-1.24c3.16-4.64,8.59-5.09,12.97-7.48
			c4.51-2.46,7.69-6.63,8.28-11.98c0.279-2.54,0.55-5.05,1.08-7.56c0.91-4.29,3.069-6.13,7.649-7.65c6.08-2.03,9.94-0.43,13.49,3.62
			c4.271,4.89,7.01,10.17,3.36,16.97c-1.761,3.3-1.67,7.46-4.141,10.62c-1.939,2.49-3.97,4.68-7.54,3.95
			c-1.97-0.39-3.1,0.27-2.04,2.21c5.051,9.24,3.65,18.76,1.83,28.46c-1.47,7.88,2.87,12.12,10.9,11.39
			c2.26-0.21,3.33-1.74,4.17-3.51c1.5-3.21,2.65-7.01,7.45-5.49c5.069,1.62,7.89,6.12,7.25,11.03
			c-1.07,8.19-2.891,10.02-11.17,10.82c-5.88,0.57-11.771,1.28-17.66,1.3c-4.44,0.01-4.521,3.06-5.49,5.87
			c-1,2.94-0.32,4.73,2.62,6.09C908.48,113.16,915.61,118.68,923.01,123.55z"/>
		<path d="M708.68,158.61c2.819,6.88-2.9,15.29-10.12,15.72c-4.45,0.26-7.38,1.51-8.351,7.04c-1.6,9.07-4.729,17.85-9.83,25.72
			c-1.97,3.05-2.739,6.64-2.829,10.01c-0.101,3.92,3.979,5.03,6.85,6.36c2.53,1.18,5.51,1.45,8.31,2.01
			c2.801,0.57,4.931,1.69,4.49,5.02c-0.41,3.08-2.32,4.99-5.37,5.13c-4.31,0.2-8.76,0.65-12.91-0.18c-5.88-1.19-11.39-0.25-17,0.97
			c-1.09,0.24-2.17,0.62-3.27,0.73c-2.67,0.26-6.41-0.34-6.68-2.44c-0.431-3.3-3.051-6.29-0.94-10.24
			c4.311-8.11,9.311-15.96,11.36-25.13c0.42-1.91,0.67-3.77,0.609-5.67c-0.239-7.37,1.65-14.21,5.301-20.54
			c1-1.73,1.949-3.26-0.49-4.19c-4.58-1.75-8.92-4.31-14.05-4.31c-5.99,0-10.33,5.36-8.851,11.16c0.37,1.43,0.641,2.83,0.41,4.24
			c-0.57,3.59-3.38,4.61-6.19,2.34c-6.42-5.19-8.81-13.72-5.409-21.52c1.71-3.94,2.47-7.74,2.39-11.99
			c-0.12-6.67,4.5-9.52,10.52-6.47c4.54,2.3,9.181,3.49,14.221,3.42c3.74-0.06,5.05-2.2,2.92-5.49c-1.811-2.79-3.99-5.42-6.391-7.72
			c-5.39-5.17-7.479-11.33-4.779-18.21c2.189-5.57,1.71-10.9-0.65-15.7c-5.29-10.73-2.52-20.34,2.641-29.93
			c1.579-2.94,2.779-6.12,5.189-8.57c2.61-2.66,2.71-6.42,3.78-9.64c2.31-6.94,7.899-9.74,13.76-12.27
			c2.13-0.93,3.05-1.68,3.41-4.19c0.86-6.01,0.51-12.07,1.43-18.1c1.2-7.92,12.601-11.03,17.32-8.85
			c4.53,2.1,10.37,15.64,8.91,20.54c-1.271,4.26-2.36,8.57-4.07,12.73c-1.25,3.04-2.81,3.84-5.81,3.22
			c-4.341-0.9-4.891,0-4.101,4.39c1.101,6.09,1.78,12.25,2.63,18.38c0.04,0.31,0.07,0.69-0.069,0.94
			c-4.801,8.49-3.271,19.23-9.681,27.15c-0.84,1.03-0.91,1.98,0.601,2.61c1.989,0.83,3.2,4.33,6.05,2.03
			c2.02-1.62,4.21-1.51,6.37-1.17c5.42,0.84,7.51,5.15,5.51,10.22c-2.17,5.52-5.74,8.93-11.77,9.84
			c-4.381,0.66-6.771-2.98-10.511-4.04c6.33,7.45,10.58,16.11,15.45,24.39C702.82,144.85,705.84,151.7,708.68,158.61z"/>
		<path d="M551.22,228.26c1.4,2.85-1.59,3.19-2.98,4.51c-5.03,4.79-10.46,5.5-16.49,1.99c-2.58-1.5-5.21-0.75-7.87,0.05
			c-7.05,2.11-11.27-0.75-10.48-8.06c1.34-12.46,0.88-24.98-0.63-37.18c-1.01-8.11,0.64-14.86,3.06-22.03
			c1.3-3.87-0.31-6.91-4.63-9.51c-0.45,3.73-0.04,7.36-0.95,10.95c-1.87,7.37-5.73,9.91-13,7.19c-12.31-4.6-23.68-11.2-34.93-17.87
			c-2.86-1.69-4.88-1.68-7.42-0.26c-4.23,2.36-7.91,5.26-10.37,9.6c-1.79,3.16-3.5,3.33-5.34-0.27c-3.08-6.05-1.12-11.82,0.87-17.43
			c1.53-4.29,4.74-7.83,6.11-12.36c1.07-3.56,3.75-4.36,7.22-2.39c10.39,5.94,20.64,12.25,33.86,13.45
			c-3.91-8.45-0.94-17.84-4.62-26.29c-0.13-0.3-0.21-0.65-0.42-0.86c-8.15-8.26-4.93-16.95-0.92-25.62
			c2.39-5.17,4.19-10.01,0.5-15.68c-2.95-4.52-2.88-9.34,1.18-14.06c2.7-3.13,3.08-7.74,4.37-11.73
			c2.43-7.44,6.05-15.03,13.75-18.81c4.43-2.17,5.69-5.03,5.62-9.77c-0.12-7.77,2.13-14.34,10.7-17.25
			c7.06-2.4,14.42,1.52,15.32,8.95c1.03,8.42-0.1,16.51-3.68,24.28c-1.4,3.05-4.01,3.79-6.65,3.61c-3.27-0.23-3.94,1.15-3.67,3.85
			c0.16,1.58,0.12,3.22,0.52,4.74c2.01,7.49,1.83,14.73-1.27,22c-1.28,3.02-1.52,6.5-2.07,9.79c-0.59,3.49,1.24,4.63,4.47,4.24
			c1.9-0.22,3.82-0.58,5.7-0.45c3.39,0.23,5.66,2.4,6.69,5.42c1.04,3.06,0.25,5.77-2.49,8.07c-7.42,6.24-7.34,6.34-15.71,1.53
			c-0.68-0.39-1.33-0.92-2.33-0.18c4.9,9.2,9.07,18.8,14.69,27.64c3.67,5.78,4.11,12.78,7.1,18.75c2.13,4.26,2.58,8.58,2.59,13.13
			c0.01,0.97,0.14,1.93-0.47,2.74c-3.33,4.43-4.12,9.91-4.53,14.95c-0.82,10.17-0.7,20.45-0.28,30.66
			c0.25,5.99,8.25,12.55,14.56,12.24C549.17,224.36,550.22,226.2,551.22,228.26z"/>
		<path d="M375.62,209.23c-0.77,7.24-6.34,12.68-12.88,13.19c-5.09,0.39-9.95,1.24-14.44,4.33c-5.44,3.74-8.54,2.44-11.15-3.67
			c-0.44-1.02-0.99-2.12-1-3.18c-0.14-14.22-6.38-27.29-7.72-41.27c-0.23-2.38-0.72-4.74-0.94-7.12c-1.13-12.08-8.57-19.81-18.09-26
			c-5.11-3.32-6.65-2.57-8.12,3.42c-0.95,3.86-1.85,7.76-2.82,11.6c-1.98,7.84-6.28,11.56-15.36,11.25
			c-10.27-0.34-20.25-2.38-30.24-4.54c-3.72-0.81-7.57-1.07-11.37-1.5c-7.75-0.87-15.52,4.31-18.37,12.28
			c-0.6,1.67-0.89,3.72-2.98,3.9c-2.42,0.2-3.89-1.8-4.57-3.66c-1.6-4.36-2.43-8.66-0.31-13.44c2.48-5.61,6.46-10.68,6.62-17.3
			c0.06-2.63,2.49-3.45,4.97-3.42c3.56,0.05,7.02,0.79,10.34,1.91c8.49,2.87,16.89,3.09,25.28-0.18c2.46-0.96,4.65-0.38,6.94,0.57
			c4.98,2.06,6.78,0.9,6.94-4.51c0.07-2.38-0.16-4.79-0.42-7.17c-0.22-2.06-1.12-4.13-0.96-6.13c0.63-7.49-1.86-14.55-2.59-21.84
			c-0.6-6.04,1.76-10.76,6.09-14.92c6.3-6.07,5.91-6.06,1.54-13.54c-3.53-6.06-6.58-12.43-9.42-18.86
			c-2.41-5.46-0.09-11.66,5.47-15.68c1.92-1.39,4.08-2.6,6.3-3.39c8.15-2.89,15.01-8.14,22.45-12.27c4.46-2.48,6.43-7.71,6.97-13.08
			c0.67-6.74,8.1-13.12,14.43-12.55c7,0.63,12.26,7.92,12.18,15.16c-0.07,5.44-2.49,9.8-4.25,14.54c-0.98,2.65-3.31,3.99-5.62,3.62
			c-5.81-0.92-6.64,3.96-6.88,6.91c-0.39,4.91-1.23,9.76-1.59,14.66c-0.13,1.69-1.66,4.3,1.02,4.94c2.33,0.56,5.31,0.64,6.69-2.29
			c1.02-2.16,2.28-3.72,4.79-4.18c5.62-1.04,7.66,0.41,9.88,7.24c1.19,3.69-2.5,10.51-6.92,11.8c-4.92,1.44-9.65,3.01-14,5.88
			c-3.72,2.44-5.53,5.97-5.92,9.89c-0.48,4.67-1.37,9.15-3,13.49c-0.95,2.53-0.5,4.11,1.53,6.2c10.26,10.52,20.2,21.35,30.28,32.04
			c1.56,1.66,2.37,3.29,1.09,5.56c-1.39,2.49,0.09,5.01,0.32,7.5c1.49,16.02,4.51,31.87,5.28,47.97c0.1,2.07,1.34,3.11,2.8,4.16
			C360.02,211.93,368.1,212.1,375.62,209.23z"/>
	</g>
	<g>
	</g>
</g>
<rect x="-13.39" y="541.869" fill="#020202" width="1210.94" height="16.221"/>
<rect x="-10.75" y="527.074" fill="#020202" width="1210.939" height="16.221"/>
</svg>
