<?xml version="1.0" encoding="utf-8"?>
<!-- Generator: Adobe Illustrator 16.0.0, SVG Export Plug-In . SVG Version: 6.00 Build 0)  -->
<!DOCTYPE svg PUBLIC "-//W3C//DTD SVG 1.1//EN" "http://www.w3.org/Graphics/SVG/1.1/DTD/svg11.dtd">
<svg version="1.1" id="Layer_1" xmlns="http://www.w3.org/2000/svg" xmlns:xlink="http://www.w3.org/1999/xlink" x="0px" y="0px"
	 width="304.375px" height="141.202px" viewBox="0 0 304.375 141.202" enable-background="new 0 0 304.375 141.202"
	 xml:space="preserve">
<g>
	<g id="XMLID_1_">
		<g>
			<path d="M294.677,113.479c-1.38,4.39-5.08,8.31-2.8,13.47c-3.81-0.33-3.91-0.359-2.95-3.68c0.84-2.93,1.601-5.97,3-8.64
				c1.2-2.28-0.05-2.46-1.49-3.36c-2.51-1.58-6.09,0.12-8.09-2.74c1.771-0.85,1.7-4.43,4.08-3.66c3.17,1.011,6.2,2.79,8.931,4.74
				C296.607,110.489,295.087,112.169,294.677,113.479z"/>
			<path d="M290.137,91.279c1.46,0.54,1.3,1.38,0.971,2.311c-0.25,0.71-0.28,1.56-1.961,1.649
				C289.507,93.779,289.817,92.559,290.137,91.279z"/>
			<path fill="#151515" d="M288.807,55.669c0.44,1.1,0.87,2.19,1.32,3.3c-3.11-0.64-3.11-0.64-2.59-3.44
				C287.917,55.969,288.337,56.009,288.807,55.669z"/>
			<path fill="#151515" d="M287.537,55.529c0.42,0.05,0.84,0.1,1.27,0.14C288.337,56.009,287.917,55.969,287.537,55.529z"/>
			<path d="M286.487,79.579c3.01,1.021,2.33,3.5,1.229,5.761c-0.81,1.79-1.67,1.81-2.55,1.35c-0.42-0.64-1.01-1.15-1.75-1.56
				c-0.48-0.141-0.9-0.051-1.271,0.27c0.341-0.68,0.9-1.35,0.99-2.07C283.407,81.229,283.227,78.489,286.487,79.579z"/>
			<path d="M287.417,21.949c1.68,1.54-0.62,2.01-0.96,2.95c-0.37-1.25-1.84-2.4-0.2-3.39
				C286.477,21.369,287.127,21.679,287.417,21.949z"/>
			<path d="M282.297,28.759c0.76-1.31-0.68-2.44-0.28-3.72c0.07,1.56,3.91,0.92,2.091,3.58
				C283.507,28.669,282.896,28.709,282.297,28.759z"/>
			<path fill="#202121" d="M283.417,85.129c0.74,0.409,1.33,0.92,1.75,1.56c-0.62-0.32-1.24-0.88-1.86-1.21
				c-0.39-0.03-0.779-0.05-1.16-0.08C282.517,85.079,282.937,84.989,283.417,85.129z"/>
			<path d="M282.017,25.039c-0.399,1.28,1.04,2.41,0.28,3.72c0.03-0.48-0.34-0.92-0.68-1.37v-0.01c-0.11-0.61-0.181-1.22-0.25-1.82
				C281.517,25.389,281.727,25.219,282.017,25.039z"/>
			<path fill="#151515" d="M282.297,108.469c0.01,0.02,0.03,0.04,0.05,0.06c-0.05,0.04-0.109,0.061-0.16,0.08L282.297,108.469z"/>
			<path fill="#BDBDBD" d="M281.617,27.389c0.34,0.45,0.71,0.89,0.68,1.37c-0.16,0.01-0.32,0.02-0.479,0.03
				c0.01-0.21,0-0.42-0.04-0.64C281.707,27.899,281.657,27.639,281.617,27.389z"/>
			<path fill="#0B0B0B" d="M282.297,108.469l-0.11,0.14c-0.01-0.03-0.01-0.07-0.01-0.1
				C282.207,108.489,282.257,108.479,282.297,108.469z"/>
			<path d="M282.017,25.039c-0.29,0.18-0.5,0.35-0.649,0.52c-0.141-1.21-0.3-2.41-0.87-3.53
				C280.917,23.079,284.347,22.599,282.017,25.039z"/>
			<path fill="#151515" d="M281.367,25.559c0.069,0.6,0.14,1.21,0.25,1.82C281.177,26.799,280.797,26.219,281.367,25.559z"/>
			<path d="M280.957,28.849c-0.93-2.22-0.09-4.56-0.46-6.82c0.57,1.12,0.729,2.32,0.87,3.53c-0.57,0.66-0.19,1.24,0.25,1.82v0.01
				c0.04,0.25,0.09,0.51,0.16,0.76c0.04,0.22,0.05,0.43,0.04,0.64C281.527,28.809,281.247,28.829,280.957,28.849z"/>
			<path d="M277.577,91.299c0.78-1.21,0.55-2.88,1.76-3.88c-0.26,1.579,0.73,3.449-1.07,4.689
				C278.007,91.739,277.777,91.479,277.577,91.299z"/>
			<path d="M279.337,87.419c-1.21,1-0.979,2.67-1.76,3.88c-1.34-1.21-1.38,1.33-2.141,1.79c-2.8,0.449-3.05-2.341-3.359-3.601
				c-0.26-1.069,2.13-1.229,3.58-1.319C276.896,88.099,278.107,87.679,279.337,87.419z"/>
			<path fill="#2D2D2D" d="M274.137,39.999c0,0.01-0.01,0.01-0.01,0.02c-0.01-0.01-0.02-0.02-0.03-0.03
				C274.097,39.989,274.127,39.989,274.137,39.999z"/>
			<path d="M268.707,20.019c-0.53-2.64,1.3-2.21,2.88-2.31c2.96-0.18,6.04-0.07,6.06-4.57c0-1.05,1.521-3.16,3.4-2.28
				c2.51,1.16,1.42,3.46,1.07,5.43c-0.75,1.23-2.79,1.85-1.83,3.89c0.07,0.62,0.14,1.24,0.21,1.85c0.37,2.26-0.47,4.6,0.46,6.82
				c0.29-0.02,0.57-0.04,0.86-0.06c-0.061,2.09-1.971,3.95-0.891,6.19c0.69,0.83,1.63,1.42,2.28,2.3c1.66,0.89,3.27,1.89,4.979,2.66
				c3.681,1.65,4.36,4.29,2.65,7.71c-1.27,2.54-1.82,5.23-2.03,8.02c-0.43-0.04-0.85-0.09-1.27-0.14c0.22-3.28,0.42-6.57,0.67-9.86
				c0.18-2.28-1.58-2.71-3.04-2.67c-4.03,0.11-7.41-1.84-11.03-3c-0.01-0.01-0.04-0.01-0.04-0.01h0.03
				c-0.57-1.76-1.17-3.55,0.03-5.28c2.22-3.19,1.58-6.45,0.34-9.74c-0.53-0.8-0.83-1.66-0.73-2.63c0.78-1.07,0.41-1.41-2.109-1.96
				c-1.58-0.56-1.79,0.57-2.04,1.66C269.317,21.369,269.007,20.689,268.707,20.019z"/>
			<path fill="#282828" d="M269.617,25.929c0.229,0.7,0.09,1.61,1.05,1.92c0.04,0.66,0.07,1.31-0.63,1.66
				c0.02-0.04,0.03-0.08,0.04-0.13c-0.25-1.06-0.891-2.03-0.9-3.15C269.327,26.299,269.467,26.199,269.617,25.929z"/>
			<path d="M269.617,22.039c0,1.3,0,2.59,0,3.89c-0.141-0.01-0.28-0.01-0.431-0.01c0.021-0.09,0.03-0.19,0.051-0.29
				c-0.061-0.86,0.05-1.85-1.29-1.79c0.3-1.27-0.17-2.68,0.76-3.82C268.317,20.999,267.847,22.029,269.617,22.039z"/>
			<path d="M268.707,20.019c0.3,0.67,0.61,1.35,0.91,2.02C267.847,22.029,268.317,20.999,268.707,20.019z"/>
			<path fill="#282828" d="M269.617,25.929c-0.15,0.27-0.29,0.37-0.44,0.3v-0.01c0-0.1,0-0.2,0.01-0.3
				C269.337,25.919,269.477,25.919,269.617,25.929z"/>
			<path d="M269.237,25.629c-0.021,0.1-0.03,0.2-0.051,0.29c-0.079,0-0.18,0.01-0.27,0.01c-0.32-0.69-0.65-1.39-0.97-2.09
				C269.287,23.779,269.177,24.769,269.237,25.629z"/>
			<path fill="#282828" d="M269.187,25.919c-0.01,0.1-0.01,0.2-0.01,0.3c-0.09-0.04-0.17-0.14-0.26-0.29
				C269.007,25.929,269.107,25.919,269.187,25.919z"/>
			<path fill="#282828" d="M269.177,26.229c0.01,1.12,0.65,2.09,0.9,3.15c-0.01,0.05-0.021,0.09-0.04,0.13
				c-0.021,0.02-0.04,0.03-0.061,0.04c-1.29-0.93-1.46-2.19-1.06-3.62c0.09,0.15,0.17,0.25,0.26,0.29V26.229z"/>
			<path d="M268.917,25.929c-0.4,1.43-0.23,2.69,1.06,3.62c0.021-0.01,0.04-0.02,0.061-0.04c-0.17,0.65-0.75,0.9-1.29,1.18
				c-1.021-2.2-2.561-4.33-0.8-6.85C268.267,24.539,268.597,25.239,268.917,25.929z"/>
			<path d="M279.417,114.249c-2.2,4.15-6.25,6.141-9.95,8.551c-3.09,2.029-6.27,4.02-5.76,8.6c-1.811-2.53-2.7-3.8,0.26-7.16
				c4.36-4.97,12.91-6.92,12.65-15.569c-0.13-4.301,3.46-7.44,3.479-11.671c-0.83-0.75-1.989-1.079-2.64-2.05
				c-0.07-0.609-0.14-1.22-0.21-1.83c-0.23-0.66,0.02-1.229,0.32-1.8c0-0.01,0.01-0.01,0.01-0.02c0.2,0.18,0.43,0.439,0.689,0.81
				c1.801-1.24,0.811-3.11,1.07-4.689c0.94-0.671,1.87-1.351,2.81-2.021c0.381,0.03,0.771,0.05,1.16,0.08
				c0.62,0.33,1.24,0.89,1.86,1.21c0.32,0.48,0.54,1.04,0.64,1.68c-0.069,1.301-0.649,2.63,0.2,3.891
				c-0.02,1.25-0.31,2.56,0.73,3.59c0.58,0.57,2.939-0.23,1.569,1.75c-0.66,0.96-2,1.71-3.22,0.32c-0.47-0.171-0.62-0.9-1.28-0.75
				c0.12,0.22,0.181,0.479,0.17,0.779c1.7,1.98,1.11,3.94,0.221,6.09c-0.62,1.511-2.34,2.561-2.021,4.471
				c-0.87,0.29-0.85,1.09-0.96,1.819C280.787,111.708,280.717,113.259,279.417,114.249z"/>
			<path d="M271.107,51.779c-2.131,1.55-4.23,3.42-7,3.96c-0.351-0.27-0.69-0.55-1.04-0.82c4.85-4.11,8.47-9.13,11.06-14.9
				C276.646,42.849,275.396,48.669,271.107,51.779z"/>
			<path fill="#424342" d="M264.107,55.739c-0.851,0.36-1.181,0.06-1.04-0.82C263.417,55.189,263.757,55.469,264.107,55.739z"/>
			<path d="M263.067,54.919c-0.141,0.88,0.189,1.18,1.04,0.82c-0.771,2.27-1.99,4.43-0.891,7.99
				C259.357,58.459,259.357,58.459,263.067,54.919z"/>
			<path d="M235.257,30.519c-0.04-0.29-0.08-0.58-0.12-0.86c0.3-0.47,0.66-0.49,0.84,0.03c0.221,0.67-0.21,1.01-0.83,1.15
				L235.257,30.519z"/>
			<path d="M234.627,110.819c-0.42-0.26-0.76-0.53-1.04-0.81c0.17,0.02,0.35,0.04,0.521,0.05c0.949,1.55,4.319,0.34,3.909,3.439
				c-1.22,0.9-2.449,1.79-3.68,2.69c-0.18,0-0.35,0.01-0.53,0.02c0.551-1.609,2.12-2.3,3.261-3.35
				C237.237,110.989,235.367,111.569,234.627,110.819z"/>
			<path d="M233.297,106.369c0.17-0.27,0.37-0.55,0.61-0.84c2.899-0.58,9.84,3.73,10.069,6.24c0.131,1.37-0.869,2.04-1.76,2.57
				c-2.26,1.359-4.62,2.529-6.939,3.779c-0.82-0.399-1.08-1.069-0.94-1.93c1.23-0.9,2.46-1.79,3.68-2.69
				c0.41-3.1-2.96-1.89-3.909-3.439c-0.171-0.01-0.351-0.03-0.521-0.05c-0.229-0.23-0.42-0.471-0.55-0.721
				C233.217,108.319,233.387,107.359,233.297,106.369z"/>
			<path fill="#6C6D6D" d="M235.137,29.659c0.04,0.28,0.08,0.57,0.12,0.86c-0.3-0.15-0.42-0.33-0.36-0.54
				C234.967,29.759,235.047,29.659,235.137,29.659z"/>
			<path fill="#6C6D6D" d="M235.257,30.519c-0.63,0.13-0.92-0.18-1.03-0.76c0.301-0.09,0.601-0.12,0.91-0.1
				c-0.09,0-0.17,0.1-0.24,0.32C234.837,30.189,234.957,30.369,235.257,30.519z"/>
			<path d="M241.077,96.439c-1.99,1.99-4.23,2.62-6.8,2.39c-0.221-0.58-0.44-1.159-0.66-1.75c0.09,0.021,0.18,0.04,0.29,0.07
				c0.54-0.35,0.859-0.79,0.46-1.46C236.247,98.339,238.757,94.979,241.077,96.439z"/>
			<path d="M235.277,118.119c-1.341,0.36-1.46-0.52-1.561-1.42c0.2-0.18,0.41-0.35,0.62-0.51
				C234.197,117.049,234.457,117.719,235.277,118.119z"/>
			<path d="M233.617,97.079c0.22,0.591,0.439,1.17,0.66,1.75c-0.46-0.52-1.79-0.71-0.83-1.77
				C233.497,97.059,233.557,97.069,233.617,97.079z"/>
			<path fill="#272727" d="M234.367,95.689c0.399,0.67,0.08,1.11-0.46,1.46c-0.11-0.03-0.2-0.05-0.29-0.07
				c-0.021-0.05-0.04-0.1-0.061-0.149C233.827,96.519,234.097,96.099,234.367,95.689z"/>
			<path fill="#393939" d="M233.717,116.699c0-0.04-0.01-0.08-0.01-0.12c0.03-0.13,0.06-0.25,0.1-0.37
				c0.181-0.01,0.351-0.02,0.53-0.02C234.127,116.349,233.917,116.519,233.717,116.699z"/>
			<path d="M230.717,118.929c1.17-0.311,2.47-0.51,2.51-1.82c0.04-0.02,0.07-0.05,0.11-0.08c0.13-0.109,0.25-0.22,0.38-0.33
				c0.101,0.9,0.22,1.78,1.561,1.42c-1.94,1.13-1.54,3.2-1.561,6.261C232.277,121.769,231.497,120.349,230.717,118.929z"/>
			<path fill="#B5B4B4" d="M233.617,97.079c-0.061-0.01-0.12-0.02-0.17-0.02c0.02-0.04,0.069-0.09,0.109-0.13
				C233.577,96.979,233.597,97.029,233.617,97.079z"/>
			<path fill="#393939" d="M233.227,117.109c0.021-0.25-0.02-0.54-0.109-0.88c0.229-0.01,0.46-0.021,0.689-0.021
				c-0.04,0.12-0.069,0.24-0.1,0.37c0,0.04,0.01,0.08,0.01,0.12c-0.13,0.11-0.25,0.221-0.38,0.33
				C233.297,117.059,233.267,117.089,233.227,117.109z"/>
			<path fill="#282727" d="M233.297,106.369c0.09,0.99-0.08,1.95-0.26,2.92C232.547,108.399,232.657,107.419,233.297,106.369z"/>
			<path d="M233.227,117.109c-0.04,1.311-1.34,1.51-2.51,1.82c0.37-0.471,0.86-0.84,1.3-1.24
				C232.437,117.599,232.837,117.399,233.227,117.109z"/>
			<path d="M233.117,116.229c0.09,0.34,0.13,0.63,0.109,0.88c-0.39,0.29-0.79,0.49-1.21,0.58
				C232.477,117.279,232.887,116.839,233.117,116.229z"/>
			<path d="M233.447,97.059c-0.96,1.06,0.37,1.25,0.83,1.77c-0.44,0.021-0.87,0.051-1.311,0.07
				C234.037,98.779,231.687,96.789,233.447,97.059z"/>
			<path d="M232.007,96.969c-0.43-0.811-1.12-1.9,0.4-2.08c1.35-0.15,0.609,1.43,1.149,2.04c-0.04,0.04-0.09,0.09-0.109,0.13
				c-1.761-0.271,0.59,1.72-0.48,1.84C232.007,98.569,232.337,97.609,232.007,96.969z"/>
			<path d="M232.917,109.989c-0.09,0.58-0.15,1.15-0.14,1.74c-0.61,2.1-1.74,3.87-3.36,5.34c0.1-2.33,1.6-3.95,2.89-5.68
				C232.087,110.349,232.407,110.049,232.917,109.989z"/>
			<path d="M233.117,116.229c-0.23,0.61-0.641,1.05-1.101,1.46c-0.56,0.14-1.149,0.1-1.779-0.15
				C231.197,117.099,232.157,116.669,233.117,116.229z"/>
			<path d="M230.237,117.539c0.63,0.25,1.22,0.29,1.779,0.15c-0.439,0.4-0.93,0.77-1.3,1.24
				C229.857,118.708,229.907,118.169,230.237,117.539z"/>
			<path d="M230.896,11.369c1.141,0.67,1.03,2.92,0.181,4.32c-0.78,1.29-1.97,2.35-2.98,3.52c-0.63-0.96-1.37-1.63-2.609-1.01
				c0.64-1.55,1.22-3.11,1.92-4.62C228.097,12.089,229.577,10.599,230.896,11.369z"/>
			<path d="M229.417,117.069c1.62-1.47,2.75-3.24,3.36-5.34c-0.011-0.59,0.05-1.16,0.14-1.74c0.2-0.02,0.43,0,0.67,0.021
				c0.28,0.279,0.62,0.55,1.04,0.81c0.74,0.75,2.61,0.17,2.44,2.04c-1.141,1.05-2.71,1.74-3.261,3.35
				c-0.229,0-0.46,0.011-0.689,0.021c-0.96,0.44-1.92,0.87-2.88,1.31C229.957,117.399,229.677,117.249,229.417,117.069z"/>
			<path d="M228.587,92.899c0.81,1.271,0.78,2.67,0.65,4.09c-0.42-0.28-0.69-0.77-1.011-1.189c-0.06-0.73-0.189-1.45-0.319-2.17
				C228.137,93.389,228.357,93.139,228.587,92.899z"/>
			<path d="M228.607,22.049c0.6,1.31,3.22,2.67-0.08,3.89C229.437,24.669,229.007,23.359,228.607,22.049z"/>
			<path d="M228.607,22.049c0.399,1.31,0.829,2.62-0.08,3.89C228.557,24.649,228.587,23.349,228.607,22.049z"/>
			<path fill="#282828" d="M228.097,19.209c-0.87-0.34-1.739-0.68-2.609-1.01C226.727,17.579,227.467,18.249,228.097,19.209z"/>
			<path d="M227.527,43.979c-0.07,0.25-0.15,0.49-0.25,0.72c-0.011-0.03-0.021-0.06-0.04-0.09c-0.25-0.31-0.471-0.62-0.69-0.94
				c-0.62-1.03-1.5-1.72-2.53-2.24c1.2,0.29,2.25,0.95,3.33,1.53C227.407,43.299,227.467,43.639,227.527,43.979z"/>
			<path d="M228.227,95.799c-0.369-0.49-0.81-0.891-1.649-0.74c0.439-0.48,0.89-0.95,1.33-1.43
				C228.037,94.349,228.167,95.069,228.227,95.799z"/>
			<path d="M225.657,94.929c0.51,0.97-0.021,1.1-0.82,0.99C225.107,95.589,225.377,95.259,225.657,94.929z"/>
			<path d="M225.567,55.639c-3.53,0.17-1.381-2.47-1.881-3.79c0.311-0.33,0.62-0.66,0.921-0.99
				C226.767,52.079,224.827,54.129,225.567,55.639z"/>
			<path d="M225.657,94.929c-0.28,0.33-0.55,0.66-0.82,0.99c-2.18-2.73-0.66-4.4,1.68-5.82
				C229.557,92.299,224.467,93.059,225.657,94.929z"/>
			<path d="M226.467,95.079c-0.34,0.99,1.42,2.091,0.04,2.88c-0.88,0.5-1.04-0.989-1.76-1.26c-0.01-0.27,0.02-0.529,0.09-0.779
				c0.8,0.109,1.33-0.021,0.82-0.99C225.917,95.039,226.187,95.089,226.467,95.079z"/>
			<path fill="#252424" d="M224.737,34.599c-0.891-0.44-1.051-1.28-1.15-2.15C224.407,32.919,224.717,33.669,224.737,34.599z"/>
			<path d="M224.737,34.599c3.1,2.01,6.319,3.87,9.27,6.07c3.98,2.96,3.65,5.04-1.01,6.93c-2.33,0.94-4.82,1.5-7.24,2.23
				c-0.729-0.38-0.74-1-0.57-1.68c0.381-1.33,3.03-1.35,2.091-3.45c0.1-0.23,0.18-0.47,0.25-0.72c-0.061-0.34-0.12-0.68-0.181-1.02
				c-1.08-0.58-2.13-1.24-3.33-1.53c-0.25-0.12-0.5-0.24-0.76-0.34c-2.51-1.3-2.75-3.55-2.54-6c0.04-0.22,0.09-0.44,0.16-0.65
				c0.3,0.03,0.59,0.07,0.88,0.1c0.22-0.23,0.21-0.44-0.04-0.65c0.26-0.42,0.45-0.84,0.59-1.28c0.32-0.17,0.69-0.26,1.12-0.25
				c0.061,0.03,0.11,0.06,0.16,0.09C223.687,33.319,223.847,34.159,224.737,34.599z"/>
			<path d="M225.557,46.969c-0.949,0.4-1.899,0.79-2.859,1.19c0.21-2.29-1.561-4.82,0.859-6.83c0.16,0.02,0.311,0.06,0.46,0.1
				c1.03,0.52,1.91,1.21,2.53,2.24c0.22,0.32,0.44,0.63,0.69,0.94c0.02,0.03,0.029,0.06,0.04,0.09
				C226.927,45.599,226.387,46.379,225.557,46.969z"/>
			<path fill="#575858" d="M222.646,27.089c-0.01,1.24,0.11,2.49,0.011,3.71c-0.19-0.76-0.17-1.58-0.21-2.38
				c-0.271-0.42-0.07-1.18,0.109-1.92C222.597,26.689,222.627,26.889,222.646,27.089z"/>
			<path d="M220.877,34.439c0.07-0.24,0.15-0.47,0.26-0.7c0.311-0.5,0.69-0.9,1.17-1.13c-0.14,0.44-0.33,0.86-0.59,1.28
				c0.25,0.21,0.26,0.42,0.04,0.65C221.467,34.509,221.177,34.469,220.877,34.439z"/>
			<path d="M219.727,34.299c-0.01-0.15-0.02-0.31-0.029-0.46c0.149-0.08,0.279-0.19,0.399-0.32c0.3-1.27,0.34-2.53-0.029-3.79
				c-0.141-0.18-0.29-0.32-0.45-0.44c0.09-1.43,0.17-2.86,0.26-4.29c-0.03-0.03-0.07-0.07-0.1-0.1c0.029-0.03,0.06-0.06,0.09-0.09
				c0.25-0.09,0.479-0.16,0.689-0.22c0.011-0.01,0.021-0.01,0.03-0.01c1.26-0.04,1.76,0.78,1.97,1.92
				c-0.18,0.74-0.38,1.5-0.109,1.92c0.04,0.8,0.02,1.62,0.21,2.38v0.01c-0.05,0.61-0.15,1.21-0.351,1.8
				c-0.479,0.23-0.859,0.63-1.17,1.13c-0.109,0.23-0.189,0.46-0.26,0.7C220.497,34.389,220.117,34.349,219.727,34.299z"/>
			<path d="M222.607,127.439c-1.591,1-2.101,3.7-4.66,3.19c-0.07-0.46-0.13-0.921-0.2-1.381c2.689-3.329,4.18-7.439,6.41-11.05
				c1.62-2.609,2.68-7.069,2.279-10.939c-0.239-2.29,0.36-4.37,0.99-6.49c0.181-1.43,0.95-2.73,0.82-4.22c0-0.25,0-0.5-0.021-0.75
				c0.32,0.42,0.591,0.909,1.011,1.189c0.13-1.42,0.159-2.819-0.65-4.09c-0.229,0.24-0.45,0.49-0.68,0.73
				c-0.061-0.33-0.12-0.66-0.17-1c0.08-1.94,0.409-3.78,1.979-5.131c2.12-1.239,1.99-3.63,2.86-5.51c0.569-1.22,1.26-2.87,3.08-2.22
				c1.029,0.36,1.71,1.53,1.58,2.71c-0.16,1.41,0.069,3.41-2.2,3.25c-2.47-0.17-1.891,1.07-1.09,2.17
				c1.83,2.55,1.199,5.14,0.42,7.79c-0.271,0.41-0.54,0.83-0.811,1.24c-0.54-0.61,0.2-2.19-1.149-2.04
				c-1.521,0.18-0.83,1.27-0.4,2.08c0.33,0.64,0,1.6,0.96,1.93c3.061,2.14,0.45,4.44,0.19,6.67c0.069,0.271,0.109,0.54,0.14,0.8
				c-0.64,1.051-0.75,2.03-0.26,2.92c-0.04,0.23-0.08,0.46-0.12,0.7c-0.51,0.061-0.83,0.36-0.61,1.4
				c-1.29,1.729-2.79,3.35-2.89,5.68c-2.98,1.521-2.95,5.09-4.91,7.37C223.847,125.208,222.937,126.249,222.607,127.439z"/>
			<path d="M219.877,24.999c-0.09,1.43-0.17,2.86-0.26,4.29c-0.021-0.03-0.04-0.04-0.07-0.05c-0.41-0.74-0.65-1.48-0.65-2.2
				c0.171-0.76,0.32-1.54,0.881-2.14C219.807,24.929,219.847,24.969,219.877,24.999z"/>
			<path fill="#575858" d="M219.867,24.809c-0.03,0.03-0.061,0.06-0.09,0.09c-0.011-0.01-0.021-0.02-0.03-0.03
				c0.05-0.07,0.11-0.13,0.17-0.2c0.229-0.05,0.45-0.08,0.64-0.08C220.347,24.649,220.117,24.719,219.867,24.809z"/>
			<path d="M220.097,33.519c-0.12,0.13-0.25,0.24-0.399,0.32c0-0.01,0-0.01,0-0.02c-0.73-1.48-0.511-2.96-0.08-4.46
				c0-0.02,0-0.05,0-0.07c0.16,0.12,0.31,0.26,0.45,0.44C220.437,30.989,220.396,32.249,220.097,33.519z"/>
			<path fill="#B2B2B2" d="M219.547,29.239c0.03,0.01,0.05,0.02,0.07,0.05c0,0.02,0,0.05,0,0.07
				C219.597,29.319,219.577,29.279,219.547,29.239z"/>
			<path fill="#010101" d="M219.697,33.839c-0.04,0.15-0.021,0.31,0.029,0.46l-0.38,0.17l-0.399-0.13c0-0.01,0-0.02,0-0.03
				c0.029-0.1,0.04-0.19,0.02-0.27h0.01C219.247,34.029,219.487,33.969,219.697,33.839z"/>
			<path d="M219.617,29.359c-0.76,0.43-1.29,0.15-1.7-0.46c0.08-0.03,0.15-0.07,0.22-0.12c0.53,0.02,1,0.15,1.41,0.46
				C219.577,29.279,219.597,29.319,219.617,29.359z"/>
			<path fill="#010101" d="M218.967,34.039c-0.02-0.22-0.17-0.38-0.43-0.47c0.38,0.08,0.77,0.16,1.16,0.25c0,0.01,0,0.01,0,0.02
				c-0.21,0.13-0.45,0.19-0.721,0.2H218.967z"/>
			<path fill="#B2B2B2" d="M218.896,27.039c0-0.74,0.261-1.47,0.851-2.17c0.01,0.01,0.02,0.02,0.03,0.03
				C219.217,25.499,219.067,26.279,218.896,27.039z"/>
			<path fill="#010101" d="M218.947,34.309c-0.011-0.1-0.04-0.19-0.07-0.28c0.03,0.01,0.06,0.01,0.09,0.01
				C218.987,34.119,218.977,34.209,218.947,34.309z"/>
			<path d="M218.896,27.039c0,0.72,0.24,1.46,0.65,2.2c-0.41-0.31-0.88-0.44-1.41-0.46c0.021-0.02,0.05-0.04,0.07-0.06
				C218.607,28.229,218.757,27.639,218.896,27.039z"/>
			<path fill="#010101" d="M218.877,34.029c-0.07-0.18-0.18-0.33-0.34-0.46c0.26,0.09,0.41,0.25,0.43,0.47
				C218.937,34.039,218.907,34.039,218.877,34.029z"/>
			<path d="M219.747,24.869c-0.59,0.7-0.851,1.43-0.851,2.17c-0.14,0.6-0.289,1.19-0.689,1.68c-0.021,0.02-0.05,0.04-0.07,0.06
				c-0.1-0.01-0.21-0.01-0.31-0.01c0.51-1.56-0.601-3.47,1.02-4.79C219.146,24.279,219.447,24.569,219.747,24.869z"/>
			<path fill="#575858" d="M218.537,33.569c0.16,0.13,0.27,0.28,0.34,0.46c-0.4-0.01-0.77-0.14-1.07-0.42
				C218.047,33.589,218.297,33.579,218.537,33.569z"/>
			<path fill="#B2B2B2" d="M217.827,28.769c0.1,0,0.21,0,0.31,0.01c-0.069,0.05-0.14,0.09-0.22,0.12
				C217.887,28.859,217.857,28.819,217.827,28.769z"/>
			<path d="M217.807,33.609c-0.87-1.52-1.14-3.14-0.72-4.85c0.29,0.21,0.56,0.25,0.83,0.14c0.41,0.61,0.94,0.89,1.7,0.46
				c-0.431,1.5-0.65,2.98,0.08,4.46c-0.391-0.09-0.78-0.17-1.16-0.25C218.297,33.579,218.047,33.589,217.807,33.609z"/>
			<path d="M217.947,34.459c-0.221-0.26-0.271-0.54-0.141-0.85c0.301,0.28,0.67,0.41,1.07,0.42c0.03,0.09,0.06,0.18,0.07,0.28
				c0,0.01,0,0.02,0,0.03C218.617,34.379,218.277,34.419,217.947,34.459z"/>
			<path d="M217.947,130.659c0.06,1.25,2.79,0.761,1.76,2.71c-1.09-1.16-6.35-0.34-1.96-4.12c-0.22,0.44-0.22,0.891-0.03,1.341
				c0.08,0.02,0.15,0.04,0.23,0.04C217.947,130.639,217.947,130.649,217.947,130.659z"/>
			<path fill="#2C2C2C" d="M217.747,129.249c0.07,0.46,0.13,0.921,0.2,1.381c-0.08,0-0.15-0.021-0.23-0.04
				C217.527,130.139,217.527,129.689,217.747,129.249z"/>
			<path d="M217.087,28.759c-0.1-0.93-0.21-1.87-0.31-2.8c-0.73-0.98-0.44-1.95,0-2.93c2.909-1.61,5.81-3.22,8.71-4.83
				c0.87,0.33,1.739,0.67,2.609,1.01c0.17,0.94,0.34,1.89,0.511,2.84c-0.021,1.3-0.051,2.6-0.08,3.89
				c-1.061,2.98,0.71,7.2-3.79,8.66c-0.021-0.93-0.33-1.68-1.15-2.15c-0.52-0.49-0.79-1.05-0.93-1.64v-0.01
				c0.1-1.22-0.021-2.47-0.011-3.71c-0.02-0.2-0.05-0.4-0.09-0.59c0.33-1.35,0.61-2.66-1.97-1.92c-0.01,0-0.02,0-0.03,0.01
				c-0.189,0-0.41,0.03-0.64,0.08c-0.06,0.07-0.12,0.13-0.17,0.2c-0.3-0.3-0.601-0.59-0.9-0.89c-1.62,1.32-0.51,3.23-1.02,4.79
				C217.577,28.769,217.337,28.769,217.087,28.759z"/>
			<path fill="#515151" d="M217.087,28.759c0.25,0.01,0.49,0.01,0.74,0.01c0.03,0.05,0.06,0.09,0.09,0.13
				C217.646,29.009,217.377,28.969,217.087,28.759z"/>
			<path d="M220.957,57.599c-1.73,1.83-4.85,2.51-4.4,6.11c0.2,1.58-1.54,1.9-2.739,1.47c-1.271-0.46-1.391-1.7-0.48-2.69
				c2.96-3.22,4.12-7.72,7.54-10.61c1.08-0.39,1.73,0.17,2.26,1.02C223.787,55.109,221.957,56.159,220.957,57.599z"/>
			<path d="M182.367,100.929c1.24,0,2.479,0,4.04,0c-1.46,2.38-2.75,1.5-4.04,0.68c0.109,0,0.22-0.08,0.33-0.229
				C182.807,101.229,182.697,101.079,182.367,100.929z"/>
			<path d="M184.227,109.458c1.721,1.91,2.351,4.36,3.28,6.671c0.4,0.979,1.03,1.89,0.061,3c-1.21,1.39-2.221,0.29-3.311-0.07
				c-0.189-0.91-0.51-1.78-0.82-2.66c-0.06-1.47-0.409-2.97-0.359-4.43c0.09,0.12,0.18,0.239,0.26,0.35
				C183.547,111.339,183.107,110.149,184.227,109.458z"/>
			<path d="M184.227,109.458c-1.119,0.69-0.68,1.881-0.89,2.86c-0.08-0.11-0.17-0.229-0.26-0.35c0.01-0.28,0.03-0.561,0.08-0.84
				c-0.021-0.391-0.08-0.761-0.21-1.091C183.077,109.659,183.396,109.389,184.227,109.458z"/>
			<path fill="#3A3B3B" d="M183.157,111.129c-0.05,0.279-0.07,0.56-0.08,0.84c-0.09-0.13-0.19-0.261-0.28-0.391
				c0.12-0.47,0.01-1.08,0.15-1.54C183.077,110.369,183.137,110.739,183.157,111.129z"/>
			<path fill="#1D1E1E" d="M183.077,111.969c-0.05,1.46,0.3,2.96,0.359,4.43c-0.51-1.43-0.979-2.88-0.81-4.47
				c0.08-0.101,0.14-0.221,0.17-0.351C182.887,111.708,182.987,111.839,183.077,111.969z"/>
			<path d="M182.646,107.599c0.91,0.01,1.4,0.93,1.58,1.859c-0.83-0.069-1.149,0.2-1.279,0.58c-0.141-0.359-0.36-0.68-0.7-0.939
				C182.117,108.509,181.917,107.589,182.646,107.599z"/>
			<path fill="#404141" d="M182.367,101.609c-0.021-0.229-0.021-0.45,0-0.68c0.33,0.149,0.439,0.3,0.33,0.45
				C182.587,101.529,182.477,101.609,182.367,101.609z"/>
			<path fill="#3A3B3B" d="M182.247,109.099c0.34,0.26,0.56,0.58,0.7,0.939c-0.141,0.46-0.03,1.07-0.15,1.54
				c-0.13-0.17-0.25-0.34-0.38-0.51C182.357,110.409,182.307,109.759,182.247,109.099z"/>
			<path d="M182.557,120.019c-2.51,3.26-2.779,7.75-5.87,10.689c-0.31-0.38-0.619-0.75-0.92-1.119c0.95-5.2,4.591-10.08,1.79-15.7
				c0.011-0.19,0.021-0.38,0.03-0.58c-0.09-0.79,0.12-1.88-0.32-2.32c-3.26-3.229-2.51-6.59-0.569-10.06
				c0.35-0.61,0.819-0.73,1.31-0.721c0.45,0.48,0.94,0.95,1.33,1.471c0.71-0.3,1.43-0.61,2.14-0.91
				c0.311-0.021,0.61,0.03,0.891,0.16c-0.021,0.229-0.021,0.45,0,0.68c-0.62,1.45-1.53,2.85-1.78,4.37
				c-0.18,1.13-1.08,3.28,1.66,3.12c0.06,0.66,0.11,1.31,0.17,1.97c0.13,0.17,0.25,0.34,0.38,0.51c-0.03,0.13-0.09,0.25-0.17,0.351
				c-0.17,1.59,0.3,3.04,0.81,4.47C183.487,117.629,183.327,118.849,182.557,120.019z"/>
			<path d="M181.347,98.389c-1.35-1.48-0.31-2.79,0.54-4.101c0.4-1,0.98-1.979,0.51-3.119c2.311,2.75-0.21,4.949-0.81,7.39
				c-0.08-0.05-0.16-0.11-0.229-0.16C181.347,98.399,181.347,98.399,181.347,98.389z"/>
			<path fill="#C1C0C0" d="M181.587,98.559c0,0,0,0,0,0.01c-0.04-0.02-0.09-0.04-0.13-0.07c-0.04-0.029-0.07-0.069-0.1-0.1
				C181.427,98.449,181.507,98.509,181.587,98.559z"/>
			<path fill="#C1C0C0" d="M181.457,98.499c0.04,0.03,0.09,0.051,0.13,0.07c-0.01,0.01-0.02,0.04-0.02,0.04
				C181.527,98.569,181.487,98.539,181.457,98.499z"/>
			<path d="M179.437,96.589c-0.26,1.6,0.65,2.159,2.131,2.02c-0.03,0.72-0.061,1.44-0.091,2.16c-0.64-0.55-1.43-0.42-2.18-0.46
				c-0.42,0.02-0.86-0.09-1.29-0.101c-1.02-1.05-1.93-2.159-1.61-3.93c0.061-1.43,0.24-2.84,0.551-4.24
				c0.31-3.779,3.52-6.369,4.149-10.06c0.141-0.82,1.2-1.76,2.221-1.2c0.729,0.4,1.279,1.34,1.659,2.15
				c0.7,1.51-0.319,3.83-0.92,3.84c-4.87,0.02-1.6,2.8-1.66,4.4c-0.319,0.97-0.649,1.939-0.979,2.909
				C178.987,93.499,179.627,95.449,179.437,96.589z"/>
			<path d="M181.417,94.079c0.33-0.97,0.66-1.939,0.979-2.909c0.471,1.14-0.109,2.119-0.51,3.119c-0.85,1.311-1.89,2.62-0.54,4.101
				C179.537,97.029,181.537,95.509,181.417,94.079z"/>
			<path d="M181.417,94.079c0.12,1.431-1.88,2.95-0.07,4.311c0,0.01,0,0.01,0.011,0.01c0.029,0.03,0.06,0.07,0.1,0.1
				C178.757,97.119,180.527,95.589,181.417,94.079z"/>
			<path fill="#1D1E1E" d="M178.007,100.208c0.43,0.011,0.87,0.12,1.29,0.101c0.75,0.04,1.54-0.09,2.18,0.46
				c-0.71,0.3-1.43,0.61-2.14,0.91C178.947,101.159,178.457,100.689,178.007,100.208z"/>
			<path d="M181.567,98.609c-1.48,0.14-2.391-0.42-2.131-2.02c0.19-1.141-0.449-3.091,1.98-2.511c-0.89,1.511-2.66,3.04,0.04,4.42
				C181.487,98.539,181.527,98.569,181.567,98.609z"/>
			<path fill="#161616" d="M177.557,113.889c-0.609,0.45-1.17,1-1.84,1.33c-0.88,0.43-1.979,1.37-2.67-0.17
				c-0.29-0.65-0.45-1.7-0.12-2.221c0.66-1.069,1.55-0.29,2.41,0.08c0.68,0.3,1.5,0.28,2.25,0.4
				C177.497,113.499,177.487,113.689,177.557,113.889z"/>
			<path fill="#404040" d="M175.767,129.589c0.301,0.369,0.61,0.739,0.92,1.119C176.137,130.539,176.057,129.969,175.767,129.589z"
				/>
			<path d="M176.687,130.708c-0.31,2.25,2.78,1.79,2.931,3.671c-1.65,1.949-3.271,1.069-4.891-0.04c0.351-1.58,0.69-3.17,1.04-4.75
				C176.057,129.969,176.137,130.539,176.687,130.708z"/>
			<path d="M179.707,16.389c-0.64,1.86-3.85,1.99-3.2,4.72c-0.06-0.07-0.12-0.13-0.189-0.2c0-0.01-0.011-0.02-0.021-0.03
				c-0.35-0.67,0.13-2.1-1.479-1.63c1.34-1.79,0.899-3.89,1.069-5.9c0.13-1.58,0.351-3.34,2.69-1.84
				C180.247,12.829,180.837,14.409,179.707,16.389z"/>
			<path fill="#2B2C2C" d="M176.297,20.879c-0.49-0.54-0.979-1.09-1.479-1.63C176.427,18.779,175.947,20.209,176.297,20.879z"/>
			<path d="M175.637,94.149c-0.35,1.55-0.7,3.11-1.05,4.67C171.847,96.569,171.507,94.849,175.637,94.149z"/>
			<path d="M168.817,27.569c1.739-2.96,2.06-6.95,6-8.32c0.5,0.54,0.989,1.09,1.479,1.63c0.01,0.01,0.021,0.02,0.021,0.03
				c0.05,0.08,0.109,0.15,0.189,0.2c0.78,5.8-1.21,10.75-4.72,15.22c-0.61-0.97-1.23-1.94-1.84-2.91
				c1.79-0.84,0.489-2.44,0.899-3.62C170.167,29.059,169.497,28.309,168.817,27.569z"/>
			<path fill="#323131" d="M174.497,51.169c0.05,0.01,0.09,0.03,0.13,0.05c-0.12-0.02-0.23-0.03-0.34-0.05
				C174.367,51.169,174.427,51.169,174.497,51.169z"/>
			<path d="M171.037,60.499c0.34-2.54,0.68-5.08,1.02-7.63c0.23-1.31,1.08-1.7,2.221-1.7h0.01c0.109,0.02,0.22,0.03,0.34,0.05
				c0.38,0.12,0.7,0.34,0.97,0.64c-0.439,3.53-1.989,6.64-3.72,9.68C171.597,61.199,171.317,60.849,171.037,60.499z"/>
			<path d="M171.827,37.459c2.069,2.68-0.391,3.56-1.96,4.8c-0.221-1.94,1.56-3.08,1.91-4.8
				C171.797,37.459,171.807,37.459,171.827,37.459z"/>
			<path fill="#4B4B4A" d="M171.896,37.449v0.01c-0.01-0.01-0.02-0.02-0.029-0.03C171.877,37.439,171.887,37.439,171.896,37.449z"/>
			<path d="M170.837,49.159c-3.25-2.46-5.479,0.15-7.85,1.94c-0.141-5.44,3.529-5.02,6.909-5.02c3.24-0.9,0.28-2.08,0.15-3.13
				c0.021-0.26-0.04-0.49-0.18-0.69c1.569-1.24,4.029-2.12,1.96-4.8c0.02,0,0.05,0,0.069,0v-0.01c4.141,1.79,7.79,8.16,7.511,13.19
				c-0.851,1.5-2.21,0.55-3.351,0.68c-0.479-0.02-0.96-0.05-1.43-0.1c-0.04-0.02-0.08-0.04-0.13-0.05c-0.07,0-0.13,0-0.21,0h-0.01
				C172.937,50.969,171.717,50.469,170.837,49.159z"/>
			<path fill="#4B4B4A" d="M171.896,37.459c-0.02,0-0.05,0-0.069,0c-0.01-0.02-0.021-0.04-0.04-0.06L171.896,37.459z"/>
			<path fill="#4B4B4A" d="M171.896,37.459l-0.109-0.06c0.03,0.01,0.05,0.02,0.08,0.03
				C171.877,37.439,171.887,37.449,171.896,37.459z"/>
			<path fill="#141515" d="M171.037,60.499c0.28,0.35,0.56,0.7,0.84,1.04C171.287,61.449,171.227,60.919,171.037,60.499z"/>
			<path fill="#4B4B4A" d="M171.787,37.399c0.02,0.02,0.03,0.04,0.04,0.06c-0.021,0-0.03,0-0.05,0
				C171.777,37.439,171.787,37.419,171.787,37.399z"/>
			<path fill="#141515" d="M171.877,61.539c-0.76,2.32,0.85,3.34,3.12,4.33c-3.03,0.88-5.311,0.51-8.34-0.11
				c2.399-1.39,3.59-3.19,4.38-5.26C171.227,60.919,171.287,61.449,171.877,61.539z"/>
			<path d="M171.777,37.459c-0.351,1.72-2.131,2.86-1.91,4.8c-1.101-1.47-2.271-2.91-1.75-4.95
				C169.337,37.359,170.557,37.409,171.777,37.459z"/>
			<path d="M168.817,27.569c0.68,0.74,1.35,1.49,2.029,2.23c-0.79-0.27-1.27-0.19-1.51,0.14
				C168.987,29.199,168.377,28.509,168.817,27.569z"/>
			<path d="M169.947,33.419c0.609-0.81,0.46-1.42-0.28-1.88c0-0.18-0.01-0.36-0.03-0.55c0.42-0.38,0.79-0.81,1.21-1.19
				C170.437,30.979,171.737,32.579,169.947,33.419z"/>
			<path d="M170.847,29.799c-0.42,0.38-0.79,0.81-1.21,1.19c-0.029-0.24-0.09-0.49-0.17-0.74c-0.04-0.11-0.08-0.21-0.13-0.31
				C169.577,29.609,170.057,29.529,170.847,29.799z"/>
			<path d="M168.117,37.309c1.29-1.03,2.529-0.82,3.75,0.12c-0.03-0.01-0.05-0.02-0.08-0.03c0,0.02-0.01,0.04-0.01,0.06
				C170.557,37.409,169.337,37.359,168.117,37.309z"/>
			<path d="M169.667,31.539c0.74,0.46,0.89,1.07,0.28,1.88c-0.011-0.56-0.011-1.11-0.29-1.56
				C169.657,31.749,169.667,31.649,169.667,31.539z"/>
			<path d="M169.657,31.859c0.279,0.45,0.279,1,0.29,1.56c0.609,0.97,1.229,1.94,1.84,2.91c-1.45-0.28-2.15-1.21-2.32-2.62
				C169.517,33.089,169.627,32.479,169.657,31.859z"/>
			<path fill="#BEBDBD" d="M169.667,31.539c0,0.11-0.01,0.21-0.01,0.32c-0.101-0.17-0.24-0.31-0.42-0.43
				c0.06-0.02,0.12-0.02,0.189-0.02C169.507,31.449,169.587,31.499,169.667,31.539z"/>
			<path fill="#BEBDBD" d="M169.637,30.989c0.021,0.19,0.03,0.37,0.03,0.55c-0.08-0.04-0.16-0.09-0.24-0.13
				c-0.069,0-0.13,0-0.189,0.02c-0.021-0.03-0.051-0.04-0.07-0.06C169.337,31.249,169.487,31.119,169.637,30.989z"/>
			<path d="M169.167,31.369c-0.09-0.63-0.06-1.14,0.17-1.43c0.05,0.1,0.09,0.2,0.13,0.31c0.08,0.25,0.141,0.5,0.17,0.74
				C169.487,31.119,169.337,31.249,169.167,31.369z"/>
			<path d="M168.157,32.589c0.319-0.39,0.63-0.76,0.95-1.15h0.01c0.04-0.01,0.08-0.02,0.12-0.01c0.18,0.12,0.319,0.26,0.42,0.43
				c-0.03,0.62-0.141,1.23-0.19,1.85c0.17,1.41,0.87,2.34,2.32,2.62c0.04,0.37,0.07,0.74,0.109,1.12
				c-0.01-0.01-0.02-0.01-0.029-0.02c-1.221-0.94-2.46-1.15-3.75-0.12l-0.07,0.1c-0.51-1.27,0.15-2.55-0.03-3.82
				C168.067,33.249,168.107,32.919,168.157,32.589z"/>
			<path fill="#323232" d="M169.107,31.439c-0.32,0.39-0.631,0.76-0.95,1.15C168.396,32.119,168.557,31.579,169.107,31.439z"/>
			<path d="M169.107,31.439c-0.551,0.14-0.711,0.68-0.95,1.15c-0.761-1.8-1.19-3.56,0.66-5.02c-0.44,0.94,0.17,1.63,0.52,2.37
				c-0.229,0.29-0.26,0.8-0.17,1.43c-0.021,0.02-0.04,0.05-0.05,0.07H169.107z"/>
			<path d="M138.307,65.259c-0.35,0.35-0.7,0.69-1.05,1.03c-0.32-0.28-0.64-0.57-0.97-0.85c0.91,0.21,1.2-0.16,0.95-1.02
				c0.17-0.4,0.35-0.8,0.52-1.2C137.937,63.899,138.117,64.579,138.307,65.259z"/>
			<path d="M137.237,64.419c0.25,0.86-0.04,1.23-0.95,1.02C136.607,65.099,136.927,64.759,137.237,64.419z"/>
			<path d="M136.287,65.439c-0.92-0.36-2.47,0.46-2.22-1.85c0.25-2.28-0.33-4.65-0.54-6.98c0.06,0.07,0.12,0.14,0.19,0.21
				c0,0.01,0.01,0.01,0.01,0.02c0.36,0.68-0.08,2.04,1.47,1.69c0.55,2.01-0.83,4.69,2.04,5.89
				C136.927,64.759,136.607,65.099,136.287,65.439z"/>
			<path fill="#1C1D1D" d="M133.727,56.839c0.49,0.56,0.98,1.13,1.47,1.69C133.647,58.879,134.087,57.519,133.727,56.839z"/>
			<path d="M127.197,101.819c6.06,4.101,9.98,13.74,8.81,20.87c-0.64,3.87-2.39,8.04,1.18,11.56c-1.57,1.29-3.09,1.49-4.53-0.22
				c1.83-4.58-0.29-9.42,0.89-14.05c-0.86-1.63-1.35-3.49-2.89-4.67c-0.02-0.351-0.04-0.71-0.06-1.061
				c-0.31-0.26-0.62-0.52-0.93-0.779l-0.14-0.38c0.28-0.101,0.38-0.23,0.3-0.37c-0.07-0.15-0.15-0.221-0.24-0.221
				c-1.92-1.579-1.73-4.54-4.72-5.79C122.637,105.779,124.107,102.579,127.197,101.819z"/>
			<path d="M134.917,18.059c-0.55,0.62-1.6,0.81-2.42,1.19c0.36-0.97-0.12-1.15-0.95-1c0.15-0.27,0.28-0.56,0.38-0.86
				c-0.59-1.72-0.19-3.33,0.52-4.91c1.5-1.36,2.92-1.07,3.82,0.54C137.367,14.989,136.127,16.649,134.917,18.059z"/>
			<path fill="#1C1D1D" d="M131.547,18.249c0.83-0.15,1.31,0.03,0.95,1C132.177,18.919,131.867,18.589,131.547,18.249z"/>
			<path d="M127.527,23.979c-0.09-2.26-1.04-4.92,2.51-5.52c0.51-0.07,1.01-0.14,1.51-0.21c0.32,0.34,0.63,0.67,0.95,1
				c0.08,1.86,0.25,3.71,0.22,5.57c-0.04,1.94-0.8,3.28-3.12,2.73c-0.36-1.28-0.72-2.55-1.08-3.82c-0.57,0.25-0.73,0.68-0.8,1.17
				C127.637,24.599,127.577,24.289,127.527,23.979z"/>
			<path d="M132.447,38.429c4.55,6.2,4.3,13.06,2.75,20.1c-0.49-0.56-0.98-1.13-1.47-1.69c0-0.01-0.01-0.01-0.01-0.02
				c-0.05-0.08-0.11-0.15-0.19-0.21l-0.33,0.08c-0.53-3.3-0.13-6.75-1.48-9.92c0-0.2,0-0.39,0.02-0.58
				c-0.05-0.79-0.17-1.56-0.38-2.33c-0.14-0.44-0.24-0.89-0.3-1.34c0-1.05-0.3-2.17,0.33-3.1c0.2-0.46,0.19-1.12,0.89-1.02
				C132.327,38.399,132.387,38.409,132.447,38.429z"/>
			<path fill="#1B1B1B" d="M131.737,46.189c-0.02,0.19-0.02,0.38-0.02,0.58c-0.07-0.15-0.14-0.31-0.21-0.46
				c-0.2-0.89-0.45-1.77-0.65-2.67c0.15-0.36,0.2-0.73,0.2-1.12c0.06,0.45,0.16,0.9,0.3,1.34
				C131.567,44.629,131.687,45.399,131.737,46.189z"/>
			<path d="M130.737,39.549c0.3-0.72,0.68-1.31,1.54-1.15c-0.7-0.1-0.69,0.56-0.89,1.02c-0.63,0.93-0.33,2.05-0.33,3.1
				C130.897,41.539,130.867,40.539,130.737,39.549z"/>
			<path d="M132.277,38.399c-0.86-0.16-1.24,0.43-1.54,1.15c-0.14-1.08-0.39-2.14-1.01-3.12c0.74,0.89,2.57,0.31,2.72,2
				C132.387,38.409,132.327,38.399,132.277,38.399z"/>
			<path d="M130.737,39.549c0.13,0.99,0.16,1.99,0.32,2.97c0,0.39-0.05,0.76-0.2,1.12C130.567,42.299,130.397,40.949,130.737,39.549
				z"/>
			<path fill="#020202" d="M130.597,114.249c0.02,0.351,0.04,0.71,0.06,1.061c-0.1-0.08-0.21-0.16-0.33-0.23
				c-0.49-0.42-0.95-0.859-0.66-1.609C129.977,113.729,130.287,113.989,130.597,114.249z"/>
			<path d="M130.737,39.549c-0.34,1.4-0.17,2.75,0.12,4.09c-0.09,0.25-0.25,0.49-0.47,0.72c-0.91-2.59-0.42-5.29-0.66-7.93
				C130.347,37.409,130.597,38.469,130.737,39.549z"/>
			<path fill="#020202" d="M130.707,116.109c-0.45-0.24-0.89-0.46-1.33-0.689c-0.03-0.11-0.08-0.221-0.13-0.32
				C129.937,115.039,130.207,115.799,130.707,116.109z"/>
			<path d="M128.497,118.399c1-0.71,1.11-1.71,0.94-2.81c-0.02-0.061-0.04-0.12-0.06-0.17c0.44,0.229,0.88,0.449,1.33,0.689
				c1.22,0.71,1.16,1.771,0.78,2.91C130.467,118.929,129.297,119.549,128.497,118.399z"/>
			<path fill="#252525" d="M128.517,23.729c0.36,1.27,0.72,2.54,1.08,3.82c-1.08-0.62-1.6-1.57-1.88-2.65
				C127.787,24.409,127.947,23.979,128.517,23.729z"/>
			<path fill="#020202" d="M129.667,113.469c-0.29,0.75,0.17,1.189,0.66,1.609c0.12,0.07,0.23,0.15,0.33,0.23
				c0.02,0.27,0.03,0.53,0.05,0.8c-0.5-0.31-0.77-1.07-1.46-1.01c-0.15-0.311-0.35-0.59-0.61-0.84
				C128.657,113.579,128.877,113.159,129.667,113.469z"/>
			<path d="M129.437,115.589c0.17,1.1,0.06,2.1-0.94,2.81c0.13-1.07,0.27-2.15,0.4-3.229c0.16,0.079,0.32,0.159,0.48,0.25
				C129.397,115.469,129.417,115.529,129.437,115.589z"/>
			<path fill="#020202" d="M129.247,115.099c0.05,0.1,0.1,0.21,0.13,0.32c-0.16-0.091-0.32-0.171-0.48-0.25
				C129.027,115.119,129.147,115.099,129.247,115.099z"/>
			<path d="M127.067,29.829c-0.03-0.96-0.05-1.92-0.07-2.89c0.77-0.43,0.63-1.29,0.72-2.04c0.28,1.08,0.8,2.03,1.88,2.65
				c-1.72,1.73,2.33,2.42,0.74,4.13C129.437,30.729,128.697,29.479,127.067,29.829z"/>
			<path fill="#020202" d="M128.637,114.259c0.26,0.25,0.46,0.529,0.61,0.84c-0.1,0-0.22,0.02-0.35,0.07
				C128.857,114.859,128.777,114.549,128.637,114.259z"/>
			<path fill="#252525" d="M130.337,31.679c-1.47,0.06-2.21-1.19-3.27-1.85C128.697,29.479,129.437,30.729,130.337,31.679z"/>
			<path fill="#272727" d="M127.187,101.729c0.02,0.02,0.04,0.05,0.06,0.07l-0.12-0.03
				C127.147,101.759,127.167,101.739,127.187,101.729z"/>
			<path fill="#181717" d="M127.247,101.799c-0.02,0.01-0.03,0.01-0.05,0.02c-0.02-0.02-0.05-0.03-0.07-0.05L127.247,101.799z"/>
			<path d="M127.747,98.909c-1.02,0.5-1.66-0.05-2.22-0.8c-0.12-0.16-0.16-0.36-0.19-0.56c0.09,0.05,0.17,0.149,0.24,0.3
				C126.307,98.199,127.027,98.559,127.747,98.909z"/>
			<path d="M127.747,98.909c0.85,1.17,0.56,2.09-0.56,2.82c-0.8-0.93-1.61-1.85-2.42-2.78c0.34-0.26,0.5-0.609,0.48-1.06
				c-0.02-0.12-0.04-0.24-0.06-0.36c0.05,0,0.09,0.01,0.14,0.021c0,0,0,0,0.01,0c0.03,0.199,0.07,0.399,0.19,0.56
				C126.087,98.859,126.727,99.409,127.747,98.909z"/>
			<path fill="#272727" d="M125.247,97.889c0.02,0.45-0.14,0.8-0.48,1.06c0.03-0.41,0.06-0.81,0.09-1.21
				c0.12-0.12,0.23-0.189,0.33-0.21C125.207,97.649,125.227,97.769,125.247,97.889z"/>
			<path d="M124.767,98.949c-5.41-4.33-5.24-5.49,2.06-11.79c1.32-1.14,2.79-1.93,2.68-4.109c-0.08-1.58,0.43-3.38,2.46-3.48
				c1.21-0.06,1.83,1.22,2.15,2.29c0.56,1.84,0.04,4.271-1.55,4.41c-3.69,0.32-1.73,2.16-1.73,3.84c0,3.21,0.73,6.86-3.09,8.8
				c-0.72-0.35-1.44-0.71-2.17-1.06c-0.07-0.15-0.15-0.25-0.24-0.3c-0.01,0-0.01,0-0.01,0c-0.07-0.36-0.12-0.73-0.54-0.92
				c0.25,0.26,0.34,0.569,0.4,0.899c-0.1,0.021-0.21,0.09-0.33,0.21C124.827,98.139,124.797,98.539,124.767,98.949z"/>
			<path d="M121.287,110.958c2.62,0.73,4.15,3.881,7.35,3.301c0.14,0.29,0.22,0.6,0.26,0.91c-0.13,1.079-0.27,2.159-0.4,3.229
				c-2.81-1.93-5.02-4.83-8.3-5.92c-2.23-0.74-0.75-1.94-0.43-2.33C121.127,108.519,120.707,110.799,121.287,110.958z"/>
			<path d="M120.057,45.869c7.94,1.42,8.48,1.24,6.08-5.89c-1.33-3.95-0.55-6.88,0.93-10.15c1.06,0.66,1.8,1.91,3.27,1.85
				c0.6,1.68,0.36,3.26-0.61,4.75c0.24,2.64-0.25,5.34,0.66,7.93c0.22-0.23,0.38-0.47,0.47-0.72c0.2,0.9,0.45,1.78,0.65,2.67
				c0.07,0.15,0.14,0.31,0.21,0.46c-0.05,1.89,0.26,3.93-2.24,4.79c-3.16-1.53-6.32-3.06-9.48-4.59
				C120.017,46.599,120.037,46.239,120.057,45.869z"/>
			<path fill="#393939" d="M119.757,46.219c0.1-0.23,0.2-0.35,0.3-0.35c-0.02,0.37-0.04,0.73-0.06,1.1
				C119.727,46.709,119.647,46.459,119.757,46.219z"/>
			<path d="M118.097,43.979c0.65,0.63,1.31,1.26,1.96,1.89c-0.1,0-0.2,0.12-0.3,0.35c-0.11,0.24-0.03,0.49,0.24,0.75
				c-1.62-0.66-2.86,0.37-4.31,0.75c-2.16,0.58-0.4-0.9-0.43-1.47C115.947,45.169,115.667,42.879,118.097,43.979z"/>
			<path d="M95.567,62.239c0.43,0.74-0.29,1.48-1.01,1.83c-1.21,0.58-2.4,0.57-3.4-0.52c1.05,0.26,2.14,0.59,2-1.16
				c0-0.01,0-0.01,0-0.02C93.967,62.219,94.867,61.049,95.567,62.239z"/>
			<path fill="#C4C3C4" d="M93.157,62.389c0.14,1.75-0.95,1.42-2,1.16C91.857,63.209,93.157,63.889,93.157,62.389z"/>
			<path d="M87.157,54.719c-0.71-2.81-1.2-5.67-1.74-8.51c-3.19-2.1-6.8-3.91-5.72-8.78c0,0,0-0.01,0.01-0.01
				c0.02-0.02,0.04-0.03,0.06-0.04c0.2-0.08,0.4-0.16,0.6-0.23c0.04-0.05,0.08-0.11,0.12-0.16c0.69-0.24,1.36-0.11,1.99,0.64
				c6.47,4.42,8.24,10.63,7.04,18.07c-0.15,0.88-0.79,2.21,0.62,2.91c1.17,0.68,0.11,2.13,1.02,2.9c0.29,1.17,1.3,0.65,2,0.86
				c0,0.01,0,0.01,0,0.02c0,1.5-1.3,0.82-2,1.16c-2.41,0.36-2.14-1.63-2.53-2.97C88.077,58.639,87.637,56.669,87.157,54.719z"/>
			<path d="M87.377,13.109c0.07,1.72-0.3,3.11-2.54,2.95c-0.74-0.05-1.51,0.2-2.26,0.31c-0.06-0.45-0.11-0.9-0.16-1.35
				c0.2-2.13,0.77-4.18,3.25-4.39C86.777,10.539,87.317,11.949,87.377,13.109z"/>
			<path fill="#989798" d="M86.317,24.829c0.5-0.69,0.87-0.88,0.92,0.23C86.997,24.689,86.697,24.599,86.317,24.829z"/>
			<path fill="#989798" d="M86.317,24.829c0.38-0.23,0.68-0.14,0.92,0.23C86.917,25.029,86.617,24.949,86.317,24.829z"/>
			<path d="M80.777,85.509c0.23-1.53,0.14-2.96-1.16-4.051c0.38-1.47,1.34-2.17,2.75-1.569c1.35,0.58,1.4,1.96,1.27,3.229
				C83.457,84.799,83.057,86.309,80.777,85.509z"/>
			<path fill="#454545" d="M82.417,15.019c0.05,0.45,0.1,0.9,0.16,1.35C82.127,15.959,82.077,15.519,82.417,15.019z"/>
			<path d="M82.407,23.039c-0.27,4.04,2.24,2,3.91,1.79c0.3,0.12,0.6,0.2,0.92,0.23l0.14-0.12c-0.72,3.25-3.76,2.19-5.74,3.11
				c-0.97-1.56-0.72-3.42-1.08-5.12c-0.04-0.15-0.08-0.3-0.13-0.45c0-0.01,0.01-0.03,0.03-0.04
				C80.947,23.019,81.547,23.349,82.407,23.039z"/>
			<path fill="#2D2E2E" d="M80.797,22.099c0.53,0.31,1.07,0.63,1.61,0.94c-0.86,0.31-1.46-0.02-1.95-0.6
				C80.537,22.319,80.657,22.199,80.797,22.099z"/>
			<path fill="#2D2E2E" d="M80.557,22.929c0.36,1.7,0.11,3.56,1.08,5.12c-0.01,0.01-0.03,0.01-0.04,0.02
				c-2.72-0.85-0.85-3.11-1.42-4.62c-0.03-0.37,0.04-0.7,0.25-0.97C80.477,22.629,80.517,22.779,80.557,22.929z"/>
			<path fill="#202020" d="M80.487,36.989c-0.04,0.05-0.08,0.11-0.12,0.16c-0.2,0.07-0.4,0.15-0.6,0.23
				C80.007,37.209,80.247,37.079,80.487,36.989z"/>
			<path d="M80.777,85.509c-1.55-1.021-0.89-2.66-1.16-4.051C80.917,82.549,81.007,83.979,80.777,85.509z"/>
			<path fill="#333333" d="M79.347,89.969c0.44-0.13,0.83-0.03,1.17,0.279c-0.28,0-0.56-0.01-0.85-0.02
				c-0.28-0.01-0.55-0.021-0.82-0.021C79.017,90.129,79.177,90.049,79.347,89.969z"/>
			<path fill="#202020" d="M79.707,37.399c0,0.01,0,0.01,0,0.02c-0.01,0-0.01,0.01-0.01,0.01
				C79.697,37.419,79.707,37.409,79.707,37.399z"/>
			<path fill="#202020" d="M79.707,37.399c0,0.01-0.01,0.02-0.01,0.03c-0.03,0.01-0.05,0.03-0.08,0.05L79.707,37.399z"/>
			<path d="M76.467,91.379c0.79-0.381,1.58-0.78,2.38-1.171c0.27,0,0.54,0.011,0.82,0.021
				C78.747,91.049,77.547,91.059,76.467,91.379z"/>
			<path fill="#454545" d="M80.227,22.159c-0.44-0.72-0.88-1.45-1.54-2.01c-0.27,0.03-0.53,0.04-0.79,0.04
				c-0.11-0.07-0.19-0.14-0.24-0.21c0.4-0.18,0.82-0.19,1.24-0.03c0.77,0.66,1.2,1.5,1.49,2.42
				C80.337,22.299,80.277,22.229,80.227,22.159z"/>
			<path d="M75.787,91.149c0.93-0.72,1.97-0.92,3.06-0.94c-0.8,0.391-1.59,0.79-2.38,1.171c-0.04,0.01-0.08,0.02-0.11,0.029
				C76.167,91.329,75.977,91.239,75.787,91.149z"/>
			<path d="M77.657,92.009c-0.42-0.2-0.85-0.391-1.28-0.59c0.03-0.011,0.06-0.03,0.09-0.04c1.08-0.32,2.28-0.33,3.2-1.15
				C79.447,91.329,78.857,92.019,77.657,92.009z"/>
			<path d="M78.897,19.949c-0.42-0.16-0.84-0.15-1.24,0.03h-0.01c-0.1-0.13-0.14-0.26-0.1-0.41c0.07-0.24,0.14-0.36,0.23-0.36
				c1.55-1.4,3.09-2.79,4.64-4.19c-0.34,0.5-0.29,0.94,0.16,1.35c0.89,2.24,0.82,4.47-0.17,6.67c-0.54-0.31-1.08-0.63-1.61-0.94
				c-0.14,0.1-0.26,0.22-0.34,0.34c-0.03-0.02-0.05-0.05-0.07-0.07C80.097,21.449,79.667,20.609,78.897,19.949z"/>
			<path d="M78.727,113.299c-1.52-0.36-2.42-1.301-2.7-2.83C77.227,111.119,78.157,112.039,78.727,113.299z"/>
			<path fill="#343534" d="M77.187,20.519c0.24,1.04-0.28,1.85-0.97,2.62C76.357,22.199,76.647,21.319,77.187,20.519z"/>
			<path d="M74.947,93.059c0.28-0.71,0.73-1.26,1.39-1.62c0.01-0.01,0.03-0.01,0.04-0.02c0.43,0.199,0.86,0.39,1.28,0.59
				c1.2,0.01,1.79-0.681,2.01-1.78c0.29,0.01,0.57,0.02,0.85,0.02c0.13,1.421,0.78,3.07,0.28,4.23c-3.49,8.05,0.98,13.71,5.55,19.34
				c3.17,3.9,2.36,8.99,4.19,13.29c1.2,2.83,1.21,6.51,5.98,6.42c-3.73,1.601-6.25,1.74-7-2.79c-0.63-3.85-3.15-7.04-3.65-11.2
				c-0.35-2.88-3.93-5.05-7.14-6.239c-0.57-1.261-1.5-2.181-2.7-2.83l-0.11-0.21l-0.03,0.01c-1.59-2.3-3.32-4.54-0.4-7.23
				c0.91-0.84,0.36-2.09,0.19-3.17C74.167,97.729,74.447,95.409,74.947,93.059z"/>
			<path fill="#A09F9F" d="M76.467,91.379c-0.03,0.01-0.06,0.029-0.09,0.04c0,0-0.01,0-0.02-0.011
				C76.387,91.399,76.427,91.389,76.467,91.379z"/>
			<path fill="#545555" d="M76.267,25.589c0.14,0.4,0.2,0.79,0.09,1.15C76.297,26.359,76.287,25.969,76.267,25.589z"/>
			<path fill="#202121" d="M75.917,110.259l0.11,0.21c-0.05-0.07-0.09-0.141-0.14-0.2L75.917,110.259z"/>
			<path fill="#545555" d="M73.687,24.129c0.39-0.04,0.76-0.08,1.14-0.13c0.11,0.09,0.21,0.17,0.32,0.26
				c-0.01,0.01-0.02,0.02-0.03,0.03C74.607,24.479,74.137,24.429,73.687,24.129z"/>
			<path d="M73.677,24.129c-0.24,0.01-0.47-0.04-0.69-0.15c-0.01-0.98-0.03-1.96-0.04-2.94c1.21-0.58,2.42-1.17,3.64-1.76
				c0.32,0.45,0.51,0.86,0.6,1.24c-0.54,0.8-0.83,1.68-0.97,2.62c0,0,0,0,0,0.01c-0.34,0.37-0.72,0.74-1.07,1.11
				c-0.11-0.09-0.21-0.17-0.32-0.26c-0.38,0.05-0.75,0.09-1.14,0.13H73.677z"/>
			<path fill="#191A1A" d="M73.237,93.499c0.13-0.18,0.27-0.34,0.42-0.489c0.15,0.02,0.3,0.029,0.45,0.04
				c-0.06,1.63-0.12,3.26-0.19,4.89c-1.57-0.48-0.79-2.12-1.19-3.18c0-0.07,0.02-0.15,0.04-0.221
				C72.897,94.179,73.067,93.839,73.237,93.499z"/>
			<path d="M73.687,24.129c0.45,0.3,0.92,0.35,1.43,0.16c0.01-0.01,0.02-0.02,0.03-0.03c0.27,0.22,0.55,0.45,0.82,0.67
				c0.11,0.22,0.22,0.45,0.3,0.66c0.02,0.38,0.03,0.77,0.09,1.15c-0.1,0.34-0.34,0.66-0.81,0.94c-0.62-1.18-1.24-2.37-1.87-3.55
				H73.687z"/>
			<path d="M71.887,99.869c0.77,0.431,1.11-0.06,1.39-0.66c0.02-0.18,0.02-0.35-0.01-0.529c0.2-0.101,0.42-0.05,0.66,0.149
				c0.29,0.341,0.59,0.681,0.89,1.021c0.06,0.89,0.34,1.859-1.1,1.96C72.287,101.899,71.827,101.159,71.887,99.869z"/>
			<path d="M72.987,23.979c-0.85-0.97-0.72-1.95-0.04-2.94C72.957,22.019,72.977,22.999,72.987,23.979z"/>
			<path d="M72.947,21.039c-0.68,0.99-0.81,1.97,0.04,2.94c-0.73-0.09-1.72-0.1-1.59-1.07
				C71.497,22.139,71.317,20.709,72.947,21.039z"/>
			<path fill="#191A1A" d="M72.067,92.889c0.53,0.04,1.06,0.08,1.59,0.12c-0.15,0.149-0.29,0.31-0.42,0.489
				c-0.17,0.341-0.34,0.681-0.47,1.04c-0.02,0.07-0.04,0.15-0.04,0.221c-0.12-0.301-0.34-0.551-0.73-0.721
				C72.017,93.659,72.047,93.269,72.067,92.889z"/>
			<path d="M72.957,98.929c0.1-0.12,0.2-0.21,0.31-0.25c0.03,0.18,0.03,0.35,0.01,0.529c-0.28,0.601-0.62,1.091-1.39,0.66
				C72.247,99.559,72.597,99.249,72.957,98.929z"/>
			<path d="M73.267,98.679c-0.11,0.04-0.21,0.13-0.31,0.25c-0.36,0.319-0.71,0.63-1.07,0.939c-1.1-1.52-1.58-3.27-2.07-5.069
				c-0.92-3.351-0.43-5.391,3.62-5.811c4.27-0.45,5.66-3.75,6.18-7.53c0.27,1.391-0.39,3.03,1.16,4.051
				c-1.94,1.479-0.02,3.17-0.26,4.739c-0.34-0.31-0.73-0.409-1.17-0.279c-0.17,0.08-0.33,0.16-0.5,0.239
				c-1.09,0.021-2.13,0.221-3.06,0.94c0.19,0.09,0.38,0.18,0.57,0.26c-0.08,0.021-0.15,0.04-0.22,0.07
				c-0.88,0.44-1.78,0.84-2.48,1.53c-0.53-0.04-1.06-0.08-1.59-0.12c-0.02,0.38-0.05,0.77-0.07,1.149
				c0.39,0.17,0.61,0.42,0.73,0.721C72.477,96.109,73.197,97.359,73.267,98.679z"/>
			<path d="M65.507,117.559c-0.8-0.44-1.61-0.86-2.42-1.28c0.54-0.09,1.08-0.18,1.62-0.27c0.01,0,0.02,0,0.03,0
				c0.93,0.12,1.94,0.05,2.79,0.399c3.87,1.58,5.95,0.21,6.6-3.77c-0.1-1.19,1.02-1.561,1.55-2.32l0.21-0.05
				c0.05,0.06,0.09,0.13,0.14,0.2c0.28,1.529,1.18,2.47,2.7,2.83C74.407,122.349,74.407,122.349,65.507,117.559z"/>
			<path fill="#202121" d="M64.737,116.009c-0.01,0-0.02,0-0.03,0c-0.21,0-0.44-0.07-0.68-0.2
				C64.247,115.809,64.487,115.869,64.737,116.009z"/>
			<path fill="#1B1C1C" d="M64.707,116.009c-0.54,0.09-1.08,0.18-1.62,0.27c0.29-0.31,0.6-0.47,0.94-0.47
				C64.267,115.939,64.497,116.009,64.707,116.009z"/>
			<path d="M64.287,46.849c1.2-0.82,2.52-0.8,3.87-0.63c1.23,0.61,2.67-0.01,3.89,0.66c1.1,0.4,2.02,0.18,1.95-1.12
				c-0.34-6.17-0.36-12.26,2.7-17.91c-0.19-0.36-0.28-0.73-0.34-1.11c0.11-0.36,0.05-0.75-0.09-1.15c-0.03-0.43-0.05-0.87-0.15-1.29
				c0.01-0.39,0.05-0.78,0.1-1.15c0-0.01,0-0.01,0-0.01c0.69-0.77,1.21-1.58,0.97-2.62c0.11-0.17,0.25-0.34,0.39-0.51
				c0.02-0.01,0.05-0.02,0.07-0.03h0.01c0.05,0.07,0.13,0.14,0.24,0.21c0.26,0,0.52-0.01,0.79-0.04c0.66,0.56,1.1,1.29,1.54,2.01
				c0.05,0.07,0.11,0.14,0.16,0.21c0.02,0.04,0.03,0.07,0.04,0.11c-0.21,0.27-0.28,0.6-0.25,0.97c0.57,1.51-1.3,3.77,1.42,4.62
				c0.01-0.01,0.03-0.01,0.04-0.02c0.11,0.19,0.24,0.37,0.39,0.54c0.22,0.41,0.36,0.85,0.44,1.3c0.11,2.59-0.41,4.99-1.98,7.1
				c-0.24,0.09-0.48,0.22-0.72,0.39c-0.02,0.01-0.04,0.01-0.06,0.02l-0.09,0.08c0.03-0.02,0.05-0.04,0.08-0.05
				c-1.75,3.64-1.45,7.77-2.75,11.52c-0.1,1.51-0.95,1.62-2.12,1.15c-3.27-0.4-6.54-0.72-9.79-1.22c-2.05-0.32-3.77-0.08-5.11,1.73
				C60.487,48.269,59.177,43.939,64.287,46.849z"/>
			<path d="M64.027,115.809c-0.34,0-0.65,0.16-0.94,0.47c-0.61,0.15-1.37,0.03-1.65,0.83c-0.63,0.58-1.24,0.5-1.84-0.03
				C59.997,111.489,62.277,114.919,64.027,115.809z"/>
			<path d="M39.507,124.429c0.61,2.41,1.04,4.92,3.78,6.22c-4.72,1.92-4.72,1.92-4.73-3.02
				C40.757,127.119,39.537,125.599,39.507,124.429z"/>
			<path d="M39.507,124.429c0.03,1.17,1.25,2.689-0.95,3.2C39.567,126.769,39.067,125.458,39.507,124.429z"/>
			<path d="M37.747,45.689c0.59-2.39-0.46-2.37-1.92-2.64c-2.04-0.19-4.12,0.38-6.13-0.31c-1.47-0.5-2.37-1.23-2.39-2.3
				c0.02-0.11,0.03-0.23,0.02-0.35c0.07-0.47,0.29-1,0.69-1.61c0.26-0.39,0.44-0.95,0.8-1.13c3.95-1.88,6.19,1.76,9.21,2.91
				c2.37,0.89,3.13,2.93,2.36,5.03c-1.61,4.37-0.85,8.84-1.05,13.26c-0.37,0.04-0.74,0.07-1.12,0.11
				C36.577,54.389,36.697,49.939,37.747,45.689z"/>
			<path fill="#555555" d="M39.337,58.549c-0.34,0.33-0.72,0.38-1.12,0.11C38.597,58.619,38.967,58.589,39.337,58.549z"/>
			<path fill="#161515" d="M28.877,87.479c0.35,0.1,0.7,0.229,1.05,0.33c0.62,1.2,1.13,2.46,1.58,3.74c0,1.3,0.18,2.609,0.24,3.92
				c-0.29,0.439-0.35,0.93,0.02,1.51c-0.06,1.3-0.34,2.58-1.12,3.81c-2.86,3.48-2.62,6.101,2.04,7.561
				c5.37,1.7,7.13,5.66,6.79,10.93c-0.11,1.72,0.75,3.43,0.03,5.15c-0.44,1.029,0.06,2.34-0.95,3.2
				c-0.61-3.171-2.74-6.08-1.27-9.601c0.59-1.41-0.53-2.47-1.84-2.82c-3.21-0.85-5.62-3.27-8.95-4.069
				c-4.29-1.03-4.92-3.25-2.86-7.16c1.19-2.26,2.15-4.53,0.48-6.99c-0.99-2.43,0.44-6.43-4.04-6.59c0.03-0.05,0.06-0.11,0.09-0.17
				c-0.51-0.92-1.27-1.75-1-2.93c2.74-0.67,5.75,0.649,8.34-1.13C27.957,86.599,28.417,87.039,28.877,87.479z"/>
			<path d="M43.017,60.689c-2.84,0.28-4.66,0.46-6.46,0.62c-0.52-1.52,1.3-1.65,1.66-2.65c0.4,0.27,0.78,0.22,1.12-0.11
				C40.247,59.079,41.147,59.599,43.017,60.689z"/>
			<path fill="#555555" d="M36.557,61.309c0,0.03,0.02,0.07,0.03,0.1l-0.08-0.09C36.527,61.319,36.537,61.319,36.557,61.309z"/>
			<path d="M37.297,22.819c-0.72,0.79-1.31,1.93-2.65,1.28c-0.02-0.05-0.05-0.1-0.08-0.15c-0.02,0-0.03,0-0.05,0
				c0.16-0.98,1.24-1.7,0.82-2.85c0.4-0.03,0.79-0.06,1.19-0.09C36.787,21.609,37.047,22.219,37.297,22.819z"/>
			<path d="M35.197,88.489c0.13,1.28,1.48,2.78-0.64,3.67c-0.65-1.14-1.59-2.21-0.69-3.64
				C34.307,88.509,34.757,88.499,35.197,88.489z"/>
			<path d="M33.397,9.829c1.33,0.88,1.81,2.13,1.35,3.74c-0.58,2.07-1.82,3.31-4.01,3.51c-1.13-0.07-2.13-0.31-2.22-1.73
				c1.52-1.27,1.04-3.12,1.38-4.74C30.707,8.749,32.037,8.939,33.397,9.829z"/>
			<path fill="#494949" d="M34.567,23.949c0.03,0.05,0.06,0.1,0.08,0.15c-0.05-0.02-0.1-0.04-0.15-0.07c0-0.03,0.01-0.06,0.02-0.08
				C34.537,23.949,34.547,23.949,34.567,23.949z"/>
			<path fill="#161515" d="M33.497,94.119c0.12,0.311,0.25,0.62,0.38,0.931c-0.41,0.96-0.82,1.93-1.23,2.89
				c-0.41-0.35-0.7-0.67-0.88-0.96c0.02-0.5,0.01-1-0.02-1.51C32.097,94.958,32.767,94.539,33.497,94.119z"/>
			<path d="M33.867,88.519c-0.9,1.43,0.04,2.5,0.69,3.64C33.237,91.149,32.297,90.069,33.867,88.519z"/>
			<path d="M33.867,88.519c-1.57,1.55-0.63,2.63,0.69,3.64c-0.26,0.33-0.53,0.67-0.79,1.011c-1.12-0.211-1.12-1.141-1.26-1.98
				c0.03-1.06,0.07-2.11,0.1-3.16C33.027,88.189,33.447,88.359,33.867,88.519z"/>
			<path d="M32.877,85.309c0.03,0.61-0.21,1.229-0.32,1.85c-0.8,1.04-1.71,0.931-2.63,0.65c-0.17-0.33-0.34-0.65-0.53-0.97
				c-0.5-0.601-1.04-1.051-1.89-0.67c0.35-0.5,1.02-1.021,0.99-1.49c-0.12-1.88-0.76-4.24,2.13-4.11
				C33.677,80.699,32.787,83.409,32.877,85.309z"/>
			<path d="M31.227,25.169c1.11-0.44,0.96-1.39,0.92-2.29c0.21,0.03,0.32,0.21,0.35,0.52c0.5,0.83,1.31,0.49,2.02,0.55
				c-0.01,0.02-0.02,0.05-0.02,0.08c0.05,0.03,0.1,0.05,0.15,0.07c0.92,1.76-0.29,3.06-1.45,3.71c-1.2,0.67-1.41-0.55-1.9-1.37
				c0-0.13,0-0.26,0-0.39c-0.06-0.4-0.22-0.73-0.52-1.02c-0.02-0.04-0.05-0.07-0.08-0.1c0.03,0,0.06-0.01,0.08-0.01
				C30.907,25.029,31.057,25.109,31.227,25.169z"/>
			<path fill="#161515" d="M31.747,95.469c0.03,0.51,0.04,1.01,0.02,1.51C31.397,96.399,31.457,95.909,31.747,95.469z"/>
			<path d="M32.147,22.879c0.04,0.9,0.19,1.85-0.92,2.29c-0.17-0.06-0.32-0.14-0.45-0.25c1.07-0.24,0.62-1.36,1-1.98
				C31.927,22.879,32.047,22.859,32.147,22.879z"/>
			<path fill="#767575" d="M31.297,26.049c0,0.13,0,0.26,0,0.39c-0.16-0.26-0.35-0.49-0.62-0.59c0-0.3,0.01-0.62,0.02-0.92
				c0.03,0.03,0.06,0.06,0.08,0.1C31.077,25.319,31.237,25.649,31.297,26.049z"/>
			<path fill="#767575" d="M30.697,24.889c0,0.01,0,0.03,0,0.04c-0.01-0.01-0.01-0.01-0.02-0.02L30.697,24.889z"/>
			<path fill="#767575" d="M30.697,24.929c-0.02,0-0.04,0.01-0.06,0.01l0.04-0.03C30.687,24.919,30.687,24.919,30.697,24.929z"/>
			<path fill="#C0BFBF" d="M30.697,24.889l-0.02,0.02c-0.01-0.01-0.02-0.02-0.03-0.03c0.02,0,0.03,0,0.05,0V24.889z"/>
			<path fill="#C0BFBF" d="M30.647,24.879c0.01,0.01,0.02,0.02,0.03,0.03l-0.04,0.03c-0.01-0.02-0.01-0.04-0.02-0.06
				C30.627,24.879,30.637,24.879,30.647,24.879z"/>
			<path fill="#121111" d="M30.647,24.879c-0.01,0-0.02,0-0.03,0c0-0.01-0.01-0.02-0.01-0.04
				C30.627,24.859,30.637,24.869,30.647,24.879z"/>
			<path fill="#C0BFBF" d="M30.577,24.719c0.01,0.04,0.02,0.08,0.03,0.12c-0.03-0.04-0.06-0.09-0.06-0.15
				C30.557,24.699,30.567,24.709,30.577,24.719z"/>
			<path d="M27.657,20.789c2.67,0.74,2.52,2.52,2.92,3.93c-0.01-0.01-0.02-0.02-0.03-0.03c0,0.06,0.03,0.11,0.06,0.15
				c0,0.02,0.01,0.03,0.01,0.04C27.797,24.969,28.557,22.729,27.657,20.789z"/>
			<path d="M29.397,86.839c0.19,0.319,0.36,0.64,0.53,0.97c-0.35-0.101-0.7-0.23-1.05-0.33c-0.46-0.44-0.92-0.88-1.37-1.31
				C28.357,85.789,28.897,86.239,29.397,86.839z"/>
			<path fill="#161717" d="M27.307,40.439c0-0.11,0-0.23,0.02-0.35C27.337,40.209,27.327,40.329,27.307,40.439z"/>
			<path d="M24.037,18.599c0.06,0.57,0.11,1.15,0.16,1.73c-0.17,0.76-0.31,1.55-1.25,1.77
				C23.107,20.869,22.507,19.399,24.037,18.599z"/>
			<path d="M24.037,18.599c-1.53,0.8-0.93,2.27-1.09,3.5C22.107,20.549,19.567,18.469,24.037,18.599z"/>
			<path d="M19.177,17.629c1.08-1.12,2.64-0.09,3.81-0.67c0.68,0.11,1.55-0.13,1.81,0.77c0.06,0.19-0.49,0.57-0.76,0.87
				c-4.47-0.13-1.93,1.95-1.09,3.5c-0.22,1.55-0.91,2.22-1.86,0.55C20.257,21.179,19.857,19.459,19.177,17.629z"/>
			<path d="M19.167,87.299c-0.27,1.18,0.49,2.01,1,2.93c-0.03,0.06-0.06,0.12-0.09,0.17c-0.08-0.01-0.16-0.01-0.24-0.01
				C18.957,89.499,18.377,88.549,19.167,87.299z"/>
			<path d="M19.837,90.389c0.08,0,0.16,0,0.24,0.01c-0.39,0.71-1,0.92-1.81,0.73c0.44-1.25-1.06-2.94,0.9-3.83
				C18.377,88.549,18.957,89.499,19.837,90.389z"/>
			<path fill="#2D2E2E" d="M17.897,118.449c1.74-0.01,2.7-2.75,3.14-4.819c0.38-1.761,1.13-2.931,3.28-1.94
				c2.13,0.97,1.52,1.72,0.54,3.46c-2.02,3.57-4.56,5.58-8.71,6c-2.43,0.24-5.34,0.68-7.03,2.17c-2.64,2.351-3.19,0.87-4.16-1.35
				C9.657,122.179,13.147,118.489,17.897,118.449z"/>
			<path d="M30.577,24.719c-0.4-1.41-0.25-3.19-2.92-3.93c0.9,1.94,0.14,4.18,2.96,4.09c0.01,0.02,0.01,0.04,0.02,0.06
				c0.02,0,0.04-0.01,0.06-0.01c-0.01,0.3-0.02,0.62-0.02,0.92c0.27,0.1,0.46,0.33,0.62,0.59c0.02,2.93-0.01,5.84-2.26,8.15
				c-0.85,1.16-1.81,2.26-1.93,3.79c0.17,0.61,0.24,1.18,0.22,1.71c-0.02,0.12-0.02,0.24-0.02,0.35c-0.18,1.94-1.5,3.4-3.1,4.73
				c-2.38,6.26-8.4,7.35-13.62,9.57c-0.31-0.3-0.63-0.59-0.95-0.89c1.16-0.81,2.22-1.99,3.51-2.38c7.17-2.2,8.19-7.76,8.09-14.08
				c-0.01-0.89,0.27-2.09,0.88-2.62c4.74-4.21,3.09-9.48,2.63-14.57c-0.02-2.72,1.64-3.47,3.99-3.4c2.34,1.33,3.56,3.29,3.41,6.03
				c0,0.02,0,0.03,0,0.05c-0.1-0.02-0.22,0-0.37,0.06c-0.38,0.62,0.07,1.74-1,1.98C30.707,24.859,30.637,24.799,30.577,24.719z"/>
			<path fill="#4B4B4B" d="M9.637,53.849c0.32,0.3,0.64,0.59,0.95,0.89C9.737,55.019,9.487,54.659,9.637,53.849z"/>
			<path d="M9.637,53.849c-0.15,0.81,0.1,1.17,0.95,0.89c-0.17,0.23-0.31,0.49-0.39,0.78c-1.03,1.21-1.41,2.84-2.53,3.99
				c-0.55,0.17-1.11,0.34-1.66,0.51c0.95-1.88-1.14-4.3,0.94-5.88C7.567,53.679,8.727,53.929,9.637,53.849z"/>
		</g>
		<g>
		</g>
	</g>
</g>
</svg>
