<?xml version="1.0" encoding="utf-8"?>
<!-- Generator: Adobe Illustrator 16.0.0, SVG Export Plug-In . SVG Version: 6.00 Build 0)  -->
<!DOCTYPE svg PUBLIC "-//W3C//DTD SVG 1.1//EN" "http://www.w3.org/Graphics/SVG/1.1/DTD/svg11.dtd">
<svg version="1.1" id="Layer_1" xmlns="http://www.w3.org/2000/svg" xmlns:xlink="http://www.w3.org/1999/xlink" x="0px" y="0px"
	 width="629px" height="924px" viewBox="0 0 629 924" enable-background="new 0 0 629 924" xml:space="preserve">
<g>
	<path fill-rule="evenodd" clip-rule="evenodd" d="M387.862,336.07c3.349,8.959,8.896,16.928,11.759,26.1
		c0.587,1.881,0.981,3.822,1.464,5.736c0.277,4.739,0.064,9.503-0.045,14.221c-0.14,5.998,1.2,10.977,5.76,14.95
		c1.154,3.993,2.664,7.923,3.398,11.993c2.561,14.197,8.035,27.258,14.909,39.815c-0.046,2.425-0.73,4.803-0.463,7.257
		c0.124,1.13-0.167,2.566,1.467,2.603c1.401,0.031,1.913-1.03,1.796-2.396c-0.07-0.821-0.128-1.718,1.188-1.424
		c4.362-0.712,6.4,2.994,9.174,5.078c2.433,1.826,4.36,4.087,7.506,5.109c2.897,0.941,4.918,2.524,2.433,6.596
		c-1.768,2.896-1.479,7.045-3.359,10.256c-1.383,2.091-0.884,4.707-1.925,6.894c-0.928,3.517-3.397,5.007-6.848,5.209
		c-4.657,0.503-8.566-2.183-10.69-7.431c-2.236-5.525-4.02-11.251-7.317-16.29c-0.941-1.159-2.6-1.371-3.479-2.613
		c-4.212-15.013-8.604-29.965-14.433-44.449c-4.25-11.183-9.07-22.06-15.305-32.341c-8.228-13.57-14.572-27.906-15.215-44.146
		c-0.113-2.857-1.419-5.064-3.755-6.674c-2.093-1.206-4.511-1.946-5.956-4.093c-0.365-0.624-0.729-1.248-1.095-1.872
		c-1.529-6.873-1.455-13.645-0.619-20.725c1.174-9.935-1.364-19.832-3.051-29.654c-0.522-3.043-0.082-6.275-1.982-9.281
		c-2.066,10.429-5.138,20.508-8.055,30.63c-1.034,9.037-1.659,18.136-4.05,26.97c-1.218,4.5-2.591,8.936-5.222,12.861
		c0.409,3.398-4.591,4.514-3.743,8.335c2.392-0.365,1.441-5.081,4.936-3.318c2.503,4.421,4.67,8.888,1.981,14.041
		c-2.256,1.261-2.791,3.433-3.035,5.752c-0.118,0.621-0.254,1.259-0.576,1.8c-0.729,1.221-0.525,1.771,0.982,1.536
		c0.85,1.133,1.188,2.434,1.299,3.814c-0.006,0.935-0.256,1.823-0.507,2.711c-0.789,2.222-0.642,4.196,1.636,5.456
		c1.302,0.72,1.941,1.829,1.757,3.178c-0.218,1.598,0.981,0.394,1.305,0.812c1.245,1.637,0.18,3.209-0.135,4.802
		c-4.502,4.678-4.574,5.563-0.748,9.12c2.028,1.722,1.801,3.787,0.905,5.953c-1.894,1.861-3.094,4.262-4.822,6.243
		c-1.561,1.79-0.796,2.884,0.928,3.807c-0.001,1.001-0.002,2.002-0.003,3.003c-1.222,3.564-1.635,7.287-2.133,10.994
		c-0.301,1.128-0.745,2.293-0.493,3.434c1.557,7.038-3.047,10.441-8.089,13.278c-7.838,4.412-16.604,6.893-24.417,11.404
		c-1.401,0.809-2.875,0.564-4.342,0.018c-7.018-2.617-14.186-4.787-21.287-7.154c-3.041-1.015-5.697-2.735-7.074-5.876
		c-0.251-1.333-0.065-2.545,1.004-3.498c0.263-0.19,0.596-0.304,0.829-0.519c1.717-1.57,5.596-0.832,5.567-3.824
		c-0.03-3.264-1.616-6.362-4.736-8.213c-0.428-0.253-0.795-0.58-1.1-0.976c-0.087-4.788-1.919-9.259-1.861-14.214
		c0.076-6.594,1.861-11.55,7.253-15.433c3.844-2.768,3.674-3.004-0.235-5.434c-4.198-2.609-4.936-4.697-2.449-9.08
		c1.39-2.45,1.429-4.052-0.712-6.043c-3.646-3.392-7.62-6.781-5.132-12.788c0.479-1.156-0.753-2.112-1.582-2.923
		c-1.997-1.954-2.961-4.381-3.362-7.047c-1.247-0.728-1.39,1.924-2.705,0.9c-0.565-3.043-0.907-6.062-4.774-7.093
		c-1.85-0.492-2.27-2.724-2.883-4.443c-2.968-8.332-4.103-17.128-6.473-25.611c-0.647-2.317-1.096-4.726-3.346-8.028
		c-1.694,10.96-6.28,19.771-9.818,28.754c-6.034,15.322-7.944,32.898-20.829,45.105c-2.397,2.271-3.704,5.294-4.649,8.147
		c-5.297,15.984-15.855,28.694-25.556,41.928c-4.867,6.64-8.177,13.944-10.597,21.717c-3.678,11.813-7.279,23.65-10.941,35.468
		c-1.192,3.849-3.113,7.282-6.073,10.078c-1.781,1.489-3.96,0.42-5.899,0.92c-2.111,0.01-4.331,0.809-6.204-0.865
		c-1.016-1.276-2.031-2.554-3.047-3.83c-0.944-2.085-2.519-3.96-2.175-6.473c-0.034-1.374,0.057-2.765-0.422-4.091
		c-0.486-1.297-2.473-2.071-1.402-3.921c2.269-2.596,1.268-7.117,5.156-8.759c1.375-0.308,1.595,0.731,1.928,1.643
		c0.302,1.509-0.255,2.877-0.684,4.28c-0.634,2.074,0.635,2.91,2.765,3.787c0.068-2.942-1.576-5.27-1.273-7.818
		c-0.096-2.42,0.256-4.764,1.178-7.011c1.313-1.339,2.627-2.678,3.939-4.018c5.991,0.455,7.125-4.535,9.317-8.332
		c2.098-3.086,3.226-6.651,4.896-9.948c1.319-2.741,2.496-5.556,4.156-8.122c2.155-3.416,3.658-7.119,4.834-10.967
		c1.646-2.698,1.606-7.223,6.773-6.127c0.718,0.152,0.729-0.926,0.869-1.535c2.542-10.961,5.349-21.863,7.04-33.008
		c0.514-3.382,2.569-6.084,4.399-8.848c6.065-9.163,10.128-19.359,15.043-29.116c1.432-3.808,3.193-7.565,1.621-11.785
		c-0.568-7.448-0.816-14.988,0.346-22.308c1.377-8.677,3.63-17.24,5.992-25.734c0.402-1.446,0.987-2.821,1.726-4.134
		c3.308-5.885,4.389-6.045,8.43-1.657c-4.042-10.114-5.19-20.734-0.861-31.562c3.15-7.882,4.691-16.283,7.802-24.184
		c0.559-0.627,1.168-1.108,2.077-0.728c1.635,0.258,2.353-1.388,3.677-1.773c2.954,1.022,5.396,0.163,7.654-1.869
		c1.353-1.219,2.858-2.303,4.504-3.131c0.921-0.464,2.017-0.818,2.731,0.136c0.65,0.869,0.15,1.915-0.241,2.847
		c-0.733,1.745-3.033,3.906-0.926,5.305c2.903,1.928,5.886,5.449,9.639,4.276c7.909-2.472,16.093-2.179,24.637-3.657
		c-7.956,1.223-15.235-0.917-22.629-0.816c-2.3,0.032-4.209-1.203-4.9-3.578c-0.698-2.396,1.077-3.67,2.626-4.928
		c4.132-3.355,8.108-6.861,11.205-11.24c1.529-2.161,2.928-1.732,4.317,0.115c0.537,0.627,1.112,1.531,1.976,1.262
		c1.25-0.39,0.313-1.372,0.19-2.059c-0.146-0.811-0.541-1.57-0.705-2.399c-0.507-2.812,1-5.155,1.788-7.658
		c0.753-2.393,1.498-4.948,1.3-7.316c-0.754-9.032,4.654-14.548,10.84-19.438c5.274-4.17,9.341-10.062,16.304-11.952
		c2.611-0.263,5.086-0.193,6.344,2.706c-1.334,6.08-3.586,11.897-4.887,18.031c-1.491,7.025,0.211,13.837,0.154,20.736
		c-0.038,4.67,5.035,4.427,8.302,5.655c3.481,1.194,7.151,0.136,10.664,0.875c2.524,0.664,5.07,1.296,6.859,2.587
		c-0.673-0.183-1.321-1.243-2.356-1.715c-0.36-0.33-0.584-0.73-0.655-1.214c0.515-1.129,1.27-1.298,2.25-0.566
		c4.364,2.52,9.951,2.146,13.869,5.821c0.186,0.174,1.303-0.646,1.986-1.004c4.136,2.352,4.136,2.352,8.31,0
		c6.655,3.948,11.005,9.619,12.829,17.176c-0.782,2.494-1.901,4.9-2.06,7.673c1.218-0.773,0.976-3.014,3.018-2.637
		c2.766,14.015,8.232,27.404,9.933,41.644c1.435,12.018,3.791,23.8,6.912,35.484c0.822,3.076,0.148,6.554,0.161,9.847
		c0.063,2.048-1.298,3.104-2.783,4.136c-1.235,0.857-3.083,1.272-2.781,3.395C384.849,333.092,386.152,334.78,387.862,336.07z"/>
	<path fill-rule="evenodd" clip-rule="evenodd" d="M417.17,675.252c-0.061,6.824-0.102,13.648-0.194,20.473
		c-0.024,1.76-0.144,3.213,2.435,3.226c3.605,0.019,5.949,2.025,6.574,5.622c0.671,3.864-1.43,6.308-4.604,8.041
		c-0.728,0.397-1.512,0.69-2.27,1.031c-0.884,0.396-1.991,0.56-2.064,1.842c-0.081,1.416,0.995,1.508,1.983,1.66
		c2.048,0.315,2.551,1.656,2.678,3.54c1.115,16.602,5.376,32.922,4.588,49.688c-0.813,17.303-0.185,34.606-0.323,51.909
		c-0.026,3.311,0.728,6.006,2.288,8.915c5.976,11.143,15.258,18.357,26.776,22.704c5.823,2.196,10.126,6.313,14.812,9.925
		c4.577,3.527,3.372,7.675-1.225,11.247c-6.143,4.774-13.335,3.185-20.002,4.554c-2.367,0.486-4.401-1.792-5.344-3.885
		c-5.476-12.166-16.025-18.477-27.262-24.026c-4.63-2.287-7.812-6.123-11.022-9.942c-1.276-1.518-1.072-3.184,0.18-4.546
		c8.994-9.791,7.45-21.682,5.727-33.066c-1.607-10.622-1.648-21.538-5.913-31.812c-2.729-6.574-6.864-12.097-10.788-17.769
		c-2.73-3.945-2.58-8.103-2.929-12.332c-0.34-4.141-1.14-8.408-0.504-12.425c1.018-6.427-5.298-9.692-5.698-15.327
		c-0.018-0.256-0.775-0.532-1.229-0.675c-10.124-3.193-17.765-9.96-25.135-17.208c-3.065-3.014-6.537-5.615-9.823-8.404
		c-0.398-1.571,0.788-1.759,1.812-2.093c3.271-0.257,3.654-1.724,1.772-4.185c-2.723-3.561-6.013-6.887-2.669-11.967
		c0.931-1.413-0.829-2.835-1.979-3.649c-9.462-6.708-15.178-16.747-22.22-25.512c-4.354-5.419-7.163-12.015-7.089-19.755
		c0.195-20.58,4.288-40.679,6.578-60.996c1.553-13.768,3.633-27.43,8.823-40.371c4.889-12.187,10.381-24.109,16.674-35.651
		c1.096-0.643,1.922-0.119,2.696,0.62c0.814,1.132,0.793,2.496,1.045,3.793c0.98,5.061,1.598,5.396,6.507,3.63
		c2.369,6.021,3.85,12.38,7.672,17.829c3.302,4.706,6.399,9.589,8.572,14.97c1.641,13.672,7.358,26.463,8.678,40.211
		c0.185,1.924,1.441,3.444,3.347,3.98c7.101,1.996,11.961,6.853,16.283,12.451c0.924,1.197,2.015,2.197,3.578,2.5
		c8.426,10.587,11.729,23.345,15.218,36.017c0.16,0.584-0.143,1.294-0.229,1.945c-1.712,0.256-3.163,0.763-3.528,2.799
		c-1.804,10.046-6.729,18.965-10.32,28.365c-0.901,2.36-0.929,3.504,2.005,4.729c3.996,1.67,4.686,6.124,5.277,9.994
		C417.752,670.256,417.812,672.809,417.17,675.252z"/>
	<path fill-rule="evenodd" clip-rule="evenodd" d="M293.901,680.898c-2.308,1.906-4.479,4.016-6.951,5.679
		c-5.332,3.586-8.887,8.391-10.824,14.467c-1.278,4.007-3.003,7.742-6.331,10.531c-2.092,1.754-3.196,4.574-7.33,2.688
		c-1.982-0.905-5.413,1.695-8.732,1.304c-1.401-0.165-3.688,2.379-2.485,5.419c1.649,4.174,0.548,7.768-3.324,10.328
		c-3.064,2.026-5.364,4.679-4.656,8.555c2.331,12.772-1.006,24.66-5.344,36.414c-6.67,18.07-4.064,35.917,0.996,53.789
		c1.08,3.812,4.102,5.555,6.671,7.757c2.769,2.373,2.715,4.171,0.663,7.13c-4.037,5.824-9.661,9.659-15.632,12.795
		c-8.639,4.536-14.906,11.412-20.811,18.811c-0.473,0.592-0.515,1.536-0.73,2.323c-1.29,4.702-3.987,7.438-9.245,7.152
		c-3.821-0.208-7.707-0.404-11.484,0.05c-4.86,0.585-8.612-2.125-12.646-3.729c-3.6-1.431-2.161-7.129,1.525-10.786
		c8.427-8.36,19.706-12.214,29.017-19.119c8.372-6.209,12.26-15.476,16.531-24.458c0.306-0.642-0.004-1.636-0.173-2.436
		c-4.096-19.381-7.314-38.916-10.021-58.531c-0.633-4.594-0.68-9.314-0.523-13.961c0.455-13.522,1.528-27.051-2.555-40.294
		c-0.577-1.871-0.726-3.966,0.625-5.76c0.761-1.58,0.22-3.263,0.384-4.89c0.019-0.812,0.515-1.299,1.138-1.704
		c2.372-5.992,3.666-11.871,0.591-18.178c-3.195-6.552-3.846-14.062-7.316-20.592c-0.984-1.852-1.229-4.246,0.742-6.01
		c2.106-1.886,4.044-0.493,5.976,0.413c5.013,2.353,4.958,2.359,5.043-3.241c0.078-5.173-1.029-10.236-1.112-15.42
		c-0.15-9.49,1.372-18.486,5.26-27.194c3.264-7.31,6.545-14.592,10.87-21.333c2.971-4.631,5.35-4.729,8.944-0.604
		c4.67,5.356,7.723,11.654,10.04,18.28c2.361,6.754,4.805,13.496,6.437,20.481c0.514,2.201,1.397,4.084,4.316,5.615
		c-1.465-6.451-2.921-12.317-5.229-17.89c-4.804-11.599-7.87-23.662-10.341-35.92c-2.358-11.705-1.156-23.135,2.077-34.521
		c3.834-13.499,9.137-26.374,15.595-38.809c1.664-3.205,2.959-3.513,5.314-0.312c4.135,5.62,8.448,11.175,10.932,17.821
		c0.824,2.204,1.876,4.261,3.486,6.01c11.644,20.59,18.747,42.667,18.921,66.319c0.095,12.868-1.751,25.812-2.377,38.727
		c-0.619,12.767-2.737,25.429-2.414,38.254C297.488,675.555,297.797,679.162,293.901,680.898z"/>
	<path fill-rule="evenodd" clip-rule="evenodd" fill="#363639" d="M282.028,528.981c-2.138-0.897-2.493-2.966-3.138-4.824
		c-2.719-7.838-8.418-13.782-12.668-20.996c-6.095,12.652-11.657,24.79-15.93,37.638c-5.826,17.521-4.642,34.425-0.083,51.82
		c3.373,12.87,9.547,24.792,12.096,37.886c0.221,1.134,0.492,2.264,0.603,3.409c0.06,0.609,0.065,1.516-0.766,1.586
		c-0.546,0.047-1.456-0.29-1.655-0.714c-1.282-2.716-3.882-4.356-4.772-7.617c-3.233-11.83-6.194-23.847-13.181-34.251
		c-6.068-9.035-6.462-9.156-11.732-0.004c-8.71,15.125-15.783,30.818-13.72,48.999c0.562,4.945,1.312,9.872,0.978,14.874
		c-0.172,2.572-0.069,5.439-3.729,2.175c-0.819-0.731-2.052-1.011-3.11-1.458c-1.531-0.647-2.601-2.984-4.737-1.446
		c-2.245,1.614-1.129,4.084-0.334,5.441c3.481,5.94,3.488,13.264,6.88,18.862c4.453,7.353,1.174,14.177,0.709,21.187
		c-0.135,2.041-1.442,0.901-1.782-0.481c-3.823-7.163-5.176-15.316-9.002-22.479c-0.264-0.494-0.178-1.66-1.055-0.39
		c-1.674-3.901-2.138-8.072-2.722-12.216c0.854-2.084-0.309-3.704-1.241-5.382c-2.368-3.553,0.367-7.062,0.077-10.595
		c-0.103-1.179,0.047-2.291,0.855-3.229c2.911-3.402,3.597-7.569,4.061-11.812c4.292-8.761,6.304-18.451,11.027-27.036
		c2.569-1.442,2.132-4.489,3.507-6.571c3.475-8.903,6.581-17.951,10.851-26.532c0.897-1.804,2.559-3.509,1.595-5.862
		c2.957-7.469,5.915-14.938,8.872-22.406c0.432,0.28,0.584,0.734,0.819,1.163c0.312,0.569,0.047-0.177,0.182-0.117
		c1.106-7,3.544-13.633,5.661-20.352c0.36-1.144,0.582-2.211,0.285-3.368c3.448-10.39,8.273-20.164,13.346-29.827
		c0.68-0.875,0.419-3.304,2.658-1.614c0.741,0.659,1.33,1.453,2.077,2.433c0.074-1.491-0.667-2.61-0.835-3.843
		c-0.071-3.365-1.678-7.258,1.769-9.672c3.933-2.756,7.16,0.158,10.343,2.211c0.557,0.359,1.114,0.714,1.641,1.105
		c0.781,0.586,1.443,1.307,2.173,2.118c-0.298-1.544-1.426-2.455-2.217-3.576c-2.073-3.653-5.225-6.362-8.099-9.315
		c-6.605-6.787-7.646-13.037-2.494-20.908c2.155-3.293,0.25-6.844,2.044-9.864c1.349-0.797,0.671-2.541,1.645-3.513
		c3.268,2.401-0.411,5.769,1.168,8.404c6.129,6.591,15.299,6.31,22.635,10.07c5.939,3.044,10.598,1.39,15.813-1.605
		c4.842-2.78,10.192-4.703,15.392-6.822c3.343-1.362,5.797-3.741,8.259-6.213c1.267-1.271,1.822-2.362,1.222-4.333
		c-0.594-1.948-0.855-4.252,0.724-6.13c1.123,1.79,1.986,4.532,4.411,1.059c1.151-1.648,4.656,1.152,4.832-2.498
		c3.188-4.094,3.467-4.116,6.776-0.555c1.944,2.466,0.961,5.217,0.768,7.891c-0.415,4.09-2.577,7.477-4.334,11.046
		c-0.637,1.295-2.599,3.022-0.393,4.265c1.868,1.052,3.935,0.583,4.865-1.861c0.238-0.626,0.566-1.202,1.086-1.65
		c0.729-0.294,1.401-0.249,1.989,0.319c2.683,6.033,4.015,12.087,1.536,18.645c-1.625,4.301,1.755,8.137,1.957,12.406
		c0.16,3.37,1.522,6.684,2.351,10.022c-0.911,1.436-1.267,3.26-3.825,2.959c-2.44-0.287-2.69-1.921-3.355-3.612
		c-0.817-2.08-0.549-4.22-0.711-6.338c-0.594-0.38-0.178-2.805-1.884-0.929c-2.679,8.261-6.837,15.893-10.615,23.637
		c-7.691,15.761-11.735,32.328-13.614,49.67c-1.783,16.468-4.553,32.827-6.427,49.286c-0.769,6.751-1.209,13.781-0.141,20.418
		c0.774,4.81,3.942,9.401,6.733,13.636c1.079,1.637,2.96,3.075,4.174,4.828c5.514,7.961,11.733,15.256,19.318,21.347
		c1.977,1.588,3.686,3.382-0.231,4.902c-1.751,0.68-1.168,2.045-0.655,3.361c1.059,2.716,2.937,4.809,4.943,6.823
		c1.314,1.319,1.727,2.71,0.693,4.478c-1.272,2.18-2.749,1.168-4.261,0.485c-3.403-0.405-5.373-4.108-9.032-3.925
		c-3.828-3.159-7.623-6.35-10.032-10.824c-1.397-2.012-1.308-4.973-3.949-6.19c-0.312-0.37-0.624-0.74-0.937-1.11
		c-1.81,0.317-1.81,0.317-1.127,3.12c0.373,3.304,0.473,6.665,1.167,9.899c2.651,12.344,0.944,24.589-1.414,36.622
		c-1.807,9.224-0.753,18.192-0.694,27.636c-1.14-1.844-2.818-3.555-3.312-5.558c-1.345-5.442-3.578-10.787-2.76-16.602
		c-0.596-7.212-0.308-14.442-0.392-21.664c-0.083-7.073,0.329-14.167-1.084-21.157c-0.147-0.5-0.26-1.021-0.338-1.537
		c0.101-1.108-0.507-2.217-0.294-2.801c0.34,3.051,0.391,6.649,1.294,10.175c0.875,3.664-0.428,7.203-0.617,10.802
		c-0.279,5.311,0.959,10.49,0.993,15.756c0.012,1.785,0.413,3.628-0.45,5.348c-0.638-0.034-1.009,0.247-1.066,0.9
		c-1.165,2.961,0.195,6.139-0.78,9.116c-0.172,24.42-1.407,48.871,3.252,73.1c1.377,7.16,1.869,14.489,2.768,21.741
		c0.424,1.726,0.608,3.431-0.169,5.074c-2.311-0.084-0.868-2.316-2.035-2.927c-3.351-13.253-5.276-26.766-7.36-40.251
		c-2.489-16.117-7.409-31.769-9.244-48.016c-0.521-4.605-0.414-9.336-2.541-13.646c-3.246-12.825-4.438-25.808-3.271-39.02
		c1.536-17.378,2.718-34.764,3.353-52.221c0.514-14.11,2.02-28.202,1.625-42.354c-0.438-15.729-2.012-31.229-9.741-45.44
		c-2.091-3.843-4.76-7.214-7.377-10.652C284.583,529.334,283.596,528.426,282.028,528.981z"/>
	<path fill-rule="evenodd" clip-rule="evenodd" d="M313.111,166.253c-1.226-3.003-3.896-2.084-6.159-2.267
		c-0.505-1.354,0.489-1.987,1.293-2.716c1.257-0.797,2.265-1.945,3.617-2.613c0.631-0.211,1.118-0.634,1.552-1.051
		c-0.433,0.336-0.811,0.669-1.276,0.886c-6.173,1.706-11.684,4.788-16.969,8.272c-15.112,9.962-24.983-2.625-27.582-15.232
		c-2.122-10.297,0.311-17.954,10.154-22.646c1.333-0.636,2.14-2.068,3.22-3.098c2.828-2.278,5.856-4.235,9.258-5.559
		c0.786-0.188,1.56-0.435,2.235-0.818c-0.716-0.302-1.149,0.404-1.749,0.421c-1.396,0.307-2.735,0.748-3.975,1.479
		c-2.53,1.156-5.146,1.206-7.816,0.639c-3.771-1.517-4.539-4.462-3.854-8.098c0.518-1.761,1.86-2.921,3.063-4.18
		c2.068-1.8,2.675-5.073,5.808-5.814c12.973-2.781,19.438-0.706,27.136,12.035c-0.636,3.341-3.431,2.031-5.371,2.413
		c-2.521,0.495-5.653,0.08-4.903,4.257c0.159,3.883,2.331,7.538,1.237,11.773c1.45-2.649,5.527-1.24,6.073-3.543
		c0.578-2.439-2.801-3.754-3.879-5.961c-0.587-1.2-1.172-2.366-0.917-3.766c2.522-3.754,6.12-2.408,9.518-2.014
		c3.979,4.886,5.907,10.73,7.363,16.684c1.298,5.305,2.105,10.735,3,16.131c0.298,1.796,0.262,3.673-1.126,5.176
		c-2.259,1.475-3.768,3.59-5.147,5.852C316.01,164.38,315.398,166.296,313.111,166.253z"/>
	<path fill-rule="evenodd" clip-rule="evenodd" fill="#5B5B5B" d="M308.929,161.729c-0.658,0.752-1.317,1.505-1.977,2.258
		c-9.091,5.347-16.212,13.021-23.78,20.165c-0.459,0.433-1.022,1.121-0.989,1.656c0.521,8.411-2.536,16.188-4.197,24.209
		c1.221,2.949,0.055,4.114-2.93,3.922c-1.022-0.305-1.269-4.09-2.641-1.339c-2.622,5.259-7.337,8.109-11.328,11.832
		c-1.218,1.135-3.684,1.621-2.756,4.104c0.836,2.239,2.878,2.547,4.952,2.556c8.707,0.039,17.312,1.582,26.063,0.957
		c0.019,0.519,0.036,1.037,0.055,1.556c-6.392,0.784-12.781,1.578-19.176,2.341c-0.987,0.118-2.074-0.141-2.973,0.177
		c-5.191,1.835-9.889,2.488-15.157-0.889c-3.737-2.395-5.068-3.6-2.479-7.37c0.707-1.029,1.863-1.856,1.55-3.892
		c-2.981,2.187-5.915,3.982-8.409,6.261c-2.772,2.531-4.417,1.949-5.746-1.222c7.024-4.66,13.455-10.322,21.207-13.745
		c6.449-2.849,9.499-7.889,11.22-14.22c0.82-3.021,1.655-6.039,2.483-9.058c0.823-2.333,1.096-4.652-0.168-6.934
		c-4.068-12.021-9.963-23.008-18.402-32.559c-1.077-1.22-1.233-2.646-0.919-4.194c1.283-6.315,2.652-12.615,3.786-18.957
		c1.241-6.944,6.675-10.744,11.087-15.333c2.229-1.026,3.576-3.384,5.95-4.113c2.901-0.893,4.198-0.071,2.72,3.066
		c-0.092,3.138-0.527,6.405,3.059,8.166c3.554,0.112,5.136,1.43,3.049,4.988c-1.828,3.645-5.438,5.19-8.588,7.268
		c-4.306,2.84-5.915,6.555-5.356,11.874c0.722,6.856,1.931,13.229,6.508,18.759c3.963,4.788,9.296,6.653,15.013,3.992
		c3.893-1.812,7.538-4.163,11.255-6.339c3.749-2.195,7.565-4.088,12.1-3.617l-0.067-0.072c-0.308,0.344-0.615,0.688-0.923,1.03
		C310.791,159.69,309.845,160.692,308.929,161.729z"/>
	<path fill-rule="evenodd" clip-rule="evenodd" fill="#5A5A5B" d="M231.766,232.105c-1.353,7.183-3.568,14.131-5.942,21.017
		c-5.55,16.096-5.258,23.061,2.184,38.638c-4.428-0.793-5.418-4.586-7.552-7.289c-2.746,3.833-4.744,7.621-5.953,12.085
		c-3.785,13.977-6.24,28.089-6.146,42.595c0.004,0.619,0.435,1.234,0.667,1.853c0.529,1.394,1.176,3.347-0.42,3.853
		c-1.938,0.615-3.039-1.551-3.222-3.052c-0.618-5.088-2.493-9.976-2.377-15.163c-0.008-1.889,0.023-3.781-0.042-5.673
		c0.999-9.938,2.096-19.857,5.833-29.25c2.448-2.827,2.55-6.606,3.988-9.843c0.041-1.726,1.984-2.943,1.301-4.863
		c0.333-0.451,2.549,1.125,1.22-1.174c-0.471-0.813-0.757-1.759-1.168-2.629c-0.294-0.927-0.58-1.854-0.871-2.784
		c0.009-2.584-1.387-4.932-1.255-7.534c-0.072-2.354,0.159-4.715-0.228-7.058c2.532-7.6,6.871-14.229,11.201-20.863
		c1.416-0.469,2.124-1.705,2.991-2.767c0.387-0.408,0.773-0.816,1.16-1.226C228.745,231.083,230.791,229.396,231.766,232.105z"/>
	<path fill-rule="evenodd" clip-rule="evenodd" fill="#9F9F9F" d="M282.028,528.981c0.457-1.098-1.391-2.348-0.049-3.196
		c1.393-0.88,1.97,0.742,2.68,1.509c10.919,11.792,16.517,26.075,18.113,41.751c0.989,9.707,1.572,19.503,1.365,29.352
		c-0.238,11.337-2.229,22.564-2.084,33.839c0.157,12.161-0.873,24.175-1.996,36.227c-0.679,7.284-1.109,14.592-1.646,21.89
		c-0.543,7.372,1.702,14.499,1.923,21.807c0.08,2.652,0.321,5.301,0.488,7.95c-4.583-5.805-4.816-12.909-5.553-19.744
		c-0.532-4.935-0.068-9.972-0.17-14.96c-0.031-1.551,0.684-3.406-1.198-4.506c0.932-1.56,1.604-3.116,1.729-5.044
		c1.687-26.023,3.505-52.037,5.219-78.059c0.901-13.68-2.836-26.601-6.649-39.512C291.185,548.073,287.205,538.284,282.028,528.981z
		"/>
	<path fill-rule="evenodd" clip-rule="evenodd" fill="#5A5A5B" d="M345.123,305.128c-0.679-1.814-0.399-3.691,0.155-5.385
		c2.689-8.213,4.388-16.642,5.889-25.128c0.238-1.346,0.307-3.434,2.328-3.173c1.502,0.193,2.515,1.739,2.522,3.354
		c0.077,15.652,6.657,30.944,2.459,46.885c-0.619,2.353,0.397,5.219,0.979,7.774c0.396,1.741,0.498,3.253-0.625,4.703
		c-3.521-3.889-3.33-9.103-4.754-13.715c-1.499-4.853-2.223-9.94-3.565-14.849c-0.442-1.62-0.553-4.166-2.629-4.404
		C345.377,300.904,346.533,304.106,345.123,305.128z"/>
	<path fill-rule="evenodd" clip-rule="evenodd" fill="#363639" d="M408.965,584.017c-2.35,1.51-3.607,0.062-4.82-1.717
		c-3.927-5.752-8.769-10.425-15.785-12.01c-2.922-0.66-3.857-2.79-4.013-4.992c-0.827-11.787-5.319-22.742-7.575-34.2
		c-0.446-2.271-0.284-4.173,0.308-6.224c0.816,1.414,1.828,2.751,2.417,4.254C387.138,548.599,399.062,565.765,408.965,584.017z"/>
	<path fill-rule="evenodd" clip-rule="evenodd" fill="#5A5A5B" d="M366.019,338.925c3.609,1.509,4.847,4.239,5.066,8.11
		c0.516,9.055,2.177,17.938,6.061,26.231c7.097,15.151,16.594,29.099,22.526,44.84c0.582,1.544,1.523,2.966,1.398,4.714
		c0.602,0.881,0.312,1.934,0.55,2.887c0.256,1.026,1.632,2.146,0.307,3.091c-1.629,1.16-1.782-1.521-3.089-1.501
		c-2.888-6.782-5.775-13.563-8.662-20.345c-0.264-1.269,0.69-3.013-1.396-3.569c-7.172-12.325-14.423-24.605-20.826-37.359
		c0.363-2.381-0.904-4.411-1.419-6.603c-0.053-1.413,0.024-2.838-0.24-4.229c-0.289-0.64-0.883,0.146-0.229,0.057
		c0.354-0.048,0.456,0.333,0.404,0.744c-0.064,0.502-0.163,0.956-0.613,1.256c-0.58-3.438-1.16-6.875-1.74-10.312
		c0.946-1.956-0.236-3.712-0.513-5.556C363.325,339.527,363.439,337.997,366.019,338.925z"/>
	<path fill-rule="evenodd" clip-rule="evenodd" fill="#5A5A5A" d="M206.778,353.066c0.586,3.536-2.042,5.759-3.436,8.5
		c-4.2,8.263-8.483,16.47-12.968,24.588c-3.289,5.953-3.824,13.452-5.438,20.298c-1.74,7.383-3.308,14.806-5.015,22.498
		c-3.641-3.865-3.641-3.865-6.948,3.021c-1.079,0.601-1.487-0.15-1.881-0.933c-0.078-2.582,0.7-4.949,1.816-7.231
		c1.309-1.365,1.79-2.938,1.199-4.78c3.785-14.841,8.165-29.371,17.49-41.979c4.459-6.028,6.649-13.351,9.466-20.273
		c0.998-2.451,1.87-5.05,4.848-5.893C206.795,351.375,206.899,352.176,206.778,353.066z"/>
	<path fill-rule="evenodd" clip-rule="evenodd" fill="#59595A" d="M264.936,356.182c-0.11,2.376,0.134,4.715,1.693,6.604
		c2.107,2.553,5.296,4.004,2.328,8.753c-1.57,2.513,2.59,6.15,5.31,8.209c3.296,2.496,4.535,4.191,1.14,7.913
		c-3.115,3.415-1.889,6.432,3.389,7.932c5.625,1.599,4.408,3.164,0.723,5.451c-9.803,6.082-9.598,15.114-7.13,24.665
		c0.463,1.791-0.624,3.223-0.208,4.839c0.337,0.684,0.526,1.383,0.226,2.134c-0.318,0.451-0.737,0.555-1.243,0.358
		c-0.206-1.929,0.311-3.907-1.182-5.687c-3.658-4.361-4.789-9.285-3.133-14.889c0.931-3.149,1.354-6.449,2.008-9.681
		c1.308-3.04,1.113-6.267,1.172-9.46c0.184-1.698,0.41-3.398-0.052-5.093c-0.645-1.912,2.095-4.851-1.782-5.777
		c-0.396-0.312-0.633-0.713-0.748-1.197c-1.908-4.828-2.147-10.119-4.21-14.9c-0.893-3.038-1.574-6.091-0.673-9.249
		C262.936,355.798,263.539,354.936,264.936,356.182z"/>
	<path fill-rule="evenodd" clip-rule="evenodd" fill="#9E9D9D" d="M276.905,486.128c-1.44-0.758-3.317-1.174-4.234-2.343
		c-2.151-2.739-4.846-2.883-7.361-1.569c-2.394,1.248-1.141,4.152-1.472,6.317c-0.169,1.104,0.14,2.282,0.232,3.428
		c0.494,0.721,0.571,1.621-0.183,1.984c-1.115,0.537-1.972-0.398-2.815-1.029c-1.424-0.951-1.134,1.106-1.998,1.139
		c-0.503-7.832-0.429-15.63,2.166-23.147c0.784-2.272,0.548-4.338-0.577-6.213c-2.676-4.459-1.909-8.679,0.799-12.635
		c2.095-3.06,2.919-7.107,6.672-8.931c0.938,4.067,1.42,7.65-1.77,11.532c-3.946,4.804-2.554,12.608,1.97,17.217
		c3.453,3.517,7.355,6.641,9.626,11.174C278.528,484.393,279.322,485.811,276.905,486.128z"/>
	<path fill-rule="evenodd" clip-rule="evenodd" fill="#363639" d="M417.17,675.252c-0.777-4.313,0.348-8.899-2.752-12.92
		c-1.352-1.753-1.192-4.121-4.643-3.466c-2.456,0.466-2.771-1.595-1.858-3.746c2.207-5.202,4.198-10.497,6.475-15.668
		c2.151-4.888,3.82-9.877,4.794-15.145c0.457-2.474,1.367-5.287,4.768-2.329c-0.582,6.606-1.486,13.302-3.843,19.391
		c-3.463,8.95-1.503,18.049-2.291,27.044C417.62,670.695,418.342,673.061,417.17,675.252z"/>
	<path fill-rule="evenodd" clip-rule="evenodd" fill="#585859" d="M313.111,166.253c2.235-1.791,3.06-4.551,4.561-6.836
		c1.143-1.74,2.455-2.451,4.391-2.372c-1.183,3.609-3,6.911-4.933,10.156c-1.251,0.542-1.557,1.513-1.25,2.76
		c-4.644,8.501-6.85,17.44-5.369,27.194c1.294,8.524,1.165,8.544,8.877,10.622c0.646,2.278,0.988,4.322-2.582,3.34
		c-8.964-2.024-8.341-2.082-9.205-11.507c-0.594-6.473-0.896-12.647,0.487-19.041C309.178,175.535,310.238,170.609,313.111,166.253z
		"/>
	<path fill-rule="evenodd" clip-rule="evenodd" fill="#5A5A5A" d="M418.892,469.141c3.649,5.224,5.275,11.347,7.689,17.126
		c1.746,4.182,4.649,7.247,9.494,7.801c-4.213,1.932-7.938,0.915-11.369-1.882c0.039-1.295-0.594-1.922-1.884-1.894
		c-4.143-4.706-6.302-10.351-7.729-16.342C415.773,469.147,415.773,469.147,418.892,469.141z"/>
	<path fill-rule="evenodd" clip-rule="evenodd" fill="#575858" d="M398.838,427.297c1.564-1.628,1.326,1.417,2.645,0.85
		c-0.133-1.713-0.273-3.519-0.413-5.325c6.396,12.402,8.445,26.326,13.641,39.159c0.705,1.741,0.33,3.92,0.455,5.896
		c0.284,0.531,0.182,0.972-0.307,1.323c-4.462-7.947-7.013-16.629-9.712-25.254c-0.467-2.861-0.851-5.757-3.201-7.851
		C400.232,433.401,399.594,430.328,398.838,427.297z"/>
	<path fill-rule="evenodd" clip-rule="evenodd" fill="#8F8C8B" d="M318.04,675.906c1.489,3.354,1.891,7.014,1.885,10.53
		c-0.019,11.224,0.813,22.489-1.038,33.658c-1.596-1.466-0.636-3.378-0.888-5.079c-2.129-8.23-2.23-16.628-1.623-25.008
		c0.19-2.63,0.466-5.266,0.547-7.912c-0.285-0.43-0.338-0.887-0.161-1.371C317.352,679.162,316.427,677.197,318.04,675.906z"/>
	<path fill-rule="evenodd" clip-rule="evenodd" fill="#575758" d="M406.8,397.077c-10.273-3.364-5.664-12.383-7.189-19.049
		c-0.804-3.506,0.669-6.791,1.475-10.122c1.395,2.254,1.085,4.827,1.272,7.278C402.931,382.674,404.929,389.859,406.8,397.077z"/>
	<path fill-rule="evenodd" clip-rule="evenodd" fill="#979594" d="M352.963,450.958c-0.542,4.846-3.739,6.731-7.881,4.645
		c-1.834-0.924-0.817-2.19-0.28-3.253c2.283-4.51,4.644-8.98,6.976-13.466c-0.556,3.354,1.656,6.068,2.123,9.187
		C353.44,448.985,354.113,450.268,352.963,450.958z"/>
	<path fill-rule="evenodd" clip-rule="evenodd" fill="#565656" d="M345.059,432.096c-0.247,1.502,0.82,4.382-2.609,2.619
		c-1.54-0.791-2.496-0.335-3.3,1.014c-0.754,1.266-1.54,3.209-3.127,2.67c-1.997-0.679-0.671-2.899-0.971-4.415
		c-0.064-0.323-0.043-0.663-0.062-0.996c0.234-3.873-0.258-7.946,3.021-10.983c0.646,2.004,1.294,4.008,1.94,6.011
		c-0.634,1.554,0.333,2.146,1.556,2.586C342.616,431.279,343.633,432.174,345.059,432.096z"/>
	<path fill-rule="evenodd" clip-rule="evenodd" fill="#101110" d="M229.909,568.962c2.308,1.761,0.819,3.672-0.027,5.281
		c-4.706,8.938-7.875,18.524-11.887,27.752c-1.124,0.17-1.648-0.169-1.161-1.367C220.621,589.837,224.536,579.098,229.909,568.962z"
		/>
	<path fill-rule="evenodd" clip-rule="evenodd" fill="#101010" d="M206.778,353.066c-0.805-0.523-0.836-1.354-0.865-2.185
		c-0.57-6.29-3.083-12.263-3.041-18.651c0.087-2.079-1.821-4.497,1.04-6.104c0.444,6.278,1.909,12.304,3.751,18.731
		c1.742-1.571,1.116-2.802,1.36-3.855C210.76,345.486,209.571,349.426,206.778,353.066z"/>
	<path fill-rule="evenodd" clip-rule="evenodd" fill="#212221" d="M201.899,678.197c0.095-0.646,0.189-1.293,0.399-2.725
		c4.265,8.612,8.082,16.661,9.657,25.594c-0.355,0.334-0.71,0.668-1.065,1.002c-0.376,0.41-0.781,0.44-1.216,0.093
		C207.916,693.902,205.061,686,201.899,678.197z"/>
	<path fill-rule="evenodd" clip-rule="evenodd" fill="#4A4B4B" d="M429.095,454.926c-0.878,1.461,2.641,3.06-0.062,4.371
		c-1.431,0.694-3.083,1.778-4.63,1.055c-1.862-0.87-1.23-2.76-0.974-4.396c0.377-2.403-1.48-5.325,1.679-7.07
		C426.437,450.899,427.766,452.912,429.095,454.926z"/>
	<path fill-rule="evenodd" clip-rule="evenodd" fill="#595959" d="M159.056,461.108c-0.995,2.013-1.909,4.071-3.006,6.028
		c-1.732,3.091-4.113,3.925-7.176,1.741c2.173-3.771,4.81-7.156,8.235-9.885C159.29,458.288,159.775,459.144,159.056,461.108z"/>
	<path fill-rule="evenodd" clip-rule="evenodd" fill="#333333" d="M245.729,523.882c1.276,0.712,1.224,1.718,0.853,2.979
		c-1.913,6.498-3.733,13.022-5.627,19.525c-0.522,1.795-1.188,3.487-2.173,0.169C240.457,538.802,242.469,531.15,245.729,523.882z"
		/>
	<path fill-rule="evenodd" clip-rule="evenodd" fill="#4E4F4F" d="M341.886,389.076c-0.436,0.637-0.872,1.273-1.725,2.52
		c0.237-2.949-0.397-4.77-2.913-5.955c-2.883-1.358-2.056-4.037-1.176-6.432c1.311-1.36,2.748-2.253,4.692-1.271
		C340.854,381.679,340.278,385.487,341.886,389.076z"/>
	<path fill-rule="evenodd" clip-rule="evenodd" fill="#4A4A4B" d="M316.806,211.117c0.792-0.64,4.676,0.261,1.233-2.568
		c-0.429-0.353,0.906-0.438,1.349-0.771c3.979,0.627,8.117-0.709,12.011,0.972c-0.846,1.537-2.261,0.915-3.56,0.737
		c1.531,0.312,3.041,0.345,4.206,1.483l-0.06,0.043c-0.301,2.491-1.902,1.246-3.125,1.088
		C324.852,211.661,320.706,212.886,316.806,211.117z"/>
	<path fill-rule="evenodd" clip-rule="evenodd" fill="#545555" d="M338.014,419.001c-1.253-0.106-2.667,1.426-3.664,0.171
		c-1.191-1.498,0.224-3.011,1.182-3.832c2.304-1.973,2.609-5.936,6.377-6.389C340.777,412.366,341.868,416.642,338.014,419.001z"/>
	<path fill-rule="evenodd" clip-rule="evenodd" fill="#989594" d="M345.059,432.096c-2.245,2.943-2.844-0.248-4.072-1.093
		c-0.325-0.428-0.257-0.802,0.151-1.13c0.313-0.068,0.742-0.029,0.922-0.222c1.377-1.475,0.483-4.978,4.564-4.082
		c3.355,0.735,3.924,2.817,4.386,5.424C348.533,428.7,346.502,428.814,345.059,432.096z"/>
	<path fill-rule="evenodd" clip-rule="evenodd" fill="#242525" d="M299.923,123.055c-2.769-4.473,0.519-5.197,3.703-5.962
		c2.448-0.588,5.244,0.965,7.441-1.198c0.97,0.84,1.724,1.8,1.758,3.16c-1.737,1.224-3.751,0.898-5.68,0.973
		c-1.521,0.058-3.017,0.028-3.239,2.065c-0.369,0.321-1.096,0.611-1.235,0.371C301.079,119.729,300.778,122.651,299.923,123.055z"/>
	<path fill-rule="evenodd" clip-rule="evenodd" fill="#080808" d="M340.765,377.938c-1.564,0.423-3.129,0.846-4.693,1.271
		c0.316-0.751,0.632-1.503,0.946-2.256c0.377-1.541,0.131-2.901-1.157-3.956c-0.555,0.196-1.262,0.768-1.642,0.023
		c-0.602-1.18,0.49-2.081,0.822-3.112c2.644-1.66,3.777,0.294,4.98,2.081C341.72,373.79,342.488,375.708,340.765,377.938z"/>
	<path fill-rule="evenodd" clip-rule="evenodd" fill="#4D4D4D" d="M337.044,349.976c-3.027,0.557-2.237,3.603-3.478,5.324
		c-5.16-2.685-5.269-3.043-0.77-6.657c1.334-1.071,1.927-2.557,3.055-3.684C336.249,346.631,336.646,348.304,337.044,349.976z"/>
	<path fill-rule="evenodd" clip-rule="evenodd" fill="#555556" d="M381.931,332.037c-1.834-2.185,0.412-2.966,1.555-3.519
		c2.242-1.085,3.837-2.78,5.468-4.512c1.601,1.444,1.085,2.842-0.123,4.189c-1.235,1.378-1.87,2.987-1.989,4.817
		C384.923,334.1,383.587,332.263,381.931,332.037z"/>
	<path fill-rule="evenodd" clip-rule="evenodd" fill="#575757" d="M341.003,402.998c-1.466,1.021-2.694,1.158-3.367-0.88
		c-0.725-2.193-1.556-4.417,0.234-6.48c0.996-1.147,2.275-1.861,3.881-1.76C341.501,396.918,341.252,399.958,341.003,402.998z"/>
	<path fill-rule="evenodd" clip-rule="evenodd" fill="#4F4F4F" d="M159.056,461.108c-0.079-1.229-0.601-2.052-1.946-2.115
		c0.446-3.089,2-5.648,3.852-8.066c2.592-1.242,2.592-1.242,3.142,0.15C162.437,454.429,161.607,458.202,159.056,461.108z"/>
	<path fill-rule="evenodd" clip-rule="evenodd" fill="#525252" d="M340.021,371.988c-1.592-0.858-2.954-2.264-4.98-2.081
		c0.719-2.376-1.84-6.969,3.984-5.891C340.578,366.521,339.839,369.312,340.021,371.988z"/>
	<path fill-rule="evenodd" clip-rule="evenodd" fill="#404141" d="M275.975,112.964c0.174-3.571-1.514-2.649-3.588-1.647
		c-1.733,0.838-2.209,4.075-5.082,2.694c2.141-3.265,5.143-5.509,8.583-7.231c1.45,0.658,3.35,0.882,3.087,3.194
		C278.266,111.262,277.271,112.264,275.975,112.964z"/>
	<path fill-rule="evenodd" clip-rule="evenodd" fill="#4B4B4C" d="M371.947,237.032c-1.925,1.429-1.52,6.317-3.792,5.18
		c-2.097-1.049-0.064-5.123,0.604-7.8c0.276-1.108,1.015-2.047,2.23-2.416C371.309,233.675,371.628,235.354,371.947,237.032z"/>
	<path fill-rule="evenodd" clip-rule="evenodd" fill="#5D5D5D" d="M358.16,214.82c-1.929,0.705-0.498,3.463-2.739,4.188
		c-4.05,1.31-4.269-2.071-5.57-4.188C352.621,214.108,355.391,213.874,358.16,214.82z"/>
	<path fill-rule="evenodd" clip-rule="evenodd" fill="#2F3030" d="M171.094,431.038c0.627,0.311,1.254,0.622,1.881,0.933
		c-0.831,4.054-2.373,7.789-4.96,11.055c-0.93-0.446-1.672-0.984-1.088-2.185C168.315,437.573,169.705,434.306,171.094,431.038z"/>
	<path fill-rule="evenodd" clip-rule="evenodd" fill="#151515" d="M202.93,634.964c1.149,3.086-1.154,11.766-3.487,13.136
		c-0.191-0.44-0.382-0.882-0.573-1.323C200.028,642.772,200.607,638.568,202.93,634.964z"/>
	<path fill-rule="evenodd" clip-rule="evenodd" fill="#242424" d="M264.142,366.842c2.3,4.769,2.853,10.003,4.02,15.074
		c-0.337,0.359-0.699,0.404-1.091,0.087c-2.98-4.206-2.543-9.379-3.968-14.024C263.368,367.526,263.471,366.925,264.142,366.842z"/>
	<path fill-rule="evenodd" clip-rule="evenodd" fill="#363737" d="M166.927,440.841c0.362,0.728,0.725,1.456,1.088,2.184
		c-1.305,2.685-2.609,5.368-3.913,8.053c-0.957-1.928-2.184,1.775-3.141-0.15C162.949,447.565,164.938,444.203,166.927,440.841z"/>
	<path fill-rule="evenodd" clip-rule="evenodd" fill="#1D1E1E" d="M267.07,382.003c0.363-0.029,0.726-0.058,1.09-0.087
		c0.25,0.057,0.501,0.105,0.753,0.146c2.69,1.258,0.825,4.141,2.104,5.902c0.484,1.7,0.604,3.401,0.012,5.104
		c-1.151,0.536-1.462-0.401-1.914-1.091C268.479,388.644,266.459,385.593,267.07,382.003z"/>
	<path fill-rule="evenodd" clip-rule="evenodd" fill="#202121" d="M366.019,338.925c-1.881,0.232-1.896,1.187-1.309,2.744
		c0.67,1.771,1.621,3.748-0.594,5.267c-1.397-3.635-2.794-7.271-4.191-10.905C361.956,336.995,363.987,337.96,366.019,338.925z"/>
	<path fill-rule="evenodd" clip-rule="evenodd" fill="#303232" d="M278.975,109.974c-0.812-1.274-2.714-1.495-3.087-3.194
		c2.288-2.059,5.1-2.671,8.044-2.92C281.375,105.164,281.907,108.974,278.975,109.974z"/>
	<path fill-rule="evenodd" clip-rule="evenodd" fill="#141515" d="M264.142,366.842c-0.347,0.379-0.692,0.758-1.039,1.137
		c-1.381-2.829-2.379-5.751-2.148-8.967c2.017,0.024-0.425-6.219,3.981-2.831c-3.342,0.291-1.929,2.913-1.927,4.486
		C263.01,362.726,263.73,364.784,264.142,366.842z"/>
	<path fill-rule="evenodd" clip-rule="evenodd" fill="#191919" d="M341.945,683.102c4.658-2.483,6.075,2.494,9.032,3.925
		c-0.914,0.014-1.687,0.276-2.095,1.185C346.57,686.508,344.258,684.805,341.945,683.102z"/>
	<path fill-rule="evenodd" clip-rule="evenodd" fill="#494A4A" d="M138.087,489.924c1.145,1.163,0.929,2.614,0.854,4.036
		c-0.507,1.37-0.885,2.924-2.951,2.059c-1.814-1.842-1.804-4.026-1.187-6.325C135.805,491.099,137.085,488.522,138.087,489.924z"/>
	<path fill-rule="evenodd" clip-rule="evenodd" fill="#121313" d="M198.014,650.005c2.114,1.771-0.155,3.553-0.03,5.353
		c0.135,1.926-0.108,3.868,1.138,5.545c-0.15,0.731-0.551,1.24-1.293,1.441C195.106,658.188,195.638,654.083,198.014,650.005z"/>
	<path fill-rule="evenodd" clip-rule="evenodd" fill="#414242" d="M212.784,281.875c-0.001,3.819-0.763,7.33-3.988,9.843
		C209.975,288.376,209.845,284.504,212.784,281.875z"/>
	<path fill-rule="evenodd" clip-rule="evenodd" fill="#4C4D4D" d="M269.115,391.978c0.638,0.363,1.275,0.727,1.914,1.091
		c0.305,3.412-0.756,6.642-1.352,9.933c-0.008,0.048-0.293,0.094-0.426,0.057c-0.146-0.041-0.266-0.179-0.396-0.274
		C268.941,399.182,269.028,395.579,269.115,391.978z"/>
	<path fill-rule="evenodd" clip-rule="evenodd" fill="#3B3C3C" d="M211.783,255.833c2.123,2.105,0.887,4.773,1.207,7.182
		c-1.233,1.193,0.357,3.15-1.152,4.27C210.577,263.473,210.268,259.657,211.783,255.833z"/>
	<path fill-rule="evenodd" clip-rule="evenodd" fill="#434343" d="M401.945,436.096c0.611-0.775,1.597-1.163,1.82-0.035
		c0.52,2.612,3.178,4.883,1.381,7.886C403.238,441.673,402.722,438.831,401.945,436.096z"/>
	<path fill-rule="evenodd" clip-rule="evenodd" fill="#2B2B2B" d="M327.964,666.087c0.223-1.479,0.471-1.515,1.539-0.341
		c1.74,1.911,2.983,3.841,2.41,6.531C328.961,671.258,328.812,668.449,327.964,666.087z"/>
	<path fill-rule="evenodd" clip-rule="evenodd" fill="#313232" d="M144.935,472.896c1.145,2.403-0.336,4.761-0.124,7.147
		c-0.907-1.968-1.932,0.355-2.88-0.079c-0.304-0.649-0.606-1.3-0.909-1.949C141.508,475.683,142.65,473.853,144.935,472.896z"/>
	<path fill-rule="evenodd" clip-rule="evenodd" fill="#1D1D1D" d="M216.834,600.628c0.388,0.456,0.774,0.911,1.161,1.367
		c-0.609,1.878-1.144,3.785-1.854,5.624c-0.456,1.184-1.283,1.431-2.185,0.309C214.361,605.275,215.542,602.93,216.834,600.628z"/>
	<path fill-rule="evenodd" clip-rule="evenodd" fill="#353636" d="M203.912,326.127c-1.672,1.809-0.199,4.153-1.04,6.104
		c-0.658-3.76-1.771-7.522,0.091-11.262C204.382,322.484,203.96,324.341,203.912,326.127z"/>
	<path fill-rule="evenodd" clip-rule="evenodd" fill="#8D8D8F" d="M319.968,822.021c0.556,0.671,1.111,1.341,1.784,2.153
		c0.154-1.582,0.287-2.941,0.42-4.301c1.444,2.226,0.589,4.768,0.981,7.138c0.403,0.778,0.44,1.684-0.372,2.02
		c-0.841,0.347-1.383-0.411-1.687-1.193C320.863,825.87,319.416,824.139,319.968,822.021z"/>
	<path fill-rule="evenodd" clip-rule="evenodd" fill="#232424" d="M135.989,496.019c0.984-0.686,1.968-1.372,2.951-2.059
		c0.308,2.433,0.616,4.865,0.924,7.298C138.248,499.752,136.602,498.269,135.989,496.019z"/>
	<path fill-rule="evenodd" clip-rule="evenodd" fill="#4F5050" d="M215.119,272.97c0.467,1.016,1.103,1.991,1.357,3.058
		c0.29,1.211,2.475,2.685,0.359,3.646c-2.031,0.923-1.438-2.121-2.751-2.661c-0.04-0.331-0.08-0.662-0.12-0.993
		C214.759,275.157,213.778,273.624,215.119,272.97z"/>
	<path fill-rule="evenodd" clip-rule="evenodd" fill="#232323" d="M211.838,267.284c0.512-1.389-0.418-3.167,1.152-4.271
		c0.232,2.663,1.616,5.233,0.637,7.992c-0.228,0.488-0.483,0.48-0.762,0.041C211.654,270.03,211.871,268.623,211.838,267.284z"/>
	<path fill-rule="evenodd" clip-rule="evenodd" fill="#484949" d="M381.931,332.037c1.637,0.325,3.273,0.651,4.91,0.977
		c0.447,0.983,1.339,1.818,1.021,3.057C384.169,337.25,384.677,332.25,381.931,332.037z"/>
	<path fill-rule="evenodd" clip-rule="evenodd" fill="#1E1F1E" d="M270.946,448.021c-2.043-2.571-0.276-5.673-1.168-8.404
		c0.117-0.527,0.235-1.056,0.353-1.584c0.918-0.166,1.336,0.413,1.675,1.116c0.421,1.92,1.001,3.837,0.242,5.808
		C270.826,445.671,271.052,446.905,270.946,448.021z"/>
	<path fill-rule="evenodd" clip-rule="evenodd" fill="#2A2B2B" d="M414.858,469.2c0.102-0.44,0.204-0.882,0.307-1.322
		c1.25,0.397,2.919-0.441,3.728,1.262c-3.684-0.305-2.059,3.582-3.8,4.811C414.197,472.407,414.435,470.809,414.858,469.2z"/>
	<path fill-rule="evenodd" clip-rule="evenodd" fill="#2D2E2E" d="M332.045,210.97c-1.848,0.281-3.342-0.697-6.344-1.548
		c2.804-0.331,4.251-0.502,5.697-0.673c1.04,0.057,1.998,0.282,2.597,1.254C333.346,210.325,332.695,210.647,332.045,210.97z"/>
	<path fill-rule="evenodd" clip-rule="evenodd" fill="#404040" d="M442.923,488.858c-0.164-2.522-1.114-5.265,1.925-6.894
		C444.629,484.381,444.9,486.934,442.923,488.858z"/>
	<path fill-rule="evenodd" clip-rule="evenodd" fill="#484949" d="M367.02,359.993c1.05,1.896,2.952,3.659,0.935,6.03
		c-1.236-1.82-1.816-3.864-2.069-6.022C366.26,359.453,366.638,359.45,367.02,359.993z"/>
	<path fill-rule="evenodd" clip-rule="evenodd" fill="#313232" d="M271.1,439.079c-0.322-0.349-0.646-0.698-0.969-1.047
		c0.344-1.664,0.688-3.328,1.031-4.993c0.281,0.018,0.561,0.004,0.838-0.039C274.304,435.334,274.12,436.574,271.1,439.079z"/>
	<path fill-rule="evenodd" clip-rule="evenodd" fill="#0A0A0A" d="M197.828,662.344c0.431-0.479,0.861-0.96,1.293-1.44
		c1.426,1.352,1.056,3.305,1.493,4.956c0.216,0.813-0.92,0.084-1.437,0.122C198.728,664.769,198.278,663.557,197.828,662.344z"/>
	<path fill-rule="evenodd" clip-rule="evenodd" fill="#939393" d="M149.005,506.915c-2.027,0.311-4.356,2.365-5.751-0.993
		C145.272,505.663,147.479,504.32,149.005,506.915z"/>
	<path fill-rule="evenodd" clip-rule="evenodd" fill="#737373" d="M149.005,506.915c-1.719-1.479-3.804-0.838-5.751-0.993
		c-0.317-0.195-0.432-0.473-0.343-0.834c2.351-0.043,4.701-0.087,7.053-0.13c0.285,0.734,0.841,1.476-0.055,2.181
		C149.601,507.093,149.3,507.019,149.005,506.915z"/>
	<path fill-rule="evenodd" clip-rule="evenodd" fill="#525253" d="M174.109,419.026c2.006,2.057,0.316,4.023-0.404,5.825
		c-0.24,0.604-0.545-0.63-0.795-1.045C172.719,422.064,173.506,420.568,174.109,419.026z"/>
	<path fill-rule="evenodd" clip-rule="evenodd" fill="#2B2C2B" d="M231.766,232.105c-1.243-1.607-3.248-0.091-4.63-1.128
		c2.009-1.872,4.086-1.595,6.198-0.194C232.812,231.224,232.288,231.665,231.766,232.105z"/>
	<path fill-rule="evenodd" clip-rule="evenodd" fill="#242424" d="M212.865,271.047c0.257-0.023,0.514-0.037,0.767-0.042
		c0.492,0.655,0.988,1.311,1.486,1.965c-0.155,1.103,0.194,2.396-1.153,3.049C213.312,274.425,212.582,272.848,212.865,271.047z"/>
	<path fill-rule="evenodd" clip-rule="evenodd" fill="#545454" d="M388.78,403.383c0.377-0.634,0.964-1.032,1.492-0.37
		c1.02,1.277,1.097,2.655-0.097,3.939C389.711,405.763,389.245,404.572,388.78,403.383z"/>
	<path fill-rule="evenodd" clip-rule="evenodd" fill="#2D2E2E" d="M138.087,489.924c-1.031-0.977-2.42,3.143-3.284-0.23
		c-0.067-1.126-0.212-2.281,1.062-2.92C135.541,488.575,138.296,488.204,138.087,489.924z"/>
	<path fill-rule="evenodd" clip-rule="evenodd" fill="#4E4E4F" d="M271.753,185.054c2.082,2.262,1.776,4.582,0.168,6.934
		C271.865,189.676,271.809,187.365,271.753,185.054z"/>
	<path fill-rule="evenodd" clip-rule="evenodd" fill="#484949" d="M225.976,232.203c-0.364,1.606-0.627,3.323-2.991,2.767
		C223.438,233.459,224.413,232.514,225.976,232.203z"/>
	<path fill-rule="evenodd" clip-rule="evenodd" fill="#404140" d="M315.88,169.961c-1.164-0.878-1.048-1.902-0.255-2.92
		c0.518-0.663,1.066-0.493,1.505,0.16C316.714,168.121,316.297,169.041,315.88,169.961z"/>
	<path fill-rule="evenodd" clip-rule="evenodd" fill="#474848" d="M367.02,359.993c-0.378,0.003-0.756,0.006-1.135,0.008
		c-0.009-0.917-0.019-1.835-0.027-2.753c0.159-0.737,0.318-1.475,0.479-2.213c0.228,0.013,0.456,0.025,0.684,0.037
		C367.02,356.713,367.02,358.353,367.02,359.993z"/>
	<path fill-rule="evenodd" clip-rule="evenodd" fill="#363639" d="M209.675,702.161c0.406-0.031,0.812-0.062,1.217-0.094
		c-0.042,1.683,1.231,3.567-0.761,4.949C209.979,705.398,209.827,703.779,209.675,702.161z"/>
	<path fill-rule="evenodd" clip-rule="evenodd" fill="#404040" d="M422.822,490.292c0.634-1.109,1.298-0.639,1.931-0.015
		c0.644,0.635,1.07,1.3-0.047,1.908C424.078,491.555,423.45,490.924,422.822,490.292z"/>
	<path fill-rule="evenodd" clip-rule="evenodd" fill="#4A4A4A" d="M341.138,429.873c-0.05,0.376-0.101,0.753-0.151,1.13
		c-2.15-0.371-2.549-1.349-1.035-2.988C340.347,428.634,340.742,429.254,341.138,429.873z"/>
	<path fill-rule="evenodd" clip-rule="evenodd" fill="#6E6A6A" d="M352.963,450.958c-0.07-1.087-0.129-2.17,0.938-2.888
		c0.521,0.919,1.354,1.722,1.091,2.932C354.315,450.987,353.64,450.973,352.963,450.958z"/>
	<path fill-rule="evenodd" clip-rule="evenodd" fill="#5A5A5B" d="M256.867,345.131c-4.204-5.372-3.369-12.342-5.793-18.277
		c-5.588-13.688-1.972-27.535-0.609-41.315c0.328-3.324,0.514-6.617,0.504-9.942c-0.003-0.803-0.068-1.833,0.957-2.051
		c1.33-0.283,1.463,0.884,1.868,1.782c2.735,6.066,0.24,12.672,1.996,18.857c0.629,2.216,0.727,4.582,1.075,6.879
		c1.19,7.819,8.494,14.882,16.523,15.973c1.721,0.233,4.197-0.417,4.41,2.099c0.219,2.578-2.47,2.902-4.206,3.481
		c-3.458,1.154-7.042,2.022-10.76,1.406c-3.668-0.608-4.451,1.276-3.674,4.317c0.749,2.929,0.877,5.89,1.058,8.885
		c0.292,4.861,2.387,6.208,6.948,4.147c3.879-1.753,7.782-1.374,11.745-1.277c0.994,0.024,2.154,0.196,2.409,1.339
		c0.231,1.036-0.476,1.879-1.3,2.522c-2.049,1.6-4.634,2.587-6.96,2.396c-4.53-0.371-8.255,4.981-13.023,1.603
		C258.552,347.493,257.534,346.51,256.867,345.131z"/>
	<path fill-rule="evenodd" clip-rule="evenodd" fill="#585858" d="M310.975,319.922c-3.386,2.504-6.681-0.183-9.988-0.382
		c-1.492-0.09-2.321-2.485-1.5-4.179c4.299-8.863,1.192-17.967,0.751-26.901c-0.464-9.403-0.726-18.634,2.455-28.547
		c1.979,3.276,2.078,6.058,2.096,8.818c0.066,10.151,0.031,20.303,0.123,30.453c0.062,6.826,0.359,13.616,7.089,17.814
		C313.119,318.486,312.174,319.248,310.975,319.922z"/>
	<path fill-rule="evenodd" clip-rule="evenodd" fill="#545555" d="M306.915,373.007c0.048,2.61-0.366,5.261,1.67,7.503
		c2.684,2.955,1.918,5.504-1.268,7.563c-1.334,3.622-1.361,7.117,0.485,10.664c1.461,2.806,1.194,4.904-2.841,4.27
		c-0.012-0.95-0.022-1.9-0.034-2.851c-1.347-11.41-3.026-22.801-2.018-34.35c0.062-1.91,0.124-3.821,0.187-5.732
		c1.026-0.611-0.665-5.025,2.905-2.076c-0.611,4.285,1.623,7.563,3.84,10.848C309.433,370.631,307.109,371.07,306.915,373.007z"/>
	<path fill-rule="evenodd" clip-rule="evenodd" fill="#535353" d="M343.805,228.787c-8.211,1.775-15.992,2.588-24.375,2.045
		C324.05,225.563,338.201,224.371,343.805,228.787z"/>
	<path fill-rule="evenodd" clip-rule="evenodd" fill="#565656" d="M271.1,439.079c0.858-1.943,2.028-3.841,0.9-6.079
		c0.06-0.816,0.119-1.633,0.18-2.451c3.824,1.522,8.001,8.229,7.32,11.688c-0.142,0.722-0.667,1.554-1.138,1.283
		c-2.625-1.505-3.957,2.187-6.314,1.437C270.745,443.156,271.155,441.081,271.1,439.079z"/>
	<path fill-rule="evenodd" clip-rule="evenodd" fill="#515152" d="M302.09,342.993c-5.562,0.089-3.918-4.221-4.056-7.167
		c-0.072-1.533-1.018-4.242,1.63-4.424c2.028-0.14,2.046,2.241,2.274,3.844c0.193,1.354,0.349,2.725,1.748,3.356
		c1.471,0.664,2.856,1.396,2.032,3.278C305.037,343.439,303.383,342.695,302.09,342.993z"/>
	<path fill-rule="evenodd" clip-rule="evenodd" fill="#535353" d="M297.933,213.743c-0.926-0.516-1.867-1.471-2.849-1.514
		c-4.084-0.178-3.882-1.783-1.944-4.55c0.699-0.999,0.72-2.479,1.026-3.745c0.33-1.362,0.133-3.52,2.017-3.319
		c1.577,0.168,1.667,2.268,1.717,3.71C298.006,207.409,297.933,210.5,297.933,213.743z"/>
	<path fill-rule="evenodd" clip-rule="evenodd" fill="#4A4B4B" d="M282.828,351.293c-2.662,3.974-6.418,5.011-10.327,5.658
		c-1.26,0.209-2.765,0.304-3.375-1.282c-0.531-1.38,0.165-2.604,0.966-3.649c0.856-1.116,2.028-1.013,3.058-0.24
		C276.323,354.162,279.322,351.164,282.828,351.293z"/>
	<path fill-rule="evenodd" clip-rule="evenodd" fill="#525253" d="M141.931,479.964c1.012-1.845,1.993-2.566,2.881,0.079
		c0.062,2.528,0.997,4.793,1.984,7.073c0.274,0.636,0.186,1.766-0.224,2.283c-0.635,0.804-1.422-0.135-2.16-0.336
		C138.404,487.427,141.228,483.411,141.931,479.964z"/>
	<path fill-rule="evenodd" clip-rule="evenodd" fill="#4C4D4D" d="M302.91,365.807c0.673,11.449,1.346,22.898,2.019,34.349
		C302.552,388.807,300.642,377.43,302.91,365.807z"/>
	<path fill-rule="evenodd" clip-rule="evenodd" fill="#444545" d="M442.898,469.903c-1.766,0.607-2.809,3.371-5.061,2.173
		c-1.439-0.766-0.803-2.312,0.095-3.428c1.62-2.014,3.289-3.95,6.093-1.656C445.085,468.519,444.17,469.279,442.898,469.903z"/>
	<path fill-rule="evenodd" clip-rule="evenodd" fill="#4C4D4D" d="M304.962,403.007c2.668-0.306,3.112-1.501,2.11-4.005
		c-1.434-3.584-2.283-7.345,0.243-10.929c-0.267,3.864-1.411,7.81,2.114,11.064c1.423,1.314,0.314,2.89-0.955,3.739
		c-1.116,0.747-1.025,3.149-3.063,2.38C305.032,405.114,305.101,403.787,304.962,403.007z"/>
	<path fill-rule="evenodd" clip-rule="evenodd" fill="#393A3A" d="M328.86,212.101c1.096-0.206,2.369,0.095,3.125-1.088
		c2.706,0.417,4.418,2.489,7.89,4.178C334.773,215.736,332.17,212.718,328.86,212.101z"/>
	<path fill-rule="evenodd" clip-rule="evenodd" fill="#222323" d="M306.002,357.998c-2.554-1.528-1.785,1.597-2.906,2.076
		c-0.498-2.687,0.815-4.995,1.476-7.869C306.907,353.971,305.627,356.194,306.002,357.998z"/>
	<path fill-rule="evenodd" clip-rule="evenodd" fill="#505051" d="M145.263,503.419c-2.56-0.555-3.768-1.835-2.76-4.174
		c0.205-0.477,1.142-1.13,1.43-1.002C146.469,499.369,144.203,501.762,145.263,503.419z"/>
	<path fill-rule="evenodd" clip-rule="evenodd" fill="#3C3D3D" d="M275.056,213.938c1.832-0.668,3.26-1.639,2.931-3.922
		c0.293,0.373,0.794,0.721,0.844,1.124c0.173,1.395,1.964,2.993,0.731,3.984C278.141,216.269,276.363,215.172,275.056,213.938z"/>
	<path fill-rule="evenodd" clip-rule="evenodd" fill="#393A3A" d="M310.975,319.922c0.342-0.975,0.684-1.948,1.025-2.923
		c1.391,1.173,4.977,0.747,4.321,2.825C315.448,322.589,312.835,319.271,310.975,319.922z"/>
	<path fill-rule="evenodd" clip-rule="evenodd" fill="#282929" d="M217.758,329.441c-2.521-1.963-0.899-3.633,0-5.396
		C217.758,325.845,217.758,327.644,217.758,329.441z"/>
	<path fill-rule="evenodd" clip-rule="evenodd" fill="#222323" d="M256.867,345.131c1.471,0.477,2.413,1.546,3.169,2.824
		C257.374,348.814,255.527,348.761,256.867,345.131z"/>
	<path fill-rule="evenodd" clip-rule="evenodd" fill="#1D1E1E" d="M306.915,373.007c-1.729-3.291,2.065-2.693,2.927-4.16
		C310.086,371.09,308.544,372.079,306.915,373.007z"/>
	<path fill-rule="evenodd" clip-rule="evenodd" fill="#111111" d="M382.332,303.774c2.083,1.119,1.702,2.67,1.258,5.32
		C383.009,306.638,382.67,305.206,382.332,303.774z"/>
	<path fill-rule="evenodd" clip-rule="evenodd" fill="#3E3F3F" d="M142.056,496.056c-0.033,0.658-0.095,1.447-0.893,1.475
		c-1.203,0.04-1.093-1.015-1.064-1.774c0.022-0.615,0.182-1.436,1.105-1.241C141.955,494.673,142.042,495.389,142.056,496.056z"/>
	<path fill-rule="evenodd" clip-rule="evenodd" fill="#1E1F1F" d="M335.86,372.996c2.963,0.565,2.566,2.113,1.157,3.957
		C336.632,375.634,336.246,374.315,335.86,372.996z"/>
	<path fill-rule="evenodd" clip-rule="evenodd" fill="#363737" d="M303.686,212.072c-0.484-0.328-1.062-0.507-1.151-0.823
		c-0.224-0.791,0.403-1.122,1.056-1.036c0.334,0.045,0.817,0.503,0.853,0.816C304.476,211.319,304.001,211.667,303.686,212.072z"/>
	<path fill-rule="evenodd" clip-rule="evenodd" fill="#161717" d="M442.898,469.903c0.651-0.863,1.213-1.762,1.127-2.911
		c0.852,0.51,1.956,1.029,1.498,2.209C445.072,470.364,443.848,469.902,442.898,469.903z"/>
	<path fill-rule="evenodd" clip-rule="evenodd" fill="#0C0C0C" d="M238.646,315.785c0.532,1.289,0.211,2.095-1.116,2.545
		C237.062,317.077,237.672,316.4,238.646,315.785z"/>
	<path fill-rule="evenodd" clip-rule="evenodd" fill="#444444" d="M343.597,512.476c-0.274-0.203-0.777-0.386-0.922-0.723
		c-0.313-0.73,0.177-1.267,0.836-1.402c0.314-0.064,0.937,0.275,1.055,0.575C344.837,511.617,344.405,512.121,343.597,512.476z"/>
	<path fill-rule="evenodd" clip-rule="evenodd" fill="#2C2A2A" d="M351.06,484.155c0.355-0.854,0.649-2.43,1.483-2.099
		c1.032,0.409,0.304,1.97,0.4,3.026C352.315,484.774,351.688,484.465,351.06,484.155z"/>
	<path fill-rule="evenodd" clip-rule="evenodd" fill="#151515" d="M223.165,816.705c-0.1-2.308-0.554-3.601,0.396-4.867
		C224.179,813.33,224.289,814.698,223.165,816.705z"/>
	<path fill-rule="evenodd" clip-rule="evenodd" fill="#7C7674" d="M317.144,680.896c-0.073,0.399-0.146,0.799-0.22,1.199
		c-1.702-3.559-0.719-7.319-1.04-11.72c1.59,1.682,1.951,3.12,2.063,4.675C316.823,676.882,318.067,679.038,317.144,680.896z"/>
	<path fill-rule="evenodd" clip-rule="evenodd" fill="#6F6866" d="M261.072,492.916c1.084-0.052,2.675,1.486,2.998-0.955
		c1.314,1.566,0.985,3.546,1.977,6.257C263.437,496.37,261.998,494.896,261.072,492.916z"/>
	<path fill-rule="evenodd" clip-rule="evenodd" fill="#7D7877" d="M276.905,486.128c1.164-0.747,1.096-1.916,1.055-3.076
		c1.948,1.462,2.377,3.653,3.208,6.401C278.9,488.78,277.972,487.358,276.905,486.128z"/>
	<path fill-rule="evenodd" clip-rule="evenodd" fill="#434346" d="M322.709,668.861c-0.931-1.134-0.794-2.386-0.454-3.712
		C323.858,666.238,322.42,667.627,322.709,668.861z"/>
	<path fill-rule="evenodd" clip-rule="evenodd" fill="#949190" d="M317.144,680.896c0.123-1.969-0.911-4.097,0.805-5.846
		c0.112,0.276,0.144,0.562,0.092,0.855C317.72,677.565,318.648,679.45,317.144,680.896z"/>
	<path fill-rule="evenodd" clip-rule="evenodd" fill="#575758" d="M292.665,153.528c-2.609-3.916-5.491-7.312-9.478-9.805
		c-1.772-1.107-3.425-4.035-1.328-5.833c2.315-1.985,5.744-2.919,8.64-0.699C293.649,139.606,294.829,149.126,292.665,153.528z"/>
	<path fill-rule="evenodd" clip-rule="evenodd" fill="#545555" d="M299.923,123.055c0.098-5.412,2.803-0.035,3.983-0.962
		c1.236,2.589,3.363,4.477,5.169,6.622c0.936,1.111,2.252,2.617,0.259,3.682c-2.583,1.379-5.798,1.411-7.665,4.373
		c-0.459,0.729-1.813-0.973-1.414-1.772C302.303,130.903,299.395,127.038,299.923,123.055z"/>
	<path fill-rule="evenodd" clip-rule="evenodd" fill="#515151" d="M282.082,126.118c-1.051-1.643,0.464-4.853-3.049-4.989
		c2.63-0.364,5.421,0.338,7.873-1.194c1.474-0.277,3.185-1.563,4,0.943C287.965,122.625,285.023,124.372,282.082,126.118z"/>
	<path fill-rule="evenodd" clip-rule="evenodd" fill="#212223" d="M281.865,131.152c-0.545,1.92,1.469,4.985-2.395,5.146
		c-0.898,0.037-1.91,0.195-1.992-0.74C277.198,132.342,280.773,133.075,281.865,131.152z"/>
	<path fill-rule="evenodd" clip-rule="evenodd" fill="#171817" d="M298.642,130.181c-2.059-1.557-2.836-2.713-2.151-4.819
		C298.561,126.14,298.924,127.503,298.642,130.181z"/>
	<path fill-rule="evenodd" clip-rule="evenodd" fill="#292A2A" d="M290.882,118.899c1.264-1.104,2.814-1.321,4.695-1.555
		c0.177,2.043-1.062,2.473-2.525,2.708C292.17,119.966,291.357,119.75,290.882,118.899z"/>
	<path fill-rule="evenodd" clip-rule="evenodd" fill="#3D3E3E" d="M290.882,118.899c0.866,0.114,1.732,0.229,2.17,1.152
		c-0.56,0.68-1.267,0.974-2.145,0.827c-1.088-1.357-2.669-0.619-4-0.944C288.015,118.754,289.548,119.212,290.882,118.899z"/>
	<path fill-rule="evenodd" clip-rule="evenodd" fill="#3C3D3D" d="M313.013,158.055c0.196-2.602,2.075-2.03,3.861-2.391
		c-0.691,2.521-2.333,2.374-3.928,2.318C312.945,157.982,313.013,158.055,313.013,158.055z"/>
	<path fill-rule="evenodd" clip-rule="evenodd" fill="#474748" d="M308.929,161.729c0.289-1.751,1.256-2.729,3.094-2.716
		C311.222,160.181,310.442,161.373,308.929,161.729z"/>
	<path fill-rule="evenodd" clip-rule="evenodd" fill="#4F4F50" d="M271.018,387.965c-1.373-1.729-1.369-3.947-2.104-5.903
		c2.212-1.049,3.147-0.223,2.887,2.074C271.654,385.426,271.286,386.689,271.018,387.965z"/>
	<path fill-rule="evenodd" clip-rule="evenodd" fill="#383939" d="M306.829,118.987c-0.89-0.086-2.522-0.078-2.547-0.273
		c-0.152-1.21,0.934-0.558,1.492-0.666c0.395-0.076,0.854,0.18,1.284,0.288C306.982,118.553,306.905,118.771,306.829,118.987z"/>
</g>
</svg>
