<?xml version="1.0" encoding="utf-8"?>
<!-- Generator: Adobe Illustrator 16.0.0, SVG Export Plug-In . SVG Version: 6.00 Build 0)  -->
<!DOCTYPE svg PUBLIC "-//W3C//DTD SVG 1.1//EN" "http://www.w3.org/Graphics/SVG/1.1/DTD/svg11.dtd">
<svg version="1.1" id="Layer_1" xmlns="http://www.w3.org/2000/svg" xmlns:xlink="http://www.w3.org/1999/xlink" x="0px" y="0px"
	 width="300px" height="300px" viewBox="0 0 300 300" enable-background="new 0 0 300 300" xml:space="preserve">
<g id="Shotgun_1_">
	<g>
		<g>
			<path fill="none" d="M-29.903,293.549c0-95.575,0-191.15,0-286.726c113.418,0,226.836,0,340.254,0c0,95.575,0,191.15,0,286.726
				C196.934,293.549,83.515,293.549-29.903,293.549z M40.651,194.609c-0.845,1.591-1.811,3.092-2.654,4.665
				c-0.506,0.944-1.291,1.672-1.914,2.523c-1.493,2.043-2.916,4.138-4.424,6.17c-1.776,2.393-3.317,4.928-4.806,7.503
				c-1.017,1.759-1.899,3.589-2.868,5.373c-0.544,1.004-1.262,1.925-1.483,3.086c-0.021,0.112-0.081,0.226-0.15,0.317
				c-0.927,1.225-1.469,2.623-1.999,4.054c-0.5,1.35-1.068,2.68-1.544,4.038c-0.486,1.384-1.084,2.734-1.324,4.204
				c-0.097,0.596-0.291,1.202-0.8,1.635c-0.313,0.267-0.284,0.629-0.167,0.98c0.184,0.554,0.104,1.09-0.014,1.648
				c-0.396,1.867-0.919,3.705-1.154,5.609c-0.252,2.041-0.799,4.043-0.8,6.12c0,0.375-0.13,0.751-0.205,1.126
				c-0.19,0.951-0.435,1.894-0.438,2.873c-0.005,1.354-0.023,2.709-0.013,4.063c0.014,1.854-0.019,3.712,0.089,5.561
				c0.147,2.494,0.388,4.983,0.63,7.471c0.153,1.58,0.341,3.155,0.6,4.726c0.276,1.676,1.284,2.661,2.761,3.269
				c1.099,0.452,2.247,0.68,3.443,0.677c5.022-0.01,9.983-0.56,14.867-1.731c1.37-0.329,2.769-0.579,4.082-1.118
				c1.391-0.57,2.749-1.225,4.012-2.034c2.216-1.422,3.201-3.09,2.825-5.792c-0.281-2.012-0.178-4.05-0.551-6.057
				c-0.254-1.368,0.107-2.756,0.104-4.138c-0.004-2.206,0.193-4.388,0.501-6.577c0.404-2.862,1.17-5.648,1.594-8.501
				c0.316-2.125,1.15-4.12,1.488-6.239c0.256-1.606,0.885-3.12,1.511-4.601c0.651-1.539,1.212-3.116,1.921-4.629
				c0.333-0.709,0.681-1.434,1.531-1.723c0.23-0.079,0.423-0.313,0.596-0.51c0.41-0.462,0.8-0.941,1.194-1.418
				c0.975-1.179,1.849-2.435,2.905-3.553c2.868-3.035,8.103-3.507,11.517-1.123c1.013,0.708,1.99,1.468,2.985,2.201
				c3.778,2.787,7.873,3.236,12.199,1.546c3.167-1.237,6.077-2.966,8.854-4.922c3.605-2.539,6.827-5.499,9.695-8.842
				c1.271-1.48,2.368-3.076,2.978-4.964c0.679-2.104,0.886-4.261,0.723-6.452c-0.126-1.69-0.525-3.328-1.391-4.796
				c-1.966-3.335-4.855-5.37-8.697-6.02c-0.444-0.074-0.93-0.073-1.339-0.41c0.281-0.435,0.599-0.722,1.02-0.981
				c1.025-0.635,1.983-1.397,2.773-2.305c0.443-0.51,0.855-1.039,1.376-1.473c0.679-0.564,1.36-1.126,2.04-1.688
				c2.927-2.418,5.861-4.827,8.78-7.255c4.072-3.387,8.135-6.785,12.2-10.182c3.817-3.189,7.629-6.386,11.446-9.575
				c3.523-2.944,7.051-5.882,10.574-8.828c0.225-0.188,0.45-0.39,0.619-0.625c0.29-0.405,0.455-0.992,1.154-0.544
				c0.077,0.049,0.283-0.052,0.401-0.127c0.247-0.157,0.486-0.332,0.711-0.52c1.037-0.87,2.063-1.752,3.102-2.621
				c2.053-1.719,4.114-3.429,6.164-5.152c0.525-0.442,0.52-0.5,0.241-1.121c-0.045-0.101-0.216-0.198-0.06-0.346
				c1.016,0.998,1.016,0.998,2.083,0.012c0.021-0.02,0.042-0.042,0.063-0.062c3.347-3.099,6.691-6.199,10.039-9.296
				c2.138-1.977,4.285-3.942,6.417-5.925c1.443-1.343,2.854-2.721,4.304-4.056c2.338-2.15,4.709-4.265,7.044-6.419
				c1.838-1.695,3.633-3.438,5.465-5.14c2.306-2.141,4.638-4.254,6.946-6.393c1.511-1.4,2.994-2.83,4.5-4.236
				c3.246-3.033,6.502-6.056,9.746-9.091c1.419-1.327,2.771-2.726,4.236-3.999c2.288-1.989,4.427-4.136,6.724-6.116
				c2.34-2.016,4.454-4.278,6.731-6.367c2.517-2.307,4.944-4.709,7.446-7.032c2.89-2.683,5.812-5.331,8.609-8.112
				c2.767-2.75,5.006-5.852,6.391-9.525c0.876-2.325,1.517-4.718,1.578-7.208c0.035-1.464,0.359-2.919,0.104-4.401
				c-0.123-0.713,0.185-1.289,0.855-1.747c1.53-1.044,2.944-2.264,4.498-3.268c0.877-0.566,1.059-1.251,0.954-2.154
				c-0.026-0.233-0.062-0.466-0.108-0.696c-0.248-1.227-0.78-2.343-1.381-3.426c-1.132-2.044-2.555-3.876-4.137-5.587
				c-1.162-1.256-2.401-2.431-3.869-3.33c-0.825-0.505-1.674-0.747-2.517-0.003c-0.328,0.29-0.609,0.269-0.87-0.125
				c-0.362-0.548-0.877-0.612-1.479-0.429c-0.991,0.302-1.929,0.688-2.771,1.32c-5.504,4.139-10.973,8.323-16.418,12.539
				c-5.422,4.198-10.841,8.401-16.267,12.594c-4.588,3.546-9.185,7.081-13.778,10.619c-5.597,4.31-11.187,8.629-16.794,12.925
				c-5.163,3.955-10.338,7.895-15.524,11.819c-4.06,3.072-8.149,6.105-12.218,9.167c-5.95,4.478-11.906,8.948-17.833,13.456
				c-5.224,3.973-10.45,7.942-15.741,11.825c-2.68,1.967-5.36,3.931-8,5.951c-3.646,2.79-7.324,5.539-11,8.289
				c-5.774,4.32-11.563,8.62-17.33,12.949c-0.619,0.465-1.362,0.772-1.795,1.511c-0.2,0.342-0.733,0.474-0.873,0.943
				c-0.036,0.121-0.148,0.176-0.269,0.203c-0.639,0.141-1.069,0.597-1.507,1.026c-1.371,1.34-2.929,2.448-4.417,3.645
				c-0.596,0.479-1.319,0.625-1.96,0.969c-1.196,0.641-2.188,1.571-3.265,2.38c-0.187,0.14-0.346,0.321-0.501,0.497
				c-0.153,0.174-0.333,0.35-0.296,0.615c0.055,0.385-0.221,0.583-0.439,0.817c-1.564,1.686-3.007,3.467-4.248,5.407
				c-2.077,3.25-3.95,6.622-5.963,9.911c-1.514,2.472-3.587,4.073-6.337,4.88c-1.101,0.323-2.228,0.553-3.307,0.955
				c-0.845,0.314-1.578,0.782-2.206,1.423c-1.081,1.102-1.425,2.411-1.047,3.896c0.259,1.018,0.811,1.888,1.484,2.682
				c0.698,0.824,1.608,1.267,2.664,1.43c0.174,0.027,0.352,0.026,0.528,0.043c0.333,0.033,0.391,0.217,0.251,0.488
				c-0.206,0.401-0.554,0.684-0.856,1.004c-0.493,0.521-0.497,0.518-1.107,0.128c-0.49-0.312-0.594-0.303-0.961,0.116
				c-0.271,0.31-0.561,0.609-0.792,0.947c-1.424,2.079-3.375,3.511-5.641,4.521c-1.449,0.646-2.21,1.848-2.646,3.231
				c-0.663,2.1-1.457,4.094-2.971,5.745c-0.555,0.604-1.07,1.249-1.508,1.952c-0.243,0.39-0.004,0.599,0.238,0.822
				c0.271,0.25,0.517,0.219,0.751-0.066c0.393-0.477,0.794-0.946,1.195-1.417C39.521,195.928,40.086,195.269,40.651,194.609z"/>
			<path fill-rule="evenodd" clip-rule="evenodd" d="M40.651,194.609c-0.564,0.659-1.13,1.318-1.693,1.979
				c-0.401,0.471-0.802,0.94-1.195,1.417c-0.234,0.285-0.48,0.316-0.751,0.066c-0.243-0.224-0.481-0.433-0.238-0.822
				c0.438-0.703,0.953-1.348,1.508-1.952c1.514-1.651,2.309-3.646,2.971-5.745c0.437-1.384,1.197-2.585,2.646-3.231
				c2.265-1.011,4.217-2.442,5.641-4.521c0.231-0.338,0.521-0.638,0.792-0.947c0.368-0.419,0.472-0.428,0.961-0.116
				c0.611,0.39,0.614,0.393,1.107-0.128c0.302-0.32,0.65-0.603,0.856-1.004c0.14-0.271,0.083-0.455-0.251-0.488
				c-0.176-0.017-0.354-0.016-0.528-0.043c-1.055-0.163-1.965-0.605-2.664-1.43c-0.673-0.794-1.225-1.664-1.484-2.682
				c-0.378-1.485-0.034-2.795,1.047-3.896c0.628-0.641,1.361-1.108,2.206-1.423c1.08-0.402,2.207-0.632,3.307-0.955
				c2.75-0.807,4.823-2.408,6.337-4.88c2.014-3.289,3.886-6.661,5.963-9.911c1.24-1.94,2.684-3.721,4.248-5.407
				c0.218-0.234,0.494-0.433,0.439-0.817c-0.038-0.265,0.143-0.44,0.296-0.615c0.155-0.176,0.314-0.357,0.501-0.497
				c1.077-0.809,2.069-1.739,3.265-2.38c0.641-0.343,1.365-0.49,1.96-0.969c1.488-1.197,3.047-2.305,4.417-3.645
				c0.438-0.429,0.868-0.885,1.507-1.026c0.121-0.027,0.233-0.082,0.269-0.203c0.139-0.469,0.672-0.602,0.873-0.943
				c0.433-0.739,1.176-1.046,1.795-1.511c5.767-4.329,11.556-8.629,17.33-12.949c3.676-2.75,7.354-5.499,11-8.289
				c2.64-2.021,5.321-3.984,8-5.951c5.291-3.883,10.517-7.853,15.741-11.825c5.927-4.508,11.884-8.978,17.833-13.456
				c4.068-3.062,8.158-6.094,12.218-9.167c5.187-3.924,10.361-7.865,15.524-11.819c5.607-4.295,11.197-8.615,16.794-12.925
				c4.594-3.538,9.19-7.073,13.778-10.619c5.426-4.193,10.845-8.396,16.267-12.594c5.445-4.216,10.914-8.4,16.418-12.539
				c0.842-0.633,1.779-1.018,2.771-1.32c0.603-0.183,1.117-0.119,1.479,0.429c0.261,0.394,0.542,0.414,0.87,0.125
				c0.843-0.743,1.691-0.501,2.517,0.003c1.468,0.898,2.707,2.073,3.869,3.33c1.582,1.711,3.005,3.543,4.137,5.587
				c0.601,1.083,1.133,2.199,1.381,3.426c0.047,0.23,0.082,0.463,0.108,0.696c0.104,0.903-0.077,1.587-0.954,2.154
				c-1.554,1.004-2.968,2.223-4.498,3.268c-0.671,0.458-0.979,1.034-0.855,1.747c0.255,1.482-0.069,2.937-0.104,4.401
				c-0.062,2.489-0.702,4.882-1.578,7.208c-1.385,3.674-3.624,6.775-6.391,9.525c-2.797,2.781-5.72,5.429-8.609,8.112
				c-2.502,2.323-4.93,4.725-7.446,7.032c-2.277,2.089-4.392,4.351-6.731,6.367c-2.297,1.979-4.436,4.127-6.724,6.116
				c-1.465,1.272-2.817,2.672-4.236,3.999c-3.244,3.035-6.5,6.058-9.746,9.091c-1.506,1.406-2.989,2.836-4.5,4.236
				c-2.309,2.139-4.641,4.251-6.946,6.393c-1.832,1.701-3.627,3.444-5.465,5.14c-2.335,2.154-4.706,4.269-7.044,6.419
				c-1.45,1.334-2.86,2.713-4.304,4.056c-2.132,1.982-4.279,3.948-6.417,5.925c-3.348,3.097-6.692,6.197-10.039,9.296
				c-0.021,0.02-0.042,0.042-0.063,0.062c-1.067,0.986-1.067,0.986-2.083-0.012c-0.156,0.147,0.015,0.245,0.06,0.346
				c0.278,0.621,0.284,0.679-0.241,1.121c-2.05,1.723-4.111,3.433-6.164,5.152c-1.038,0.869-2.064,1.751-3.102,2.621
				c-0.225,0.188-0.464,0.363-0.711,0.52c-0.118,0.075-0.324,0.177-0.401,0.127c-0.699-0.448-0.864,0.139-1.154,0.544
				c-0.169,0.235-0.394,0.438-0.619,0.625c-3.522,2.945-7.051,5.883-10.574,8.828c-3.817,3.189-7.629,6.386-11.446,9.575
				c-4.064,3.396-8.127,6.795-12.2,10.182c-2.919,2.428-5.853,4.837-8.78,7.255c-0.68,0.562-1.361,1.124-2.04,1.688
				c-0.521,0.434-0.933,0.963-1.376,1.473c-0.79,0.907-1.748,1.67-2.773,2.305c-0.42,0.26-0.739,0.547-1.02,0.981
				c0.409,0.337,0.895,0.336,1.339,0.41c3.842,0.649,6.731,2.685,8.697,6.02c0.866,1.468,1.264,3.105,1.391,4.796
				c0.164,2.191-0.043,4.348-0.723,6.452c-0.61,1.888-1.706,3.483-2.978,4.964c-2.869,3.343-6.09,6.303-9.695,8.842
				c-2.777,1.956-5.687,3.685-8.854,4.922c-4.327,1.69-8.421,1.241-12.199-1.546c-0.995-0.733-1.972-1.493-2.985-2.201
				c-3.414-2.384-8.649-1.912-11.517,1.123c-1.056,1.118-1.93,2.374-2.905,3.553c-0.394,0.477-0.784,0.956-1.194,1.418
				c-0.173,0.196-0.366,0.431-0.596,0.51c-0.85,0.289-1.198,1.014-1.531,1.723c-0.709,1.513-1.271,3.09-1.921,4.629
				c-0.626,1.48-1.254,2.994-1.511,4.601c-0.338,2.119-1.172,4.114-1.488,6.239c-0.424,2.853-1.19,5.639-1.594,8.501
				c-0.309,2.189-0.506,4.371-0.501,6.577c0.003,1.382-0.358,2.77-0.104,4.138c0.373,2.007,0.27,4.045,0.551,6.057
				c0.376,2.702-0.608,4.37-2.825,5.792c-1.263,0.81-2.621,1.464-4.012,2.034c-1.313,0.539-2.712,0.789-4.082,1.118
				c-4.883,1.172-9.844,1.722-14.867,1.731c-1.196,0.003-2.345-0.225-3.443-0.677c-1.477-0.607-2.484-1.593-2.761-3.269
				c-0.259-1.57-0.446-3.146-0.6-4.726c-0.242-2.487-0.483-4.977-0.63-7.471c-0.108-1.849-0.076-3.707-0.089-5.561
				c-0.01-1.354,0.007-2.709,0.013-4.063c0.003-0.979,0.249-1.922,0.438-2.873c0.075-0.375,0.205-0.751,0.205-1.126
				c0.001-2.077,0.548-4.079,0.8-6.12c0.235-1.904,0.758-3.742,1.154-5.609c0.119-0.559,0.198-1.095,0.014-1.648
				c-0.117-0.352-0.146-0.714,0.167-0.98c0.509-0.433,0.703-1.039,0.8-1.635c0.239-1.47,0.838-2.82,1.324-4.204
				c0.476-1.358,1.044-2.688,1.544-4.038c0.53-1.431,1.072-2.829,1.999-4.054c0.069-0.092,0.128-0.205,0.15-0.317
				c0.221-1.161,0.938-2.082,1.483-3.086c0.968-1.784,1.851-3.614,2.868-5.373c1.488-2.575,3.03-5.11,4.806-7.503
				c1.508-2.032,2.931-4.127,4.424-6.17c0.623-0.852,1.408-1.579,1.914-2.523C38.84,197.701,39.806,196.2,40.651,194.609z
				 M103.22,210.257c-0.883,0.095-1.724,0.241-2.57,0.269c-3.769,0.123-6.89-1.331-9.412-4.067c-1.594-1.73-3.61-2.323-5.845-2.475
				c-0.479-0.032-0.752,0.177-0.976,0.587c-0.692,1.265-1.448,2.495-2.122,3.77c-1.25,2.365-1.616,4.839-0.738,7.421
				c0.676,1.989,1.861,3.592,3.66,4.716c0.424,0.266,0.837,0.537,1.057,1.029c0.299,0.67,0.314,0.664,1.019,0.383
				c0.164-0.065,0.327-0.135,0.488-0.206c5.872-2.608,10.886-6.405,15.289-11.046C103.147,210.555,103.24,210.474,103.22,210.257z
				 M107.368,203.171c0.056-0.933-0.137-1.816-0.465-2.679c-0.983-2.59-2.761-4.491-5.146-5.829
				c-2.295-1.287-4.786-1.591-7.349-1.179c-0.939,0.15-1.938,0.275-2.717,0.937c-1.121,0.952-2.213,1.938-3.454,2.737
				c-0.074,0.048-0.144,0.104-0.206,0.166c-0.273,0.269-0.301,0.562-0.061,0.864c0.26,0.326,0.586,0.577,0.942,0.789
				c0.891,0.533,1.491,1.286,1.866,2.263c1.896,4.938,6.916,7.803,12.205,7.178c0.575-0.067,1.155-0.266,1.737,0.004
				c0.268,0.124,0.452-0.061,0.604-0.243C106.54,206.728,107.495,205.166,107.368,203.171z M85.114,222.543
				c-0.557-0.334-1.073-0.599-1.542-0.931c-3.82-2.705-5.351-7.467-3.618-12.149c0.43-1.163,0.996-2.258,1.63-3.319
				c0.241-0.403,0.493-0.808,0.611-1.267c0.087-0.34-0.091-0.506-0.439-0.431c-0.2,0.043-0.392,0.126-0.582,0.203
				c-0.629,0.256-1.215,0.59-1.782,0.963c-0.4,0.265-0.854,0.512-1.317,0.242c-0.515-0.3-0.871-0.097-1.274,0.197
				c-0.501,0.364-0.976,0.756-1.438,1.166c-1.012,0.896-2.008,1.812-3.045,2.679c-0.362,0.303-0.591,0.638-0.693,1.081
				c-0.261,1.128-0.377,2.265-0.156,3.411c0.449,2.329,1.535,4.296,3.327,5.873c2.538,2.234,5.481,3.108,8.819,2.664
				C84.091,222.862,84.602,222.873,85.114,222.543z M70.479,211.494c-1.809,1.05-5.671,5.066-6.133,6.322
				c0.054,0.019,0.115,0.063,0.161,0.052c1.531-0.397,3.077-0.423,4.639-0.227c0.479,0.061,0.593-0.067,0.496-0.65
				c-0.164-0.977-0.058-1.934,0.097-2.895C69.875,213.253,70.14,212.443,70.479,211.494z M64.526,164.355
				c0.842-1.129,1.679-2.261,2.527-3.386c1.31-1.736,2.634-3.463,3.935-5.206c0.211-0.283,0.542-0.55,0.44-1.014
				C70.883,155.139,64.994,163.189,64.526,164.355z"/>
			<path fill-rule="evenodd" clip-rule="evenodd" fill="none" d="M103.22,210.257c0.021,0.217-0.072,0.298-0.15,0.38
				c-4.403,4.641-9.417,8.438-15.289,11.046c-0.162,0.071-0.324,0.141-0.488,0.206c-0.705,0.281-0.72,0.287-1.019-0.383
				c-0.219-0.492-0.632-0.764-1.057-1.029c-1.799-1.124-2.983-2.727-3.66-4.716c-0.877-2.582-0.512-5.056,0.738-7.421
				c0.674-1.274,1.43-2.505,2.122-3.77c0.224-0.41,0.498-0.619,0.976-0.587c2.235,0.151,4.251,0.744,5.845,2.475
				c2.521,2.736,5.643,4.19,9.412,4.067C101.496,210.498,102.337,210.352,103.22,210.257z"/>
			<path fill-rule="evenodd" clip-rule="evenodd" fill="none" d="M107.368,203.171c0.126,1.995-0.828,3.557-2.044,5.008
				c-0.152,0.183-0.336,0.367-0.604,0.243c-0.582-0.27-1.162-0.071-1.737-0.004c-5.29,0.625-10.309-2.24-12.205-7.178
				c-0.375-0.977-0.975-1.729-1.866-2.263c-0.356-0.212-0.682-0.463-0.942-0.789c-0.24-0.303-0.212-0.596,0.061-0.864
				c0.062-0.062,0.132-0.118,0.206-0.166c1.241-0.8,2.333-1.785,3.454-2.737c0.779-0.661,1.778-0.786,2.717-0.937
				c2.563-0.412,5.053-0.108,7.349,1.179c2.386,1.338,4.163,3.239,5.146,5.829C107.231,201.354,107.424,202.238,107.368,203.171z"/>
			<path fill-rule="evenodd" clip-rule="evenodd" fill="none" d="M85.114,222.543c-0.512,0.33-1.022,0.319-1.5,0.383
				c-3.338,0.444-6.281-0.43-8.819-2.664c-1.792-1.577-2.878-3.544-3.327-5.873c-0.221-1.146-0.104-2.283,0.156-3.411
				c0.103-0.443,0.332-0.778,0.693-1.081c1.037-0.867,2.033-1.782,3.045-2.679c0.462-0.41,0.938-0.802,1.438-1.166
				c0.404-0.294,0.759-0.497,1.274-0.197c0.464,0.27,0.917,0.022,1.317-0.242c0.567-0.373,1.153-0.707,1.782-0.963
				c0.19-0.077,0.382-0.16,0.582-0.203c0.348-0.075,0.526,0.091,0.439,0.431c-0.118,0.459-0.37,0.863-0.611,1.267
				c-0.634,1.062-1.2,2.156-1.63,3.319c-1.733,4.683-0.202,9.444,3.618,12.149C84.041,221.944,84.557,222.209,85.114,222.543z"/>
			<path fill-rule="evenodd" clip-rule="evenodd" fill="none" d="M70.479,211.494c-0.339,0.949-0.604,1.759-0.741,2.603
				c-0.155,0.961-0.261,1.918-0.097,2.895c0.098,0.583-0.016,0.711-0.496,0.65c-1.562-0.196-3.108-0.171-4.639,0.227
				c-0.046,0.012-0.107-0.033-0.161-0.052C64.808,216.561,68.67,212.544,70.479,211.494z"/>
			<path fill-rule="evenodd" clip-rule="evenodd" fill="none" d="M64.526,164.355c0.468-1.166,6.356-9.217,6.902-9.605
				c0.102,0.464-0.229,0.73-0.44,1.014c-1.301,1.743-2.625,3.47-3.935,5.206C66.206,162.095,65.368,163.227,64.526,164.355z"/>
		</g>
	</g>
</g>
</svg>
