<?xml version="1.0" encoding="utf-8"?>
<!-- Generator: Adobe Illustrator 16.0.0, SVG Export Plug-In . SVG Version: 6.00 Build 0)  -->
<!DOCTYPE svg PUBLIC "-//W3C//DTD SVG 1.1//EN" "http://www.w3.org/Graphics/SVG/1.1/DTD/svg11.dtd">
<svg version="1.1" id="Layer_1" xmlns="http://www.w3.org/2000/svg" xmlns:xlink="http://www.w3.org/1999/xlink" x="0px" y="0px"
	 width="4px" height="2px" viewBox="0 0 4 2" enable-background="new 0 0 4 2" xml:space="preserve">
<g id="XMLID_1_">
	<g>
		<path fill="#FFFFFF" d="M-1022.611-879.531h2.664c-8.149,2.408-16.297,4.761-24.448,7.035c-0.05-0.22-0.135-0.445-0.262-0.673
			C-1037.309-875.233-1029.959-877.359-1022.611-879.531z"/>
		<path fill="#FFFFFF" d="M-1049.213-871.161c-0.048,0.014-0.096,0.026-0.143,0.04v-0.323
			C-1049.308-871.344-1049.26-871.25-1049.213-871.161z"/>
	</g>
	<g>
	</g>
</g>
<g id="XMLID_2_">
	<g>
		<path fill="#FFFFFF" d="M-861.56-879.532h2.664c-17.947,5.304-35.893,10.344-53.84,14.85c-9.588,2.449-19.175,4.697-28.763,6.621
			c-0.01-0.175-0.037-0.35-0.081-0.524c8.728-1.804,17.455-3.867,26.18-6.097C-897.452-869.188-879.505-874.229-861.56-879.532z"/>
	</g>
	<g>
	</g>
</g>
<g id="XMLID_3_">
	<g>
		<path fill="#FFFFFF" d="M-993.816-776.378c10.566-0.072,21.135-1.625,31.703-3.18c15.572-2.384,31.145-5.834,46.714-9.812
			c17.947-4.508,35.894-9.548,53.84-14.852h2.664c-17.947,5.303-35.893,10.344-53.84,14.852
			c-15.572,3.977-31.145,7.427-46.717,9.812c-10.82,1.593-21.64,3.183-32.461,3.183
			C-992.541-776.375-993.176-776.375-993.816-776.378z"/>
		<path fill="#FFFFFF" d="M-893.863-849.524c-1.163,0.145-2.347,0.299-3.564,0.488c-4.751,0.531-9.501,1.593-14.254,2.652
			c-5.807,1.327-11.61,2.919-17.417,4.508c-7.391,2.122-14.781,4.772-21.907,7.427c-15.309,5.568-29.56,13.256-42.757,22.807
			c-5.015,3.448-9.501,6.895-13.988,10.871c-3.167,2.653-6.07,5.834-8.182,9.545c-1.319,2.388-1.846,4.777-0.789,7.427
			c1.054,2.917,5.012,4.772,7.917,5.568c4.68,1.647,9.983,1.833,14.988,1.854c-0.254,0.001-0.506,0.003-0.76,0.003
			c-5.542,0-11.613,0-16.89-1.856c-2.905-0.795-6.864-2.651-7.92-5.568c-1.054-2.65-0.527-5.039,0.792-7.427
			c2.113-3.711,5.015-6.892,8.182-9.545c4.488-3.976,8.973-7.423,13.988-10.871c13.197-9.551,27.448-17.238,42.756-22.807
			c7.127-2.655,14.517-5.305,21.908-7.427c5.804-1.589,11.61-3.181,17.417-4.508c4.75-1.059,9.501-2.121,14.253-2.652
			c2.144-0.333,4.185-0.559,6.187-0.813L-893.863-849.524z"/>
	</g>
	<g>
	</g>
</g>
<g id="XMLID_4_">
	<g>
		<path fill="#FFFFFF" d="M-1123.165-779.558c15.571-2.384,31.144-5.834,46.714-9.812c17.947-4.508,35.894-9.548,53.839-14.852
			h2.664c-17.947,5.303-35.893,10.344-53.84,14.852c-15.571,3.977-31.144,7.427-46.717,9.812c-10.82,1.593-21.64,3.183-32.462,3.183
			c-0.627,0-1.263,0-1.902-0.003C-1144.302-776.45-1133.733-778.002-1123.165-779.558z"/>
		<path fill="#FFFFFF" d="M-1155.628-776.375c-5.542,0-11.614,0-16.891-1.856c-2.905-0.795-6.863-2.651-7.92-5.568
			c-1.054-2.65-0.527-5.039,0.792-7.427c2.114-3.711,5.015-6.892,8.183-9.545c4.488-3.976,8.973-7.423,13.987-10.871
			c13.197-9.551,27.449-17.238,42.756-22.807c6-2.235,12.188-4.467,18.404-6.383c1.223,0.058,2.255,0.052,3.169-0.391
			c0.043,0.065,0.087,0.13,0.131,0.195c-6.431,1.959-12.836,4.268-19.041,6.579c-15.31,5.568-29.561,13.256-42.758,22.807
			c-5.015,3.448-9.501,6.895-13.987,10.871c-3.168,2.653-6.07,5.834-8.183,9.545c-1.319,2.388-1.846,4.777-0.789,7.427
			c1.054,2.917,5.012,4.772,7.917,5.568c4.68,1.647,9.983,1.833,14.988,1.854C-1155.122-776.376-1155.375-776.375-1155.628-776.375z
			"/>
	</g>
	<g>
	</g>
</g>
<g id="XMLID_5_">
	<g>
		<path fill="#FFFFFF" d="M-476.295-854.87c-10.82,1.593-21.64,3.183-32.461,3.183c-0.627,0-1.263,0-1.902-0.003
			c10.565-0.071,21.135-1.624,31.703-3.18c15.571-2.384,31.144-5.834,46.714-9.812c17.947-4.508,35.894-9.548,53.84-14.852h2.662
			c-17.947,5.304-35.891,10.344-53.838,14.852C-445.15-860.704-460.723-857.254-476.295-854.87z"/>
		<path fill="#FFFFFF" d="M-511.419-851.687c-5.542,0-11.613,0-16.89-1.856c-2.906-0.796-6.864-2.652-7.92-5.568
			c-1.054-2.65-0.527-5.039,0.792-7.427c2.113-3.711,5.015-6.892,8.182-9.545c4.488-3.976,8.973-7.423,13.988-10.871
			c5.354-3.874,10.879-7.441,16.58-10.684c0.014,0.506,0.027,1.015,0.039,1.522c-4.776,2.828-9.429,5.885-13.956,9.162
			c-5.016,3.448-9.501,6.895-13.988,10.871c-3.167,2.653-6.07,5.834-8.182,9.545c-1.319,2.388-1.846,4.777-0.79,7.427
			c1.054,2.917,5.011,4.772,7.917,5.568c4.679,1.646,9.983,1.833,14.988,1.853C-510.913-851.688-511.166-851.687-511.419-851.687z"
			/>
	</g>
	<g>
	</g>
</g>
<g id="XMLID_6_">
	<g>
		<path fill="#FFFFFF" d="M-672.472-851.687c-5.542,0-11.613,0-16.89-1.856c-2.905-0.796-6.863-2.652-7.92-5.568
			c-1.054-2.65-0.527-5.039,0.792-7.427c2.114-3.711,5.015-6.892,8.183-9.545c1.724-1.526,3.446-2.973,5.199-4.374
			c0.266,0.5,0.544,0.997,0.829,1.491c-1.126,0.934-2.247,1.892-3.365,2.883c-3.167,2.653-6.07,5.834-8.182,9.545
			c-1.319,2.388-1.846,4.777-0.789,7.427c1.054,2.917,5.012,4.772,7.917,5.568c4.68,1.646,9.983,1.833,14.988,1.853
			C-671.965-851.688-672.218-851.687-672.472-851.687z"/>
		<path fill="#FFFFFF" d="M-637.347-854.87c-10.82,1.593-21.641,3.183-32.462,3.183c-0.627,0-1.263,0-1.902-0.003
			c10.566-0.071,21.135-1.624,31.703-3.18c15.571-2.384,31.144-5.834,46.712-9.812c17.947-4.508,35.895-9.548,53.841-14.852h2.664
			c-17.947,5.304-35.893,10.344-53.84,14.852C-606.202-860.704-621.774-857.254-637.347-854.87z"/>
	</g>
	<g>
	</g>
</g>
<g id="XMLID_7_">
	<g>
		<path fill="#FFFFFF" d="M-801.061-854.87c15.571-2.384,31.144-5.834,46.714-9.811c17.947-4.508,35.894-9.548,53.84-14.852h2.664
			c-17.947,5.303-35.893,10.343-53.84,14.852c-15.571,3.977-31.144,7.427-46.717,9.811c-10.82,1.593-21.64,3.183-32.462,3.183
			c-0.612,0-1.229,0-1.853-0.003C-822.165-851.767-811.612-853.317-801.061-854.87z"/>
		<path fill="#FFFFFF" d="M-832.714-851.69c-0.271,0.001-0.54,0.003-0.81,0.003c-0.033,0-0.064,0-0.098,0
			c0-0.003,0.001-0.006,0.003-0.008C-833.317-851.693-833.015-851.691-832.714-851.69z"/>
	</g>
	<g>
	</g>
</g>
<g id="XMLID_8_" opacity="0.7">
	<g>
		<path fill="#FFFFFF" d="M-832.763-775.431c10.567-0.072,21.135-1.625,31.703-3.18c15.57-2.384,31.143-5.834,46.714-9.811
			c17.947-4.509,35.894-9.548,53.838-14.852h2.665c-17.947,5.303-35.894,10.342-53.841,14.852
			c-15.57,3.977-31.143,7.427-46.717,9.811c-10.818,1.593-21.64,3.183-32.46,3.183C-831.49-775.428-832.124-775.428-832.763-775.431
			z"/>
		<path fill="#FFFFFF" d="M-847.751-777.284c4.679,1.645,9.983,1.833,14.988,1.854c-0.254,0.001-0.508,0.003-0.762,0.003
			c-5.542,0-11.612,0-16.889-1.856c-2.906-0.795-6.864-2.652-7.92-5.568c-1.055-2.65-0.527-5.039,0.792-7.427
			c2.113-3.71,5.015-6.892,8.182-9.545c4.488-3.977,8.973-7.423,13.986-10.871c13.197-9.551,27.45-17.239,42.758-22.807
			c7.125-2.654,14.516-5.306,21.906-7.427c5.805-1.589,11.612-3.183,17.418-4.508c4.75-1.059,9.501-2.121,14.253-2.651
			c2.144-0.333,4.186-0.559,6.188-0.814l0.04,0.326c-1.162,0.145-2.347,0.299-3.564,0.488c-4.751,0.531-9.502,1.593-14.254,2.651
			c-5.807,1.325-11.61,2.919-17.417,4.508c-7.391,2.121-14.781,4.772-21.908,7.427c-15.308,5.568-29.559,13.256-42.756,22.807
			c-5.015,3.447-9.503,6.894-13.988,10.871c-3.167,2.653-6.072,5.834-8.182,9.545c-1.319,2.389-1.846,4.777-0.79,7.427
			C-854.615-779.936-850.657-778.08-847.751-777.284z"/>
	</g>
	<g>
	</g>
</g>
<g id="XMLID_9_" opacity="0.4">
	<g>
		<path fill="#FFFFFF" d="M-640.009-778.61c15.57-2.384,31.143-5.834,46.714-9.812c17.947-4.509,35.894-9.548,53.838-14.852h2.665
			c-17.947,5.304-35.894,10.342-53.841,14.852c-15.57,3.977-31.143,7.427-46.717,9.812c-10.818,1.593-21.64,3.183-32.46,3.183
			c-0.629,0-1.263,0-1.902-0.003C-661.144-775.502-650.576-777.055-640.009-778.61z"/>
		<path fill="#FFFFFF" d="M-674.322-810.695c13.197-9.551,27.45-17.239,42.758-22.807c7.125-2.654,14.516-5.306,21.906-7.427
			c5.805-1.588,11.612-3.183,17.418-4.508c4.75-1.059,9.501-2.121,14.253-2.652c2.144-0.332,4.186-0.559,6.188-0.813l0.04,0.326
			c-1.163,0.145-2.347,0.299-3.564,0.488c-4.751,0.531-9.502,1.593-14.254,2.652c-5.807,1.325-11.61,2.919-17.417,4.508
			c-7.391,2.121-14.781,4.773-21.908,7.427c-15.308,5.568-29.559,13.256-42.756,22.807c-5.015,3.447-9.503,6.894-13.988,10.87
			c-3.167,2.653-6.071,5.834-8.182,9.545c-1.319,2.389-1.846,4.777-0.789,7.427c1.054,2.917,5.012,4.772,7.917,5.568
			c4.679,1.645,9.983,1.833,14.988,1.853c-0.254,0.001-0.508,0.003-0.762,0.003c-5.542,0-11.612,0-16.889-1.856
			c-2.906-0.796-6.864-2.652-7.92-5.568c-1.055-2.65-0.527-5.039,0.792-7.427c2.113-3.711,5.015-6.892,8.182-9.545
			C-683.82-803.801-679.335-807.248-674.322-810.695z"/>
	</g>
	<g>
	</g>
</g>
<g id="XMLID_10_" opacity="0.1">
	<g>
		<path fill="#FFFFFF" d="M-476.296-778.61c-10.819,1.593-21.642,3.183-32.462,3.183c-0.628,0-1.263,0-1.902-0.003
			c10.566-0.072,21.136-1.625,31.703-3.18c15.57-2.384,31.144-5.834,46.714-9.812c17.947-4.509,35.895-9.548,53.84-14.852h2.664
			c-17.947,5.303-35.894,10.342-53.841,14.852C-445.15-784.444-460.723-780.994-476.296-778.61z"/>
		<path fill="#FFFFFF" d="M-467.849-833.501c-15.31,5.568-29.561,13.256-42.758,22.807c-5.015,3.448-9.501,6.894-13.986,10.871
			c-3.167,2.653-6.073,5.834-8.182,9.545c-1.32,2.388-1.847,4.777-0.791,7.427c1.055,2.917,5.013,4.772,7.917,5.568
			c4.679,1.646,9.983,1.833,14.988,1.854c-0.254,0.001-0.507,0.003-0.761,0.003c-5.543,0-11.613,0-16.89-1.856
			c-2.905-0.795-6.863-2.651-7.92-5.568c-1.056-2.65-0.527-5.039,0.792-7.427c2.114-3.711,5.015-6.892,8.183-9.545
			c4.488-3.977,8.973-7.423,13.987-10.871c13.197-9.551,27.448-17.238,42.758-22.807c7.124-2.655,14.516-5.307,21.905-7.427
			c5.806-1.589,11.612-3.183,17.419-4.508c4.75-1.059,9.502-2.121,14.254-2.652c2.145-0.333,4.186-0.559,6.187-0.813l0.04,0.325
			c-1.163,0.145-2.347,0.299-3.564,0.488c-4.751,0.531-9.501,1.593-14.253,2.652c-5.808,1.325-11.612,2.919-17.418,4.508
			C-453.333-838.808-460.723-836.156-467.849-833.501z"/>
	</g>
	<g>
	</g>
</g>
</svg>
