<?xml version="1.0" encoding="utf-8"?>
<!-- Generator: Adobe Illustrator 16.0.0, SVG Export Plug-In . SVG Version: 6.00 Build 0)  -->
<!DOCTYPE svg PUBLIC "-//W3C//DTD SVG 1.1//EN" "http://www.w3.org/Graphics/SVG/1.1/DTD/svg11.dtd">
<svg version="1.1" id="Layer_1" xmlns="http://www.w3.org/2000/svg" xmlns:xlink="http://www.w3.org/1999/xlink" x="0px" y="0px"
	 width="2002.232px" height="4232.713px" viewBox="0 0 2002.232 4232.713" enable-background="new 0 0 2002.232 4232.713"
	 xml:space="preserve">
<g id="XMLID_7_">
	<g>
		<path d="M168.109,691.965c-10.193-6.921-21.211-12.61-31.593-18.165c0.511-0.553,1.021-1.085,1.531-1.628
			c2.559,1.534,5.125,3.079,7.69,4.656c11.535,6.264,24.119,12.538,35.655,20.367L168.109,691.965z"/>
	</g>
	<g>
	</g>
</g>
<g id="XMLID_1_">
	<g>
		<path d="M641.464,676.831c11.535,6.264,24.119,12.538,35.655,20.368l-13.283-5.23c-11.535-7.83-24.12-14.083-35.655-20.348
			c-17.828-10.972-35.655-20.367-52.434-36.017c-8.061-9.03-17.093-16.631-24.301-26.935c2.412-1.389,4.824-2.798,7.236-4.176
			c1.699,2.787,3.418,5.502,5.18,8.133c7.341,10.972,16.779,18.802,25.168,28.187C605.809,656.484,623.636,665.879,641.464,676.831z
			"/>
	</g>
	<g>
	</g>
</g>
<g id="XMLID_2_">
	<g>
		<path d="M1182.256,697.202l-13.282-5.23c-11.536-7.83-24.12-14.083-35.655-20.348c-17.827-10.972-35.655-20.367-52.434-36.017
			c-8.39-9.396-17.827-17.236-25.175-28.188c-10.48-15.67-19.911-34.451-27.252-53.253c-1.601-3.727-3.132-7.517-4.601-11.369
			c3.272-1.44,6.558-2.86,9.851-4.259c2.454,7.141,5.132,14.114,8.033,20.848c7.341,18.803,16.771,37.594,27.252,53.243
			c7.348,10.972,16.785,18.802,25.175,28.187c16.778,15.671,34.606,25.066,52.434,36.018
			C1158.137,683.097,1170.721,689.372,1182.256,697.202z"/>
	</g>
	<g>
	</g>
</g>
<g id="XMLID_3_">
	<g>
		<path d="M1515.865,485.1c4.565,26.267,11.809,51.551,21.603,74.289c7.341,18.802,16.772,37.594,27.259,53.242
			c7.341,10.973,16.779,18.802,25.168,28.188c16.779,15.67,34.606,25.065,52.434,36.017c11.528,6.265,24.113,12.538,35.655,20.368
			l-13.283-5.23c-11.542-7.829-24.126-14.083-35.655-20.347c-17.827-10.973-35.654-20.368-52.434-36.017
			c-8.389-9.396-17.827-17.236-25.168-28.188c-10.486-15.67-19.918-34.451-27.259-53.253c-9.095-21.12-15.988-44.421-20.581-68.673
			C1507.693,485.486,1511.775,485.351,1515.865,485.1z"/>
	</g>
	<g>
	</g>
</g>
<g id="XMLID_8_">
	<g>
		<path d="M172.818,1399.915c-11.535-7.83-24.119-14.084-35.655-20.348c-17.827-10.972-35.655-20.367-52.434-36.017
			c-8.389-9.396-17.827-17.236-25.168-28.188c-10.487-15.67-19.918-34.451-27.259-53.253
			c-15.08-35.025-24.133-76.043-26.629-117.488c4.32-0.251,8.641-0.533,12.961-0.856c1.943,43.492,11.13,86.827,26.951,123.564
			c7.341,18.802,16.772,37.594,27.259,53.243c7.341,10.972,16.779,18.802,25.168,28.187c16.779,15.67,34.606,25.066,52.434,36.018
			c11.536,6.264,24.12,12.538,35.655,20.367L172.818,1399.915z"/>
	</g>
	<g>
	</g>
</g>
<g id="XMLID_6_">
	<g>
		<path d="M646.172,1384.779c11.536,6.264,24.12,12.538,35.655,20.368l-13.283-5.23c-11.536-7.83-24.12-14.083-35.655-20.347
			c-17.827-10.973-35.655-20.368-52.434-36.018c-8.389-9.396-17.827-17.235-25.168-28.188c-10.487-15.67-19.918-34.45-27.258-53.253
			c-18.876-43.836-28.314-97.068-27.266-148.755c0.224-12.434,1.125-24.722,2.601-36.842c4.747-0.522,9.48-1.097,14.192-1.691
			c-2.006,14.344-3.244,28.949-3.509,43.753c-1.049,51.687,8.389,104.919,27.266,148.755c7.34,18.812,16.771,37.594,27.258,53.243
			c7.341,10.972,16.779,18.802,25.168,28.188C610.518,1364.432,628.345,1373.828,646.172,1384.779z"/>
	</g>
	<g>
	</g>
</g>
<g id="XMLID_5_">
	<g>
		<path d="M1173.682,1399.919c-11.535-7.83-24.119-14.083-35.654-20.347c-17.828-10.973-35.655-20.368-52.434-36.018
			c-8.39-9.396-17.828-17.235-25.176-28.188c-10.479-15.67-19.91-34.45-27.251-53.253c-18.876-43.836-28.314-97.068-27.266-148.755
			c0.594-32.906,5.922-64.811,14.073-95.127c4.984-0.209,9.962-0.449,14.912-0.647c-9.054,32.061-15.066,65.958-15.702,100.994
			c-1.049,51.687,8.39,104.919,27.266,148.755c7.341,18.812,16.771,37.594,27.251,53.243c7.348,10.972,16.786,18.802,25.176,28.188
			c16.778,15.67,34.605,25.065,52.434,36.017c11.535,6.264,24.119,12.538,35.654,20.368L1173.682,1399.919z"/>
	</g>
	<g>
	</g>
</g>
<g id="XMLID_4_">
	<g>
		<path d="M1647.037,1384.785c11.528,6.264,24.112,12.538,35.655,20.367l-13.283-5.23c-11.543-7.829-24.127-14.083-35.655-20.347
			c-17.827-10.972-35.654-20.368-52.434-36.007c-8.39-9.406-17.827-17.246-25.168-28.197c-10.486-15.67-19.918-34.451-27.259-53.253
			c-18.876-43.837-28.313-97.068-27.266-148.756c0.916-50.528,12.997-98.687,29.293-142.366c4.209,2.422,8.312,5.063,12.298,7.902
			c-15.793,42.971-27.412,90.189-28.308,139.684c-1.048,51.688,8.39,104.92,27.266,148.756
			c7.341,18.802,16.772,37.604,27.259,53.242c7.341,10.973,16.778,18.803,25.168,28.188
			C1611.382,1364.437,1629.209,1373.833,1647.037,1384.785z"/>
	</g>
	<g>
	</g>
</g>
<g id="XMLID_12_">
	<g>
		<path d="M149.585,2090.732c11.536,6.264,24.12,12.538,35.655,20.368l-13.283-5.23c-11.536-7.83-24.12-14.083-35.655-20.348
			c-17.827-10.972-35.655-20.367-52.434-36.017c-8.389-9.396-17.827-17.236-25.168-28.188
			c-10.487-15.67-19.918-34.451-27.259-53.253c-18.876-43.836-28.314-97.068-27.265-148.755
			c1.021-56.375,15.954-109.806,35.116-157.358c4.426,1.765,8.872,3.456,13.346,5.074c-19.198,47.584-34.159,101.066-35.179,157.504
			c-1.049,51.687,8.389,104.919,27.265,148.755c7.341,18.803,16.772,37.594,27.259,53.243c7.341,10.972,16.779,18.802,25.168,28.187
			C113.93,2070.385,131.758,2079.781,149.585,2090.732z"/>
	</g>
	<g>
	</g>
</g>
<g id="XMLID_11_">
	<g>
		<path d="M667.683,2105.872c-11.536-7.83-24.12-14.083-35.655-20.347c-17.827-10.973-35.655-20.368-52.434-36.018
			c-8.389-9.396-17.827-17.235-25.168-28.187c-10.487-15.67-19.918-34.451-27.258-53.253
			c-18.876-43.837-28.314-97.069-27.266-148.756c1.049-57.93,16.779-112.749,36.704-161.272
			c7.991-20.39,17.261-39.682,27.552-57.753c3.727,2.954,7.523,5.825,11.382,8.592c-9.536,17.101-18.156,35.255-25.65,54.381
			c-19.925,48.523-35.655,103.343-36.704,161.272c-1.049,51.688,8.389,104.919,27.266,148.756
			c7.34,18.802,16.771,37.593,27.258,53.242c7.341,10.973,16.779,18.802,25.168,28.188c16.779,15.67,34.606,25.065,52.434,36.017
			c11.536,6.264,24.12,12.538,35.655,20.368L667.683,2105.872z"/>
	</g>
	<g>
	</g>
</g>
<g id="XMLID_10_">
	<g>
		<path d="M1098.016,2054.72c16.778,15.67,34.605,25.065,52.434,36.017c11.535,6.264,24.119,12.538,35.654,20.368l-13.283-5.23
			c-11.535-7.83-24.119-14.083-35.654-20.347c-17.828-10.973-35.655-20.368-52.434-36.018c-8.39-9.396-17.828-17.235-25.176-28.187
			c-10.479-15.67-19.91-34.451-27.251-53.253c-18.876-43.837-28.314-97.069-27.266-148.756
			c1.049-57.93,16.778-112.749,36.703-161.272c16.437-41.937,38.242-79.207,63.375-110.912c4.503,1.785,9.082,3.372,13.703,4.688
			c-25.309,31.831-47.268,69.268-63.795,111.444c-19.925,48.523-35.654,103.343-36.703,161.272
			c-1.049,51.688,8.39,104.919,27.266,148.756c7.341,18.802,16.771,37.593,27.251,53.242
			C1080.188,2037.505,1089.626,2045.334,1098.016,2054.72z"/>
	</g>
	<g>
	</g>
</g>
<g id="XMLID_9_">
	<g>
		<path d="M1632.892,2085.53c-17.827-10.972-35.654-20.367-52.434-36.017c-8.39-9.396-17.827-17.236-25.168-28.188
			c-10.486-15.67-19.918-34.451-27.259-53.253c-18.876-43.836-28.313-97.068-27.266-148.756
			c1.049-57.93,16.779-112.749,36.704-161.272c25.161-64.204,62.913-117.457,105.909-156.596c2.411-2.244,4.845-4.437,7.299-6.588
			c-0.497,6.441-1.147,12.883-2.007,19.293c-39.668,38.345-74.33,88.904-97.918,149.11
			c-19.925,48.524-35.655,103.343-36.704,161.273c-1.048,51.687,8.39,104.919,27.266,148.755
			c7.341,18.802,16.772,37.594,27.259,53.243c7.341,10.972,16.778,18.802,25.168,28.187c16.779,15.67,34.606,25.066,52.434,36.018
			c11.528,6.264,24.112,12.538,35.655,20.367l-13.283-5.229C1657.004,2098.047,1644.42,2091.793,1632.892,2085.53z"/>
	</g>
	<g>
	</g>
</g>
<g id="XMLID_16_">
	<g>
		<path d="M102.722,2761.917c16.779,15.67,34.606,25.065,52.434,36.018c11.536,6.264,24.12,12.538,35.655,20.367l-13.283-5.23
			c-11.536-7.829-24.12-14.083-35.655-20.347c-17.827-10.972-35.655-20.368-52.434-36.017c-8.389-9.396-17.827-17.236-25.168-28.188
			c-10.487-15.67-19.918-34.451-27.258-53.253c-18.876-43.837-28.314-97.068-27.266-148.756
			c1.048-57.93,16.779-112.749,36.704-161.272c25.161-64.204,62.913-117.457,105.909-156.596
			c24.833-23.072,51.693-41.373,79.678-55.132c-0.356,4.29-0.79,8.57-1.3,12.851c-22.742,12.674-44.61,28.459-65.095,47.49
			c-42.996,39.149-80.748,92.392-105.909,156.606c-19.925,48.523-35.655,103.343-36.704,161.272
			c-1.049,51.688,8.389,104.92,27.265,148.756c7.341,18.802,16.772,37.594,27.259,53.242
			C84.895,2744.702,94.333,2752.532,102.722,2761.917z"/>
	</g>
	<g>
	</g>
</g>
<g id="XMLID_15_">
	<g>
		<path d="M637.598,2792.726c-17.827-10.972-35.655-20.367-52.434-36.017c-8.389-9.396-17.827-17.236-25.168-28.188
			c-10.487-15.67-19.918-34.451-27.258-53.253c-18.876-43.836-28.314-97.068-27.266-148.755
			c1.049-57.931,16.779-112.749,36.704-161.273c25.161-64.204,62.913-117.457,105.909-156.596
			c47.184-43.847,101.714-70.457,157.294-81.419c4.803-0.961,9.641-1.807,14.486-2.537c-1.538,2.85-3.076,5.7-4.719,8.467
			c-54.363,11.369-107.587,37.792-153.777,80.699c-42.996,39.148-80.748,92.392-105.909,156.605
			c-19.925,48.524-35.655,103.343-36.704,161.273c-1.049,51.687,8.389,104.919,27.266,148.755
			c7.34,18.803,16.771,37.594,27.258,53.243c7.341,10.972,16.779,18.802,25.168,28.187c16.779,15.671,34.606,25.066,52.434,36.018
			c11.536,6.264,24.12,12.538,35.655,20.368l-13.283-5.23C661.718,2805.244,649.134,2798.991,637.598,2792.726z"/>
	</g>
	<g>
	</g>
</g>
<g id="XMLID_14_">
	<g>
		<path d="M1178.391,2813.077c-11.535-7.83-24.119-14.083-35.654-20.348c-17.828-10.972-35.655-20.367-52.434-36.017
			c-8.39-9.396-17.828-17.236-25.176-28.188c-10.479-15.67-19.91-34.451-27.251-53.253c-18.876-43.836-28.314-97.068-27.266-148.755
			c1.049-57.931,16.778-112.749,36.703-161.273c25.161-64.204,62.914-117.457,105.909-156.596
			c47.184-43.847,101.707-70.457,157.294-81.419c29.454-5.867,59.83-7.61,90.27-3.946c-0.293,1.294-0.594,2.589-0.888,3.894
			c-25.679-1.701-51.217,0.313-76.099,5.272c-55.587,10.951-110.11,37.572-157.294,81.409
			c-42.995,39.148-80.748,92.392-105.909,156.605c-19.925,48.524-35.654,103.343-36.703,161.273
			c-1.049,51.687,8.39,104.919,27.266,148.755c7.341,18.803,16.771,37.594,27.251,53.243c7.348,10.972,16.786,18.802,25.176,28.187
			c16.778,15.671,34.605,25.066,52.434,36.018c11.535,6.264,24.119,12.538,35.654,20.368L1178.391,2813.077z"/>
	</g>
	<g>
	</g>
</g>
<g id="XMLID_13_">
	<g>
		<path d="M1651.746,2797.941c11.528,6.265,24.112,12.538,35.655,20.368l-13.283-5.23c-11.543-7.829-24.127-14.083-35.655-20.347
			c-17.827-10.972-35.654-20.368-52.434-36.017c-8.39-9.396-17.827-17.236-25.168-28.188c-10.486-15.67-19.918-34.451-27.259-53.253
			c-18.876-43.837-28.313-97.068-27.266-148.756c1.049-57.93,16.779-112.749,36.704-161.272
			c25.161-64.204,62.913-117.457,105.909-156.596c47.183-43.847,101.714-70.458,157.294-81.42
			c31.453-6.264,63.962-7.84,96.471-3.132c29.362,3.132,57.677,12.527,85.984,21.913l-0.119,0.814
			c-23.868-7.788-47.854-14.866-72.582-17.508c-32.509-4.697-65.018-3.132-96.471,3.132
			c-55.58,10.951-110.111,37.573-157.294,81.409c-42.996,39.149-80.748,92.392-105.909,156.606
			c-19.925,48.523-35.655,103.343-36.704,161.272c-1.048,51.688,8.39,104.919,27.266,148.756
			c7.341,18.802,16.772,37.594,27.259,53.242c7.341,10.973,16.778,18.802,25.168,28.188
			C1616.091,2777.594,1633.918,2786.99,1651.746,2797.941z"/>
	</g>
	<g>
	</g>
</g>
<g id="XMLID_20_" opacity="0.85">
	<g>
		<path d="M172.819,3520.275c-11.536-7.829-24.12-14.083-35.655-20.347c-17.827-10.973-35.655-20.368-52.434-36.018
			c-8.389-9.396-17.827-17.235-25.168-28.187c-10.487-15.67-19.918-34.451-27.258-53.253
			c-18.876-43.837-28.314-97.068-27.266-148.756c1.049-57.93,16.779-112.749,36.704-161.272
			c25.161-64.204,62.913-117.458,105.909-156.596c47.184-43.848,101.714-70.458,157.294-81.42
			c31.453-6.264,63.962-7.84,96.471-3.132c29.363,3.132,57.677,12.527,85.984,21.913l-0.119,0.814
			c-23.868-7.788-47.854-14.866-72.582-17.508c-32.509-4.697-65.018-3.132-96.471,3.132c-55.58,10.951-110.11,37.573-157.294,81.409
			c-42.996,39.149-80.748,92.392-105.909,156.606c-19.925,48.523-35.655,103.343-36.704,161.272
			c-1.049,51.688,8.389,104.919,27.266,148.756c7.34,18.802,16.771,37.593,27.258,53.242c7.341,10.973,16.779,18.802,25.168,28.188
			c16.779,15.67,34.606,25.065,52.434,36.017c11.536,6.265,24.12,12.538,35.655,20.368L172.819,3520.275z"/>
	</g>
	<g>
	</g>
</g>
<g id="XMLID_19_" opacity="0.7">
	<g>
		<path d="M632.891,3499.93c-17.828-10.972-35.655-20.367-52.434-36.017c-8.389-9.396-17.827-17.236-25.168-28.188
			c-10.487-15.67-19.918-34.451-27.258-53.253c-18.876-43.836-28.314-97.068-27.266-148.756
			c1.049-57.93,16.779-112.749,36.704-161.272c25.161-64.204,62.913-117.457,105.909-156.596
			c47.184-43.847,101.714-70.458,157.294-81.419c31.453-6.265,63.962-7.841,96.471-3.133c29.363,3.133,57.677,12.528,85.984,21.913
			l-0.119,0.814c-23.868-7.788-47.854-14.866-72.582-17.507c-32.509-4.698-65.018-3.132-96.471,3.132
			c-55.586,10.951-110.11,37.572-157.294,81.408c-42.996,39.149-80.748,92.392-105.909,156.606
			c-19.925,48.524-35.655,103.343-36.704,161.272c-1.049,51.688,8.389,104.92,27.266,148.756
			c7.34,18.802,16.771,37.594,27.258,53.243c7.341,10.972,16.779,18.802,25.168,28.187c16.779,15.67,34.606,25.066,52.434,36.018
			c11.535,6.264,24.119,12.538,35.655,20.367l-13.283-5.229C657.01,3512.448,644.426,3506.194,632.891,3499.93z"/>
	</g>
	<g>
	</g>
</g>
<g id="XMLID_18_" opacity="0.55">
	<g>
		<path d="M1173.683,3520.281c-11.535-7.83-24.119-14.084-35.654-20.348c-17.828-10.972-35.655-20.367-52.434-36.017
			c-8.39-9.396-17.828-17.236-25.176-28.188c-10.479-15.67-19.91-34.451-27.251-53.253c-18.876-43.836-28.314-97.068-27.266-148.756
			c1.049-57.93,16.778-112.749,36.703-161.272c25.161-64.204,62.914-117.457,105.909-156.596
			c47.184-43.847,101.707-70.458,157.294-81.419c31.453-6.265,63.962-7.841,96.471-3.133c29.363,3.133,57.678,12.528,85.984,21.913
			l-0.119,0.814c-23.867-7.788-47.854-14.866-72.582-17.507c-32.509-4.698-65.018-3.132-96.471,3.132
			c-55.587,10.951-110.11,37.572-157.294,81.408c-42.995,39.149-80.748,92.392-105.909,156.606
			c-19.925,48.524-35.654,103.343-36.703,161.272c-1.049,51.688,8.39,104.92,27.266,148.756
			c7.341,18.802,16.771,37.594,27.251,53.243c7.348,10.972,16.786,18.802,25.176,28.187c16.778,15.67,34.605,25.066,52.434,36.018
			c11.535,6.264,24.119,12.538,35.654,20.367L1173.683,3520.281z"/>
	</g>
	<g>
	</g>
</g>
<g id="XMLID_17_" opacity="0.4">
	<g>
		<path d="M1594.604,3469.128c16.779,15.67,34.606,25.065,52.434,36.017c11.528,6.264,24.112,12.538,35.655,20.368l-13.283-5.23
			c-11.543-7.83-24.127-14.083-35.655-20.347c-17.827-10.973-35.654-20.368-52.434-36.018c-8.39-9.396-17.827-17.235-25.168-28.187
			c-10.486-15.671-19.918-34.451-27.259-53.253c-18.876-43.837-28.313-97.069-27.266-148.756
			c1.049-57.93,16.779-112.749,36.704-161.272c25.161-64.205,62.913-117.458,105.909-156.597
			c47.183-43.847,101.714-70.457,157.294-81.419c31.453-6.264,63.962-7.84,96.471-3.132c29.362,3.132,57.677,12.527,85.984,21.913
			l-0.119,0.814c-23.868-7.788-47.854-14.866-72.582-17.508c-32.509-4.698-65.018-3.132-96.471,3.132
			c-55.58,10.951-110.111,37.572-157.294,81.409c-42.996,39.148-80.748,92.392-105.909,156.606
			c-19.925,48.523-35.655,103.343-36.704,161.272c-1.048,51.688,8.39,104.919,27.266,148.756
			c7.341,18.802,16.772,37.593,27.259,53.242C1576.777,3451.914,1586.214,3459.743,1594.604,3469.128z"/>
	</g>
	<g>
	</g>
</g>
<g id="XMLID_24_" opacity="0.25">
	<g>
		<path d="M132.456,4206.878c-17.827-10.973-35.655-20.368-52.434-36.017c-8.389-9.396-17.827-17.236-25.168-28.188
			c-10.487-15.67-19.918-34.451-27.258-53.253c-18.876-43.837-28.314-97.068-27.266-148.756
			c1.049-57.93,16.779-112.749,36.704-161.272c25.161-64.204,62.913-117.458,105.909-156.596
			c47.184-43.847,101.714-70.458,157.294-81.42c31.453-6.264,63.962-7.84,96.471-3.132c29.363,3.132,57.677,12.527,85.984,21.913
			l-0.119,0.814c-23.868-7.788-47.854-14.866-72.582-17.508c-32.509-4.697-65.018-3.132-96.471,3.132
			c-55.58,10.951-110.11,37.573-157.294,81.409c-42.996,39.149-80.748,92.392-105.909,156.606
			c-19.925,48.523-35.655,103.343-36.704,161.272c-1.049,51.688,8.389,104.919,27.266,148.756
			c7.34,18.802,16.771,37.594,27.258,53.242c7.341,10.973,16.779,18.802,25.168,28.188c16.779,15.67,34.606,25.065,52.434,36.017
			c11.536,6.265,24.12,12.538,35.655,20.368l-13.283-5.23C156.576,4219.396,143.992,4213.142,132.456,4206.878z"/>
	</g>
	<g>
	</g>
</g>
<g id="XMLID_23_" opacity="0.1">
	<g>
		<path d="M978.299,3560.975c-23.868-7.788-47.854-14.866-72.582-17.507c-32.509-4.698-65.018-3.132-96.471,3.132
			c-55.586,10.951-110.11,37.572-157.294,81.408c-42.996,39.149-80.748,92.392-105.909,156.606
			c-19.925,48.524-35.655,103.343-36.704,161.273c-1.049,51.687,8.389,104.919,27.266,148.755
			c7.34,18.802,16.771,37.594,27.258,53.243c7.341,10.972,16.779,18.802,25.168,28.187c16.779,15.67,34.606,25.066,52.434,36.018
			c11.535,6.264,24.119,12.538,35.655,20.367l-13.283-5.229c-11.536-7.83-24.12-14.084-35.655-20.348
			c-17.828-10.972-35.655-20.367-52.434-36.017c-8.389-9.396-17.827-17.236-25.168-28.188
			c-10.487-15.67-19.918-34.451-27.258-53.253c-18.876-43.836-28.314-97.068-27.266-148.756
			c1.049-57.93,16.779-112.749,36.704-161.272c25.161-64.204,62.913-117.457,105.909-156.596
			c47.184-43.847,101.714-70.458,157.294-81.419c31.453-6.265,63.962-7.841,96.471-3.132c29.363,3.132,57.677,12.527,85.984,21.912
			L978.299,3560.975z"/>
	</g>
	<g>
	</g>
</g>
<g id="XMLID_22_">
	<g>
	</g>
	<g>
	</g>
</g>
<g id="XMLID_21_">
	<g>
	</g>
	<g>
	</g>
</g>
</svg>
