<?xml version="1.0" encoding="utf-8"?>
<!-- Generator: Adobe Illustrator 16.0.0, SVG Export Plug-In . SVG Version: 6.00 Build 0)  -->
<!DOCTYPE svg PUBLIC "-//W3C//DTD SVG 1.1//EN" "http://www.w3.org/Graphics/SVG/1.1/DTD/svg11.dtd">
<svg version="1.1" id="Layer_1" xmlns="http://www.w3.org/2000/svg" xmlns:xlink="http://www.w3.org/1999/xlink" x="0px" y="0px"
	 width="208.303px" height="270.697px" viewBox="0 0 208.303 270.697" enable-background="new 0 0 208.303 270.697"
	 xml:space="preserve">
<g>
	<path fill-rule="evenodd" clip-rule="evenodd" fill="#1B1B1B" d="M75.913,87.76c0.904-0.211,1.808-0.423,2.712-0.635
		c0.352,0.3,0.555,0.683,0.63,1.137c-0.018,0.646-0.113,1.382-0.605,1.739c-3.691,2.681-5.396,5.898-3.135,10.381
		c0.173,0.344-0.248,0.875-0.593,1.218c-4.156-3.187-3.604-7.182-1.952-11.366c0.372-0.544,0.744-1.087,1.116-1.631
		C74.37,87.615,75.061,87.513,75.913,87.76z"/>
	<path fill-rule="evenodd" clip-rule="evenodd" d="M100.712,209.176c-0.871,2.163-2.098,4.257-2.536,6.504
		c-0.841,4.313-3.536,7.492-5.879,10.92l-0.165-0.081c-1.24,0.268-2.109,1.07-2.882,2.021c-1.316,0.888-2.55,2.418-4.217,0.549
		c-0.128-1.484-0.042-2.972-0.067-4.458c-0.233-3.352,1.098-6.4,1.841-9.562c-0.147-0.827,0.012-1.506,0.885-1.84
		c1.003-0.771,0.549-1.886,0.673-2.863c1.147-1.835-0.324-4.097,0.964-5.908c0.351-2.703,1.992-4.609,3.915-6.343
		c1.083-1.526,2.891-2.425,3.66-4.224c0.443-0.997,1.96,1.603,1.511-0.169c-0.48-1.895-0.378-3.659-0.415-5.493
		c1.651-2.831-1.326-5.093-0.954-7.766c-0.062-1.07,0.285-2.258-0.87-3.013l0.015,0.023c-1.428-1.013-1.832-2.512-1.971-4.137
		c-2.154-3.854-3.307-8.202-3.76-12.389c-0.909-8.396-5.057-14.535-10.911-20.139c-2.77-2.652-3.039-6.137-0.472-9.498
		c3.071-4.021,6.546-7.837,7.498-13.083c0.388-0.99,0.822-1.966,0.902-3.047c0.383-1.485,0.85-2.766,2.858-1.924
		c3.15,1.321,6.33,2.568,9.497,3.847c-0.123,2.021,1.587,0.079,2.007,0.927c3.729,1.382,7.242,2.869,3.793,7.76
		c-0.677,0.611-0.165,1.53-0.562,2.215c-0.506,1.648-1.877,2.538-3.112,3.549c-1.729,3.351-1.201,6.683-0.294,10.185
		c2.819,10.88,5.969,21.725,7.85,32.776c0.784,4.606,1.613,9.642,0.808,14.426c-0.704,4.181-4.027,7.28-5.772,11.099
		c-0.963,2.106-2.666,3.874-2.794,6.356c-0.991,0.694,0.097,2.176-1.061,2.808L100.712,209.176z"/>
	<path fill-rule="evenodd" clip-rule="evenodd" fill="#010101" d="M113.463,82.55c-0.062,2.296,0.095,4.625-1.035,6.757
		c-3.743,3.451-2.96,8.399-3.692,12.65c-0.81,4.702-2.436,3.025-4.625,1.537c-3.245-1.217-3.529-3.766-2.9-6.64
		c0.781-3.566,1.733-7.093,2.498-10.66c0.4-1.304,1.303-2.347,1.869-3.553c0.035-0.499,0.799-1.128-0.291-1.397
		c-1.026,0.589-1.626,1.544-2.307,2.423c-2.254,7.258-6.038,14.344-2.303,22.214c2.562,2.575,5.591,4.545,8.47,6.727
		c4.391,3.329,8.862,3.687,13.725,1.444c5.551,1.993,0.097,3.752-0.12,5.623c-7.244,1.189-13.581-1.851-20.043-4.303
		c-3.656-1.864-7.248-3.874-10.989-5.547c-2.972-1.33-4.988-2.642-2.936-6.318c0.918-1.647,0.698-3.692,0.477-5.596
		c-1.121-3.772,1.233-7.235,0.961-10.927c0.421-1.515,0.792-3.052,1.022-4.611c0.17-1.157,2.682-2.832-1.37-2.893
		c-3.554-0.053-2.349-4.046-2.605-6.545c3.844-3.221,4.58-8.745,8.711-11.753c2.047-1.826,3.675-3.963,4.812-6.466
		c-0.594-2.882-0.983-5.767-0.11-8.668c-0.338-2.262,1.89-3.59,2.062-5.666c0.789-1.713,0.941-3.838,3.042-4.7l-0.051,0.051
		c2.31-1.432,4.631-2.831,7.527-2.486c1.281,1.077,2.562,2.154,3.844,3.231c5.631,7.368,3.953,14.714-0.066,22.054
		c-1.139,0.077-0.862,1.332-1.512,1.816c-1.034-0.367-2.152-0.651-2.998-1.325c-2.431-1.937-3.939-1.062-5.032,1.448
		c-0.624,0.652-1.246,1.305-1.869,1.958c-1.293,0.831-0.586,2.012-0.535,3.078c-0.274,1.918,1.201,2.718,2.368,3.715l-0.068-0.057
		c2.186,2.947,3.56,6.302,4.863,9.69C111.977,80.31,113.11,81.304,113.463,82.55z"/>
	<path fill-rule="evenodd" clip-rule="evenodd" fill="#050505" d="M74.922,101.6c-3.585-5.826-0.962-9.854,3.838-13.251
		c0.596-1.326,1.858-2.077,2.731-3.164c0.881-0.781,1.205-2.516,2.991-1.748c0.826,0.774,0.873,1.729,0.645,2.749
		c-0.964,2.154-2.59,4.086-2.25,6.686c-0.035,1.783,0.074,3.601-1.291,5.039c-1.966,2.007-0.441,3.997,0.469,5.564
		c0.823,1.417,1.584,2.418,0.999,4.175c-0.29,0.868,0.781,2.2-0.94,2.585c-1.316,0.294-2.117-0.573-2.716-1.479
		C77.844,106.411,76.406,103.99,74.922,101.6z"/>
	<path fill-rule="evenodd" clip-rule="evenodd" fill="#040404" d="M83.171,171.688c-3.689,0.204-5.726,4.569-10.211,3.925
		c1.899-3.129,3.141-6.225,0.939-9.503c-0.238-2.127-1.214-4.616,1.293-5.896c2.283-1.165,3.674,1.111,5.283,2.2
		c1.684,1.139,3.254,2.448,4.874,3.684c1.042,0.905,2.289,1.603,2.942,2.901c0.088,0.626,0.177,1.254,0.265,1.88
		c-0.152,1.675-1.201,1.563-2.293,1.057C85.235,171.457,84.251,171.18,83.171,171.688z"/>
	<path fill-rule="evenodd" clip-rule="evenodd" fill="#010101" d="M101.84,118.033c-0.866,0.7-1.732,1.4-2.618,2.116
		c-0.705-1.291,0.343-2.079,0.611-3.043c0.609,0.079,1.218,0.158,1.827,0.237C101.66,117.588,101.72,117.818,101.84,118.033z"/>
	<path fill-rule="evenodd" clip-rule="evenodd" fill="#8D8D8D" d="M87.479,115.183c1.15,1.446,0.092,2.236-0.902,3.047
		C86.538,117.113,86.313,115.942,87.479,115.183z"/>
	<path fill-rule="evenodd" clip-rule="evenodd" fill="#010101" d="M119.013,150.755c4.033,6.664,7.004,13.811,9.594,21.131
		c1.764,5.246,5.568,10.289,1.598,16.104c-4.597,2.444-11.545,1.604-14.989-1.91c-1.202-1.227-1.453-3.003-0.812-4.422
		c0.988-2.189,2.351-0.605,3.441,0.137c1.671,1.139,3.393,0.488,4.351-0.59c1.348-1.518-0.535-2.457-1.488-3.326
		c-5.625-5.135-8.891-10.972-9.048-19.079c-0.126-6.522-2.5-13.003-3.877-19.502c0.27,0.08,0.493,0.011,0.67-0.208
		c0.947-0.377,1.626,0.104,2.271,0.699c1.138,1.694,2.499,3.202,3.934,4.649c0.793,1.153,1.633,2.269,2.644,3.245
		C117.745,148.776,118.326,149.795,119.013,150.755z"/>
	<path fill-rule="evenodd" clip-rule="evenodd" fill="#969696" d="M103.804,132.581c0.256-0.083,0.519-0.133,0.788-0.151
		c0.676,0.167,1.23,0.562,1.784,0.957c0.107,1.063,0.264,2.14-0.784,2.89C103.862,135.592,103.681,134.16,103.804,132.581z"/>
	<path fill-rule="evenodd" clip-rule="evenodd" fill="#050505" d="M85.534,229.401c1.596,0.121,2.383-1.27,3.572-1.91
		c1.077,0.882,0.739,1.929,0.351,2.982l-0.229-0.116c-1.826,1.304-1.771,2.992-0.988,4.829c-1.336,3.469-0.536,5.53,3.306,6.883
		c3.172,1.117,5.734,3.771,9.121,4.703c0.362,0.892,0.079,1.237-0.866,1.022c-1.811-0.098-3.622-0.194-5.433-0.291
		c-3.84-1.038-7.683-0.195-11.525-0.012c-1.855-0.544-4.324-0.55-3.224-3.682c1.341-2.559,2.682-5.118,4.023-7.676
		C84.954,234.082,84.907,231.646,85.534,229.401z"/>
	<path fill-rule="evenodd" clip-rule="evenodd" fill="#161616" d="M88.239,235.187c-3.591-2.412-1.299-3.62,0.988-4.829
		C88.294,231.843,89.709,233.81,88.239,235.187z"/>
	<path fill-rule="evenodd" clip-rule="evenodd" fill="#949494" d="M89.457,230.474c-0.117-0.994-0.234-1.988-0.351-2.982
		c0.788-1.013,1.668-1.736,3.027-0.973c0.058,0.296,0.05,0.593-0.021,0.886C90.93,228.17,91.136,230.136,89.457,230.474z"/>
	<path fill-rule="evenodd" clip-rule="evenodd" fill="#252525" d="M72.855,176.759c0.985,2.355-1.455,4.054-1.118,6.305
		C67.98,180.402,68.06,179.972,72.855,176.759z"/>
	<path fill-rule="evenodd" clip-rule="evenodd" fill="#969696" d="M104.859,130.678c-0.653-0.965,0.976-2.151-0.295-3.056
		c-0.114-0.885,0.375-1.417,1.07-1.83c1.438,1.35,2.55,2.774,1.084,4.782C106.126,131.107,105.507,131.151,104.859,130.678z"/>
	<path fill-rule="evenodd" clip-rule="evenodd" fill="#6E6E6E" d="M104.859,130.678c0.62-0.035,1.239-0.069,1.859-0.104
		c-0.114,0.938-0.229,1.875-0.342,2.812c-1.202,0.813-1.71,0.333-1.784-0.957C104.681,131.846,104.77,131.262,104.859,130.678z"/>
	<path fill-rule="evenodd" clip-rule="evenodd" fill="#161616" d="M85.534,229.401c0.315,2.51,0.569,5.004-1.893,6.733
		c0.639-3.734,1.085-7.483,0.921-11.283c0.099-0.428,0.355-0.568,0.77-0.426C85.4,226.084,85.467,227.743,85.534,229.401z"/>
	<path fill-rule="evenodd" clip-rule="evenodd" fill="#666666" d="M105.477,65.033c-0.221,0.144-0.453,0.264-0.697,0.364
		c-0.459-1.202-1.889-2.681,0.85-2.968C105.578,63.296,105.527,64.165,105.477,65.033z"/>
	<path fill-rule="evenodd" clip-rule="evenodd" fill="#818181" d="M97.049,180.463c0.857,1.784,1.756,3.548,2.557,5.356
		c0.69,1.559,0.036,2.342-1.604,2.409C97.522,185.66,95.766,183.248,97.049,180.463z"/>
	<path fill-rule="evenodd" clip-rule="evenodd" fill="#131313" d="M81.491,85.185c-0.327,1.558-1.482,2.4-2.731,3.163
		c-0.044-0.407-0.089-0.814-0.134-1.222C79.218,85.942,80.309,85.496,81.491,85.185z"/>
	<path fill-rule="evenodd" clip-rule="evenodd" fill="#9D9D9D" d="M106.613,82.681c-0.047-1.212-0.013-2.457-1.277-3.181
		c0.618-0.696,1.438-0.955,1.958-0.122C108.038,80.571,107.789,81.774,106.613,82.681z"/>
	<path fill-rule="evenodd" clip-rule="evenodd" fill="#131313" d="M84.332,86.396c0.056,0.641,0.112,1.282,0.168,1.924
		c-0.07,0.612-0.141,1.223-0.211,1.834c-0.169,0.365-0.419,0.432-0.748,0.201c-1.339-0.034-1.026,1.521-1.878,1.954
		C81.468,89.848,82.295,87.849,84.332,86.396z"/>
</g>
</svg>
