<?xml version="1.0" encoding="utf-8"?>
<!-- Generator: Adobe Illustrator 16.0.0, SVG Export Plug-In . SVG Version: 6.00 Build 0)  -->
<!DOCTYPE svg PUBLIC "-//W3C//DTD SVG 1.1//EN" "http://www.w3.org/Graphics/SVG/1.1/DTD/svg11.dtd">
<svg version="1.1" xmlns="http://www.w3.org/2000/svg" xmlns:xlink="http://www.w3.org/1999/xlink" x="0px" y="0px"
	 width="2225.305px" height="642.314px" viewBox="0 0 2225.305 642.314" enable-background="new 0 0 2225.305 642.314"
	 xml:space="preserve">
<g id="Layer_2">
	<circle cx="1847.546" cy="321.158" r="321.157"/>
</g>
<g id="Layer_1">
	<path d="M0,155.302v331.712h1655.544V155.302H0z M310.242,465.904H23.764V179.426h286.478V465.904z M616.171,465.905H329.692
		V179.426h286.479V465.905z M922.099,465.904H635.621V179.426h286.478V465.904z M1228.027,465.904H941.549V179.426h286.479V465.904z
		 M1533.955,465.904h-286.478V179.426h286.478V465.904z"/>
	<circle fill="#939598" stroke="#000000" stroke-miterlimit="10" cx="1847.546" cy="322.666" r="278.939"/>
</g>
<g id="Layer_3">
	<g>
		<path fill-rule="evenodd" clip-rule="evenodd" fill="#232323" d="M1778.447,610.211c1.126,0.888,2.263,1.757,3.411,2.61
			c1.042-1.438,1.808-3.151,2.155-5.285c1.426-8.731,7.468-11.463,15.399-11.364c3.964,0.051,8.228,1.588,10.865-2.995
			c0.264-1.024,0.093-1.966-0.517-2.831c-4.169-0.842-8.642-3.104-12.456-2.284c-7.494,1.608-15.127,2.667-22.704,3.971
			C1775.205,598.138,1776.348,604.386,1778.447,610.211z"/>
		<path fill-rule="evenodd" clip-rule="evenodd" fill="#181818" d="M1982.551,619.696c0.502-2.354,1.312-4.631,2.804-6.711
			c1.906-0.742,1.708-2.491,1.925-4.04c2.595-5.81-0.933-7.671-5.629-9.197c-8.337-2.709-17.817-2.405-24.631-9.151
			c-5.226-0.518-10.3-0.632-13.187,5.031c-1.535,4.151,0.555,8.026,0.838,12.023c0.419,5.973-1.679,9.381-8.217,7.859
			c-5.749-1.335-11.383,0.27-17.07,0.254c-5.015-0.298-9.979,0.209-15.086-0.544c-6.909-1.02-12.647,1.816-14.655,9.406
			c0.104,4.609,1.81,8.993,2.232,13.501C1922.272,633.154,1952.441,626.515,1982.551,619.696z"/>
		<path fill-rule="evenodd" clip-rule="evenodd" fill="#292929" d="M1958.698,594.6c-4.522,0.026-9.147-0.254-12.236,4.075
			c-3.152,13.838-13.465,17.59-25.896,18.366c-8.567-4.671-11.497-12.913-7.786-22.756c2.123-5.63,5.368-10.729,8.407-15.896
			c7.966-4.908,15.104-11.415,25.216-12.168c3.665-0.272,5.444-3.404,6.002-6.996c2.748-4.296,6.408-6.574,11.557-4.611
			c3.205,1.219,5.691,0.489,7.853-1.958c4.216-3.884,0.393-9.433,2.926-13.785c1.95-3.346,1.5-7.988,5.474-10.313
			c1.65-0.6,3.818-0.681,4.526,0.682c4.455,8.575,9.888,5.288,15.444,1.544c4.16,0.733,8.27,1.363,9.13-4.613
			c0.646-0.82,1.42-1.425,2.339-1.88c5.784-2.475,11.574-2.24,17.383-0.199c6.044,6.298,3.906,13.944,2.371,20.832
			c-1.702,7.621-7.175,14.354-3.828,23.032c0.853,2.214-0.728,5.29-3.691,6.494c-7.53-5.537-7.53-5.537-16.053-1.92
			c-4.07-0.784-8.103,0.122-12.134,0.399c-4.669,0.318-7.024,3.162-8.022,7.763c-4.051,18.649-7.367,20.427-25.987,14.463
			C1960.722,594.844,1959.715,594.673,1958.698,594.6z"/>
		<path fill-rule="evenodd" clip-rule="evenodd" fill="#1A1A1A" d="M2093.394,600.914c-1.951,2.768-5.897,5.569,0.534,7.896
			c3.118,1.128,6.228,2.475,9.039,4.211c2.606,1.611,7.55,2.129,6.163,6.569c-1.215,3.899-5.336,1.76-8.061,1.525
			c-5.336-0.455-10.619-1.558-15.925-2.391c-3.508-1.227-6.661-3.083-9.548-5.414c-12.355-3.918-19.676-12.823-23.534-24.662
			c-1.374-4.217-4.505-7.635-4.985-12.17c0.736-9.26,6.997-12.959,14.982-14.917c9.472-1.33,18.018-0.269,23.371,9.105
			c3.178,5.563,7.708,3.948,12.225,2.135c5.068-3.782,9.928-6.689,17.085-6.423c9.034,0.336,8.612-8.48,10.524-14.605
			c0.079-8.059,5.568-10.45,12.173-11.686c6.81-0.496,12.292,2.639,17.052,6.896c3.551,3.178,5.385,7.068,0.006,10.593
			c-4.026,0.408-7.333,4.771-12.438,1.436c5.832,6.512,7.988,13.874,10.72,20.97c0.954,2.478,3.143,5.093,0.837,7.422
			c-2.366,2.388-5.159,0.01-7.355-1.051c-2.949-1.422-5.492-3.688-8.209-5.594c-8.926-2.352-11.676,7.212-18.227,9.448
			c-7.017,1.279-12.841,6.236-20.167,6.554C2096.987,597.269,2093.599,596.692,2093.394,600.914z"/>
		<path fill-rule="evenodd" clip-rule="evenodd" fill="#282828" d="M1894.053,508.743c3.351,4.397,6.699,8.795,7.592,14.48
			c0.927,12.176-5.346,22.006-10.47,32.223c-5.133,2.843-9.69,0.775-14.345-1.524c-4.766-2.354-9.745-3.071-14.378,0.269
			c-1.738,1.254-1.011,3.133,0.481,4.231c4.769,3.515,10.176,5.82,15.96,3.72c3.589-1.303,6.244-5.55,10.855-2.608
			c4.103,4.784,2.924,10.705,3.289,16.199c0.363,5.422-3.307,8.512-8.132,7.699c-5.558-0.937-11.487,1.312-16.726-2.188
			c-5.161-3.452-9.316,3.341-14.371,1.69c-4.253-3.278-8.385-6.372-13.661-8.465c-6.716-2.665-8.876-9.341-7.985-16.614
			c11.852-6.233,11.723-6.144,3.544-18.222c-6.974-10.306-13.088-21.127-18.409-32.4c-1.094-2.318-1.65-4.532-0.58-6.752
			c0.869-1.8,2.821-1.814,4.399-0.972c14.624,7.812,29.21,15.697,43.808,23.563c5.295,2.298,11.936,0.77,16.832,7.443
			c1.372-7.259,1.309-13.212,3.094-18.777C1886.543,506.464,1889.191,504.234,1894.053,508.743z"/>
		<path fill-rule="evenodd" clip-rule="evenodd" fill="#282828" d="M2072.839,364.007c-2.289-7.177-1.526-12.12,7.847-10.165
			c5.945,1.239,7.527-2.577,8.766-7.008c2.761-9.881,5.519-19.762,8.273-29.641c0.558-1.251,0.716-2.57,0.644-3.92
			c-0.135-2.498,0.055-4.916,3.319-4.983c2.859-0.061,4.008,2.025,4.562,4.471c0.44,1.958,0.62,3.968,0.979,5.925
			c2.159,8.05,0.698,16.034-0.468,24.049c-0.378,2.598-1.089,6.121,1.903,7.214c3.942,1.442,4.812-2.549,6.199-5.098
			c0.639-1.178,1.127-2.463,1.504-3.752c1.426-4.883,3.771-8.877,9.592-8.683c6.168,0.206,8.609,4.472,9.787,9.822
			c0.652,2.952,1.59,5.851,1.734,8.899c1.152,4.265,0.473,9.011,3.385,12.814c3.067-2.618,6.993-6.434,10.355-2.993
			c3.568,3.655,0.086,7.979-2.797,11.359c-5.246,9.612-13.477,14.64-24.226,15.95c-5.005,0.608-9.051,2.66-10.276,8.167
			c-3.657,6.882-7.131,14.089-17.105,9.159c-3.717-5.018-5.404-10.786-6.131-16.905c0.189-1.815,2.471-3.896,0.727-5.32
			c-2.684-2.19-4.32,1.866-6.805,2.026c-4.61,0.864-7.593,0.048-5.866-5.641l-0.006-0.595
			C2078.453,373.453,2067.936,371.735,2072.839,364.007z"/>
		<path fill-rule="evenodd" clip-rule="evenodd" fill="#353535" d="M2107.754,219.406c4.333,3.517,8.345,3.397,11.953-1.082
			c10.248-12.707,14.468-12.617,22.074,1.057c5.387-3.83,5.07-11.744,11.709-15.461c1.261,5.101,1.763,10.302,4.66,14.678
			c2.914,4.403,4.726,9.071,11.53,9.684c3.583,0.321,10.109,2.791,5.237,9.561c-4.77-2.101-8.661-2.178-9.77,4.224
			c-0.473,0.844-1.097,1.54-1.858,2.128c-7.816,1.713-13.89,6.388-19.661,11.571c-5.262,1.601-10.796,1.578-16.132,1.494
			c-7.82-0.122-12.355,2.785-13.576,10.585c-3.223,1.577-6.542,2.651-9.475,5.096c-9.119,7.612-14.535,5.564-17.297-6.089
			c-0.461-1.932-0.696-3.921-1.24-5.84c0.331-5.321,2.816-10.244,2.974-15.623c3.09-5.08,12.067-7.332,7.673-16.034
			c0.085-1.028,0.344-2,0.742-2.946C2100.43,223.538,2101.023,216.881,2107.754,219.406z"/>
		<path fill-rule="evenodd" clip-rule="evenodd" fill="#212121" d="M2024.348,423.132c2.988,5.417,1.288,11.186,1.013,16.781
			c-0.09,1.781-1.832,4.981-2.834,4.989c-12.099,0.096-14.91,11.059-21.293,17.743c-5.658,5.929-10.611,5.311-13.481-2.385
			c-2.109-5.651-1.515-14.343-5.318-16.87c-6.378-4.244-6.258,7.756-13.064,8.836c-6.646,1.057-12.706,5.774-19.033,8.86
			c-2.021,0.984-4.143,3.615-6.282,1.817c-3.025-2.543,0.229-4.719,1.431-6.923c1.12-2.063,2.202-4.149,3.302-6.225
			c3.391-14.008,14.371-20.428,26.242-25.574c5.53-2.398,11.182-4.812,17.23-5.913
			C2003.582,415.817,2014.677,414.778,2024.348,423.132z"/>
		<path fill-rule="evenodd" clip-rule="evenodd" fill="#1C1C1C" d="M1985.607,619.001c-1.274-1.797-0.294-3.997-0.253-6.017
			c-2.844,1.917-9.265,0.359-6.098,7.455C1981.374,619.961,1983.491,619.483,1985.607,619.001z"/>
		<path fill-rule="evenodd" clip-rule="evenodd" fill="#1C1C1C" d="M2067.158,417.191c-0.271-0.573-0.437-1.176-0.493-1.807
			c-1.389-2.024-0.798-4.291-0.793-6.488c2.891-6.052,7.812-5.415,11.734-2.248c6.342,5.119,12.859,4.66,20.072,3.253
			c11.369-2.215,19.448,4.672,21.554,16.002c1.224,6.603,0.81,13.317,2.47,19.797c1.108,3.121,2.996,6.218,3.079,9.364
			c0.066,2.529-1.058,6.623-5.68,3.274c-2.869-2.075-5.607-7.013-9.797-2.316c-4.216,4.729,3.486,6.028,3.404,9.771
			c-0.013,0.487,0.837,0.994,1.288,1.494c0.85,3.136,1.251,6.27-0.128,9.373c-8.094,2.942-16.15,5.896-22.101,12.673
			c-1.814,2.064-4.368,3.047-7.271,2.257c-2.152-0.319-4.017-1.132-5.266-3.012c-2.677-6.69,1.384-10.941,5.767-14.772
			c5.564-4.865,9.014-10.988,11.072-17.858c1.34-4.482-0.067-9.318-5.424-8.37c-12.265,2.172-17.91-3.553-20.578-14.418
			c-0.295-1.207-1.5-2.216-1.831-3.562C2068.894,425.376,2068.753,421.221,2067.158,417.191z"/>
		<path fill-rule="evenodd" clip-rule="evenodd" fill="#1D1D1D" d="M2138.147,543.618c-6.223,0.573-7.827,5.763-10.195,10.191
			c-6.89,5.09-10.143,0.596-11.747-5.159c-2.199-7.89-3.969-15.73-10.099-21.821c-2.75-2.733-2.753-6.918-0.204-9.32
			c6.818-6.429,4.288-11.753-0.747-17.429c-1.3-1.466-2.293-3.382-2.36-5.549c-0.03-1.604,0.379-3.091,1.136-4.494
			c2.931-3.715,6.165-6.872,11.533-5.511c-0.6,6.061,2.608,10.432,6.438,14.526c4.001,1.125,7.886,1.264,11.774-0.661
			c8.229-4.071,16.701-1.459,24.263,1.131c8.349,2.857,1.307,8.858,0.618,13.503c-1.659,5.75,1.691,8.13,6.44,9.565
			c0.954,8.021-5.094,15.17-15.33,17.343C2145.655,540.785,2141.759,541.663,2138.147,543.618z"/>
		<path fill-rule="evenodd" clip-rule="evenodd" fill="#3B3B3B" d="M1960.621,384.762c-3.882-10.061-2.279-20.972-4.841-31.338
			c-1.056-4.268,3.489-4.641,7.037-2.539c8.664,5.13,17.724,9.443,27.139,13.012c-0.404,1.57-2.179,3.153-1.534,4.478
			c1.04,2.14,3.14,1.424,5.079,0.668c2.221-0.865,3.75-2.619,5.674-3.849c5.672-0.902,8.462-7.531,14.664-7.379
			c1.91,6.174,3.815,12.348,5.722,18.521c-9.074,7.683-9.864,19.594-14.423,29.491c-2.955,6.419-6.916,6.163-11.915,6.234
			c-4.939,0.069-8.997-0.189-10.35-6.729c-1.443-6.98-9.8-7.132-14.038-11.611C1964.898,391.835,1966.369,385.008,1960.621,384.762z
			"/>
		<path fill-rule="evenodd" clip-rule="evenodd" fill="#2E2E2E" d="M2171.037,298.788c8.44-1.998,16.909-4.094,18.061,8.841
			c0.173,1.949,0.858,2.124,3.151,2.002c9.526-0.502,17.807,5.015,27.034,6.447c2.418,0.376,5.559,1.721,5.978,4.796
			c0.49,3.574-3.278,3.79-5.295,5.274c-5.422,3.985-10.98,7.775-16.488,11.645c-4.452-0.201-6.926-4.098-10.625-5.674
			c-1.928-0.819-4.225-1.244-5.108,1.348c-0.665,1.962,0.984,3.122,2.633,3.75c2.771,1.056,6.196,1.003,7.296,4.655
			c5.428,4.62,6.052,11.965,9.914,17.455c2.385,3.39,0.273,6.232-2.315,5.723c-8.935-1.759-18.769-0.504-26.479-6.942
			c-2.065-7.917-5.422-15.064-11.73-20.604c-2.352-2.066-3.847-4.726-3.396-8.085c0.098-2.008-0.832-4.67,0.646-5.896
			c8.14-6.765,4.092-13.633,0.6-20.597c0.139-2.241,1.212-3.848,3.255-4.793C2169.238,297.847,2170.194,298.067,2171.037,298.788z"
			/>
		<path fill-rule="evenodd" clip-rule="evenodd" fill="#343434" d="M1970.922,390.668c4.956,4.252,10.702,7.133,16.817,9.172
			c6.45,2.151,5.717,4.451-1.107,7.561c8.499,2.642,13.578,2.275,15.593-6.446c1.44-6.231,3.577-12.357,5.994-18.289
			c1.952-4.79,4.585-9.594,11.342-6.329c0.467,7.309,12.237,4.719,10.889,13.423c14.909-8.157,23.272-25.788,42.39-25.752
			c1.963,5.052,3.93,10.102,5.897,15.15c-9.38-10.19-12.425-10.649-22.509-2.989c-14.271,10.846-26.557,24.16-41.805,33.823
			c-0.41,0.257,0.033,1.865,0.08,2.844c-7.121,4.476-16.413,2.958-23.178,8.41c-11.84,5.304-23.928,9.979-33.757,19.082
			c-3.215,2.976-6.2,5.96-8.782,9.43c0.225-7.41,3.142-14.202,5.392-21.055c1.13-3.438,1.038-6.221,0.006-9.335
			c2.139-3.269,5.093-2.945,8.001-1.521c5.831,2.856,11.101,0.972,16.471-1.147c0.571-4.325-4.383-5.362-4.453-8.887
			c-0.137-3.231-2.637-5.086-4.246-7.5C1967.75,397.001,1967.453,393.564,1970.922,390.668z"/>
		<path fill-rule="evenodd" clip-rule="evenodd" fill="#282828" d="M2168.761,298.878c-0.683,1.361-1.365,2.724-2.048,4.085
			c0.444,8.201-6.636,12.442-10.914,17.232c-3.542,3.97-9.797-0.182-13.218-4.804c-2.99-4.049-2.658-8.962-3.225-13.624
			c-1.94-14.508-1.949-14.464-15.562-17.258c-2.948-0.606-5.957-1.276-8.724-2.398c-8.112-3.294-8.656-9.736-1.497-15.611
			c-6.512-6.567-6.512-6.567-0.863-17.808c9.019,8.502,19.859,0.97,29.53,3.284c6.852-3.286,13.597-6.787,20.392-10.194v-0.001
			c1.687-2.804,3.847-5.002,7.155-2.642c2.428,1.729,0.83,3.315-1.012,4.485c-6.676,6.329-8.309,18.84-21.812,16.964
			c-2.851-0.396-2.123,4.336-2.484,6.598c-1.515,9.481,3.51,18.155,3.942,27.449c3.46,2.793,7.236,1.745,11.218,1.589
			C2162.514,296.111,2167.353,292.807,2168.761,298.878z"/>
		<path fill-rule="evenodd" clip-rule="evenodd" fill="#303030" d="M1972.983,555.84c0.257,4.318-2.781,4.202-5.439,3.577
			c-4.427-1.045-8.671-0.737-12.939,0.526c-10.591,9.875-18.173,9.242-25.939-2.232c-1.883-2.783-4.055-5.325-6.178-7.901
			c-1.413-6.499-7.638-11.544-5.848-19.055c5.974-3.391,8.136-13.931,18.178-9.807c8.312,1.34,17.016,1.035,24.496,5.85
			c5.7,1.854,15.746-2.354,13.96,9.949c-0.341,2.351-0.144,4.72-0.443,7.063c-1.934,3.588-0.704,7.123,0.215,10.659
			C1973.024,554.926,1973.002,555.383,1972.983,555.84z"/>
		<path fill-rule="evenodd" clip-rule="evenodd" fill="#232323" d="M1917.923,531.366c5.337,4.191,10.01,8.633,6.137,16.291
			c-0.195,3.737-2.659,5.415-5.908,5.548c-7.789,0.319-9.874,5.409-10.545,11.894c-3.735,3.195-3.662,7.322-3.532,11.85
			c0.442,15.297-11.21,23.133-26.028,17.797c-3.487-7.434-9.6-8.074-16.932-7.505c-3.881,0.304-11.37,2.254-8.461-6.925
			c7.056-1.714,13.463-3.304,21.467-1.387c13.743,3.29,17.312-1.822,14.225-16.138c-0.211-0.983-0.68-1.913-1.027-2.868
			c-1.756-2.842,0.46-4.362,2.027-6.099c-1.544-11.322,9.43-19.177,8.406-30.354c1.298-0.081,2.595-0.165,3.894-0.246
			c2.853,3.992,4.435,10.519,11.646,5.867C1915.702,528.083,1917.791,527.732,1917.923,531.366z"/>
		<path fill-rule="evenodd" clip-rule="evenodd" fill="#232323" d="M1852.653,580.315c3.683,6.713,9.833,2.635,14.703,2.904
			c6.697,0.372,11.258,1.952,11.817,9.383c-0.456,7.16-5.764,5.981-10.34,6.043c-7.213-5.523-16.558-6.198-24.349-10.881
			c-7.636-4.589-15.541-1.102-20.269,7.176c-2.07,3.628-4.921,5.702-8.968,5.078c-3.936-0.607-7.151-2.394-5.433-7.442
			c-0.017-0.741-0.034-1.485-0.055-2.229c-5.69-7.347-6.713-16.461-9.405-24.939c-0.936-2.945-1.853-6.443,0.553-8.63
			c2.4-2.186,5.729,0.056,7.205,1.754c8.486,9.767,16.226,5.789,24.049-0.677c3.562,0.291,5.419,2,5.754,5.775
			c0.417,4.68,3.625,7.739,7.992,7.895C1852.352,571.75,1852.961,575.438,1852.653,580.315z"/>
		<path fill-rule="evenodd" clip-rule="evenodd" fill="#1E1E1E" d="M2065.155,565.866c-8.79-0.479-13.173,4.26-14.68,12.402
			c-1.045,2.76-3.021,3.834-5.906,3.265c-6.25-1.943-13.561-0.006-18.937-5.166c-0.581-0.64-1.163-1.278-1.745-1.918
			c-1.014-6.614-1.135-13.774-10.701-15.306c11.619-5.334,16.14-14.066,12.184-24.875c-2.195-5.999,2.977-4.7,4.722-6.76
			c0.357-6.329,4.927-7.32,9.886-7.823c2.095,0.642,4.366,0.931,5.945,2.702c3.395,5.157,0.915,11.512,3.383,16.876
			c0.109,4.665,0.548,9.239-2.062,13.672c-1.701,2.891-1.014,5.937,3.033,6.899c1.838,0.321,3.674,0.31,5.522,0.079
			C2060.83,558.906,2065.346,558.701,2065.155,565.866z"/>
		<path fill-rule="evenodd" clip-rule="evenodd" fill="#252525" d="M2138.147,543.618c-0.847-2.357-5.004-3.458-3.201-6.611
			c1.273-2.23,4.264-1.63,6.518-1.497c10.607,0.63,17.541-5.245,23.534-12.919c11.013,4.883,19.194,14.697,31.217,17.878
			c1.52,0.403,3.157,1.692,2.793,3.71c-0.542,2.969-2.849,4.724-5.474,5.331c-9.721,2.257-19.508,4.224-29.278,6.256
			c-3.239,0.673-6.509,1.211-9.761,1.812C2154.3,546.772,2144.007,547.791,2138.147,543.618z"/>
		<path fill-rule="evenodd" clip-rule="evenodd" fill="#232323" d="M2121.702,445.7c-3.158-9.335-2.059-20.163-10.659-27.632
			c-3.351-2.913-6.286-5.104-10.665-3.593c-9.871,3.41-19.025,3.684-26.864-4.75c-1.669-1.793-4.373-1.447-6.733-0.714
			c-7.438-7.859-7.438-7.859,1.923-14.593l-0.12,0.138c12.273-6.47,20.74,0.209,28.789,8.334c7.303,1.76,10.293-4.041,14.255-8.137
			c1.444-0.088,2.721,0.321,3.811,1.272c1.069,1.151,1.858,2.604,3.435,3.174c1.822,0.324,2.645-0.98,3.546-2.19
			c4.955-4.753,5.651-4.732,7.799,0.179c-0.386,3.005-0.773,6.006-1.163,9.017c5.293,3.503,10.572-3.052,16.49-0.315
			c-2.974,4.172-7.747,4.333-11.538,5.932c-9.916,4.183-14.911,10.474-12.407,21.751
			C2122.457,437.433,2121.714,441.649,2121.702,445.7z"/>
		<path fill-rule="evenodd" clip-rule="evenodd" fill="#303030" d="M2099.415,227.512c0,0.677,0,1.356,0,2.035
			c-3.036,4.308-6.639,5.039-10.881,1.721c-2.354-1.844-4.827-3.421-7.998-3.345c-11.576-1.572-11.576-1.572-10.184-14.116
			c0.5-4.511-2.019-5.205-5.662-4.477c-5.481-7.468-6.424-16.772-10.123-24.955c-1.103-2.44-0.9-4.912,0.675-6.583
			c2.07-2.194,4.19-0.007,6.349,0.852c4.197,1.667,7.915,8.737,13.169,1.543c1.373,0.41,2.388,1.283,2.757,2.648
			c3.84,14.262,11.004,19.547,25.035,18.379c3.463,0.93,4.361,3.878,5.352,6.756
			C2108.994,216.177,2098.703,219.453,2099.415,227.512z"/>
		<path fill-rule="evenodd" clip-rule="evenodd" fill="#2F2F2F" d="M2001.517,533.41c-0.56,0.852-1.166,1.677-1.672,2.559
			c-2.803,4.864-6.926,10.089-12.164,9.322c-5.311-0.777-3.608-7.879-4.97-12.218c-0.405-1.286-1.045-2.495-1.577-3.741
			c-4.045,0.815-8.29,1.981-8.073-4.63c6.16-3.387,6.63-10.558,10.304-15.617c2.728-3.757,4.646-9.035,9.895-8.844
			c5.056,0.184,6.334,5.556,8.032,9.479c0.971,2.246,1.438,4.506,4.239,5.046c2.887,0.458,3.963,2.77,5.125,4.996
			c1.48,2.411,1.62,4.739-0.432,6.927c-0.162,0.317-0.34,0.622-0.541,0.917C2007.741,530.636,2005.682,533.505,2001.517,533.41z"/>
		<path fill-rule="evenodd" clip-rule="evenodd" fill="#2B2B2B" d="M1970.922,390.668c0.283,3.069,0.893,6.199,4.044,7.451
			c5.186,2.062,3.561,5.391,2.099,8.841c-2.667,5.808-7.811,5.381-11.773,3.066c-6.526-3.812-12.539-3.438-18.947-0.593
			c-6.33-2.353-12.58-4.969-16.775-10.55c-2.79-3.708-4.034-6.435,2.809-8.214c9.355-2.432,18.707-4.512,28.244-5.908
			c1.122-1.151,2.04-2.811,3.402-3.353c3.852-1.532,7.218,0.185,9.878,2.831C1978.423,388.747,1967.508,386.448,1970.922,390.668z"
			/>
		<path fill-rule="evenodd" clip-rule="evenodd" fill="#212121" d="M1958.698,594.6c3.299-8.193,10.318-6.479,15.188-3.789
			c7.678,4.24,7.921-0.823,8.742-5.418c0.518-2.902-0.097-5.999-0.125-9.01c-0.069-6.889,3.396-10.026,10.146-8.786
			c5.241,0.963,10.632,1.74,15.187,4.932c-3.782,2.611-9.199,2.073-12.134,6.321c-1.261,1.823-4.124,3.209-2.534,5.951
			c5.805,10.011-0.263,16.994-5.888,24.144c-5.679-4.698-10.9-8.362-19.404-4.805C1959.931,607.463,1960.188,599.405,1958.698,594.6
			z"/>
		<path fill-rule="evenodd" clip-rule="evenodd" fill="#262626" d="M2044.36,580.3c2.037-0.677,4.074-1.354,6.115-2.032
			c2.846,1.661,6.52,2.597,6.968,6.619c1.222,10.981,5.997,18.896,17.443,21.795c1.633,0.414,2.775,2.768,4.146,4.224
			c2.576,3.497,1.471,6.074-1.9,8.28c-3.53,2.309-7.684,4.316-11.102,1.432c-8.423-7.109-14.335-3.891-19.776,3.591
			c-3.922-4.368-11.664-2.804-14.286-9.191c-1.176-6.294,1.111-11.414,5.482-15.749c4.172-4.14,6.416-9.095,6.719-14.95
			c0.127-0.586,0.166-1.177,0.115-1.773C2042.947,581.749,2042.972,581.001,2044.36,580.3z"/>
		<path fill-rule="evenodd" clip-rule="evenodd" fill="#333333" d="M2144.602,300.906c3.589,5.432-1.007,14.049,7.64,18.315
			c-2.82-12.684,9.785-10.651,14.472-16.258c0.573,0.35,1.392,0.56,1.682,1.074c2.296,4.042,10.391-1.899,9.388,3.618
			c-1.038,5.723,1.78,14.761-8.154,17.005c-1.918,0.433-3.325,3.128-4.97,4.778c-1.007,0.659-1.938,0.568-2.797-0.277
			c-3.892-2.361-7.783-4.724-12.695-7.701c-2.126,14.778-8.009,28.022-8.3,42.492c-2.996-5.117-5.896,0.087-9.537,0.602
			c1.092-4.806,2.045-8.98,2.995-13.157c1.752-13.184,3.71-26.342,5.089-39.576C2139.85,307.64,2139.13,302.758,2144.602,300.906z"
			/>
		<path fill-rule="evenodd" clip-rule="evenodd" fill="#242424" d="M1946.344,409.434c1.592-9.08,5.687-11.604,13.649-7.768
			c5.482,2.64,10.572,6.104,17.071,5.294c2.841,1.787,5.637,3.575,9.131,3.99c2.17,0.259,5.457-0.825,6.122,2.019
			c0.729,3.113-2.417,4.719-4.719,5.722c-10.99,4.781-22.075,11.079-33.415,0.677
			C1951.569,416.056,1948.957,412.745,1946.344,409.434z"/>
		<path fill-rule="evenodd" clip-rule="evenodd" fill="#303030" d="M1894.053,508.743c-5.264-0.173-4.665,3.971-4.978,7.107
			c-0.882,8.891-1.523,17.805-2.307,27.282c-5.579-2.251-6.162-7.579-9.69-9.867c-1.792-1.159-2.265-6.255-7.401-1.738
			c-2.857,2.512-2.041-6.002-4.752-8.455c6.912-3.432,8.317-11.272,13.121-16.403c2.652-2.837,3.603-8.128,8.539-7.649
			C1891.905,499.534,1892.268,504.921,1894.053,508.743z"/>
		<path fill-rule="evenodd" clip-rule="evenodd" fill="#3A3A3A" d="M2081.072,221.375c2.555-3.77,5.882-2.746,6.536,0.559
			c1.435,7.213,6.393,7.413,11.807,7.613c3.18,2.58,8.606,3.516,6.956,9.613c-2.291,8.461-9.702,5.3-15.108,6.695
			c-8.676,3.378-16.443,9.651-26.588,8.361c-5.436-2.832-11.076-5.442-4.385-12.701c0.963-1.044,0.073-3.799,0.044-5.762
			c0.642-0.79,1.559-1.675,2.436-1.491C2073.55,236.548,2078.698,230.956,2081.072,221.375z"/>
		<path fill-rule="evenodd" clip-rule="evenodd" fill="#2A2A2A" d="M2101.452,203.036c-3.191,5.332-7.704,4.383-12.242,2.392
			c-13.193-5.787-15.4-9.727-14.45-25.241c-0.12-0.546-0.095-1.085,0.08-1.617c1.187-1.354,2.819-1.741,4.473-2.109
			c3.862-0.91,7.799-11.401,11.585,0.04c0.372,4.227,3.401,6.422,6.526,8.547C2109.305,189.977,2110.011,193.129,2101.452,203.036z"
			/>
		<path fill-rule="evenodd" clip-rule="evenodd" fill="#292929" d="M2081.072,221.375c2.504,4.842,5.07,9.488,0.942,14.961
			c-4.208,5.573-11.054,3.131-16.312,5.825c-2.458,1.257-2.948-4.619-5.369-6.407c-2.974-0.003-5.97,0.244-8.909-0.071
			c-3.895-0.417-6.311-2.003-3.197-6.219c9.688-2.245,16.497-7.891,20.25-17.145c-1.353-0.883-3.409-0.876-3.787-2.989
			c0.799-2.601-2.641-8.013,3.652-6.956c5.223,0.875,6.903,5.059,5.058,10.072C2070.55,220.195,2071.376,224.528,2081.072,221.375z"
			/>
		<path fill-rule="evenodd" clip-rule="evenodd" fill="#1F1F1F" d="M2046.254,624.208c-0.712-3.489-7.324-7.773-1.494-10.045
			c5.144-2.007,9.419-12.734,17.888-2.791c8.208,9.632,11.219,8.744,16.385-0.467c3.008,1.844,5.275,4.271,6.112,7.819
			c-6.054,3.185-12.824,4.819-17.532,10.706c-3.029,3.786-7.943,2.621-11.997,0.401
			C2052.425,628.086,2049.37,626.093,2046.254,624.208z"/>
		<path fill-rule="evenodd" clip-rule="evenodd" fill="#303030" d="M2064.675,254.216c0.25-1.32,0.077-2.992,0.829-3.896
			c2.945-3.551,21.212-6.556,25.759-4.465c7.531,5.945,4.331,10.438-1.961,14.516c1.911,4.669-1.082,6.086-4.696,7.087
			c-5.979-0.381-11.793,2.756-17.847,0.848C2062.032,264.205,2069.606,258.287,2064.675,254.216z"/>
		<path fill-rule="evenodd" clip-rule="evenodd" fill="#3D3D3D" d="M2066.759,268.306c5.573-1.302,11.15-2.603,16.723-3.904
			c5.053,8.278,12.38,15.062,15.846,24.39c2.811,7.558,9.127,9.491,16.326,9.809c4.879,0.215,9.943,0.521,11.972,5.867
			c2.011,5.298,0.025,8.607-6.051,8.659c3.854,0.101,8.48-0.833,9.148,4.792c0.368,3.127-2.047,4.799-4.9,5.622
			c-7.729,2.229-15.346,3.317-22.317-2.191c-0.186-3.151-0.371-6.301-0.566-9.557c-4.498-0.003-3.484,3.865-5.214,5.401
			c-2.561-16.34-11.478-29.982-18.409-44.534C2076.031,265.765,2069.368,273.924,2066.759,268.306z"/>
		<path fill-rule="evenodd" clip-rule="evenodd" fill="#2F2F2F" d="M2113.412,397.193c-0.594-0.815-1.188-1.63-1.785-2.439
			c-2.713-7.729,2.692-9.52,8.199-10.614c10.354-2.054,19.861-5.959,28.599-11.82c-1.238,5.213-5.389,10.633,2.532,15.508
			c-9.243,0.245-13.394,8.026-20.74,9.361c-4.164-2.28-4.23,2.001-5.914,3.692c-3.079-0.19-5.936-1.056-8.491-2.823
			C2115.065,397.621,2114.268,397.331,2113.412,397.193z"/>
		<path fill-rule="evenodd" clip-rule="evenodd" fill="#2A2A2A" d="M2025.822,496.644c1.455-2.278,3.515-5.228,1.812-7.356
			c-6.817-8.53-0.328-13.576,4.369-19.22c0.465,0.214,0.931,0.427,1.388,0.635c4.11,6.106,11.85,8.832,14.946,15.832
			c1.453,3.278,3.341,6.51,3.052,10.353c-3.393,10.975-6.435,11.972-21.142,6.937
			C2027.233,502.382,2026.136,499.755,2025.822,496.644z"/>
		<path fill-rule="evenodd" clip-rule="evenodd" fill="#232323" d="M2197.673,341.872c-4.501,1.162-9.02,3.531-13.305-0.652
			c-3.454-3.373-9.853-6.195-4.645-12.053c4.263-4.791,9.571-10.762,16.326-2.066c2.681,3.449,6.46,6.069,7.428,10.692
			C2202.212,340.104,2200.555,341.86,2197.673,341.872z"/>
		<path fill-rule="evenodd" clip-rule="evenodd" fill="#232323" d="M1973.061,524.702c2.688,1.547,5.382,3.089,8.073,4.63
			c1.518,7.873-5.785,15.163-0.558,23.904c1.864,3.115-4.498,2.746-7.593,2.604h-0.006c-2.254-3.781-6.754-6.809-4.087-12.232
			c-0.444-1.587-1.64-3.432-1.204-4.723c2.369-7.016,0.814-10.011-7.131-8.54c-2.3,0.428-2.168-1.851-1.242-3.547
			C1963.872,525.957,1967.94,521.888,1973.061,524.702z"/>
		<path fill-rule="evenodd" clip-rule="evenodd" fill="#2F2F2F" d="M2097.372,402.89c-4.934,1.056-9.693,5.304-13.567-3.163
			c-2.145-4.68-9.106-6.329-15.222-5.171c8.387-1.501,7.695-9.233,10.159-14.801c1.082,3.306,3.667,3.161,6.359,2.773
			c4.185,0.056,8.793-0.461,8.221,6.056C2097.938,392.428,2099.44,397.155,2097.372,402.89z"/>
		<path fill-rule="evenodd" clip-rule="evenodd" fill="#2A2A2A" d="M2158.558,513.025c3.682-11.665-7.451-10.429-12.565-13.152
			c-6.41-3.41-12.317-0.757-13.905,7.87c-3.786-3.23-6.986-5.96-10.185-8.69c11.607-3.331,23.63-4.186,35.498-5.93
			c2.95-0.435,6.356-1.647,8.46,1.181c2.111,2.842,0.092,5.755-1.385,8.391C2162.535,506.155,2160.534,509.581,2158.558,513.025z"/>
		<path fill-rule="evenodd" clip-rule="evenodd" fill="#3E3E3E" d="M2101.452,203.036c-2.095-5.827,5.463-13.818-4.028-17.987
			c4.45-0.718,8.782,1.857,13.499-0.342c3.512-1.636,7.832,0.755,6.488,4.67c-2.534,7.394,0.651,15.44-3.421,22.405
			c-3.062-0.09-6.173-0.045-8.46-2.636C2104.172,207.108,2102.813,205.072,2101.452,203.036z"/>
		<path fill-rule="evenodd" clip-rule="evenodd" fill="#262626" d="M2161.861,329.162c0.933,0.093,1.864,0.186,2.797,0.279
			c8.904,7.487,19.317,14.232,14.134,28.666c-0.655-0.614-1.307-1.229-1.962-1.844c-5.061-4.239-10.644-7.744-16.622-10.425
			c-4.096-1.835-6.128-3.864-3.721-8.277C2156.28,333.482,2159.547,331.627,2161.861,329.162z"/>
		<path fill-rule="evenodd" clip-rule="evenodd" fill="#2C2C2C" d="M2067.158,417.191c1.855,3.536,3.713,7.071,5.57,10.604
			c-0.372,9.494-1.688,18.854-3.436,28.19c-1.084,5.801-3.356,9.542-9.935,8.773c-2.099-0.494-3.52-1.831-4.55-3.659
			c-0.195-0.456-0.393-0.915-0.591-1.372C2057.786,445.324,2065.44,432.16,2067.158,417.191z"/>
		<path fill-rule="evenodd" clip-rule="evenodd" fill="#373737" d="M1917.923,531.366c-1.545-0.758-3.088-1.516-4.632-2.275
			c1.219-3.999-6.308-6.926-2.07-10.585c3.671-3.167,9.026-2.1,13.292-0.309c3.387,1.423,7.513-0.402,10.305,2.752
			c-1.771,1.207-8.888-1.861-3.869,4.743c1.349,1.775,4.6,2.917,3.268,5.532c-1.49,2.921-4.84,1.353-7.35,1.289
			C1923.88,532.439,1920.904,531.775,1917.923,531.366z"/>
		<path fill-rule="evenodd" clip-rule="evenodd" fill="#3C3C3C" d="M2090.897,176.501c-9.055-4.053-5.896,6.306-9.813,8.315
			c-5.327-4.205-4.264-10.178-3.781-15.626c0.575-6.55,2.323-12.976,3.387-19.49c1.622-0.817,3.219-0.859,4.777,0.166
			C2094.195,157.333,2090.827,167.269,2090.897,176.501z"/>
		<path fill-rule="evenodd" clip-rule="evenodd" fill="#292929" d="M1991.325,421.246c2.072-3.639,6.077-5.262,8.708-8.185
			c5.012-5.562,9.551-6.023,14.47-0.226c5,1.789,8.283,5.222,9.845,10.297C2013.364,422.083,2002.455,419.727,1991.325,421.246z"/>
		<path fill-rule="evenodd" clip-rule="evenodd" fill="#2A2A2A" d="M2105.53,209.146c2.226-1.678,4.456-3.354,6.697-5.042
			c2.214,2.529,1.209,5.264,1.763,7.678c-0.233,4.05-1.372,7.361-6.236,7.624c-3.651,1.808-4.239,6.761-8.339,8.106
			c-0.526-1.542-0.819-3.22-1.625-4.601c-3.201-5.504-8.15-11.505,4.439-10.381C2103.22,212.619,2104.425,210.329,2105.53,209.146z"
			/>
		<path fill-rule="evenodd" clip-rule="evenodd" fill="#4D4D4D" d="M2085.467,149.866c-1.472,0.052-2.941,0.105-4.413,0.158
			c-1.239,5.042-1.354,10.254-2.271,15.319c-0.446,2.481,0.99,6.492-3.578,7.092c-0.067-5.43-0.49-10.883-0.134-16.285
			c0.802-12.121-3.466-22.196-11.554-30.91c-1.859-2-4.094-3.844-1.704-7.393c10.41,6.204,13.225,17.78,19.046,27.052
			C2082.204,147.043,2084.066,148.11,2085.467,149.866z"/>
		<path fill-rule="evenodd" clip-rule="evenodd" fill="#313131" d="M1999.487,366.185c-1.987,2.698-3.694,5.681-6.041,8.021
			c-2.493,2.485-6.201,4.009-9.078,1.375c-3.834-3.509-7.212-7.688-9.971-12.09c-0.856-1.365,2.109-2.141,3.73-1.569
			c3.846,1.358,7.715,2.34,11.828,1.976c1.62,1.07,3.062,2.573,5.279,2.224C1996.672,364.995,1998.089,365,1999.487,366.185z"/>
		<path fill-rule="evenodd" clip-rule="evenodd" fill="#232323" d="M2025.822,496.644c2.141,0.781,3.571,2.261,4.339,4.399
			c0.635,1.174,1.268,2.428,0.921,3.76c-1.877,7.23-15.337,16.615-23.395,16.377c-3.373-1.246-3.092-3.721-2.157-6.415
			C2011.134,507.423,2019.019,502.641,2025.822,496.644z"/>
		<path fill-rule="evenodd" clip-rule="evenodd" fill="#1F1F1F" d="M2044.169,584.318c3.275,5.88-0.592,10.125-3.135,14.851
			c-2.162,4.026-6.508,6.927-3.151,13.437c2.25,4.362-3.234,2.869-5.915,2.412c-5.153-5.358-5.271-10.572,1.1-14.834
			C2038.927,596.265,2039.835,589.147,2044.169,584.318z"/>
		<path fill-rule="evenodd" clip-rule="evenodd" fill="#303030" d="M2075.204,172.436c4.206-6.881-1.544-16.361,5.85-22.411
			c2.682,4.981,1.182,9.936-0.151,14.865c-1.806,6.668-2.882,13.31,0.182,19.926c-0.511,1.951-0.722,5.453-3.489,1.844
			c-1.646-2.141-1.885-5.357-2.755-8.089C2074.961,176.525,2075.082,174.48,2075.204,172.436z"/>
		<path fill-rule="evenodd" clip-rule="evenodd" fill="#363636" d="M2068.478,212.319c-1.597,16.048-3.089,17.311-20.25,17.145
			C2055.114,223.91,2060.742,216.869,2068.478,212.319z"/>
		<path fill-rule="evenodd" clip-rule="evenodd" fill="#262626" d="M2119.823,590.208c5.707-5.496-0.284-7.457-5.157-10.666
			c9.232-1.443,16.425-2.808,23.384,1.218C2132.042,584.042,2127.766,590.663,2119.823,590.208z"/>
		<path fill-rule="evenodd" clip-rule="evenodd" fill="#373737" d="M1999.487,366.185c-1.415-0.021-2.835-0.044-4.252-0.064
			c3.464-3.085,7.078-6.016,10.35-9.29c3.371-3.377,6.092-4.324,8.254,0.984C2011.184,364.251,2008.96,371.433,1999.487,366.185z"/>
		<path fill-rule="evenodd" clip-rule="evenodd" fill="#353535" d="M2168.761,298.878c-2.933-1.954-5.617-1.626-8.336,0.593
			c-6.837,5.584-10.255,2.375-12.003-4.836c8.422-3.412,15.937-1.91,22.615,4.153
			C2170.28,298.819,2169.519,298.848,2168.761,298.878z"/>
		<path fill-rule="evenodd" clip-rule="evenodd" fill="#2F2F2F" d="M2168.776,243.624c-0.323-6.363-3.887-1.93-6.144-1.843
			c1.08-3.762-3.691-9.464,2.181-11.208c4.893-1.452,8.6,2.199,10.104,7.27C2173.072,239.988,2172.814,243.815,2168.776,243.624z"/>
		<path fill-rule="evenodd" clip-rule="evenodd" fill="#343434" d="M2068.703,394.418c-5.123,4.274-2.982,9.505-1.923,14.593
			c-0.039,2.123-0.076,4.247-0.115,6.373c-2.668-1.044-1.121-4.369-3.106-5.767c-10.37-7.289-10.376-7.293,1.517-13.629
			C2066.235,395.372,2067.489,394.937,2068.703,394.418z"/>
		<path fill-rule="evenodd" clip-rule="evenodd" fill="#323232" d="M2156.487,337.561c0.463,2.785,1.516,5.201,4.567,5.872
			c7.439,1.636,11.847,6.926,15.775,12.83c-6.964-2.105-13.765-4.216-19.286-9.606
			C2154.245,343.433,2153.323,341.02,2156.487,337.561z"/>
		<path fill-rule="evenodd" clip-rule="evenodd" fill="#2C2C2C" d="M2032.003,470.068c3.65-4.2,9.145-2.144,13.667-3.663
			c4.155-1.396,6.62-3.25,8.548-6.678l0.652,0.508c3.433,6.518,1.334,11.795-4.173,15.728c-8.07,5.769-13.093-0.144-18.163-5.321
			L2032.003,470.068z"/>
		<path fill-rule="evenodd" clip-rule="evenodd" fill="#242424" d="M2093.394,600.914c-3.657-3.099-13.15-2.449-9.981-9.379
			c1.872-4.095,8.472,1.553,12.848,3.15c1.222,0.445,2.269,1.373,3.396,2.077C2098.311,599.265,2095.785,599.986,2093.394,600.914z"
			/>
		<path fill-rule="evenodd" clip-rule="evenodd" fill="#282828" d="M2044.36,580.3c-0.025,0.748-0.052,1.495-0.076,2.244
			c-6.941,0.121-15.42,4.896-18.651-6.178C2032.142,576.417,2038.497,577.18,2044.36,580.3z"/>
		<path fill-rule="evenodd" clip-rule="evenodd" fill="#272727" d="M2115.464,484.526c-1.908,3.483-2.709,8.095-8.135,8.005
			c-1.831-6.374-2.024-12.28,4.624-16.238c0.683-3.004,1.361-6.005,2.044-9.006C2117.255,472.797,2115.517,478.733,2115.464,484.526
			z"/>
		<path fill-rule="evenodd" clip-rule="evenodd" fill="#1B1B1B" d="M1778.447,610.211c6.541,5.158,13.479,9.766,20.871,13.384
			c0.651-0.919,1.56-1.603,3.008-1.79c3.197,1.31,6.418,2.634,6.214,5.68c0.108,0.039,0.213,0.084,0.319,0.123
			c15.725,3.793,31.069,8.603,46.817,11.207c0.234-1.473,0.477-2.944,0.766-4.397c-0.841-1.985-1.578-3.969-1.26-6.165
			c6.516-10.422,11.606-21.362,11.729-34.022c0.281-0.884,0.563-1.771,0.847-2.654c-12.035,0.922-19.126-10.304-31.626-11.712
			c-11.805-1.334-13.971,0.414-15.762,10.224c-1.303,7.125-5.563,7.839-10.554,2.488c-3.628-0.592-7.274-1.772-10.876-1.65
			c-6.219,0.21-15.101-0.782-16.936,5.602c-1.083,3.764-2.803,7.156-4.598,10.481
			C1777.726,608.086,1778.067,609.158,1778.447,610.211z"/>
		<path fill-rule="evenodd" clip-rule="evenodd" fill="#212121" d="M1875.136,640.673c7.88-1.114,15.744-2.348,23.592-3.697
			c-0.369-4.673-5.15-7.601-5.376-12.03c-9.331-0.332-18.771,0.144-27.61-3.708c-6.77,1.434-10.217,6.453-13.088,12.099
			c-0.308,1.593-0.804,3.15-1.374,4.697C1859.117,639.528,1867.037,640.54,1875.136,640.673z"/>
		<path fill-rule="evenodd" clip-rule="evenodd" fill="#2D2D2D" d="M1808.547,627.489c-0.245-2.287-1.243-5.545-2.762-10.469
			c-2.235-2.992-4.483-6.624-8.898-4.575c-3.286,1.522-3.259,4.957-3.312,8.104C1798.359,623.305,1803.342,625.667,1808.547,627.489
			z"/>
		<path fill-rule="evenodd" clip-rule="evenodd" fill="#232323" d="M1808.859,627.608c2.179,0.523,4.348,1.073,6.513,1.63
			c0.8-3.001-3.548-5.602-6.312-8.385c-1.184-1.188-2.187-2.55-3.274-3.833c-0.277,3.039-0.32,6.155-0.903,9.089
			C1806.193,626.642,1807.52,627.144,1808.859,627.608z"/>
		<path fill-rule="evenodd" clip-rule="evenodd" fill="#212121" d="M1919.74,618.983c0.686-0.664,1.371-1.33,2.056-1.994
			c5.813-9.348,18.333-9.665,24.666-18.313c1.33,2.317,3.045,4.501,3.912,6.981c1.758,5.025,1.075,10.34-1.791,14.498
			c-2.926,4.241-7.933,3.393-12.017,1.428C1931.131,618.962,1925.46,619.097,1919.74,618.983z"/>
		<path fill-rule="evenodd" clip-rule="evenodd" fill="#1C1C1C" d="M1925.835,579.894c0.038-1.349-0.162-2.756,0.151-4.037
			c1.978-8.052,0.378-12.197-8.348-7.091c-6.022,3.521-9.747,2.354-12.056-4.071c-2.161-2.743-6.521-4.36-4.982-9.026
			c1.488-4.525,5.441-5.56,9.553-6.146c4.631-0.658,9.271-1.246,13.906-1.864c1.785,0.88,4.703,1.358,5.182,2.703
			c4.756,13.373,15.463,10.294,25.363,9.583c5.027,3.614,9.861,6.681-0.877,9.411
			C1944.112,571.802,1933.999,573.417,1925.835,579.894z"/>
		<path fill-rule="evenodd" clip-rule="evenodd" fill="#1E1E1E" d="M2001.517,533.41c1.938-3.036,4.307-5.47,8.164-5.808
			c2.453,0.909,4.904,1.814,7.553,2.793C2012.066,532.872,2008.534,542.483,2001.517,533.41z"/>
		<path fill-rule="evenodd" clip-rule="evenodd" fill="#272727" d="M2101.468,578.242c-4.245-5.994-6.48-13.167-9.152-19.711
			c-4.744-11.63,6.884-17.392,12.819-24.972c0.743-0.95,2.123-1.402,4.732-3.049c-7.479-1.374-9.461-6.574-12.384-11.187
			c-3.784-5.985-0.082-9.969,2.604-14.55c1.989-3.393,1.585-7.982,5.174-10.635c5.078,3.675,10.643,6.828,11.677,14.008
			c0.661,4.556,1.417,8.781-4.127,10.921c-6.115,2.36-5.098,6.536-0.66,8.578c6.581,3.024,6.879,8.254,7.631,13.973
			c0.698,5.267,0.961,11.152,8.17,12.19c0.004,0.667-0.004,1.332,0.015,1.999c0.472,15.972,0.468,16.14-15.377,15.99
			C2107.296,571.75,2103.502,573.197,2101.468,578.242z"/>
		<path fill-rule="evenodd" clip-rule="evenodd" fill="#323232" d="M1889.345,553.824c-0.677,2.033-1.352,4.066-2.027,6.099
			c-3.457,8.921-7.706,13.504-18.604,8.188c-5.462-2.665-10.931-6.135-17.204-7.756c-4.089-1.057-4.172-3.876,0.161-6.987
			c10.57-7.587,20.786-10.502,32.019-1.627C1885.19,552.923,1887.44,553.153,1889.345,553.824z"/>
		<path fill-rule="evenodd" clip-rule="evenodd" fill="#1E1E1E" d="M2093.322,388.584c-2.729-2.032-6.819-2.22-8.221-6.056
			c-1.209-3.53-2.897-7.778,2.284-8.961c4.641-1.059,8.414,2.216,10.525,6.06C2100.415,384.184,2097.902,387.147,2093.322,388.584z"
			/>
		<path fill-rule="evenodd" clip-rule="evenodd" fill="#2F2F2F" d="M2162.633,241.782c-5.312,6.369-12.31,9.368-20.392,10.194
			C2147.902,246.306,2154.279,242.068,2162.633,241.782z"/>
		<path fill-rule="evenodd" clip-rule="evenodd" fill="#222222" d="M2058.621,461.97c-3.767,2.837-0.143,7.572,0.403,7.879
			c14.376,8.091,2.723,19.66,4.975,29.661c5.413-4.253,11.165-8.779,16.918-13.304c1.444,0.793,2.89,1.589,4.334,2.384
			c-1.051,1.291-1.837,3.062-3.188,3.802c-22.823,12.477-24.575,34.353-25.592,56.659c-0.227,4.974-1.138,9.912-1.731,14.87
			c-1.575,0.644-3.149,1.287-4.724,1.931c-5.753-6.568-2.02-13.858-1.591-20.876c0.49-6.882,0.607-13.709-4.022-19.56
			c-1.413-0.747-2.822-1.492-4.235-2.241c3.203-4.71,7.845-7.894,11.998-11.64c8.123-7.317,6.576-13.752-3.547-16.809
			c-5.813-7.729-13.514-14.199-16.086-24.088c17.35,3.565,18.5,3.029,22.335-10.407
			C2056.788,459.369,2057.991,460.048,2058.621,461.97z"/>
		<path fill-rule="evenodd" clip-rule="evenodd" fill="#292929" d="M1968.891,543.608c1.361,4.076,2.725,8.154,4.087,12.232
			C1971.047,551.953,1957.562,551.926,1968.891,543.608z"/>
		<path fill-rule="evenodd" clip-rule="evenodd" fill="#282828" d="M2121.65,408.52c-5.321,3.611-8.2,2.451-8.232-4.225
			c-0.012-2.371-0.003-4.739-0.006-7.107c0,0.005,0.398-0.516,0.398-0.516C2121.278,397.409,2120.867,403.358,2121.65,408.52z"/>
		<path fill-rule="evenodd" clip-rule="evenodd" fill="#2C2C2C" d="M1848.617,625.202c0.876,6.301,3.368,5.12,6.398,1.377
			c3.433-4.24,7.035-6.985,11.627-1.373c-5.768,0.812-8.316,7.158-13.989,8.131C1843.517,628.659,1843.517,628.659,1848.617,625.202
			z"/>
	</g>
</g>
<g id="Layer_5">
</g>
<g id="Layer_4">
</g>
</svg>
